<svg xmlns="http://www.w3.org/2000/svg" viewBox="0 0 390 158"><path d="M261.5,96.1c-5.015,0-10.265,4.938-10.265,16.692,0,8.619,4.622,14.5,11.283,14.5a9.86,9.86,0,0,0,7.366-2.979V100.885A9.84,9.84,0,0,0,261.5,96.1Z" transform="translate(0 0.006)" fill="#fcfbfb"/><polygon points="142.232 33.328 134.709 53.545 149.912 53.545 142.389 33.328 142.232 33.328" fill="#fcfbfb"/><path d="M187.04,95.949c-5.016,0-9.09,4.7-9.56,11.832l17.161-.549C194.092,100.494,191.9,95.949,187.04,95.949Z" transform="translate(0 0.006)" fill="#fcfbfb"/><path d="M0-.006v158H390v-158ZM235.011,45.715c-6.347-1.659-8.8-5.409-8.8-10.387.072-6.851,6.13-11.251,15.146-11.251,6.563,0,10.747,2.452,10.747,6.419,0,2.092-1.587,3.39-3.606,3.751-.578-4.256-3.318-7.935-7.357-7.935-4.76,0-7.43,3.752-7.43,8.512,0,6.851,3.607,9.736,10.387,10.242l.793,1.875c-8.8-.289-16.228,4.039-16.3,13.559-.073,8.656,5.481,13.272,13.127,13.272,8.294,0,15.146-5.626,15.146-13.632,0-4.183-1.659-8.872-6.2-8.872-2.885,0-4.327,2.164-4.327,4.761a7.114,7.114,0,0,0,2.235,5.482,4.478,4.478,0,0,1-2.379.577c-2.6,0-4.689-1.515-4.689-4.833,0-4.905,4.472-7.284,7.79-9.665,2.957-2.164,7.646-4.905,7.573-8.655a3.8,3.8,0,0,0-2.524-3.678,4.223,4.223,0,0,1,3.174-1.371,4.6,4.6,0,0,1,4.891,4.289q.013.2.009.4c0,3.03-1.8,4.76-4.328,6.492-1.8,1.371-4.905,2.74-7.646,4.544,7.935-.794,12.768,4.111,12.768,10.459,0,10.169-10.171,16.156-21.783,16.156-12.694,0-21.133-4.978-21.133-15.58C220.3,51.846,227.005,46.508,235.011,45.715ZM208.024,24.541a4.118,4.118,0,0,1,4.232,4c0,.076,0,.153,0,.229a4.782,4.782,0,0,1-4.7,4.781,4.076,4.076,0,0,1-4.159-3.991c0-.107,0-.214.006-.32A4.751,4.751,0,0,1,208.024,24.541Zm-9.01,48.9,1.172-.3a5.741,5.741,0,0,0,4.313-5.56V45.411a1.04,1.04,0,0,0-.481-.876l-4.692-2.986v-.7l11.441-2.821.314.236V67.629a5.741,5.741,0,0,0,4.253,5.545l1,.267V74.46h-17.32Zm-91.187,9.814H97.8v21.392h4.623c4.7,0,6.5-1.96,7.914-7.445l.7-2.585h1.176v22.017h-1.176l-.7-2.428c-1.411-5.485-3.213-7.366-7.914-7.366H97.8V123a5.742,5.742,0,0,0,4.771,5.659l3.457.592v1.332h-23.9v-1.332l3.043-.553a5.743,5.743,0,0,0,4.714-5.649V86.883a4.161,4.161,0,0,0-3.416-4.094L82.126,82V80.668h39.335l1.746,12.442-1.226.869-5.457-6.024C113.782,84.9,112.763,83.255,107.827,83.255ZM144.609,103c-2.115,0-3.84-1.645-4.232-4.153a8.949,8.949,0,0,0-6.973,5.094v19.777a5.74,5.74,0,0,0,4.291,5.555l1.115.291v1.019H121.572v-1.019l.941-.257a5.739,5.739,0,0,0,4.23-5.538v-22.24a1.038,1.038,0,0,0-.474-.872l-4.619-2.985v-.706l10.97-2.819.314.234-.158,7.679.314.236c2.508-4.86,6.661-8.072,10.265-8.072,3.527,0,5.25,2.195,5.25,4.546a3.932,3.932,0,0,1-3.622,4.219C144.859,103,144.734,103,144.609,103ZM168.4,130.583H151.081v-1.019l1.174-.3a5.742,5.742,0,0,0,4.311-5.56v-22.17a1.04,1.04,0,0,0-.481-.876l-4.69-2.986v-.706l11.44-2.819.313.234v29.37A5.741,5.741,0,0,0,167.4,129.3l1,.268ZM155.469,85.364a4.751,4.751,0,0,1,4.623-4.7,4.119,4.119,0,0,1,4.231,4q0,.114,0,.228a4.781,4.781,0,0,1-4.7,4.779,4.076,4.076,0,0,1-4.16-3.99Q155.46,85.525,155.469,85.364Zm-6.5-10.9V73.128l2.843-.517a4.184,4.184,0,0,0,3.368-4.866,4.132,4.132,0,0,0-.194-.709l-4.059-10.912H133.77l-4.127,11.062a4.184,4.184,0,0,0,2.459,5.382c.046.018.094.034.141.05l1.53.51V74.46H119.587V73.128l1.64-.623a9.387,9.387,0,0,0,5.427-5.41l16.518-43.018h3.683l16.42,42.861a9.385,9.385,0,0,0,6.2,5.672,3.561,3.561,0,0,0,3.442-.833,5.737,5.737,0,0,0,1.756-4.131V45.406a1.039,1.039,0,0,0-.475-.872l-4.617-2.985v-.7l10.97-2.821.313.236-.157,7.679.314.234c2.507-4.858,6.66-8.07,10.265-8.07,3.526,0,5.249,2.193,5.249,4.544a3.932,3.932,0,0,1-3.622,4.221,3.671,3.671,0,0,1-.378.011c-2.116,0-3.839-1.647-4.231-4.153a8.942,8.942,0,0,0-6.974,5.093V67.6a5.742,5.742,0,0,0,4.294,5.556l1.112.29V74.46H148.971Zm40.811,52.519c3.84,0,7.052-.862,11.519-3.134l.47.938c-4.858,4.624-9.246,7.053-14.34,7.053-10.03,0-17.16-7.365-17.16-18.257,0-11.049,7.6-19.356,17.317-19.356s14.575,6.5,14.575,15.2H177.4c0,10.42,3.528,17.552,12.382,17.552Zm53.92,3.6H227.013v-1.019l.772-.221a5.741,5.741,0,0,0,4.164-5.52V108.485c0-5.955-2.116-8.776-7.366-8.776a15.865,15.865,0,0,0-8.776,2.429v21.705a5.744,5.744,0,0,0,4.14,5.513l.718.208v1.019h-16.69v-1.019l.942-.257a5.74,5.74,0,0,0,4.23-5.538v-22.24a1.039,1.039,0,0,0-.475-.872l-4.619-2.985v-.706l10.97-2.819.314.234-.157,6.268.314.157q7.052-6.581,13.4-6.582c7.052,0,9.638,5.329,9.638,10.893v18.652a5.739,5.739,0,0,0,4.23,5.538l.941.257Zm37.937-1.568-10.578,2.9-.392-.157-.627-5.171-.313-.157-1.959,1.723a12.85,12.85,0,0,1-9.246,3.684c-7.209,0-14.262-6.113-14.262-17.709,0-10.187,6.582-19.9,19.668-19.9a27.073,27.073,0,0,1,5.956.548V80.321a1.038,1.038,0,0,0-.512-.895l-5.208-3.066v-.785l11.988-3.056.314.157v49.61a5.741,5.741,0,0,0,3.636,5.341l1.535.605Zm12.68,2.743a25.284,25.284,0,0,1-10.735-2.115v-9.874l1.645-.156c2.586,7.208,6.191,10.185,10.422,10.185,4.153,0,6.817-2.428,6.817-6.581,0-4.232-4.153-5.876-8.54-7.679-4.78-2.038-9.8-4.31-9.8-10.421,0-6.191,4.779-10.97,12.3-10.97a31.752,31.752,0,0,1,9.246,1.487l.235,8.856-1.411.391c-3.055-6.268-6.033-8.776-9.481-8.776-3.526,0-5.876,2.038-5.876,5.329,0,4.23,4.23,5.877,8.7,7.758,4.858,2.036,10.029,4.308,10.029,10.655.006,7.287-5.868,11.911-13.549,11.911Z" transform="translate(0 0.006)" fill="#fcfbfb"/></svg>