<svg xmlns="http://www.w3.org/2000/svg" viewBox="0 0 390 158"><polygon points="145.363 33.081 145.206 33.081 137.711 53.226 152.859 53.226 145.363 33.081" fill="#FCFBFB"/><path d="M262.38,95.64c-5,0-10.229,4.921-10.229,16.632,0,8.589,4.606,14.444,11.243,14.444a9.823,9.823,0,0,0,7.34-2.968V100.4A9.807,9.807,0,0,0,262.38,95.64Z" fill="#FCFBFB"/><path d="M187.068,95.485c-5,0-9.057,4.684-9.526,11.79l17.1-.547C194.1,100.014,191.909,95.485,187.068,95.485Z" fill="#FCFBFB"/><path d="M0,0V158H390V0ZM237.655,45.43c-6.325-1.652-8.768-5.39-8.768-10.349.072-6.828,6.109-11.212,15.092-11.212,6.54,0,10.709,2.444,10.709,6.4,0,2.085-1.581,3.378-3.594,3.738-.575-4.24-3.305-7.906-7.33-7.906-4.743,0-7.4,3.738-7.4,8.481,0,6.827,3.593,9.7,10.35,10.2l.79,1.869c-8.768-.288-16.171,4.025-16.242,13.511-.073,8.625,5.461,13.224,13.08,13.224,8.265,0,15.092-5.605,15.092-13.583,0-4.168-1.653-8.84-6.181-8.84-2.875,0-4.312,2.156-4.312,4.744a7.088,7.088,0,0,0,2.228,5.462,4.468,4.468,0,0,1-2.371.575c-2.588,0-4.672-1.51-4.672-4.816,0-4.887,4.456-7.258,7.762-9.63,2.947-2.157,7.618-4.888,7.546-8.625a3.791,3.791,0,0,0-2.515-3.665,4.2,4.2,0,0,1,3.162-1.366,4.588,4.588,0,0,1,4.887,4.672c0,3.019-1.8,4.743-4.312,6.468-1.8,1.367-4.888,2.731-7.619,4.528,7.907-.79,12.722,4.1,12.722,10.422,0,10.133-10.134,16.1-21.7,16.1-12.649,0-21.058-4.96-21.058-15.525C222.993,51.539,229.677,46.221,237.655,45.43Zm-26.891-21.1a4.1,4.1,0,0,1,4.217,4.215A4.765,4.765,0,0,1,210.3,33.31a4.062,4.062,0,0,1-4.139-4.3A4.734,4.734,0,0,1,210.764,24.332Zm-8.978,48.726,1.168-.3a5.721,5.721,0,0,0,4.3-5.541V45.127a1.035,1.035,0,0,0-.479-.873L202.1,41.28v-.7l11.4-2.812.313.236V67.266a5.721,5.721,0,0,0,4.238,5.525l.993.267v1.015H201.786Zm-79.144-.312,1.634-.621a9.355,9.355,0,0,0,5.408-5.391L146.143,23.87h3.67l16.361,42.707a9.353,9.353,0,0,0,6.18,5.652,3.544,3.544,0,0,0,3.43-.829,5.713,5.713,0,0,0,1.75-4.117V45.123a1.033,1.033,0,0,0-.473-.869l-4.6-2.974v-.7l10.93-2.811L183.7,38l-.156,7.651.313.234c2.5-4.841,6.636-8.042,10.228-8.042,3.514,0,5.231,2.186,5.231,4.529a3.918,3.918,0,0,1-3.982,4.216c-2.108,0-3.826-1.64-4.216-4.138a8.914,8.914,0,0,0-6.949,5.075V67.233a5.721,5.721,0,0,0,4.278,5.536l1.109.289v1.015H151.921V72.746l2.833-.515a4.17,4.17,0,0,0,3.163-5.556L153.873,55.8h-17.1l-4.112,11.023a4.17,4.17,0,0,0,2.588,5.413l1.524.508v1.327H122.642ZM163.617,84.47a4.765,4.765,0,0,1-4.684,4.762,4.062,4.062,0,0,1-4.139-4.294,4.734,4.734,0,0,1,4.607-4.685A4.1,4.1,0,0,1,163.617,84.47Zm-56.594-1.633H97.029v21.315h4.606c4.685,0,6.481-1.952,7.886-7.418l.7-2.576H111.4V116.1h-1.171l-.7-2.419c-1.405-5.466-3.2-7.34-7.886-7.34H97.029v16.1a5.72,5.72,0,0,0,4.753,5.639l3.445.59V130H81.413v-1.327l3.033-.551a5.721,5.721,0,0,0,4.7-5.629V86.451a4.145,4.145,0,0,0-3.4-4.078l-4.326-.787V80.259h39.2l1.74,12.4-1.221.867-5.438-6C112.957,84.476,111.941,82.837,107.023,82.837Zm36.95,19.674c-2.108,0-3.827-1.638-4.217-4.138a8.921,8.921,0,0,0-6.948,5.076v19.707a5.72,5.72,0,0,0,4.276,5.535l1.111.29V130H121.018v-1.015l.938-.256a5.721,5.721,0,0,0,4.215-5.519v-22.16a1.033,1.033,0,0,0-.473-.869L121.1,97.2v-.7l10.932-2.809.312.233-.157,7.652.313.235c2.5-4.843,6.637-8.044,10.228-8.044,3.515,0,5.232,2.188,5.232,4.531A3.918,3.918,0,0,1,143.973,102.511ZM167.677,130H150.422v-1.015l1.169-.3a5.72,5.72,0,0,0,4.3-5.541V101.05a1.034,1.034,0,0,0-.479-.872L150.734,97.2v-.7l11.4-2.809.312.233v29.266a5.719,5.719,0,0,0,4.236,5.524l1,.268Zm22.124-3.591c3.826,0,7.027-.859,11.478-3.123l.468.935c-4.841,4.607-9.213,7.028-14.289,7.028-9.994,0-17.1-7.34-17.1-18.192,0-11.01,7.573-19.287,17.256-19.287s14.523,6.481,14.523,15.148H177.464C177.464,119.3,180.978,126.405,189.8,126.405ZM244.086,130h-16.63v-1.015l.77-.22a5.722,5.722,0,0,0,4.149-5.5V107.977c0-5.934-2.109-8.745-7.34-8.745a15.8,15.8,0,0,0-8.744,2.421V123.28a5.721,5.721,0,0,0,4.125,5.493l.715.208V130H204.5v-1.015l.937-.256a5.721,5.721,0,0,0,4.216-5.519v-22.16a1.035,1.035,0,0,0-.474-.869l-4.6-2.974v-.7l10.931-2.809.313.233-.157,6.246.313.157q7.026-6.558,13.351-6.56c7.027,0,9.6,5.311,9.6,10.855v18.585a5.72,5.72,0,0,0,4.215,5.519l.938.256Zm38.359-1.562-10.54,2.89-.391-.157-.624-5.152-.313-.157-1.952,1.717a12.8,12.8,0,0,1-9.213,3.67c-7.184,0-14.211-6.091-14.211-17.645,0-10.151,6.559-19.834,19.6-19.834a26.979,26.979,0,0,1,5.935.547V81.028a1.035,1.035,0,0,0-.51-.892l-5.19-3.056V76.3l11.945-3.044.313.156v48.318a5.722,5.722,0,0,0,3.623,5.323l1.53.6Zm12.635,2.733a25.183,25.183,0,0,1-10.7-2.108V119.22l1.639-.155c2.576,7.183,6.169,10.149,10.385,10.149,4.138,0,6.793-2.419,6.793-6.557,0-4.217-4.139-5.856-8.51-7.652-4.763-2.031-9.76-4.3-9.76-10.384,0-6.169,4.762-10.931,12.258-10.931a31.629,31.629,0,0,1,9.213,1.482l.234,8.824-1.4.39c-3.045-6.246-6.012-8.746-9.448-8.746-3.514,0-5.855,2.031-5.855,5.311,0,4.215,4.215,5.856,8.666,7.73,4.841,2.029,9.994,4.293,9.994,10.618C308.587,126.56,302.731,131.167,295.08,131.167Z" fill="#FCFBFB"/></svg>