<svg xmlns="http://www.w3.org/2000/svg" viewBox="0 0 390 147.994"><path d="M261.5,91.1c-5.015,0-10.265,4.938-10.265,16.692,0,8.619,4.622,14.5,11.283,14.5a9.857,9.857,0,0,0,7.366-2.979V95.885A9.84,9.84,0,0,0,261.5,91.1Z" fill="#fcfbfb"/><polygon points="142.232 28.322 134.709 48.539 149.912 48.539 142.389 28.322 142.232 28.322" fill="#fcfbfb"/><path d="M187.04,90.949c-5.016,0-9.09,4.7-9.56,11.832l17.161-.549C194.092,95.494,191.9,90.949,187.04,90.949Z" fill="#fcfbfb"/><path d="M0,0V147.994H390V0ZM235.011,40.715c-6.347-1.659-8.8-5.409-8.8-10.387.072-6.851,6.13-11.251,15.146-11.251,6.563,0,10.747,2.452,10.747,6.419,0,2.092-1.587,3.39-3.606,3.751-.578-4.256-3.318-7.935-7.357-7.935-4.76,0-7.43,3.752-7.43,8.512,0,6.851,3.607,9.736,10.387,10.242l.793,1.875c-8.8-.289-16.228,4.039-16.3,13.559-.073,8.656,5.481,13.272,13.127,13.272,8.294,0,15.146-5.626,15.146-13.632,0-4.183-1.659-8.872-6.2-8.872-2.885,0-4.327,2.164-4.327,4.761a7.112,7.112,0,0,0,2.235,5.482,4.477,4.477,0,0,1-2.379.577c-2.6,0-4.689-1.515-4.689-4.833,0-4.905,4.472-7.284,7.79-9.665,2.957-2.164,7.646-4.905,7.573-8.655a3.8,3.8,0,0,0-2.524-3.678,4.219,4.219,0,0,1,3.174-1.371,4.6,4.6,0,0,1,4.9,4.688c0,3.03-1.8,4.76-4.328,6.492-1.8,1.371-4.905,2.74-7.646,4.544,7.935-.794,12.768,4.111,12.768,10.459,0,10.169-10.171,16.156-21.783,16.156-12.694,0-21.133-4.978-21.133-15.58C220.3,46.846,227.005,41.508,235.011,40.715ZM208.024,19.541a4.118,4.118,0,0,1,4.232,4.23,4.782,4.782,0,0,1-4.7,4.781,4.076,4.076,0,0,1-4.153-4.311A4.751,4.751,0,0,1,208.024,19.541Zm-9.01,48.9,1.172-.3a5.741,5.741,0,0,0,4.313-5.56V40.411a1.039,1.039,0,0,0-.481-.876l-4.692-2.986v-.7l11.441-2.821.314.236V62.629a5.742,5.742,0,0,0,4.253,5.545l1,.267V69.46H199.014Zm-91.187,9.814H97.8V99.647h4.623c4.7,0,6.5-1.96,7.914-7.445l.7-2.585h1.176v22.017h-1.176l-.7-2.428c-1.411-5.485-3.213-7.366-7.914-7.366H97.8V118a5.741,5.741,0,0,0,4.771,5.659l3.457.592v1.332h-23.9v-1.332l3.043-.553a5.743,5.743,0,0,0,4.714-5.649V81.883a4.161,4.161,0,0,0-3.416-4.094L82.126,77V75.668h39.335l1.746,12.442-1.226.869-5.457-6.024C113.782,79.9,112.763,78.255,107.827,78.255ZM144.609,98c-2.115,0-3.84-1.645-4.232-4.153a8.951,8.951,0,0,0-6.973,5.094v19.777a5.74,5.74,0,0,0,4.291,5.555l1.115.291v1.019H121.572v-1.019l.941-.257a5.739,5.739,0,0,0,4.23-5.538V96.529a1.038,1.038,0,0,0-.474-.872l-4.619-2.985v-.706l10.97-2.819.314.234-.158,7.679.314.236c2.508-4.86,6.661-8.072,10.265-8.072,3.527,0,5.25,2.195,5.25,4.546A3.932,3.932,0,0,1,144.609,98ZM168.4,125.583H151.081v-1.019l1.174-.3a5.741,5.741,0,0,0,4.311-5.56V96.534a1.039,1.039,0,0,0-.481-.876l-4.69-2.986v-.706l11.44-2.819.313.234v29.37A5.742,5.742,0,0,0,167.4,124.3l1,.268ZM155.469,80.364a4.751,4.751,0,0,1,4.623-4.7,4.119,4.119,0,0,1,4.231,4.232,4.781,4.781,0,0,1-4.7,4.779A4.076,4.076,0,0,1,155.469,80.364Zm-6.5-10.9V68.128l2.843-.517a4.185,4.185,0,0,0,3.174-5.575l-4.059-10.912H133.77l-4.127,11.062a4.184,4.184,0,0,0,2.6,5.432l1.53.51V69.46H119.587V68.128l1.64-.623a9.387,9.387,0,0,0,5.427-5.41l16.518-43.018h3.683l16.42,42.861a9.386,9.386,0,0,0,6.2,5.672,3.56,3.56,0,0,0,3.442-.833,5.736,5.736,0,0,0,1.756-4.131V40.406a1.039,1.039,0,0,0-.475-.872l-4.617-2.985v-.7l10.97-2.821.313.236-.157,7.679.314.234c2.507-4.858,6.66-8.07,10.265-8.07,3.526,0,5.249,2.193,5.249,4.544a3.933,3.933,0,0,1-4,4.232c-2.116,0-3.839-1.647-4.231-4.153a8.943,8.943,0,0,0-6.974,5.093V62.6a5.741,5.741,0,0,0,4.294,5.556l1.112.29V69.46H148.971Zm40.811,52.519c3.84,0,7.052-.862,11.519-3.134l.47.938c-4.858,4.624-9.246,7.053-14.34,7.053-10.03,0-17.16-7.365-17.16-18.257,0-11.049,7.6-19.356,17.317-19.356s14.575,6.5,14.575,15.2H177.4C177.4,114.847,180.928,121.979,189.782,121.979Zm53.92,3.6H227.013v-1.019l.772-.221a5.74,5.74,0,0,0,4.164-5.52V103.485c0-5.955-2.116-8.776-7.366-8.776a15.865,15.865,0,0,0-8.776,2.429v21.705a5.743,5.743,0,0,0,4.14,5.513l.718.208v1.019h-16.69v-1.019l.942-.257a5.74,5.74,0,0,0,4.23-5.538V96.529a1.039,1.039,0,0,0-.475-.872l-4.619-2.985v-.706l10.97-2.819.314.234-.157,6.268.314.157q7.052-6.581,13.4-6.582c7.052,0,9.638,5.329,9.638,10.893v18.652a5.739,5.739,0,0,0,4.23,5.538l.941.257Zm37.937-1.568-10.578,2.9-.392-.157-.627-5.171-.313-.157-1.959,1.723a12.847,12.847,0,0,1-9.246,3.684c-7.209,0-14.262-6.113-14.262-17.709,0-10.187,6.582-19.9,19.668-19.9a27.1,27.1,0,0,1,5.956.548V75.321a1.037,1.037,0,0,0-.512-.895l-5.208-3.066v-.785l11.988-3.056.314.157v49.61a5.741,5.741,0,0,0,3.636,5.341l1.535.605Zm12.68,2.743a25.284,25.284,0,0,1-10.735-2.115v-9.874l1.645-.156c2.586,7.208,6.191,10.185,10.422,10.185,4.153,0,6.817-2.428,6.817-6.581,0-4.232-4.153-5.876-8.54-7.679-4.78-2.038-9.8-4.31-9.8-10.421,0-6.191,4.779-10.97,12.3-10.97a31.744,31.744,0,0,1,9.246,1.487l.235,8.856-1.411.391c-3.055-6.268-6.033-8.776-9.481-8.776-3.526,0-5.876,2.038-5.876,5.329,0,4.23,4.23,5.877,8.7,7.758,4.858,2.036,10.029,4.308,10.029,10.655C307.874,122.134,302,126.758,294.319,126.758Z" fill="#fcfbfb"/></svg>