<svg xmlns="http://www.w3.org/2000/svg" viewBox="0 0 36.593 17.588"><path d="M9.8,1.558H9.773L8.55,4.845h2.472ZM14.5,8.03v.217H10.869V8.03l.462-.084a.68.68,0,0,0,.516-.907l-.66-1.774H8.4l-.671,1.8a.68.68,0,0,0,.422.883L8.4,8.03v.217H6.091V8.03l.267-.1a1.527,1.527,0,0,0,.882-.88L9.926.054h.6L13.2,7.023a1.525,1.525,0,0,0,1.008.923Z"/><path d="M17.953,3.762a.725.725,0,0,1-.688-.675,1.454,1.454,0,0,0-1.134.828V7.13a.934.934,0,0,0,.7.9l.181.047v.166h-2.8V8.081l.153-.042a.932.932,0,0,0,.688-.9V3.522a.168.168,0,0,0-.077-.141L14.22,2.9V2.781L16,2.322l.051.039-.026,1.248.051.038a2.165,2.165,0,0,1,1.669-1.312.758.758,0,0,1,.854.739.64.64,0,0,1-.65.688"/><path d="M20.47,0a.67.67,0,0,1,.688.688.777.777,0,0,1-.764.777.663.663,0,0,1-.676-.7A.773.773,0,0,1,20.47,0M19.056,2.9V2.78l1.86-.458.051.038V7.135a.933.933,0,0,0,.692.9l.162.044v.165H19.005V8.081l.191-.049a.934.934,0,0,0,.7-.905v-3.6a.169.169,0,0,0-.078-.143Z"/><path d="M6.48,11.42l-.887-.979c-.446-.5-.612-.765-1.414-.765H2.548v3.478H3.3c.765,0,1.058-.318,1.287-1.21l.115-.42h.191V15.1H4.7l-.115-.395c-.229-.892-.522-1.2-1.287-1.2H2.548v2.628a.934.934,0,0,0,.775.92l.563.1v.217H0v-.217l.494-.09a.934.934,0,0,0,.767-.918V10.266A.676.676,0,0,0,.706,9.6L0,9.472V9.256H6.4l.284,2.023Z"/><path d="M10.159,12.887a.725.725,0,0,1-.688-.675,1.456,1.456,0,0,0-1.134.828v3.216a.934.934,0,0,0,.7.9l.181.047v.166h-2.8v-.166l.153-.042a.932.932,0,0,0,.688-.9V12.648a.168.168,0,0,0-.077-.142l-.751-.485v-.115l1.784-.459.051.039-.026,1.248.051.038A2.165,2.165,0,0,1,9.955,11.46a.758.758,0,0,1,.854.739.64.64,0,0,1-.65.688"/><path d="M12.677,9.125a.67.67,0,0,1,.688.688.777.777,0,0,1-.764.777.663.663,0,0,1-.676-.7.774.774,0,0,1,.752-.766M11.263,12.02v-.115l1.86-.458.051.038V16.26a.934.934,0,0,0,.691.9l.163.044v.165H11.212v-.165l.191-.05a.934.934,0,0,0,.7-.9V12.648a.171.171,0,0,0-.078-.143Z"/><path d="M18.182,13.575c-.089-1.095-.446-1.834-1.236-1.834-.815,0-1.478.764-1.554,1.924Zm-2.8.357c0,1.694.573,2.854,2.013,2.854a3.845,3.845,0,0,0,1.873-.51l.077.153a3.363,3.363,0,0,1-2.332,1.147,2.753,2.753,0,0,1-2.79-2.969,2.943,2.943,0,0,1,2.815-3.147,2.242,2.242,0,0,1,2.37,2.472Z"/><path d="M25.318,16.264a.934.934,0,0,0,.688.9l.153.041v.166H23.445v-.166l.126-.036a.932.932,0,0,0,.677-.9V13.779c0-.968-.344-1.427-1.2-1.427a2.581,2.581,0,0,0-1.427.395v3.529a.933.933,0,0,0,.673.9l.117.034v.166H19.7v-.166l.153-.041a.934.934,0,0,0,.688-.9V12.648a.17.17,0,0,0-.077-.142l-.751-.485v-.115l1.784-.458.051.038-.026,1.019.051.025a3.312,3.312,0,0,1,2.179-1.07c1.147,0,1.567.867,1.567,1.771Z"/><path d="M29.219,16.836a1.606,1.606,0,0,0,1.2-.484v-3.81a1.6,1.6,0,0,0-1.363-.777c-.816,0-1.669.8-1.669,2.714,0,1.4.751,2.357,1.834,2.357m3.109.153v.127l-1.72.472-.064-.026-.1-.84-.051-.026-.318.28a2.089,2.089,0,0,1-1.5.6c-1.173,0-2.319-.994-2.319-2.879a3.074,3.074,0,0,1,3.2-3.237,4.374,4.374,0,0,1,.968.09V9.2a.171.171,0,0,0-.083-.146l-.847-.5V8.427l1.949-.5.051.026v8.066a.935.935,0,0,0,.591.869Z"/><path d="M34.389,17.563a4.111,4.111,0,0,1-1.746-.344V15.614l.268-.026c.42,1.172,1.007,1.656,1.7,1.656a1.007,1.007,0,0,0,1.108-1.07c0-.688-.675-.955-1.389-1.248-.777-.332-1.592-.7-1.592-1.7a1.818,1.818,0,0,1,2-1.783,5.169,5.169,0,0,1,1.5.241l.039,1.44-.23.064c-.5-1.019-.981-1.427-1.541-1.427a.855.855,0,0,0-.956.866c0,.688.688.956,1.414,1.262.79.331,1.631.7,1.631,1.732a1.993,1.993,0,0,1-2.2,1.937"/><path d="M22.057,6a2.449,2.449,0,0,1,2.392-2.428,1.641,1.641,0,0,1-1.43-1.688c.011-1.115,1-1.83,2.462-1.83,1.068,0,1.748.4,1.748,1.044a.634.634,0,0,1-.586.61,1.332,1.332,0,0,0-1.2-1.29A1.234,1.234,0,0,0,24.238,1.8c0,1.114.587,1.583,1.689,1.665l.129.3c-1.431-.047-2.639.656-2.65,2.2A1.983,1.983,0,0,0,25.54,8.134,2.306,2.306,0,0,0,28,5.918c0-.68-.27-1.443-1.009-1.443a.7.7,0,0,0-.7.774,1.16,1.16,0,0,0,.363.892.73.73,0,0,1-.387.093.714.714,0,0,1-.762-.785c0-.8.727-1.185,1.266-1.572.481-.352,1.244-.8,1.232-1.407a.618.618,0,0,0-.411-.6.689.689,0,0,1,.516-.223.749.749,0,0,1,.8.762,1.255,1.255,0,0,1-.7,1.056c-.293.223-.8.445-1.243.739a1.716,1.716,0,0,1,2.076,1.7c0,1.654-1.654,2.627-3.542,2.627-2.064,0-3.436-.809-3.436-2.533"/></svg>