<svg xmlns="http://www.w3.org/2000/svg" viewBox="0 0 35.919 16.99"><path d="M18.389,2.512a2.1,2.1,0,0,0-1.617,1.271l-.05-.037.025-1.21L16.7,2.5l-1.728.445v.111l.728.47a.164.164,0,0,1,.074.137v3.5a.9.9,0,0,1-.276.651.558.558,0,0,1-.542.131h0a1.477,1.477,0,0,1-.978-.893L11.388.3h-.58l-2.6,6.777a1.482,1.482,0,0,1-.855.853l-.259.1v.21H9.327V8.03l-.241-.08a.659.659,0,0,1-.409-.856l.65-1.743h2.7l.64,1.719a.659.659,0,0,1-.5.878l-.448.082v.21h5.951V8.079L17.5,8.034a.905.905,0,0,1-.676-.876V4.042a1.411,1.411,0,0,1,1.1-.8.7.7,0,0,0,.666.654.619.619,0,0,0,.63-.666A.734.734,0,0,0,18.389,2.512ZM9.475,4.944,10.66,1.758h.025L11.87,4.944Z" transform="translate(-0.573 -0.302)"/><path d="M21.026.375a.649.649,0,0,1,.666.666.753.753,0,0,1-.74.754.643.643,0,0,1-.655-.68.748.748,0,0,1,.729-.74m-1.371,2.68V2.944l1.8-.445.049.037V7.163a.9.9,0,0,0,.67.874l.157.042V8.24H19.606V8.079l.185-.047a.9.9,0,0,0,.679-.876V3.663a.162.162,0,0,0-.076-.138Z" transform="translate(-0.573 -0.302)"/><path d="M6.853,11.315l-.86-.949c-.432-.481-.593-.741-1.37-.741H3.042V13h.729c.74,0,1.024-.309,1.247-1.173l.111-.407h.185v3.468H5.129L5.018,14.5c-.223-.864-.507-1.161-1.247-1.161H3.042v2.546a.906.906,0,0,0,.752.892l.545.093v.21H.573v-.21l.48-.087A.9.9,0,0,0,1.8,15.9V10.2a.656.656,0,0,0-.539-.645L.573,9.428v-.21h6.2l.275,1.96Z" transform="translate(-0.573 -0.302)"/><path d="M10.465,12.736a.7.7,0,0,1-.667-.654,1.409,1.409,0,0,0-1.1.8V16a.905.905,0,0,0,.676.876l.175.045v.161H6.835v-.161l.149-.04a.9.9,0,0,0,.666-.873v-3.5a.163.163,0,0,0-.075-.138l-.727-.47v-.111l1.728-.445.05.037L8.6,12.588l.049.037a2.1,2.1,0,0,1,1.617-1.271.735.735,0,0,1,.828.716.62.62,0,0,1-.63.666" transform="translate(-0.573 -0.302)"/><path d="M12.9,9.217a.649.649,0,0,1,.667.667.753.753,0,0,1-.741.753.642.642,0,0,1-.654-.679.748.748,0,0,1,.728-.741m-1.37,2.68v-.111l1.8-.445.049.037v4.628a.9.9,0,0,0,.67.873l.157.042v.161H11.485v-.161l.185-.047A.905.905,0,0,0,12.349,16V12.505a.164.164,0,0,0-.076-.138Z" transform="translate(-0.573 -0.302)"/><path d="M18.476,13.4c-.086-1.062-.432-1.778-1.2-1.778-.79,0-1.432.741-1.506,1.865Zm-2.716.346c0,1.642.556,2.765,1.951,2.765a3.732,3.732,0,0,0,1.815-.494l.074.148a3.257,3.257,0,0,1-2.259,1.111,2.667,2.667,0,0,1-2.7-2.876,2.851,2.851,0,0,1,2.728-3.049,2.172,2.172,0,0,1,2.3,2.4Z" transform="translate(-0.573 -0.302)"/><path d="M25.48,16.008a.9.9,0,0,0,.666.873l.148.04v.161H23.665v-.161l.122-.034a.905.905,0,0,0,.656-.87V13.6c0-.938-.334-1.382-1.161-1.382A2.5,2.5,0,0,0,21.9,12.6V16.02a.906.906,0,0,0,.653.869l.113.032v.161h-2.63v-.161l.149-.04a.9.9,0,0,0,.666-.873v-3.5a.163.163,0,0,0-.075-.138l-.727-.47v-.111l1.728-.445.049.037-.024.988.049.025a3.2,3.2,0,0,1,2.111-1.037c1.111,0,1.519.839,1.519,1.716Z" transform="translate(-0.573 -0.302)"/><path d="M29.347,16.563a1.554,1.554,0,0,0,1.161-.469V12.4a1.55,1.55,0,0,0-1.321-.753c-.79,0-1.617.778-1.617,2.63,0,1.358.728,2.283,1.777,2.283m3.012.149v.123l-1.666.457-.062-.025-.1-.814-.049-.025-.309.271a2.024,2.024,0,0,1-1.456.581c-1.136,0-2.247-.964-2.247-2.791a2.978,2.978,0,0,1,3.1-3.135,4.255,4.255,0,0,1,.939.086v-2.1a.165.165,0,0,0-.081-.141l-.82-.483V8.592L31.5,8.11l.05.025v7.64a.9.9,0,0,0,.573.841Z" transform="translate(-0.573 -0.302)"/><path d="M34.357,17.267a3.979,3.979,0,0,1-1.691-.333V15.378l.259-.024c.407,1.135.975,1.6,1.642,1.6a.976.976,0,0,0,1.074-1.036c0-.667-.654-.926-1.346-1.21-.753-.321-1.543-.679-1.543-1.642a1.762,1.762,0,0,1,1.939-1.729,4.973,4.973,0,0,1,1.456.235l.037,1.395-.222.062c-.481-.988-.95-1.383-1.494-1.383a.829.829,0,0,0-.926.84c0,.666.667.925,1.371,1.222.765.321,1.58.679,1.58,1.679a1.932,1.932,0,0,1-2.136,1.876" transform="translate(-0.573 -0.302)"/><path d="M22.959,6.063a2.373,2.373,0,0,1,2.318-2.352,1.591,1.591,0,0,1-1.386-1.637C23.9,1,24.857.3,26.277.3c1.034,0,1.694.386,1.694,1.011A.614.614,0,0,1,27.4,1.9,1.29,1.29,0,0,0,26.243.654,1.2,1.2,0,0,0,25.073,2c0,1.08.568,1.534,1.636,1.614l.125.295c-1.386-.045-2.557.637-2.568,2.136a1.922,1.922,0,0,0,2.068,2.091,2.235,2.235,0,0,0,2.387-2.147c0-.659-.262-1.4-.978-1.4a.674.674,0,0,0-.681.75,1.12,1.12,0,0,0,.352.864.709.709,0,0,1-.375.09.692.692,0,0,1-.739-.761c0-.773.7-1.148,1.227-1.523.466-.341,1.2-.772,1.194-1.363a.6.6,0,0,0-.4-.58.665.665,0,0,1,.5-.216.726.726,0,0,1,.773.739,1.216,1.216,0,0,1-.682,1.023c-.284.216-.773.431-1.205.716a1.663,1.663,0,0,1,2.012,1.647c0,1.6-1.6,2.546-3.432,2.546-2,0-3.33-.784-3.33-2.455" transform="translate(-0.573 -0.302)"/></svg>