<svg xmlns="http://www.w3.org/2000/svg" viewBox="0 0 35.919 16.99"><path d="M18.15,2.512a2.1,2.1,0,0,0-1.617,1.271l-.05-.037.025-1.21L16.459,2.5l-1.729.445v.111l.728.47a.163.163,0,0,1,.075.137v3.5a.9.9,0,0,1-.277.651.558.558,0,0,1-.542.131h0a1.472,1.472,0,0,1-.977-.893L11.15.3h-.581l-2.6,6.777a1.482,1.482,0,0,1-.855.853l-.258.1v.21H9.088V8.03l-.241-.08a.659.659,0,0,1-.409-.856l.65-1.743h2.7l.639,1.719a.658.658,0,0,1-.5.878l-.448.082v.21h5.951V8.079l-.175-.045a.905.905,0,0,1-.677-.876V4.042a1.411,1.411,0,0,1,1.1-.8.7.7,0,0,0,.667.654.619.619,0,0,0,.629-.666A.734.734,0,0,0,18.15,2.512ZM9.236,4.944l1.185-3.186h.025l1.185,3.186Z" transform="translate(-0.335 -0.302)" fill="#fff"/><path d="M20.787.375a.649.649,0,0,1,.667.666.754.754,0,0,1-.741.754.642.642,0,0,1-.654-.68.748.748,0,0,1,.728-.74m-1.37,2.68V2.944l1.8-.445.049.037V7.163a.9.9,0,0,0,.671.874l.157.042V8.24H19.367V8.079l.185-.047a.9.9,0,0,0,.68-.876V3.663a.164.164,0,0,0-.076-.138Z" transform="translate(-0.335 -0.302)" fill="#fff"/><path d="M6.614,11.315l-.86-.949c-.432-.481-.592-.741-1.37-.741H2.8V13h.728c.741,0,1.025-.309,1.247-1.173l.111-.407h.185v3.468H4.89L4.779,14.5c-.222-.864-.506-1.161-1.247-1.161H2.8v2.546a.9.9,0,0,0,.751.892l.545.093v.21H.335v-.21l.479-.087a.9.9,0,0,0,.743-.89V10.2a.656.656,0,0,0-.538-.645L.335,9.428v-.21h6.2l.275,1.96Z" transform="translate(-0.335 -0.302)" fill="#fff"/><path d="M10.226,12.736a.7.7,0,0,1-.666-.654,1.411,1.411,0,0,0-1.1.8V16a.905.905,0,0,0,.676.876l.176.045v.161H6.6v-.161l.148-.04a.9.9,0,0,0,.666-.873v-3.5a.165.165,0,0,0-.074-.138l-.728-.47v-.111l1.728-.445.05.037-.025,1.21.049.037a2.1,2.1,0,0,1,1.618-1.271.734.734,0,0,1,.827.716.619.619,0,0,1-.63.666" transform="translate(-0.335 -0.302)" fill="#fff"/><path d="M12.666,9.217a.649.649,0,0,1,.666.667.753.753,0,0,1-.74.753.643.643,0,0,1-.655-.679.749.749,0,0,1,.729-.741M11.3,11.9v-.111l1.8-.445.049.037v4.628a.9.9,0,0,0,.67.873l.157.042v.161H11.246v-.161l.185-.047A.9.9,0,0,0,12.11,16V12.505a.162.162,0,0,0-.076-.138Z" transform="translate(-0.335 -0.302)" fill="#fff"/><path d="M18.238,13.4c-.087-1.062-.432-1.778-1.2-1.778-.79,0-1.432.741-1.506,1.865Zm-2.716.346c0,1.642.555,2.765,1.95,2.765a3.732,3.732,0,0,0,1.815-.494l.074.148A3.255,3.255,0,0,1,17.1,17.279,2.667,2.667,0,0,1,14.4,14.4a2.852,2.852,0,0,1,2.729-3.049,2.172,2.172,0,0,1,2.3,2.4Z" transform="translate(-0.335 -0.302)" fill="#fff"/><path d="M25.241,16.008a.9.9,0,0,0,.666.873l.149.04v.161h-2.63v-.161l.122-.034a.905.905,0,0,0,.656-.87V13.6c0-.938-.333-1.382-1.161-1.382a2.5,2.5,0,0,0-1.382.383V16.02a.906.906,0,0,0,.652.869l.113.032v.161H19.8v-.161l.148-.04a.9.9,0,0,0,.666-.873v-3.5a.165.165,0,0,0-.074-.138l-.728-.47v-.111l1.728-.445.05.037-.025.988.049.025a3.2,3.2,0,0,1,2.111-1.037c1.111,0,1.519.839,1.519,1.716Z" transform="translate(-0.335 -0.302)" fill="#fff"/><path d="M29.108,16.563a1.551,1.551,0,0,0,1.161-.469V12.4a1.55,1.55,0,0,0-1.321-.753c-.79,0-1.617.778-1.617,2.63,0,1.358.728,2.283,1.777,2.283m3.013.149v.123l-1.667.457-.062-.025-.1-.814-.05-.025-.308.271a2.027,2.027,0,0,1-1.457.581c-1.136,0-2.247-.964-2.247-2.791a2.978,2.978,0,0,1,3.1-3.135,4.246,4.246,0,0,1,.938.086v-2.1a.165.165,0,0,0-.081-.141l-.82-.483V8.592l1.889-.482.049.025v7.64a.9.9,0,0,0,.573.841Z" transform="translate(-0.335 -0.302)" fill="#fff"/><path d="M34.118,17.267a3.979,3.979,0,0,1-1.691-.333V15.378l.259-.024c.408,1.135.976,1.6,1.642,1.6A.976.976,0,0,0,35.4,15.922c0-.667-.654-.926-1.345-1.21-.753-.321-1.543-.679-1.543-1.642a1.762,1.762,0,0,1,1.938-1.729,4.986,4.986,0,0,1,1.457.235l.037,1.395-.223.062c-.481-.988-.95-1.383-1.493-1.383a.829.829,0,0,0-.926.84c0,.666.666.925,1.37,1.222.765.321,1.58.679,1.58,1.679a1.932,1.932,0,0,1-2.136,1.876" transform="translate(-0.335 -0.302)" fill="#fff"/><path d="M22.721,6.063a2.372,2.372,0,0,1,2.318-2.352,1.592,1.592,0,0,1-1.387-1.637C23.664,1,24.618.3,26.039.3c1.034,0,1.693.386,1.693,1.011a.614.614,0,0,1-.568.591A1.291,1.291,0,0,0,26.005.654,1.2,1.2,0,0,0,24.834,2c0,1.08.568,1.534,1.637,1.614L26.6,3.9c-1.387-.045-2.557.637-2.569,2.136A1.923,1.923,0,0,0,26.1,8.131a2.235,2.235,0,0,0,2.386-2.147c0-.659-.261-1.4-.977-1.4a.675.675,0,0,0-.682.75,1.123,1.123,0,0,0,.352.864.707.707,0,0,1-.375.09.692.692,0,0,1-.739-.761c0-.773.7-1.148,1.228-1.523.466-.341,1.2-.772,1.193-1.363a.6.6,0,0,0-.4-.58.666.666,0,0,1,.5-.216.726.726,0,0,1,.773.739,1.216,1.216,0,0,1-.682,1.023c-.284.216-.773.431-1.205.716a1.662,1.662,0,0,1,2.012,1.647c0,1.6-1.6,2.546-3.432,2.546-2,0-3.329-.784-3.329-2.455" transform="translate(-0.335 -0.302)" fill="#fff"/></svg>