<svg xmlns="http://www.w3.org/2000/svg" xmlns:xlink="http://www.w3.org/1999/xlink" viewBox="0 0 97.219 86.203"><defs><clipPath id="a" transform="translate(0.043 0.01)"><rect x="18.467" y="26.99" width="62.201" height="24.349" fill="none"/></clipPath></defs><g><g clip-path="url(#a)"><path d="M52.065,32.855,50.8,29.213l-1.319,3.642ZM50.213,27.99h1.261l2.992,8.244H53.242l-.86-2.469H49.147l-.893,2.469H47.109Z" transform="translate(0.043 0.01)"/><path d="M58.6,35.28a2.976,2.976,0,0,0,.911-.118,2.011,2.011,0,0,0,1.042-.842,3.49,3.49,0,0,0,.467-1.279,4.983,4.983,0,0,0,.082-.865,4.093,4.093,0,0,0-.595-2.379,2.179,2.179,0,0,0-1.918-.847H56.651v6.33Zm-3.076-7.29h3.295a3.089,3.089,0,0,1,2.6,1.207,4.488,4.488,0,0,1,.825,2.789,5.631,5.631,0,0,1-.487,2.373,3.006,3.006,0,0,1-2.952,1.875H55.523Z" transform="translate(0.043 0.01)"/><path d="M68.03,32.855l-1.269-3.642-1.319,3.642ZM66.178,27.99h1.261l2.992,8.244H69.207l-.86-2.469H65.113l-.895,2.469H63.074Z" transform="translate(0.043 0.01)"/><path d="M71.41,27.99h1.6l2.37,6.97,2.354-6.97h1.589v8.244H78.256V31.368q0-.252.012-.836t.011-1.251l-2.354,6.953H74.819l-2.377-6.953v.252q0,.3.017.923c.012.414.017.718.017.912v4.866H71.41Z" transform="translate(0.043 0.01)"/><polygon points="40.173 42.104 41.29 42.104 41.29 49.366 45.426 49.366 45.426 50.348 40.173 50.348 40.173 42.104"/><polygon points="46.671 42.104 52.653 42.104 52.653 43.114 47.76 43.114 47.76 45.617 52.283 45.617 52.283 46.571 47.76 46.571 47.76 49.366 52.737 49.366 52.737 50.348 46.671 50.348 46.671 42.104"/><polygon points="54.884 42.104 57.252 49.124 59.592 42.104 60.844 42.104 57.836 50.348 56.652 50.348 53.65 42.104 54.884 42.104"/><rect x="62.149" y="42.105" width="1.128" height="8.244"/><polygon points="65.089 42.104 66.404 42.104 70.516 48.765 70.516 42.104 71.582 42.104 71.582 50.348 70.327 50.348 66.155 43.695 66.155 50.348 65.089 50.348 65.089 42.104"/><polygon points="73.496 42.104 79.478 42.104 79.478 43.114 74.585 43.114 74.585 45.617 79.108 45.617 79.108 46.571 74.585 46.571 74.585 49.366 79.562 49.366 79.562 50.348 73.496 50.348 73.496 42.104"/><rect x="19.51" y="38.522" width="60.201" height="1.192"/></g><rect width="97.219" height="86.203" fill="none"/></g></svg>