<svg xmlns="http://www.w3.org/2000/svg" xmlns:xlink="http://www.w3.org/1999/xlink" viewBox="0 0 97.219 86.203"><defs><clipPath id="a"><rect x="20.539" y="33.944" width="56.141" height="18.316" fill="none"/></clipPath></defs><g><rect width="97.219" height="86.203" fill="none"/><g clip-path="url(#a)"><path d="M26.163,42.073a1.361,1.361,0,0,1-1.16.761c-.643,0-1.019-.49-1.019-1.215,0-1.427,1.28-1.687,2.492-1.687V40.3a3.292,3.292,0,0,1-.313,1.778m3.3.753a2.288,2.288,0,0,1-.632-1.553v-2.61c0-1.107.078-2.122-.737-2.884a3.8,3.8,0,0,0-2.524-.835c-1.595,0-3.374.6-3.747,2.566a.3.3,0,0,0,.25.35l1.624.176a.353.353,0,0,0,.291-.308,1.275,1.275,0,0,1,1.347-1.006,1.121,1.121,0,0,1,.941.435,2.147,2.147,0,0,1,.2,1.215v.218a11.593,11.593,0,0,0-3.15.581,2.844,2.844,0,0,0-1.787,2.738,2.378,2.378,0,0,0,2.508,2.612A3.32,3.32,0,0,0,26.809,43.3a4.092,4.092,0,0,0,.961,1.117.348.348,0,0,0,.4-.039l0,0c.334-.3.942-.826,1.285-1.113a.316.316,0,0,0,.005-.445"/><path d="M48.129,42.073a1.362,1.362,0,0,1-1.16.762c-.642,0-1.019-.49-1.019-1.216,0-1.427,1.281-1.687,2.493-1.687V40.3a3.292,3.292,0,0,1-.314,1.778m.314-3.483a11.593,11.593,0,0,0-3.151.581,2.845,2.845,0,0,0-1.787,2.738,2.378,2.378,0,0,0,2.508,2.612A3.321,3.321,0,0,0,48.776,43.3a4.089,4.089,0,0,0,.96,1.117.348.348,0,0,0,.4-.039l0,0c.335-.3.943-.826,1.285-1.113a.316.316,0,0,0,.006-.446,2.284,2.284,0,0,1-.633-1.553v-2.61c0-1.106.079-2.122-.737-2.884a3.8,3.8,0,0,0-2.524-.834c-1.594,0-3.373.595-3.747,2.565a.3.3,0,0,0,.25.35l1.625.177a.357.357,0,0,0,.291-.309A1.274,1.274,0,0,1,47.3,36.722a1.121,1.121,0,0,1,.941.435,2.149,2.149,0,0,1,.2,1.216Z"/><path d="M31.067,44.4h1.676a.316.316,0,0,0,.323-.309V39.534c0-1-.047-2.371,1.157-2.371s1.032,1.412,1.032,2.371l0,4.559a.315.315,0,0,0,.3.309h1.674a.316.316,0,0,0,.323-.309V39.534a5.2,5.2,0,0,1,.156-1.647,1.111,1.111,0,0,1,1-.706.874.874,0,0,1,.985.742,11.045,11.045,0,0,1,.047,1.611v4.559a.315.315,0,0,0,.3.309H41.72a.317.317,0,0,0,.324-.309V38.665a4.569,4.569,0,0,0-.422-2.7,2.475,2.475,0,0,0-4.255.651,2.3,2.3,0,0,0-4.379,0h-.032V35.5a.314.314,0,0,0-.3-.289h-1.56a.315.315,0,0,0-.323.31l0,8.6a.316.316,0,0,0,.3.283"/><path d="M54.67,46.969a28.286,28.286,0,0,1-10.846,2.219,28.612,28.612,0,0,1-14.219-3.772c-.354-.206-.617.157-.322.423A21.057,21.057,0,0,0,43.494,51.26,20.608,20.608,0,0,0,55.127,47.7c.521-.385.075-.961-.457-.735"/><path d="M52.684,45.661c-.277.194-.229.463.078.426,1.014-.121,3.271-.392,3.674.123s-.448,2.638-.827,3.586c-.116.287.131.4.391.186,1.687-1.412,2.124-4.37,1.778-4.8s-3.293-.789-5.094.476"/><path d="M75.242,36.041a2.2,2.2,0,0,0-1.955-1.014A2.28,2.28,0,0,0,71,36.765h-.031V35.449a.321.321,0,0,0-.3-.241H69.12a.317.317,0,0,0-.322.281l0,8.6a.315.315,0,0,0,.3.309h1.67a.321.321,0,0,0,.326-.31v-4.63a3.823,3.823,0,0,1,.266-1.63,1.1,1.1,0,0,1,.97-.687c1.157,0,1.048,1.375,1.048,2.317v4.669a.316.316,0,0,0,.3.271h1.68a.319.319,0,0,0,.321-.271V38.719a5.472,5.472,0,0,0-.438-2.678"/><path d="M63.713,42.809c-1.314,0-1.3-2.244-1.3-3.294s.078-2.732,1.313-2.732a1.048,1.048,0,0,1,1.095.832,7.927,7.927,0,0,1,.251,2.281c0,1.1-.062,2.913-1.361,2.913m0-7.782c-2.425,0-3.77,2.081-3.77,4.76,0,2.66,1.33,4.8,3.77,4.8,2.346,0,3.832-2.082,3.832-4.706,0-2.714-1.345-4.85-3.832-4.85"/><path d="M58.845,42.072A6.108,6.108,0,0,0,55.7,41.4l2.853-4.073a1.728,1.728,0,0,0,.415-.774V35.5a.306.306,0,0,0-.317-.31H53.146a.3.3,0,0,0-.312.312v1.228a.306.306,0,0,0,.318.31H56.03l-3.3,4.743a1.483,1.483,0,0,0-.2.844V43.87c0,.181.2.387.392.285a6.342,6.342,0,0,1,5.819-.011c.208.109.406-.1.406-.281V42.552a.561.561,0,0,0-.292-.48"/></g></g></svg>