<svg xmlns="http://www.w3.org/2000/svg" viewBox="0 0 97.219 86.203"><path d="M71.74,38.808l.032.049c.013.02.027.043.04.067s.028.051.041.077.025.053.035.078H71.8c-.011-.024-.022-.048-.035-.072s-.025-.047-.038-.07-.025-.042-.037-.062l-.034-.05h-.112v.253h-.077v-.637a.318.318,0,0,1,.072-.013l.074,0a.269.269,0,0,1,.177.051.19.19,0,0,1,.061.153.2.2,0,0,1-.029.11.173.173,0,0,1-.086.068m-.117-.3a.707.707,0,0,0-.075,0v.243H71.6a.514.514,0,0,0,.071,0,.132.132,0,0,0,.054-.018.094.094,0,0,0,.034-.037.18.18,0,0,0,0-.124.1.1,0,0,0-.033-.038.116.116,0,0,0-.047-.019.274.274,0,0,0-.059-.006m.022.864a.618.618,0,1,1,.59-.617.605.605,0,0,1-.59.617m0-1.159a.543.543,0,1,0,.518.542.531.531,0,0,0-.518-.542m-43.9,7.65-1.457-1.486a.672.672,0,0,1-.011-.92.6.6,0,0,1,.879-.012l1.022,1.043,3.536-3.624a.6.6,0,0,1,.879.009.673.673,0,0,1-.009.92l-3.969,4.069a.605.605,0,0,1-.87,0m3.28,3.169a.539.539,0,0,1-.386-.166l-1.548-1.594a.593.593,0,0,1-.006-.813.535.535,0,0,1,.779-.006l1.163,1.2,4.126-4.217a3.248,3.248,0,0,0-.008-4.243,2.523,2.523,0,0,0-1.6-.847,2.489,2.489,0,0,0-2.134.838.535.535,0,0,1-.8,0,2.458,2.458,0,0,0-3.732.009,3.239,3.239,0,0,0-.667,3.033.579.579,0,0,1-.372.714.547.547,0,0,1-.684-.389,4.427,4.427,0,0,1,.921-4.146,3.512,3.512,0,0,1,4.933-.4,3.5,3.5,0,0,1,2.655-.807,3.637,3.637,0,0,1,2.279,1.2,4.452,4.452,0,0,1,0,5.828l-.016.017-4.52,4.621a.542.542,0,0,1-.386.164M52.41,42.263a2.171,2.171,0,0,0-.33-.847,1.587,1.587,0,0,0-.661-.546,2.558,2.558,0,0,0-1.072-.2,2.335,2.335,0,0,0-.506.056,3.644,3.644,0,0,0-.474.139,3,3,0,0,0-.4.184,2.59,2.59,0,0,0-.283.178,2.666,2.666,0,0,0-.282-.178,3.054,3.054,0,0,0-.405-.184,3.706,3.706,0,0,0-.475-.139,2.335,2.335,0,0,0-.506-.056,2.557,2.557,0,0,0-1.071.2,1.587,1.587,0,0,0-.661.546,2.188,2.188,0,0,0-.331.847,6.088,6.088,0,0,0-.091,1.086v3.276h1.29V43.561a3.014,3.014,0,0,1,.214-1.32.837.837,0,0,1,.82-.407,1.621,1.621,0,0,1,.587.106,2.5,2.5,0,0,1,.266.118v4.567h1.29V42.058a2.434,2.434,0,0,1,.267-.118,1.616,1.616,0,0,1,.586-.106.839.839,0,0,1,.821.407,3.016,3.016,0,0,1,.213,1.32v3.064H52.5V43.349a6,6,0,0,0-.091-1.086m19.018,4.58a3.436,3.436,0,0,1-.959-.133,1.464,1.464,0,0,1-.606-.349,1.244,1.244,0,0,1-.316-.565,2.953,2.953,0,0,1-.091-.77V38.357l1.3-.222v6.636a1.9,1.9,0,0,0,.037.41.661.661,0,0,0,.134.282.6.6,0,0,0,.263.178,2.019,2.019,0,0,0,.423.094Zm-2.571,0a3.45,3.45,0,0,1-.96-.133,1.467,1.467,0,0,1-.605-.349,1.244,1.244,0,0,1-.316-.565,2.953,2.953,0,0,1-.091-.77V38.357l1.3-.222v6.636a1.9,1.9,0,0,0,.037.41.661.661,0,0,0,.134.282.605.605,0,0,0,.263.178,2,2,0,0,0,.423.094ZM61.048,43.75a3.8,3.8,0,0,1,.217-1.343,2.827,2.827,0,0,1,.578-.96,2.375,2.375,0,0,1,.827-.578,2.461,2.461,0,0,1,.953-.194,2.23,2.23,0,0,1,1.786.744,3.319,3.319,0,0,1,.642,2.22c0,.074,0,.157-.006.25s-.009.176-.016.25H62.373a1.56,1.56,0,0,0,.471,1.082,1.74,1.74,0,0,0,1.214.383,3.768,3.768,0,0,0,.853-.089,3.458,3.458,0,0,0,.61-.188l.169,1.1a2.015,2.015,0,0,1-.291.117,4.1,4.1,0,0,1-.424.11c-.159.034-.33.062-.514.084a4.726,4.726,0,0,1-.562.033,3.277,3.277,0,0,1-1.272-.227,2.373,2.373,0,0,1-.89-.633,2.626,2.626,0,0,1-.52-.955,4.071,4.071,0,0,1-.169-1.2m3.72-.6a1.866,1.866,0,0,0-.074-.528,1.305,1.305,0,0,0-.217-.433,1.037,1.037,0,0,0-.35-.288,1.064,1.064,0,0,0-.493-.106,1.1,1.1,0,0,0-.519.117,1.182,1.182,0,0,0-.377.305,1.41,1.41,0,0,0-.238.433,2.471,2.471,0,0,0-.117.5Zm-7.8-.178q-.245.977-.526,1.9t-.558,1.748H54.831q-.213-.51-.447-1.166t-.469-1.4q-.235-.744-.469-1.565t-.459-1.676H54.35q.1.467.224,1.005c.086.358.175.725.268,1.1s.189.738.288,1.094.2.68.3.976q.159-.51.314-1.054t.293-1.088q.14-.543.262-1.06c.082-.344.154-.668.218-.971h.99c.064.3.134.627.212.971s.161.7.249,1.06.185.726.287,1.088.207.714.313,1.054q.14-.444.289-.976t.294-1.094c.1-.373.187-.74.273-1.1s.16-.694.224-1.005h1.331q-.225.855-.459,1.676t-.469,1.565q-.234.744-.469,1.4t-.458,1.166H58.077q-.276-.82-.568-1.748t-.537-1.9m-15.282-2.3a3.054,3.054,0,0,1,1.079.167,1.723,1.723,0,0,1,.7.468,1.79,1.79,0,0,1,.374.73,3.707,3.707,0,0,1,.112.941v3.533c-.2.044-.5.1-.9.161a8.853,8.853,0,0,1-1.362.1,3.919,3.919,0,0,1-.918-.1,1.894,1.894,0,0,1-.71-.324,1.5,1.5,0,0,1-.459-.579,2.091,2.091,0,0,1-.165-.88,1.768,1.768,0,0,1,.186-.847,1.581,1.581,0,0,1,.508-.563,2.166,2.166,0,0,1,.742-.312,4.01,4.01,0,0,1,.88-.094,3.939,3.939,0,0,1,.449.027,4.247,4.247,0,0,1,.5.095v-.222a1.793,1.793,0,0,0-.054-.446.947.947,0,0,0-.186-.374.9.9,0,0,0-.353-.251,1.477,1.477,0,0,0-.55-.088,4.737,4.737,0,0,0-.822.066,3.45,3.45,0,0,0-.608.157l-.161-1.093a5.082,5.082,0,0,1,.716-.178,5.409,5.409,0,0,1,1-.089M41.8,45.7a4.582,4.582,0,0,0,.908-.067V44.14a2.617,2.617,0,0,0-.31-.067,2.8,2.8,0,0,0-.448-.033,2.9,2.9,0,0,0-.433.033,1.334,1.334,0,0,0-.4.123.73.73,0,0,0-.283.251.874.874,0,0,0,.182,1.069,1.432,1.432,0,0,0,.779.184"/></svg>