<svg xmlns="http://www.w3.org/2000/svg" xmlns:xlink="http://www.w3.org/1999/xlink" viewBox="0 0 97.219 86.203"><defs><clipPath id="a"><rect x="21.427" y="29.037" width="54.365" height="24.13" fill="none"/></clipPath></defs><g><rect width="97.219" height="86.203" fill="none"/><g clip-path="url(#a)"><path d="M38.865,42.234a7.048,7.048,0,0,1-1.979,0,15.792,15.792,0,0,1-2.048.332A2.92,2.92,0,0,1,32.2,40.755a8.277,8.277,0,0,1-.848-5.387c.725-2.406,2.091-2.6,3.386-2.207,1.075.323,2.192,1.085,3.793.686a2.867,2.867,0,0,1,1.353-.03,1.954,1.954,0,0,1,1.5,1.2,5.729,5.729,0,0,1-.679,5.566,3.609,3.609,0,0,1-1.836,1.656"/><path d="M33,37.243a3.243,3.243,0,0,1,.385-2.761c.939-1.4-2.024.125-.385,2.761"/><path d="M47.294,46.574c.008-.3.1-1.939,1.239-1.939.843,0,1.112.626,1.275,1.311a21.991,21.991,0,0,1-2.514.628m3.264-1.862a2.078,2.078,0,0,0-1.683-.7,2.837,2.837,0,0,0-1.977.811,3.218,3.218,0,0,0-.9,2.349,2.691,2.691,0,0,0,2.843,2.779,3.61,3.61,0,0,0,2.115-.655l.015-.011-.006-.019c-.033-.08-.212-.481-.506-.388a2.337,2.337,0,0,1-1.03.235,2.037,2.037,0,0,1-2.042-1.841,17.3,17.3,0,0,0,3.625-1.227l.029-.013L51.116,46l-.026-.114a2.821,2.821,0,0,0-.532-1.174"/><path d="M58.957,46.574c.008-.3.1-1.939,1.24-1.939.841,0,1.112.626,1.275,1.311a21.956,21.956,0,0,1-2.515.628m3.265-1.862a2.077,2.077,0,0,0-1.684-.7,2.837,2.837,0,0,0-1.977.811,3.218,3.218,0,0,0-.9,2.349A2.69,2.69,0,0,0,60.5,49.956a3.616,3.616,0,0,0,2.117-.655l.015-.011-.008-.019c-.034-.079-.211-.48-.5-.388a2.336,2.336,0,0,1-1.029.235,2.037,2.037,0,0,1-2.043-1.841,17.348,17.348,0,0,0,3.627-1.227l.028-.013L62.78,46l-.028-.114a2.791,2.791,0,0,0-.53-1.174"/><path d="M64.315,46.574c.007-.3.1-1.939,1.238-1.939.842,0,1.112.626,1.275,1.31a21.769,21.769,0,0,1-2.513.629m3.263-1.862a2.078,2.078,0,0,0-1.683-.7,2.839,2.839,0,0,0-1.977.811,3.214,3.214,0,0,0-.9,2.349,2.69,2.69,0,0,0,2.841,2.779,3.621,3.621,0,0,0,2.118-.655l.014-.011-.007-.019c-.032-.079-.212-.48-.506-.388a2.333,2.333,0,0,1-1.029.235,2.036,2.036,0,0,1-2.042-1.841,17.317,17.317,0,0,0,3.625-1.227l.029-.013L68.137,46l-.028-.114a2.793,2.793,0,0,0-.531-1.174"/><path d="M54.036,49.2a1.824,1.824,0,0,1-1.108-.4V45.049a1.81,1.81,0,0,1,1.108-.4c1.478,0,1.638,1.54,1.638,2.2,0,.875-.213,2.341-1.638,2.341m.4-5.3a3.193,3.193,0,0,0-1.512.379V41.463l-1.961.053v.321a.34.34,0,0,0,.356.38c.154.021.255.037.255.387v7.343h.4l.651-.556a3.293,3.293,0,0,0,1.735.556A2.825,2.825,0,0,0,57.2,46.889,2.755,2.755,0,0,0,54.44,43.9"/><path d="M25.191,45.871c.02-.061,1.307-3.67,1.341-3.768l.012.034c.266.775.787,2.286,1.31,3.734Zm9.29-1.972a2.506,2.506,0,0,0-1.568.538v-.416l-1.859.053v.345c0,.288.209.329.334.355l.048.01c.082.022.185.047.185.376v3.6c-1.15-.31-1.516-1.475-2.33-3.68l-.782-2.135L27.33,39.689c-.021-.054-.124-.316-.272-.328-.063,0-.119.006-.476.259l-.066.046-.065.042c-.265.171-.522.357-.522.584a1.422,1.422,0,0,0,.108.425l.015.047c0,.017-2.507,7.024-2.507,7.024-.334.926-.619,1.024-.808,1.089-.138.047-.31.106-.31.47v.415h2.507v-.415c0-.386-.179-.469-.363-.521-.167-.045-.243-.066-.243-.29a3.12,3.12,0,0,1,.2-.777l.006-.02.216-.639.075-.225h3.394l.238.642a3.748,3.748,0,0,0,3.161,2.358v1.2c0,.347-.1.359-.259.38-.137.019-.366.049-.366.387v.324h2.656v-.324c0-.354-.248-.373-.4-.384-.172-.014-.286-.024-.286-.383V48.808s0-3.738,0-3.759a1.805,1.805,0,0,1,1.107-.4c1.478,0,1.637,1.54,1.637,2.2,0,.875-.212,2.341-1.637,2.341a1.757,1.757,0,0,1-.477-.071l-.069-.022a.239.239,0,0,0-.235.034c-.114.106-.091.359-.053.554l0,.011.009,0a3.369,3.369,0,0,0,1.14.242,2.736,2.736,0,0,0,1.972-.773,3.172,3.172,0,0,0,.87-2.285,2.754,2.754,0,0,0-2.755-2.99"/><path d="M43.454,46.889A2.756,2.756,0,0,0,40.7,43.9a2.508,2.508,0,0,0-1.568.539v-.416l-1.859.052v.345c0,.288.209.33.334.356l.048.01c.084.022.185.046.185.376v5.914c0,.348-.1.36-.258.381-.138.019-.367.049-.367.387v.324h2.656v-.324c0-.355-.247-.373-.4-.385-.172-.014-.287-.023-.287-.383V49.54l0-.732s0-3.738,0-3.758a1.8,1.8,0,0,1,1.107-.4c1.479,0,1.638,1.541,1.638,2.2,0,.875-.214,2.342-1.638,2.342a1.726,1.726,0,0,1-.477-.072l-.013,0-.057-.018a.235.235,0,0,0-.232.035c-.114.106-.093.359-.054.553l0,.011.009,0a3.364,3.364,0,0,0,1.14.241,2.728,2.728,0,0,0,1.971-.773,3.163,3.163,0,0,0,.872-2.285"/><path d="M71.406,46.427c-.763-.247-1.422-.458-1.422-1.075,0-.526.622-.8,1.068-.8.181,0,.6.028.6.279l-.024.251c0,.363.363.558.707.558a.657.657,0,0,0,.72-.618c0-.817-1.182-1.033-1.806-1.033-1.006,0-2.423.55-2.423,1.775,0,1.108.983,1.428,1.852,1.709.743.244,1.445.472,1.445,1.149s-.8.935-1.333.935-.815-.13-.815-.4A.665.665,0,0,1,70,49.006a.61.61,0,0,0,.032-.165c0-.37-.433-.568-.745-.568a.7.7,0,0,0-.744.665c0,.891,1.537,1.179,2.279,1.179,1.221,0,2.519-.672,2.519-1.92,0-1.145-1.028-1.478-1.936-1.77"/><path d="M45.424,48.622V41.437l-2.08.055v.422c0,.623.739-.055.739.926v5.782c0,.98-.739.3-.739.926v.422h2.794v-.422c0-.608-.714.041-.714-.926"/><path d="M68.41,42.475a.483.483,0,1,0-.021.965s.067,0,.1-.011a1.233,1.233,0,0,1-.309.8l-.037.043.182.18.041-.046a1.741,1.741,0,0,0,.611-1.215c0-.345-.179-.716-.568-.716"/><path d="M73.861,44.545l-.118-.027a.389.389,0,0,1-.089-.029.056.056,0,0,1-.033-.053.069.069,0,0,1,.034-.061.155.155,0,0,1,.088-.022.178.178,0,0,1,.085.018.094.094,0,0,1,.054.086h.136a.2.2,0,0,0-.081-.162.291.291,0,0,0-.184-.058.286.286,0,0,0-.2.061.191.191,0,0,0-.066.149.164.164,0,0,0,.068.145.451.451,0,0,0,.149.051l.073.018a.3.3,0,0,1,.093.029.056.056,0,0,1,.028.05.077.077,0,0,1-.06.079.265.265,0,0,1-.082.01.146.146,0,0,1-.12-.041.13.13,0,0,1-.026-.066h-.135a.2.2,0,0,0,.076.162.33.33,0,0,0,.21.062.3.3,0,0,0,.2-.063.189.189,0,0,0,.071-.152.164.164,0,0,0-.06-.137.3.3,0,0,0-.117-.049"/><path d="M74.589,44.258l-.124.526-.123-.526h-.2v.669h.13v-.508c0-.024,0-.041,0-.054l.128.562h.138l.129-.562v.562h.13v-.669Z"/><path d="M36.435,33.144a2.788,2.788,0,0,1,.358-1.346,2.856,2.856,0,0,1,1.828-1.278c.569-.1.92-.157,1.11-.381.15-.176.274-.107.269.069,0,.124-.048.443-.094.741a4.293,4.293,0,0,1-.514,1.516,2.087,2.087,0,0,1-1.68.968,2.3,2.3,0,0,1-1.277-.289"/></g></g></svg>