<svg xmlns="http://www.w3.org/2000/svg" viewBox="0 0 390 156"><path d="M258.068,88.034c-4.8,0-9.833,4.731-9.833,15.991,0,8.257,4.428,13.887,10.809,13.887a9.441,9.441,0,0,0,7.057-2.854V92.614A9.428,9.428,0,0,0,258.068,88.034Z" fill="#fcfbfb"/><polygon points="144.471 27.888 137.265 47.256 151.829 47.256 144.623 27.888 144.471 27.888" fill="#fcfbfb"/><path d="M186.734,87.885c-4.8,0-8.708,4.5-9.158,11.335l16.44-.526C193.49,92.239,191.388,87.885,186.734,87.885Z" fill="#fcfbfb"/><path d="M390,156V0H0V156ZM230.942,39.761c-6.081-1.59-8.43-5.183-8.43-9.951.069-6.564,5.873-10.779,14.511-10.779,6.287,0,10.3,2.35,10.3,6.15,0,2-1.521,3.248-3.455,3.593-.554-4.077-3.178-7.6-7.048-7.6-4.561,0-7.117,3.594-7.117,8.154,0,6.565,3.455,9.328,9.95,9.812l.76,1.8c-8.43-.276-15.548,3.87-15.616,12.991-.07,8.291,5.25,12.713,12.575,12.713,7.947,0,14.511-5.389,14.511-13.059,0-4.008-1.589-8.5-5.943-8.5-2.764,0-4.146,2.073-4.146,4.561a6.813,6.813,0,0,0,2.142,5.251,4.286,4.286,0,0,1-2.28.553c-2.487,0-4.491-1.451-4.491-4.63,0-4.7,4.284-6.978,7.462-9.259,2.834-2.073,7.325-4.7,7.256-8.292a3.644,3.644,0,0,0-2.418-3.523,4.037,4.037,0,0,1,3.04-1.313,4.409,4.409,0,0,1,4.7,4.491c0,2.9-1.727,4.56-4.145,6.219-1.727,1.313-4.7,2.626-7.326,4.353,7.6-.76,12.232,3.938,12.232,10.02,0,9.742-9.743,15.477-20.869,15.477-12.161,0-20.243-4.768-20.243-14.925C216.848,45.634,223.273,40.52,230.942,39.761ZM207.5,18.715a3.946,3.946,0,0,1,4.055,4.052,4.581,4.581,0,0,1-4.505,4.58,3.905,3.905,0,0,1-3.979-4.129A4.551,4.551,0,0,1,207.5,18.715Zm-8.632,47.607,1.123-.288a5.5,5.5,0,0,0,4.131-5.327V39.469a1,1,0,0,0-.459-.839l-4.495-2.86V35.1l10.96-2.7.3.227V60.754a5.5,5.5,0,0,0,4.074,5.313l.954.255V67.3H198.869Zm-87.357,9.4H101.9V96.218h4.429c4.5,0,6.23-1.877,7.582-7.132l.676-2.477h1.126V107.7H114.59l-.676-2.326c-1.352-5.255-3.078-7.057-7.582-7.057H101.9V113.8a5.5,5.5,0,0,0,4.57,5.422l3.312.567v1.276h-22.9v-1.276l2.916-.53a5.5,5.5,0,0,0,4.517-5.411V79.2a3.987,3.987,0,0,0-3.274-3.921l-4.159-.756V73.246h37.684l1.673,11.92L125.071,86l-5.227-5.771C117.217,77.3,116.24,75.725,111.512,75.725ZM146.749,94.64c-2.027,0-3.679-1.575-4.053-3.978a8.575,8.575,0,0,0-6.681,4.879v18.947a5.5,5.5,0,0,0,4.111,5.322l1.069.277v.978H124.679v-.978l.9-.245a5.5,5.5,0,0,0,4.053-5.306V93.231a1,1,0,0,0-.455-.836l-4.425-2.859V88.86l10.51-2.7.3.224-.15,7.356.3.227c2.4-4.656,6.381-7.734,9.834-7.734,3.378,0,5.03,2.1,5.03,4.356A3.767,3.767,0,0,1,146.749,94.64Zm22.79,26.425h-16.59v-.978l1.124-.289a5.5,5.5,0,0,0,4.131-5.325V93.236a1,1,0,0,0-.46-.84l-4.494-2.86V88.86l10.96-2.7.3.224V114.52a5.5,5.5,0,0,0,4.072,5.312l.957.255ZM157.153,76.984a4.551,4.551,0,0,1,4.429-4.5,3.946,3.946,0,0,1,4.054,4.055,4.581,4.581,0,0,1-4.5,4.578A3.9,3.9,0,0,1,157.153,76.984Zm14.822-11.059M150.928,67.3V66.023l2.723-.495a4.01,4.01,0,0,0,3.041-5.342L152.8,49.733H136.365l-3.954,10.6a4.008,4.008,0,0,0,2.489,5.2l1.465.489V67.3H122.778V66.023l1.57-.6a8.994,8.994,0,0,0,5.2-5.183l15.824-41.212H148.9l15.73,41.061a9,9,0,0,0,5.942,5.434l1.4.4a5.5,5.5,0,0,0,3.578-5.154V39.465a1,1,0,0,0-.456-.836l-4.423-2.859V35.1l10.509-2.7.3.227-.149,7.356.3.224c2.4-4.653,6.38-7.731,9.834-7.731,3.377,0,5.029,2.1,5.029,4.354a3.768,3.768,0,0,1-3.829,4.054c-2.027,0-3.678-1.578-4.053-3.979a8.568,8.568,0,0,0-6.681,4.88V60.722a5.5,5.5,0,0,0,4.113,5.323l1.066.277V67.3Zm38.434,50.313c3.678,0,6.756-.826,11.035-3l.45.9c-4.654,4.429-8.858,6.755-13.738,6.755-9.609,0-16.439-7.055-16.439-17.489,0-10.585,7.281-18.543,16.59-18.543s13.963,6.232,13.963,14.564H177.5C177.5,110.78,180.879,117.612,189.362,117.612Zm51.654,3.453H225.028v-.978l.74-.211a5.5,5.5,0,0,0,3.989-5.288V99.9c0-5.7-2.028-8.408-7.057-8.408a15.194,15.194,0,0,0-8.407,2.328v20.792a5.5,5.5,0,0,0,3.967,5.282l.686.2v.978H202.959v-.978l.9-.245a5.5,5.5,0,0,0,4.052-5.306V93.231a1,1,0,0,0-.455-.836l-4.424-2.859V88.86l10.509-2.7.3.224-.151,6.005.3.15q6.753-6.3,12.834-6.306c6.757,0,9.234,5.106,9.234,10.437v17.867a5.5,5.5,0,0,0,4.053,5.306l.9.245Zm36.345-1.5-10.134,2.778-.376-.151-.6-4.953-.3-.151-1.877,1.651a12.306,12.306,0,0,1-8.857,3.527c-6.907,0-13.663-5.854-13.663-16.964,0-9.759,6.306-19.068,18.843-19.068a25.865,25.865,0,0,1,5.7.527V72.914a.991.991,0,0,0-.491-.857l-4.989-2.938v-.753l11.485-2.927.3.151v47.526a5.5,5.5,0,0,0,3.483,5.117l1.472.58Zm12.146,2.627a24.227,24.227,0,0,1-10.284-2.026V110.7l1.577-.148c2.476,6.905,5.931,9.757,9.983,9.757,3.979,0,6.532-2.326,6.532-6.3,0-4.055-3.979-5.631-8.182-7.357-4.579-1.953-9.384-4.13-9.384-9.983,0-5.932,4.58-10.51,11.786-10.51a30.373,30.373,0,0,1,8.857,1.425l.226,8.483-1.352.376c-2.927-6.006-5.78-8.409-9.083-8.409-3.379,0-5.629,1.953-5.629,5.106,0,4.052,4.052,5.63,8.331,7.432,4.655,1.95,9.609,4.127,9.609,10.208C302.494,117.761,296.864,122.19,289.507,122.19Z" fill="#fcfbfb"/></svg>