<svg xmlns="http://www.w3.org/2000/svg" xmlns:xlink="http://www.w3.org/1999/xlink" viewBox="0 0 97.219 86.203"><defs><clipPath id="a"><rect x="20.115" y="20.247" width="56.988" height="40.121" fill="none"/></clipPath></defs><g><g clip-path="url(#a)"><path d="M55.9,28.251c-.66-.311-1.32-.605-1.98-.916-.055-.037-.092.055-.147.073-.458.513-.935,1.027-1.394,1.54.092-.733.184-1.467.257-2.2-.678-.294-1.357-.605-2.017-.9.715-.146,1.449-.293,2.164-.421.092-.734.165-1.467.238-2.219.367.642.715,1.284,1.082,1.944.715-.147,1.449-.312,2.164-.459-.5.55-1.009,1.082-1.5,1.614.385.66.752,1.3,1.137,1.943m1.962-7H39.285V36.631a15.064,15.064,0,0,1,3.007-4.181,16,16,0,0,1,4.2-2.97,16.419,16.419,0,0,0-3.924,4.2,15.023,15.023,0,0,0-2.219,6.143h1.1a15.393,15.393,0,0,1,2.439-6.693,15.146,15.146,0,0,1,3.85-3.942,16.974,16.974,0,0,1,3.851-1.981c-.22.147-.458.294-.678.44a15.152,15.152,0,0,0-4.089,3.924,9.668,9.668,0,0,0-.862,1.376,15.039,15.039,0,0,0-1.834,6.876c1.119-.019,2.256.018,3.374-.019a4.965,4.965,0,0,0,.532,0h9.791c.037-6.179.037-12.358.037-18.556"/><path d="M49.919,43.489a9.976,9.976,0,0,1,1.632-.238,21.632,21.632,0,0,0-.055,2.182v4.272c0,.073-.018.183.073.22a3.271,3.271,0,0,0,.6.165v.239H49.882V50.09c.22-.092.514-.055.679-.238.018-1.871,0-3.759,0-5.648.018-.348-.4-.385-.642-.513Z"/><path d="M53.44,43.361a4.245,4.245,0,0,1,.972-.128c-.11,1.283-.037,2.567-.055,3.832v2.659c0,.073.018.146.091.165.184.073.4.11.587.165v.238H52.761v-.238c.221-.092.514-.055.679-.239.018-1.778,0-3.575.018-5.354a1.366,1.366,0,0,0-.055-.477c-.146-.165-.366-.183-.55-.293-.092-.018-.055-.147-.055-.22.2-.037.422-.055.642-.11"/><path d="M64.148,43.269a.6.6,0,0,1,.752.532.617.617,0,0,1-.66.7.628.628,0,0,1-.514-.733.68.68,0,0,1,.422-.5"/><path d="M21.865,45.121a3.453,3.453,0,0,1,2.4-1.155,4.276,4.276,0,0,1,1.98.293c.055-.073.129-.165.184-.238h.22c.036.715.091,1.43.128,2.163H26.5a5.673,5.673,0,0,0-.385-1.265c-.092-.22-.33-.311-.532-.422a2.588,2.588,0,0,0-1.778-.073,2,2,0,0,0-1.192,1.119,4.294,4.294,0,0,0-.239,2.494,2.565,2.565,0,0,0,1.247,1.851,2.319,2.319,0,0,0,2.109-.146c.165-.074.238-.257.33-.4a6.439,6.439,0,0,0,.44-1.118H26.8c-.11.623-.238,1.228-.348,1.852a4.965,4.965,0,0,1-1.852.366,3.488,3.488,0,0,1-2.384-.733,3.339,3.339,0,0,1-.348-4.584"/><path d="M43.557,44.406h.33v1.339H45.3V46.2H43.887v2.751a1.155,1.155,0,0,0,.165.7.87.87,0,0,0,.7.22,1.108,1.108,0,0,0,.733-.311.776.776,0,0,0,.11.128,1.5,1.5,0,0,1-.935.7,1.542,1.542,0,0,1-1.265-.22,1.169,1.169,0,0,1-.385-.917V46.221h-.55v-.348a2.1,2.1,0,0,0,.642-.312,9.581,9.581,0,0,0,.458-1.155"/><path d="M60.444,45.561a8.072,8.072,0,0,0,.477-1.155h.33v1.338h1.412V46.2H61.251v2.86a.765.765,0,0,0,.348.734,1.228,1.228,0,0,0,1.265-.239c.019.037.074.092.092.129a1.545,1.545,0,0,1-1.082.733,1.438,1.438,0,0,1-1.155-.275,1.16,1.16,0,0,1-.348-.9V46.221h-.55v-.348a2,2,0,0,0,.623-.312"/><path d="M32.738,45.763a9.335,9.335,0,0,1,1.595-.275v.99a1.855,1.855,0,0,1,1.1-.935,1.718,1.718,0,0,1,1.486.275,1.53,1.53,0,0,1,.531,1.155c.019.954-.018,1.925.019,2.879a2.085,2.085,0,0,0,.678.22v.238H35.855v-.238c.22-.073.459-.092.679-.183a1.02,1.02,0,0,0,.018-.33V47.23a1.189,1.189,0,0,0-.459-1.027,1.29,1.29,0,0,0-1.558.33.629.629,0,0,0-.183.422v2.9a2.086,2.086,0,0,0,.678.2v.238H32.756v-.238c.22-.074.495-.055.7-.22.018-1.064,0-2.146.018-3.209,0-.129.019-.294-.091-.385a3.339,3.339,0,0,0-.587-.275.264.264,0,0,1-.055-.2"/><path d="M41.558,45.506h.257v1.54h-.257a2.573,2.573,0,0,0-.275-.825,1.015,1.015,0,0,0-1.3-.238.834.834,0,0,0,.055,1.43c.44.2.917.33,1.339.55a1.235,1.235,0,0,1,.22,2.054,2.087,2.087,0,0,1-1.541.421,2.332,2.332,0,0,1-.99-.256c-.036.091-.091.183-.128.256h-.257q-.027-.879-.055-1.76H38.9a4.077,4.077,0,0,0,.44,1.045,1.173,1.173,0,0,0,1.467.184.838.838,0,0,0,.2-1.027c-.128-.275-.44-.349-.7-.44a3.165,3.165,0,0,1-1.247-.66,1.247,1.247,0,0,1-.293-1.192,1.418,1.418,0,0,1,.7-.862,2.065,2.065,0,0,1,1.962.019c.036-.074.091-.166.128-.239"/><path d="M64.35,45.524a1.58,1.58,0,0,1,.422-.018v4.18c0,.074-.019.22.091.239.2.055.4.091.587.146v.239H63.158v-.239c.22-.091.532-.055.7-.238.018-1.063,0-2.127.018-3.191,0-.128.037-.311-.11-.385A2.367,2.367,0,0,0,63.176,46v-.22c.367-.092.771-.184,1.174-.257"/><path d="M70.712,45.781a7.855,7.855,0,0,1,1.595-.275v.99a1.855,1.855,0,0,1,1.1-.935,1.805,1.805,0,0,1,1.467.257,1.5,1.5,0,0,1,.55,1.228v2.769c-.018.073.055.11.129.147.183.055.367.091.55.146v.239H73.811v-.239a4.843,4.843,0,0,0,.7-.183c.036-.66,0-1.32.018-1.98a3.042,3.042,0,0,0-.183-1.412.893.893,0,0,0-.789-.422,1.291,1.291,0,0,0-1.228.77c0,.99-.019,2,0,2.989.165.183.458.147.66.22v.239H70.712V50.09a2.348,2.348,0,0,0,.7-.22V46.478a.3.3,0,0,0-.11-.239,3.851,3.851,0,0,0-.569-.256.842.842,0,0,1-.018-.2"/><path d="M29.805,45.873a1.16,1.16,0,0,0-.789.476,2.609,2.609,0,0,0-.4,1.339,3.239,3.239,0,0,0,.348,1.76,1.192,1.192,0,0,0,.825.624,1.149,1.149,0,0,0,1.119-.441,2.919,2.919,0,0,0,.422-1.613,2.764,2.764,0,0,0-.477-1.7,1.142,1.142,0,0,0-1.045-.44m-.422-.312a2.458,2.458,0,0,1,2.017.367,2.21,2.21,0,0,1,.862,1.375,2.824,2.824,0,0,1-.33,2.072,2.2,2.2,0,0,1-1.522,1.008,2.629,2.629,0,0,1-1.779-.33,2.258,2.258,0,0,1-.935-1.375,2.809,2.809,0,0,1,.238-2.035,2.344,2.344,0,0,1,1.449-1.082"/><path d="M47.132,46.093a1.771,1.771,0,0,0-.587,1.192c.7-.037,1.412-.055,2.109-.092a1.2,1.2,0,0,0-.312-1.174,1.052,1.052,0,0,0-1.21.074m0-.477a2.287,2.287,0,0,1,1.669.073,1.454,1.454,0,0,1,.806,1.064,2.113,2.113,0,0,1-.036.9c-1.009-.018-2.017-.055-3.026-.073a2.459,2.459,0,0,0,.477,1.742,1.686,1.686,0,0,0,2.475-.165.529.529,0,0,1,.11.092,1.992,1.992,0,0,1-2.42,1.136,2.047,2.047,0,0,1-1.357-1.246,3.032,3.032,0,0,1,.055-2.366,2.048,2.048,0,0,1,1.247-1.155"/><path d="M67.8,45.873a1.2,1.2,0,0,0-.66.33,1.938,1.938,0,0,0-.5,1.155,3.521,3.521,0,0,0,.183,1.8,1.508,1.508,0,0,0,.679.825,1.1,1.1,0,0,0,1.356-.293,2.556,2.556,0,0,0,.459-1.5,2.773,2.773,0,0,0-.44-1.833,1.21,1.21,0,0,0-1.082-.477m-.33-.33a2.458,2.458,0,0,1,1.944.422,2.272,2.272,0,0,1,.843,1.448,2.741,2.741,0,0,1-.385,2.036,2.206,2.206,0,0,1-1.522.953,2.478,2.478,0,0,1-1.888-.458,2.269,2.269,0,0,1-.807-1.357,2.829,2.829,0,0,1,.33-2.036,2.292,2.292,0,0,1,1.485-1.008"/><path d="M57.474,48.147a2.183,2.183,0,0,0-.935.44.8.8,0,0,0-.129.953.713.713,0,0,0,.569.33,1.359,1.359,0,0,0,1.118-.4c.055-.073.147-.128.128-.22v-1.32c-.238.073-.5.146-.751.22m-.312-2.6a2.357,2.357,0,0,1,1.375.165,1.267,1.267,0,0,1,.605,1.1v2.421a2.283,2.283,0,0,0,.074.605,2.57,2.57,0,0,0,.751.091v.2a1.755,1.755,0,0,1-1.283.238.785.785,0,0,1-.422-.733,1.789,1.789,0,0,1-2.292.587,1.145,1.145,0,0,1-.44-1.375,1.557,1.557,0,0,1,.917-.752,15.688,15.688,0,0,1,1.815-.532,2.777,2.777,0,0,0-.11-1.1.871.871,0,0,0-.605-.495,1.731,1.731,0,0,0-1.137.147.951.951,0,0,1,.239.806.525.525,0,0,1-.771.294.557.557,0,0,1-.22-.532.872.872,0,0,1,.422-.624,2.7,2.7,0,0,1,1.082-.513"/><path d="M39.944,54.674a9.335,9.335,0,0,1,1.595-.275v1.064a1.73,1.73,0,0,1,.789-.936.859.859,0,0,1,.788-.055.473.473,0,0,1,.294.477.832.832,0,0,1-.477.624.579.579,0,0,0-.367-.349,1.045,1.045,0,0,0-.843.294.391.391,0,0,0-.184.293v2.9a1.09,1.09,0,0,0,.2.11c.275.055.55.092.825.128v.239h-2.53c-.165.037-.11-.147-.129-.239a2.1,2.1,0,0,0,.679-.22c.036-1.063,0-2.145.018-3.208,0-.129.018-.294-.092-.386a2.592,2.592,0,0,0-.605-.275c.037-.036.037-.11.037-.183"/><path d="M49.864,55.407a1.749,1.749,0,0,1,1.21-.972,1.663,1.663,0,0,1,1.43.349,1.642,1.642,0,0,1,.459,1.21v2.6a.261.261,0,0,0,.055.2c.2.11.44.092.623.184v.238H51.349v-.257a4.62,4.62,0,0,0,.679-.183.6.6,0,0,0,.018-.257V56.14a1.224,1.224,0,0,0-.477-1.063,1.288,1.288,0,0,0-1.5.293.71.71,0,0,0-.239.477c.019.954-.018,1.925.019,2.879.183.147.44.128.66.2v.238H48.232v-.257c.22-.073.513-.055.678-.238.019-1.064,0-2.127.019-3.191,0-.146.018-.33-.11-.421a3.136,3.136,0,0,0-.569-.257v-.22a9.66,9.66,0,0,1,1.6-.275c0,.422,0,.752.018,1.1"/><path d="M60.517,54.6a2.119,2.119,0,0,1,1.907.055c.037-.092.073-.165.11-.257h.257v1.522h-.275a1.354,1.354,0,0,0-.569-1.063.947.947,0,0,0-1.21.165.99.99,0,0,0-.092.935c.129.312.477.385.752.5a5.966,5.966,0,0,1,.935.4,1.323,1.323,0,0,1,.624.752,1.3,1.3,0,0,1-.367,1.265,2.052,2.052,0,0,1-1.448.459,2.5,2.5,0,0,1-1.1-.257c-.036.092-.091.183-.128.275h-.257q-.027-.881-.055-1.76h.257a3.691,3.691,0,0,0,.477,1.063,1.226,1.226,0,0,0,1.393.22.8.8,0,0,0-.036-1.357,5.662,5.662,0,0,1-1.614-.77,1.24,1.24,0,0,1-.33-1.283,1.385,1.385,0,0,1,.77-.862"/><path d="M56.025,54.876a1.493,1.493,0,0,0-.9.7,2.756,2.756,0,0,0-.275,1.7,1.613,1.613,0,0,0,.587,1.137,1.41,1.41,0,0,0,1.614.073c.11-.091.293-.165.275-.33V55.1a1.8,1.8,0,0,0-1.3-.22m.5-2.512a14.337,14.337,0,0,1,1.779-.22c-.11,1.1-.055,2.2-.074,3.3v3.1c0,.074-.018.184.074.22a2.55,2.55,0,0,0,.623.147v.22c-.532.073-1.063.165-1.595.238v-.843a1.879,1.879,0,0,1-.88.678,1.857,1.857,0,0,1-1.944-.421,2.92,2.92,0,0,1-.128-3.539,2.222,2.222,0,0,1,1.613-.862,1.645,1.645,0,0,1,1.339.44V53.1c-.019-.109,0-.275-.11-.348a4.382,4.382,0,0,0-.7-.22Z"/><path d="M35.892,56.2v2.6a3.605,3.605,0,0,0,1.595-.018,1.192,1.192,0,0,0,.788-1.119,1.21,1.21,0,0,0-.568-1.173,3.061,3.061,0,0,0-1.815-.294m0-2.75v2.42a4.35,4.35,0,0,0,1.54-.147,1.073,1.073,0,0,0,.623-.751,1.5,1.5,0,0,0-.183-1.155,1.3,1.3,0,0,0-.99-.422,2.568,2.568,0,0,0-.99.055M34,53.024h2.9a2.949,2.949,0,0,1,1.669.422,1.288,1.288,0,0,1,.55,1.063,1.229,1.229,0,0,1-.422.972,2.26,2.26,0,0,1-.825.495,2.037,2.037,0,0,1,1.265.77,1.517,1.517,0,0,1,.129,1.449,1.433,1.433,0,0,1-.716.715,3.177,3.177,0,0,1-1.43.293H34v-.311a3.589,3.589,0,0,0,.77-.165c.092-.037.073-.147.073-.22V54.253a5.367,5.367,0,0,0-.018-.771,3.03,3.03,0,0,0-.825-.2Z"/><path d="M45.464,57.094a1.883,1.883,0,0,0-.752.4.833.833,0,0,0-.11.935.679.679,0,0,0,.5.331,1.362,1.362,0,0,0,1.229-.422c.036-.055.11-.092.091-.184V56.819c-.33.092-.642.183-.953.275M44.6,54.747a1.938,1.938,0,0,1,1.265-.33,1.556,1.556,0,0,1,1.082.4,1.354,1.354,0,0,1,.348.972V57.9a3.329,3.329,0,0,0,.074.862,2.524,2.524,0,0,0,.733.091v.2a1.755,1.755,0,0,1-1.283.238c-.294-.091-.385-.44-.422-.715a1.766,1.766,0,0,1-.99.715,1.7,1.7,0,0,1-1.339-.165,1.148,1.148,0,0,1-.4-1.32,1.489,1.489,0,0,1,.88-.752c.605-.238,1.228-.366,1.852-.55-.018-.458.073-1.008-.275-1.357a1.416,1.416,0,0,0-1.559-.073.852.852,0,0,1,.184.935.524.524,0,0,1-.844.037.692.692,0,0,1,.037-.77,1.847,1.847,0,0,1,.66-.532"/></g><rect width="97.219" height="86.203" fill="none"/></g></svg>