<svg xmlns="http://www.w3.org/2000/svg" xmlns:xlink="http://www.w3.org/1999/xlink" viewBox="0 0 97.219 86.203"><defs><clipPath id="a"><rect x="22.625" y="31.554" width="51.969" height="23.096" fill="none"/></clipPath></defs><g clip-path="url(#a)"><path d="M24.713,35.1c-.614.019-1.077-.252-1.088-.632a2.3,2.3,0,0,1,.957-1.282,10.542,10.542,0,0,1,3.5-.625,20.233,20.233,0,0,1,3.107.233c6.278.941,12.868,5.784,12.994,10.079.086,2.922-2.41,5.663-7.281,5.81a12.36,12.36,0,0,1-3.563-.41c-.024.717.029,1.1-.977,1.128-.615.018-.854-.99-.945-1.81-2.941-1.32-4.713-3.464-4.738-4.311-.037-1.26,2.229-2.311,4.878-2.727.037-1.044.212-3.7.756-3.717.219-.006.672.507.843,1.292a14.187,14.187,0,0,1,.174,2.247l.2-.007c3.717-.112,5.945,1.064,5.986,2.457A1.611,1.611,0,0,1,38.1,44.468c-.495.015-1.076-.27-1.081-.425-.009-.3,1.058-.367,1.044-.848-.022-.724-2.977-1.042-4.8-1.053,0,.624-.011,1.378,0,1.884.015.487.045,1.744.059,2.793a10.557,10.557,0,0,0,2.512.248c1.963-.059,6.447-.783,6.347-4.192-.14-4.761-9.445-9.135-14.43-8.985-1.963.059-3.141.272-3.135.467,0,.13.956.18.963.437s-.541.292-.876.3m6.821,7.118c-1.864.14-4.247.49-4.228,1.151.021.69,1.777,2.017,4.084,2.882.107-1.414.134-2.912.144-4.033"/><path d="M45.6,40.3c.321-.01.781.769.8,1.256s.129,3.03.163,3.762a11.333,11.333,0,0,1-.037,1.76c-.048.325-.164.485-.715.5a.779.779,0,0,1-.855-.807c-.046-.491-.087-1.884-.063-2.582s.056-2.033.146-2.869.311-1.014.566-1.022"/><path d="M44.239,37.321a.591.591,0,0,1-.07-.289,2.015,2.015,0,0,1,1.861-1.6A5.659,5.659,0,0,0,45,36.355a9.73,9.73,0,0,0-.764.966m1.167.644c.276-.4,1.708-2.334,3.184-2.379.433-.013.547.258.556.558a2.633,2.633,0,0,1-2.7,1.886,5.406,5.406,0,0,1-1.038-.065m3.386-3.38c-.091-.231-.4-.7-1.493-.665-2.386.072-4.221,1.859-4.18,3.268a1.778,1.778,0,0,0,.553,1.187,1.263,1.263,0,0,0-.09.472c.008.245.372.891.651.883.236-.008.4-.232.626-.594a2.889,2.889,0,0,0,1.084.22c2.243-.068,4.278-2.194,4.238-3.555a1.223,1.223,0,0,0-1.389-1.216"/><path d="M51.421,40.169c1.312-.039,2.958.133,2.97.558a.82.82,0,0,1-.822.839c-.827.085-5,.264-4.98.784.008.276,1.261.337,2.41.407,1.18.072,3.076.117,3.133,2.05.045,1.526-.526,1.849-.783,1.97a6.982,6.982,0,0,1-2.262.6c-2.532.076-3.576-1.4-3.6-2.144-.019-.664.656-1.253,1.792-1.287s2.9.38,2.908.853c.012.383-.764.58-1.107.59-1.549.047-1.474-.591-2.367-.564-.509.016-1.223,1.109,1.327,1.033,2.271-.069,2.96-.826,2.948-1.233-.016-.539-1.646-.8-2.589-.851a8.637,8.637,0,0,1-2.841-.352c-.482-.308-.415-1.007-.248-1.585.35-1.209,2.8-1.63,4.109-1.669"/><path d="M55.905,40.669c.887-.027,2.748,4.044,3.061,4.035s.081-.951-.117-1.991c-.448-2.353-1.147-3.565-.491-3.585.486-.015,2.077,1.543,2.165,4.559.041,1.4-.154,3.233-1.408,3.27-1.189.036-2.544-3.762-2.851-3.753a17.667,17.667,0,0,0-.224,3.061c-.045.708-.288,1.087-.679,1.1-.591.017-.851-.556-.884-1.687s.334-4.975,1.428-5.008"/><path d="M64.929,42.871c.42-.013.791-.084.754.469s-.06.774-.5.787l-2.246.068c-.074.252-.266.9-.352,1.178-.109.345.233.269.673.142a13.056,13.056,0,0,1,2.126-.37c.492-.014.857.777.576,1.049a6.01,6.01,0,0,1-3.386,1.617,1.686,1.686,0,0,1-1.636-1.658,5.888,5.888,0,0,1,.426-1.929c-.053-.034-.093-.112-.124-.284-.071-.387-.243-.813.394-.886.052-.006.116-.012.191-.018l.526-1.1a1.932,1.932,0,0,1-.54-.148,1.363,1.363,0,0,1-.7-.884c-.014-.473,3.412-.755,4.2-.779.852-.026,1.094.141,1.366.534a1.935,1.935,0,0,1,.378.779c0,.108-.1.374-1.125.4-.526.016-1.378.106-2.2.136l-.355.96c.794-.04,1.538-.071,1.538-.071"/><path d="M69.739,45.577c1.123-2.222,2.281-3.488,2.688-3.5.706-.022.108,3.209-2.688,3.5m-2.489.571a12.1,12.1,0,0,0-1.5,5.245c.048,1.65,1.05,2.266,1.354,2.257s.32-.5.374-.862a24.694,24.694,0,0,1,1.453-5.42,2.558,2.558,0,0,0,.7.083c1.865-.056,4.027-2.31,3.956-4.711-.037-1.267-.516-2.166-1.319-2.142-1.174.035-2.863,1.831-4.218,4.086a6.326,6.326,0,0,1,1.2-3.308c.427-.692.352-1.514.174-1.509a6.077,6.077,0,0,0-2.571,4.9,2.723,2.723,0,0,0,.392,1.386"/></g></svg>