<svg xmlns="http://www.w3.org/2000/svg" xmlns:xlink="http://www.w3.org/1999/xlink" viewBox="0 0 97.219 86.203"><defs><clipPath id="a"><rect x="30.983" y="25.471" width="35.253" height="35.262" fill="none"/></clipPath></defs><g clip-path="url(#a)"><path d="M32.307,48.05,42.6,37.792,53.874,49.1,43.58,59.362a1.108,1.108,0,0,1-1.563,0L32.3,49.613a1.108,1.108,0,0,1,0-1.563"/><path d="M43.345,37.05,53.639,26.792a1.108,1.108,0,0,1,1.563,0l9.713,9.747a1.109,1.109,0,0,1,0,1.563L54.618,48.362Z"/><path d="M52.57,35.23a2.763,2.763,0,1,1-.007,3.907,2.762,2.762,0,0,1,.007-3.907" fill="#fff"/><path d="M44.793,47a2.763,2.763,0,1,1-.007,3.907A2.762,2.762,0,0,1,44.793,47" fill="#fff"/><path d="M36.705,47.022a2.763,2.763,0,1,1-.007,3.907,2.762,2.762,0,0,1,.007-3.907" fill="#fff"/><polygon points="47.158 59.732 47.158 58.351 46.632 58.351 46.632 58.11 47.957 58.11 47.957 58.351 47.428 58.351 47.428 59.732 47.158 59.732"/><polygon points="48.139 59.732 48.139 58.11 48.537 58.11 48.946 59.405 49.342 58.11 49.733 58.11 49.733 59.732 49.486 59.732 49.486 58.371 49.068 59.732 48.824 59.732 48.388 58.351 48.388 59.732 48.139 59.732"/></g></svg>