<svg xmlns="http://www.w3.org/2000/svg" viewBox="0 0 97.219 86.203"><path d="M71.723,37.067a.663.663,0,1,1,.656-.662.66.66,0,0,1-.656.662m0-1.434a.772.772,0,1,0,.771.772.772.772,0,0,0-.771-.772m-.018.737h-.13v-.259h.13c.117,0,.18.041.18.131s-.063.128-.18.128m.166.088a.224.224,0,0,0,.18-.216c0-.187-.148-.262-.314-.262h-.326v.847h.164V36.5h.055c.116,0,.161.056.31.326h.182a1.184,1.184,0,0,0-.251-.369M53.978,53.313a.613.613,0,0,1-.65.624.6.6,0,0,1-.631-.619h.435c0,.2.089.3.2.3s.192-.1.192-.3-.091-.293-.192-.293a.371.371,0,0,0-.253.1l-.3-.108.115-.99h1v.336h-.642l-.046.358a.769.769,0,0,1,.182-.022.566.566,0,0,1,.6.614m-2.174.26h.5v.363H51.07v-.3s.833-.541.833-.992a.219.219,0,0,0-.206-.246c-.2,0-.255.214-.184.422l-.355.106a.642.642,0,0,1-.06-.274.587.587,0,0,1,.61-.605.539.539,0,0,1,.585.567,1.412,1.412,0,0,1-.6.969.872.872,0,0,1,.107-.006m3.56,1.4H40.413l-.839-2.04.839-2.041H55.364l.839,2.041ZM40.275,50.689l-.924,2.247.924,2.246H55.5l.924-2.246L55.5,50.689Zm9.711,2.351a.309.309,0,0,1-.307-.336.322.322,0,0,1,.308-.347.343.343,0,0,1,0,.683m0-1.013a.659.659,0,0,0-.681.682.586.586,0,0,0,.588.621.478.478,0,0,0,.346-.125l.006.005a.814.814,0,0,1-.555.44l.112.309a1.126,1.126,0,0,0,.864-1.159.688.688,0,0,0-.68-.773m-1.359,1.562h.242v.346h-.861v-.346h.239V52.482l-.179.094-.143-.309.411-.2h.291Zm-2.145.125a.245.245,0,1,1-.245-.245.248.248,0,0,1,.245.245m-1.091-1.08h.184v.347h-.184v.954h-.373v-.954h-.18v-.347h.18V52.17h.373Zm-.948.912a.448.448,0,0,1-.5.416.734.734,0,0,1-.566-.219l.209-.245a.484.484,0,0,0,.361.147c.079,0,.138-.032.138-.08,0-.067-.067-.1-.176-.131-.2-.058-.453-.171-.453-.434a.429.429,0,0,1,.461-.392.585.585,0,0,1,.453.189l-.207.224a.381.381,0,0,0-.237-.117c-.07,0-.121.032-.121.082s.075.1.192.131c.2.058.451.181.451.429m-2.672-1.477H42.9v.339h-.757v.373h.531v.336h-.531v.48H42.9v.338H41.768ZM31.29,36.545A5.328,5.328,0,0,0,31,38.159a2.509,2.509,0,0,0,.45,1.505c.838-.59,1.521-2.638,1.521-4.19,0-.869-.218-1.583-.745-1.816C30.358,33.643,28.815,37,28.7,39.68a4.287,4.287,0,0,0,.435,2.405,9.531,9.531,0,0,0,1.924-.807,1.155,1.155,0,0,1,.233.652,1.225,1.225,0,0,1-1.366,1.133,2.593,2.593,0,0,1-1.3-.388c-1.551.605-2.25,2.592-2.25,4.066,0,.714.171,1.288.5,1.474,1.722-.062,2.421-2.529,2.5-4.05a2.058,2.058,0,0,1,.3-.031c.714,0,1.056.543,1.056,1.257a3.5,3.5,0,0,1-3.322,3.445,2.441,2.441,0,0,1-2.669-2.607,3.951,3.951,0,0,1,3.383-3.989,4.262,4.262,0,0,1-.853-2.855c0-2.887,1.722-6.363,4.485-6.363,1.893,0,2.638,1.366,2.638,2.918,0,2.017-1.273,4.314-2.98,4.314-.952,0-1.6-.646-1.6-1.851,0-.912.728-1.951,1.214-1.951a.5.5,0,0,1,.28.093m32.048,8.97A4.609,4.609,0,0,1,62.312,44.2l-.042.006a20.324,20.324,0,0,0,2.122-4.031c-.111,3.272-.559,4.88-1.054,5.344M35.325,40.021c1.071-3.011,2.685-6.145,3.336-6.394.187.373-2.529,7.03-3.848,7.853.155-.466.326-.962.512-1.459m34.546-1.707a4.922,4.922,0,0,0,.5-1.35c0-.357-.3-.636-1.164-.6-.17.341-.48,1.07-.854,1.955-.264,0-.527,0-.776.016a.274.274,0,0,0-.279.31.375.375,0,0,0,.016.124c.233.031.512.062.822.078-.291.706-.6,1.483-.885,2.243a18.041,18.041,0,0,1-1.831,3.281,5.093,5.093,0,0,0,.187-1.427,36.78,36.78,0,0,0-.5-3.725c0-.916,1.552-1.6,2.467-2.017-.154-.652-.527-1.257-1.1-1.257-.792,0-1.255.868-2.225,3.32-1.147,2.705-3.091,5.556-4.09,6.162a13.777,13.777,0,0,1,.869-2.157,12.392,12.392,0,0,0,1.164-2.98c0-.714-.372-.714-1.521-1.086a.216.216,0,0,1-.14-.233.772.772,0,0,1,.109-.388,15.818,15.818,0,0,1,1.256-2.111.876.876,0,0,0-.76-.45c-.589,0-1.225.667-1.225,2.313a1.682,1.682,0,0,0,.151.812c-1.213,2.92-3.125,5.772-4.156,6.28.218-.637.9-2.08,1.443-3.492a16.17,16.17,0,0,0,.994-3.275c0-.294-.249-.4-.606-.4a2.554,2.554,0,0,0-.573.062,35.728,35.728,0,0,1-1.49,3.74c-.9,1.831-1.955,3.383-2.562,3.414a.525.525,0,0,1-.014-.155c0-1.257,2.157-5.183,2.157-6.052a.948.948,0,0,0-.963-1.025c-.4,0-.854.094-1.318.078a.591.591,0,0,0-.047.217c0,.155.109.264.4.264a2.523,2.523,0,0,0,.666-.109,9.2,9.2,0,0,1-.58,1.638c-.961,2.134-2.444,4.614-3.61,5.175a10.568,10.568,0,0,1,1.289-3.243,10.632,10.632,0,0,0,1.24-3.135c0-.714-.76-.978-1.3-.978-.964,0-2.034,1.894-3.2,4.128.76-2.095,1.63-4.2,2.375-5.959a14.432,14.432,0,0,0,.947-2.328,1.047,1.047,0,0,0-.978-.946c-.451,0-.915.124-1.63.093a.744.744,0,0,0-.077.294c.014.187.139.3.574.3a3.535,3.535,0,0,0,.807-.108c-.5,1.04-1.505,3.445-2.5,5.928-.148.376-.3.757-.45,1.139-1,2.131-2.45,4.482-3.57,4.882-.063-.62.7-2.033,1.318-3.3a10.788,10.788,0,0,0,1.211-3.15c0-.714-.761-.978-1.3-.978-.948,0-1.971,1.971-3.088,4.159a16.31,16.31,0,0,0,1.179-3.414c0-.683-.684-.932-1.164-.932-.9,0-1.816,1.971-3.088,4.237A14.81,14.81,0,0,0,39.655,38.7c0-.3-.217-.435-.652-.435-.14,0-.3.016-.465.032a13.12,13.12,0,0,1-.687,1.92c-.976,2.2-2.514,4.707-3.643,5.265a1.193,1.193,0,0,1-.171-.683,10.334,10.334,0,0,1,.59-2.731c2.048-.559,4.547-6.146,4.547-8.194a.816.816,0,0,0-.73-.776c-2.234,0-5.8,8.97-5.8,11.825A1.3,1.3,0,0,0,33.9,46.182c.813,0,1.771-1.151,2.578-2.486a8.551,8.551,0,0,0-.483,1.788c0,.465.311.558.714.558.124,0,.264-.015.4-.015.729-2.111,3.724-7.589,4.283-7.5A16.781,16.781,0,0,1,40.1,41.9a16.479,16.479,0,0,0-1.148,3.647c0,.388.465.5.9.5a2.08,2.08,0,0,0,.341-.031c.854-2.436,3.708-7.387,4.268-7.294a12.7,12.7,0,0,1-1.336,3.058,10.265,10.265,0,0,0-1.178,3.15,1.23,1.23,0,0,0,1.1,1.257,1.853,1.853,0,0,0,1.2-.5,8.633,8.633,0,0,0,1.513-1.961,8.143,8.143,0,0,0-.473,1.821c0,.5.526.543,1.086.574.838-1.924,3.77-7.356,4.562-7.387.063.466-.667,1.707-1.365,3.042a9.84,9.84,0,0,0-1.18,3.15,1.23,1.23,0,0,0,1.1,1.257c.813,0,1.776-1.154,2.586-2.491a5.355,5.355,0,0,0-.3,1.5,1.109,1.109,0,0,0,1.21,1.04c.605,0,1.365-.807,2.2-2.359a4.791,4.791,0,0,0-.435,1.4.974.974,0,0,0,.994.916c.9,0,1.969-1.334,2.979-3.135a26.983,26.983,0,0,0,1.639-3.541,2.355,2.355,0,0,0,.239.174c.185.124.326.217.326.434,0,.481-2.219,4.066-2.219,4.827a1.214,1.214,0,0,0,1.117,1.241,3,3,0,0,0,1.958-1.341c0,.022,0,.045,0,.069,0,.605.557,1.272,1.737,1.272,1.029,0,1.994-1.032,2.763-2.274a4.547,4.547,0,0,0-.2,1.048,1.308,1.308,0,0,0,1.305,1.226c.931,0,2.142-1.754,2.142-2.421,0-.155-.095-.186-.218-.171a4.717,4.717,0,0,1-1.6,1.847.7.7,0,0,1-.185-.574,3.424,3.424,0,0,1,.232-1.04c.745-2.048,1.351-3.631,1.878-4.935.931-.031,1.366-.124,1.366-.372a.382.382,0,0,0-.062-.186c-.343,0-.7-.016-1.071-.016"/></svg>