<svg xmlns="http://www.w3.org/2000/svg" xmlns:xlink="http://www.w3.org/1999/xlink" viewBox="0 0 97.219 86.203"><defs><clipPath id="a"><rect x="23.547" y="24.258" width="50.124" height="33.688" fill="none"/></clipPath></defs><g><rect width="97.219" height="86.203" fill="none"/><g clip-path="url(#a)"><path d="M42.583,47.331c.018.263.422.2.369-.068-.017-.083-.082-.161-.235-.118a.157.157,0,0,0-.134.186m-4.227-.491c.009.218.663.216.57-.068-.039-.117-.345-.122-.47-.067-.086.038-.1.073-.1.135M35.2,45.976c0,.253.613.219.57-.033-.025-.152-.294-.146-.436-.1-.095.03-.134.021-.134.135m11.843-.219c-.108.347.394.32.369.05a.161.161,0,0,0-.2-.152c-.1.01-.154.057-.168.1m11.457,0c.045.177.658.17.571-.1-.036-.112-.365-.13-.487-.068a.134.134,0,0,0-.084.17m-8,.152c.283.058.33-.461-.017-.339-.223.079-.067.322.017.339m3.556.288c.09-.005.214.024.218-.068-.01-.166-.365-.077-.218.068m.4.626c-.281.018-.231-.3-.42-.372-.033.091,0,.249-.034.338a.542.542,0,0,1-.2.018,5.285,5.285,0,0,1-.034-.949c-.557.4.087,1.452.688.965m-.638-1c.39-.033.828.006.722.407-.026.1-.122.1-.168.2a2.11,2.11,0,0,0,.184.3c.485-.46-.189-1.412-.738-.915m.151-.373a.86.86,0,0,1,1.04.661.89.89,0,1,1-1.761.22.818.818,0,0,1,.721-.881m-12.749-.084c.037.219.77.171.52-.153-.194-.013-.562-.1-.52.153M34.816,45.3c.13.069.631.147.537-.17-.118-.112-.685-.142-.537.17m27.6-.373c.013.209.594.2.587-.017,0-.173-.261-.176-.419-.136-.135.035-.175.05-.168.153m-4.529.084A.576.576,0,0,0,58.418,45v-.153c-.119-.133-.672-.149-.536.169m-16.373-.2c.013.227.594.187.587-.017,0-.158-.354-.2-.5-.118a.134.134,0,0,0-.084.135m1.829.17c.218,0,.261-.473-.067-.356-.228.081-.074.358.067.356m-4.547-.271c.026.2.662.2.571-.085-.036-.111-.365-.132-.487-.068a.142.142,0,0,0-.084.153m23.167-.271a.846.846,0,0,0,.5,0c.228-.367-.733-.372-.5,0m-20.365-.22c.013.274.865.13.52-.136-.2-.026-.529-.075-.52.136m-3-.254c.026.226.535.152.571.034.069-.23-.309-.259-.47-.187-.092.042-.108.084-.1.153m5.5-.525c-.051.253.59.245.57.017-.014-.164-.261-.161-.419-.119-.118.031-.134.016-.151.1m-5.771-.051a.575.575,0,0,0,.537-.017v-.152c-.113-.113-.689-.144-.537.169m-2.768-.254c.017.208.573.21.57-.017,0-.16-.25-.2-.436-.136-.086.028-.145.017-.134.153m8.136-.373c.034.231.816.155.52-.152-.2-.022-.554-.08-.52.152m6.425-.033c.025.081.137.135.3.084.32-.319-.431-.5-.3-.084m6.425-.17c.042.137.392.1.536.051a.4.4,0,0,0,.017-.169c-.131-.142-.632-.138-.553.118m-21.221,0c.044.132.392.1.537.051.22-.349-.642-.364-.537-.051m-7.1-.186c-.44.189.532.579.436.1-.015-.071-.064-.113-.185-.119a1.1,1.1,0,0,0-.251.017m24.575.017c.025.168.365.135.537.085a.249.249,0,0,0,.016-.2c-.175-.087-.587-.107-.553.119m-11.541-.1c.024.224.583.173.587-.017s-.3-.2-.47-.135c-.092.037-.125.087-.117.152m24.793-.169c-.069-.121-.709-.095-.537.169.131.15.682.087.537-.169m-4.5.1c.032.167.427.15.554.05.126-.336-.607-.332-.554-.05M56.087,41.9c.03.182.578.186.57-.034-.006-.167-.268-.191-.436-.136-.11.036-.153.054-.134.17m-3.254-.118a.83.83,0,0,0,.5,0c.239-.357-.743-.357-.5,0m-11.441-.085c.022.174.445.156.57.05a.423.423,0,0,0-.016-.169c-.175-.09-.581-.1-.554.119m-6.375-.034c.019.177.381.161.554.084a.233.233,0,0,0,0-.2c-.2-.08-.577-.1-.554.119M65.8,41.574c-.008-.206-.688-.242-.554.1.154.074.562.115.554-.1m-4.664.017c.019.171.458.165.571.051.093-.328-.6-.285-.571-.051m-31.839-.3c-.229-.025-.683-.223-.654.068.016.156.453.214.771.237s.93.089.89-.254a5.055,5.055,0,0,0-1.007-.051m1.694-.372c-.132.14-.081.188-.151.321A2.67,2.67,0,0,1,29.079,42.3c-.148.03-.266.019-.268.153,0,.287.6.071.771.017a2.765,2.765,0,0,0,1.309-.813,1.023,1.023,0,0,0,.3-.729c-.034-.043-.16-.082-.2-.016m8.388.1c.023.178.345.118.537.1.217-.356-.573-.379-.537-.1m21.522-.1c.046.156.68.191.554-.136-.137-.079-.631-.13-.554.136M51.155,40.9c.048-.25-.7-.287-.554.068.148.075.523.093.554-.068m-19.409-.576c-.042-.265-.615,0-.419.254.193.048.449-.065.419-.254m7.4-.017c.023.215.643.209.57-.067-.033-.131-.31-.14-.453-.085-.1.039-.125.077-.117.152m21.522-.084c.03.214.583.2.571-.034-.009-.163-.286-.2-.47-.119-.068.03-.115.046-.1.153m-12.883,0a.589.589,0,0,0,.537.017.444.444,0,0,0,.017-.17c-.109-.118-.641-.179-.554.153m-9.041-.475c.041.147.436.133.553.034.133-.34-.638-.334-.553-.034m20.431-.169c0,.229.622.235.571-.034-.028-.147-.282-.151-.437-.1-.113.036-.133.047-.134.135m-12.782-.1c.015.213.588.191.587-.017,0-.174-.263-.176-.419-.136-.133.034-.176.048-.168.153m10.367-.153c.109.114.7.146.537-.169-.141-.06-.591-.153-.537.169M38.44,39.051c.006.239.733.235.536-.118-.176-.053-.542-.09-.536.118m21.3.034c.127.157.769.029.5-.2-.2-.126-.669,0-.5.2m-14.595-.22c.152.131.714.008.5-.22-.213-.151-.727.026-.5.22m11.189-.339c.014.213.625.214.571-.051-.029-.138-.28-.153-.436-.1-.118.039-.14.071-.135.152M30.4,39.458c-.092.254-.022.627.168.592s.058-.268.1-.457c.017-.077.126-.2.2-.373a4.081,4.081,0,0,1,.168-.406c.066-.095.291-.157.251-.339s-.265-.074-.436-.033a3.263,3.263,0,0,1-.536.084,4.156,4.156,0,0,1-1.192-.237c-.067-.01-.138.086-.134.153.008.126.24.184.4.237a3.376,3.376,0,0,0,1.308.118,2.339,2.339,0,0,1-.3.661m28.719-1.05c.021.187.517.209.57.034.07-.231-.263-.259-.453-.187-.074.029-.131.034-.117.153M36.208,38.34c0-.181-.29-.2-.452-.136-.461.176.446.5.452.136m27.612.068a.621.621,0,0,0,.52,0,.444.444,0,0,0,.017-.17c-.115-.134-.68-.153-.537.17m-35.362-.474a.174.174,0,0,0-.218.237c.032.1.5.33.621.152a.42.42,0,0,0-.017-.169c-.138.014-.266-.2-.386-.22m16,.118c.009.217.6.2.587-.017-.007-.16-.333-.188-.487-.118-.076.034-.1.077-.1.135m-12.883.169c.066.19.565.009.436-.271-.157-.127-.5.082-.436.271m3.908-.558a.566.566,0,0,0,.537-.017v-.152c-.116-.116-.685-.139-.537.169m8.069-.237c.148.087.651.113.537-.17-.121-.11-.682-.141-.537.17m-.537-.779c.081.105.432.09.537.016.164-.331-.637-.375-.537-.016m-.57-.627c.113.078.466.087.536-.034.088-.34-.71-.3-.536.034m-.487-.677a.54.54,0,0,0,.554,0c.093-.315-.648-.323-.554,0m15.165-.288c-.047-.181-.726-.169-.537.152.155.082.606.113.537-.152m-23.133.051c.012.185.392.164.554.085a.273.273,0,0,0,0-.187c-.167-.087-.567-.1-.554.1m7.6-.542c0,.193.386.154.554.1.182-.334-.557-.342-.554-.1m15.1-.051c.151.09.648.109.52-.186-.176-.1-.685-.111-.52.186m8.941-.22c-.22,0-.817-.222-.722.119.033.114.4.158.537.169.349.028.8.026.7-.322-.155-.1-.283.034-.52.034m-1.023-.034c.023-.222-.774-.376-.688,0,.117.09.664.222.688,0m-4.4-.22c.006.192.395.165.554.085a.273.273,0,0,0,0-.187c-.127-.078-.56-.112-.554.1m-19.022-.017c.045.157.681.193.553-.135-.136-.079-.631-.131-.553.135M37.618,33.9c-.009-.19-.633-.259-.571.084.128.108.58.132.571-.084m13.973-.356c-.01-.166-.3-.178-.453-.119-.479.18.476.506.453.119m9.73-.254c-.048-.179-.726-.169-.537.152.153.085.608.113.537-.152m-2.617.017c.04.157.689.2.553-.136-.144-.082-.618-.12-.553.136m-21.657,0c.039.149.439.134.554.034.124-.319-.628-.32-.554-.034m3.791-.084c.022.191.532.212.571.016.042-.213-.255-.246-.453-.169-.073.028-.131.039-.118.153m10.569-.187c-.047-.18-.728-.172-.537.152.155.082.606.113.537-.152m-.856-.271c.036.178.624.2.57-.068-.03-.148-.27-.142-.419-.1-.12.033-.178.038-.151.169m8.186-.186c-.005.229.577.223.57,0,0-.171-.267-.191-.435-.136-.114.037-.133.046-.135.136m-8.471-.356c-.047.237.355.224.537.136a.426.426,0,0,0,.016-.17c-.111-.122-.519-.135-.553.034m-18.285-.152c-.021-.084-.263-.214-.318-.22-.129-.016-.168.031-.185.1-.053.212.375.39.486.271,0-.068.032-.092.017-.152m26.5-.085c.083.147.53.089.553-.05.036-.213-.248-.221-.419-.17-.127.038-.2.1-.134.22m-.655-.762c.01.187.395.167.554.085a.27.27,0,0,0,0-.186c-.169-.087-.564-.1-.554.1m-22.9.407a7.393,7.393,0,0,0-.739-1.05.42.42,0,0,0-.268-.1c-.319.067.07.327.118.373.245.231.424.745.7.982-.567.075-1.161.712-1.8.66-.249-.02-.286-.2-.554-.22-.241.333.412.556.789.508.564-.072,1.084-.563,1.627-.66.121-.022.235.021.352-.034.123-.2-.1-.292-.285-.288.009-.064.053-.094.051-.169m-2-1.524c.033.152.348.14.47.254.532-.209-.561-.686-.47-.254m21.707-.034c.03.213.579.167.571-.034-.007-.153-.271-.206-.47-.119-.066.03-.116.046-.1.153M38.188,30.2c-.008-.119-.342-.329-.453-.287-.365.135.482.721.453.287m9.025-.694c.008.192.365.152.537.1.2-.358-.549-.36-.537-.1m9.947-.2c.017.184.307.142.5.118.311-.325-.531-.421-.5-.118M47.6,32.092c.005-.044-.007-.073-.051-.068,0,.044.006.073.051.068m2.567-2.726a3.849,3.849,0,0,1-.755,1.659c.081.115.256.136.452.136a5.174,5.174,0,0,0,.94-1.372,1.14,1.14,0,0,0,.167-.542,2.944,2.944,0,0,1-.8.119m-.084-.61c.023.18.4.193.6.169s.591-.19.554-.389c-.029-.156-.3-.19-.57-.152-.194.027-.618.144-.587.372m-.588,3.336c.18.046.419-.027.453.135.061.289-.693.187-.99.187-.467,0-.857-.014-1.14.016.066.163.321.1.52.1h1.241c.223,0,.48-.033.487.136.009.243-.608.152-.839.152a4.468,4.468,0,0,0-.94.034c.1.131.334.084.537.084h.6c.276,0,1.085-.1,1.057.17s-1,.07-1.275.135c.315.22.991.092,1.443.186.244.34-.644.272-.873.254A2.927,2.927,0,0,1,46.911,30.6a1.7,1.7,0,0,1,.168-.8c.1-.02.421-.051.4.152-.011.129-.223.135-.218.22.009.15.246.034.269.2.028.217-.242.122-.3.22.134.089.326.039.3.22-.021.153-.2.07-.3.169.128.156.6-.029.5.271-.046.147-.3.037-.436.119.079.139.415.021.57.084.071.041.033.165.05.221a3.506,3.506,0,0,0,1.158-.949,2.493,2.493,0,0,0,.671-1.422,2.019,2.019,0,0,1-.05-.457,1.276,1.276,0,0,1,.15-.356c.278-.456,1.775-.756,1.711.2a4.428,4.428,0,0,1-.771,1.964,6.892,6.892,0,0,1-1.292,1.423M43.221,46.485c-.259-.017-.593-.269-.722-.17a1.154,1.154,0,1,0,1.862.9,2.5,2.5,0,0,1-.738-.745c-.157-.009-.262.026-.4.017m-2.148-.407c-.146-.072-.276-.246-.4-.135a3.376,3.376,0,0,1-.385,1c.066.085.169.06.167.186,0,.24-.562.045-.6.3-.011.072.038.128.084.22.285.017.736-.081.688.186-.029.161-.258.11-.469.119a.9.9,0,0,0,.771.44c.318.023.906-.152.923-.39,0-.057-.069-.133-.1-.22a1.858,1.858,0,0,1,.168-1.489,4.19,4.19,0,0,1-.839-.221m-.922-.9a2.646,2.646,0,0,1-1.208.542,2.728,2.728,0,0,1-1.711-.373,4.883,4.883,0,0,1-.168.626c.207.033.58-.027.47.272-.112.1-.411.015-.571.067a.58.58,0,0,0,.2.373c.259.02.632-.079.62.152-.008.154-.177.127-.352.152a1.612,1.612,0,0,0,2.03.187c.059-.053.082-.129.134-.17s.107-.033.151-.067a1.734,1.734,0,0,0,.5-1.067,1.646,1.646,0,0,0-.067-.694Zm6.424.728a1.288,1.288,0,0,0,1.158,1.49,1.334,1.334,0,0,0,1.107-.457.992.992,0,0,0,.235-.474c-.009-.087-.119-.14-.2-.237a2.052,2.052,0,0,1-.453-1.287,1.3,1.3,0,0,0-1.846.965m-2.667.067a1.158,1.158,0,0,0,2.231.153,1.155,1.155,0,1,0-2.231-.153m-.621-1.591a.91.91,0,0,0-.6,1.524.923.923,0,0,0,.806.22,1.945,1.945,0,0,1,.419-1.473.819.819,0,0,0-.621-.271m-9.242-.271a.363.363,0,0,0-.151.254c.214.022.631-.022.469.271-.147.083-.473-.015-.621.068,0,.1-.061.226-.016.322.236.047.9-.135.838.185-.048.242-.6.048-.838.136a1.132,1.132,0,0,0,.117.44c.219.1,1.2-.134,1.208.153s-.711.1-.99.152a.81.81,0,0,0,.4.424,1.578,1.578,0,0,0,2.365-1.508c-.068-.116-.156-.186-.252-.321-.053-.077-.131-.314-.234-.339-.072-.017-.213.077-.319.1a4.041,4.041,0,0,1-.889.051c.107.312-.59.322-.587.084,0-.107.135-.106.134-.186-.23-.079-.416-.2-.637-.288m9.8.068a.37.37,0,0,0,.537-.017.572.572,0,0,0-.537.017m5.016.609A1.4,1.4,0,0,0,50.819,46.3a1.423,1.423,0,0,0,.789-1.135,1.389,1.389,0,0,0-2.751-.373m-5.888-1.337a1.262,1.262,0,0,0-.738-.491c-.269-.023-.463.161-.738.186a1.912,1.912,0,0,0-.4.017c-.063.263-.069.585-.134.846.207.041.456-.03.453.17s-.311.115-.554.135a.494.494,0,0,0-.168.288c.23.069.681-.087.671.169s-.512.073-.754.153c.005.129.016.218.151.27.158.063.357-.029.368.153.007.108-.087.086-.1.2a1.333,1.333,0,0,0,1.174.237,1.268,1.268,0,0,1,1.024-1.744,1.375,1.375,0,0,0-.252-.592m3.539-.746a1.172,1.172,0,0,0-.906,1.575,2.113,2.113,0,0,1,.5.3c.081.075.269.422.385.423.1,0,.267-.218.336-.27a1.719,1.719,0,0,1,.856-.339,1.152,1.152,0,0,0-1.175-1.694m17.614-.016c-.1-.123-.15-.34-.285-.356a2.581,2.581,0,0,1-2.751.779c.037.183.083.356.134.525.1-.165.6-.188.6.034,0,.164-.258.186-.436.152-.076-.014-.113-.095-.151-.051-.013.137.027.221.017.356.2.055.474-.054.5.135.039.262-.328.138-.537.221.051.11.066.257.251.3.3.075.781-.137.755.17-.011.139-.149.14-.335.135.069.144.26.169.4.22a1.825,1.825,0,0,0,.469.119,2.257,2.257,0,0,0,2.483-2.049,2.266,2.266,0,0,1-1.124-.694m-5.6,3.742a2.254,2.254,0,0,0,2.3-2A2.442,2.442,0,0,0,59.9,42.2h-.034a4.9,4.9,0,0,1-.386.762,2.655,2.655,0,0,1-3.069,1.066,1.407,1.407,0,0,0,.1.762c.334.068,1.158-.154,1.158.153s-.782.062-1.04.169a1.287,1.287,0,0,0,.318.508h.738c.216,0,.624-.067.571.186s-.737.017-.973.119a1.846,1.846,0,0,0,1.241.508m-7.8-4.318a1.132,1.132,0,0,0-.99,1.151,1.982,1.982,0,0,1,2.03.745,1.17,1.17,0,0,0-1.04-1.9m-1.527.8a1.149,1.149,0,0,0-2.03-.559A1.635,1.635,0,0,1,48.219,44.2a1.149,1.149,0,0,0,.973-1.287M45.3,41.743a2.64,2.64,0,0,0,.167.39c.056.14.094.333.151.372.163.111.306-.04.453-.1a1.794,1.794,0,0,1,.336-.1,2.024,2.024,0,0,0,.251-.017c.084-.036.125-.167.185-.237.11-.128.262-.21.3-.3-.577-.028-1.269-.028-1.845,0m-4.865.559c-.1-.215-.357-.6-.571-.643a.091.091,0,0,0-.033,0,2.629,2.629,0,0,1-1.8.152,4.3,4.3,0,0,1-.285,1.253c.464.023.244.448-.185.322a1.691,1.691,0,0,0-.318.389c.26.1,1.132-.143,1.123.17-.006.223-.494.152-.738.152a3.945,3.945,0,0,0-.872.034.649.649,0,0,0,.218.373H37.8c.209,0,.715-.083.621.2-.077.232-.966-.014-1.141.1.172.452,1.107.135,1.56.3.036.043.023.135.051.187a2.094,2.094,0,0,0,1.543-3m4.7.034a1.526,1.526,0,0,0-.94-.9,2.406,2.406,0,0,1-1.442.982c-.034.066-.146.13-.118.2.336.056,1.039-.133,1.04.135,0,.217-.366.139-.6.153-.026.093.081.122.152.2.05.059.1.177.184.2.237.07.52-.089.52.153,0,.186-.2.111-.369.152a.369.369,0,0,0,.067.22c.156.039.41-.019.5.085a.587.587,0,0,1,.6.017,1.578,1.578,0,0,0,.4-1.609m-12.7-1.778a.984.984,0,0,0,.5.542c.073-.169.141-.343.2-.525a2.02,2.02,0,0,0-.705-.017m24.81,3.2a2.283,2.283,0,0,0,2.282-2.133,1.9,1.9,0,0,0-.252-1.2,2.657,2.657,0,0,1-1.761-.373,2.7,2.7,0,0,1-2.2.39,1.128,1.128,0,0,0-.184.626c.219.053.562-.058.553.169s-.367.1-.587.153c-.043.1.006.209,0,.321.237.079.716-.092.755.136.049.289-.428.141-.671.2a.494.494,0,0,0,.151.373c.28.1,1-.137.99.169-.01.26-.55.113-.823.152.057.126.144.3.286.339a5.509,5.509,0,0,0,.99,0c.238,0,.837-.074.838.152,0,.209-.435.153-.637.153h-.8a1.656,1.656,0,0,0,1.073.372m-3.053-4.03c-.154.2-.307.4-.469.593a2.346,2.346,0,0,0-.437.525c.221.02.492-.067.521.119.047.32-.656.1-.906.186a.794.794,0,0,0-.235.186c-.093.074-.176.117-.218.2.174-.012.32.106.218.271-.245.1-.742-.06-.872.153.005.354.863.007.838.338-.013.175-.226.113-.4.153.045.158.124.282.168.44.237.065.665-.083.655.169-.01.225-.385.09-.6.153a.37.37,0,0,0,0,.237,2.128,2.128,0,0,0,2.717-.424,2.921,2.921,0,0,1-.251-2.76c-.261-.16-.475-.367-.722-.542M42.734,41.439a1.47,1.47,0,0,0-1.392-1.727.084.084,0,0,0-.051.05,2.74,2.74,0,0,1-.738,1.406c-.087.086-.212.135-.252.271.1.285.809-.06.822.254.01.214-.265.123-.453.169.016.12.1.175.135.271.335-.06.426.263.151.339a.361.361,0,0,0,.067.236,1.435,1.435,0,0,0,1.711-1.269m24.491-.034a1.624,1.624,0,0,0-1.912-1.677c-.274.056-.828.337-.889.593-.055.231.032.519,0,.762-.017.129-.076.21-.05.339.2.07.576-.08.6.135.036.283-.468.116-.722.186a.249.249,0,0,0-.084.3c.264.147,1.029-.131,1.074.153.052.323-.616.092-.839.186a.457.457,0,0,0,.3.321c.19.043.448-.081.554.085.059.066-.045.153,0,.2a1.589,1.589,0,0,0,1.962-1.591M35.353,39.762c-.251-.021-.452-.134-.621-.067a2.159,2.159,0,0,0-1.426,1.777,7.777,7.777,0,0,0,.873.017c.214,0,.764-.093.738.17-.021.209-.507.135-.755.135a8.364,8.364,0,0,0-.889.017,1.516,1.516,0,0,0,.05.491,9.412,9.412,0,0,0,.956.017c.251,0,.831-.086.822.153s-.562.152-.788.152a7.525,7.525,0,0,0-.889.017.652.652,0,0,0,.184.355h.973c.255,0,.844-.087.839.153s-.5.152-.721.152h-.873a2.1,2.1,0,0,0,2.936.339,2.363,2.363,0,0,0,.839-2,2.942,2.942,0,0,1-1.158-1.236c-.1-.215-.141-.459-.251-.694a3.252,3.252,0,0,1-.839.05m25.884,2.946a2.123,2.123,0,0,0,2.784-1.743,2.2,2.2,0,0,0-1.778-2.54,2.18,2.18,0,0,0-.989.1A2.964,2.964,0,0,1,60.281,40c.118.028.209.092.2.187-.018.2-.405.119-.638.135a.45.45,0,0,0,.017.39c.249.072.747-.095.738.169-.007.223-.411.133-.671.152a.952.952,0,0,0,.05.44c.293.082.872-.113.839.187-.025.232-.429.084-.654.152.031.138.143.2.235.271.3.043.848-.117.839.152-.008.22-.324.095-.52.153a1.079,1.079,0,0,0,.52.321M33.81,38.933c-.05-.058-.353-.561-.42-.542a1.5,1.5,0,0,0-1.157,1.3c.209.11.7-.089.688.186-.012.235-.444.084-.672.152a.319.319,0,0,0,.034.2c.307.056.759-.033,1.04.05a3.5,3.5,0,0,1,.973-.9,4.249,4.249,0,0,1-.486-.457m10.283.965a1.728,1.728,0,0,0-1.913-1.507c-.244.027-.8.177-.855.372-.05.168.048.331.033.508a1.374,1.374,0,0,0,.319.051c.241.053.544.286.721.322.23.046.617-.109.621.135,0,.18-.19.137-.3.17a.63.63,0,0,0,.185.254c.252,0,.645-.059.553.2-.044.124-.25.057-.4.1a2.776,2.776,0,0,1,.016,1.355A1.787,1.787,0,0,0,44.093,39.9m-5.318,1.608a2.051,2.051,0,0,0,1.543-.711,2.276,2.276,0,0,0,.6-1.879,2.215,2.215,0,0,0-1.912-1.948,2.137,2.137,0,0,0-2.365,1.846,6.872,6.872,0,0,0,.822.017c.209,0,.691-.085.671.169-.017.207-.463.136-.7.136a6.908,6.908,0,0,0-.822.017.5.5,0,0,0,.017.322h1.023c.27,0,.915-.084.906.169-.008.229-.654.135-.872.135-.373,0-.709-.013-1.007.017a.671.671,0,0,0,.118.339H37.9c.262,0,.968-.1.939.169-.025.226-.64.136-.872.136H36.963a1.042,1.042,0,0,0,.286.406h1.023c.252,0,.879-.086.872.153-.006.207-.462.135-.671.135a6.742,6.742,0,0,0-.788.017,1.663,1.663,0,0,0,1.09.355m24.441-4.792a1.691,1.691,0,0,0-1.694.83,6.9,6.9,0,0,0,.822.017c.21,0,.7-.084.687.152s-.519.153-.771.153a8.737,8.737,0,0,0-.923.017c0,.056-.028.084-.016.152a6.751,6.751,0,0,1,1.023-.017c.19.028.356.1.5.119.257.025.779-.1.789.135,0,.127-.143.143-.2.186.1.028.2.291.386.339s.341-.031.352.136c.01.131-.113.106-.151.22a3.694,3.694,0,0,1,.286.626,1.878,1.878,0,0,0-1.091-3.065m-5.049,3.2a2.178,2.178,0,0,0,1.006.1,2.153,2.153,0,0,0,1.745-2.252,2.087,2.087,0,0,0-1.913-2.032,1.615,1.615,0,0,0-1.174.322,3.21,3.21,0,0,1,.722,1.456c.212.042.5-.038.486.17-.01.181-.256.112-.453.152a.6.6,0,0,0-.016.372c.255-.015.519-.009.486.187-.029.171-.313.105-.537.118a.8.8,0,0,0-.1.3c.225.1,1.133-.149,1.108.186-.022.286-.992.065-1.225.136a.455.455,0,0,0-.167.288c.28.054.936-.134.939.152,0,.307-.842.085-1.174.152.023.109.174.151.268.187m-.017-1.829a2.128,2.128,0,0,0-2.416-2.337,15.1,15.1,0,0,1-.436,1.9c.173.034.442-.028.453.169-.052.2-.345.148-.587.152a1.545,1.545,0,0,0-.151.39c.181.061,1.215-.164,1.124.2-.038.155-.37.1-.587.1h-.688a1.529,1.529,0,0,0-.218.389,4.953,4.953,0,0,0,.973.034c.215,0,.892-.1.872.152-.017.218-.646.136-.906.136H54.527c0,.114.1.158.167.22a.61.61,0,0,0,.252.186c.375.088,1.21-.163,1.275.119.029.126-.125.153-.1.2a2.128,2.128,0,0,0,2.03-2.015m4.781-1.863a2.381,2.381,0,0,1,2.114,3.2,2,2,0,0,1,1.459.135c.164.086.335.284.47.3a.541.541,0,0,0,.537-.288c-.233-.15-.592-.171-.638-.474-.087-.582.822-.607,1.292-.542-.121-.868-1.244-.65-1.476-1.388-.061-.192-.057-.372-.168-.458-.061-.047-.16-.03-.235-.067A.63.63,0,0,1,66,36.359c.1-.129.342-.118.469-.221a2.914,2.914,0,0,0-3.539.085M35.436,35.58a1.863,1.863,0,0,0-1.761,1.829,5.62,5.62,0,0,0,.722.017c.2,0,.6-.076.587.152-.009.2-.369.135-.587.135a2.625,2.625,0,0,0-.7.034,1.74,1.74,0,0,0,.118.424,6.8,6.8,0,0,0,.8.017c.236,0,.676-.077.654.169-.017.2-.347.135-.553.135h-.688c.022.161.2.3.335.407.259.064,1.3-.155,1.258.169-.025.218-.422.107-.671.136a1.614,1.614,0,0,0,1.225.067,2.918,2.918,0,0,1,.486-1.608c.092-.133.237-.244.252-.356a1.208,1.208,0,0,0-.051-.271,3.125,3.125,0,0,1,.068-.982,1.845,1.845,0,0,0-1.494-.474M62.5,35.207c-.181.011-.469.1-.486.254-.029.244.328.433.62.39a1.5,1.5,0,0,0,.5-.271,1.551,1.551,0,0,0,.319-.2,4.954,4.954,0,0,0-.956-.17m-3.556-.05c-.158-.067-.357-.235-.487-.237-.178,0-.309.148-.52.135-.149.245-.365.422-.52.661.208.009.362-.163.554-.238a2.341,2.341,0,0,1,.637-.152c.294-.024.65.05.839.017a2.014,2.014,0,0,0-.5-.186M40.7,37.459c.075.09.3.477.352.475.036,0,.143-.207.151-.221a1.958,1.958,0,0,0,.269-1.134,2.075,2.075,0,0,0-1.829-1.88,2.053,2.053,0,0,0-2.315,1.558c.246.015.547-.059.571.136.033.269-.384.122-.621.186a1.028,1.028,0,0,0,0,.406,5.1,5.1,0,0,1,.906-.372c.045-.064-.086-.149-.017-.237.076-.107.4-.08.52-.034.043.041,0,.165.067.186a2.618,2.618,0,0,1,1.946.931m-7.431-1.727a.79.79,0,0,0,.3.559,2.458,2.458,0,0,1,2.734-1.067c-.094-.175-.268-.322-.386-.525a2.628,2.628,0,0,1-.251-.711,1.647,1.647,0,0,0-2.349.881c.222.037.51-.032.487.186-.021.188-.315.123-.554.136a.265.265,0,0,0-.017.22c.275.027.669-.066.839.067.123.413-.558.159-.8.254M30.3,34.513a4.4,4.4,0,0,1,.218.593c.133.663-.365,1.134-.772,1.524a2.634,2.634,0,0,1-2.13.711.546.546,0,0,1-.453.8c.1.3.53.55.369,1.067.487-.178,1.063.09.838.626.1.112.187.165.219.288.1.384-.33.488-.369.626-.018.063.027.156.033.237a1.469,1.469,0,0,1-.5,1.186c-.1.085-.224.119-.235.2s.112.222.151.338a3.151,3.151,0,0,1,.1.661c.293-.174.9-.6,1.358-.406a.6.6,0,0,1,.285.541c.409-.284,1.346-.322,1.342.356.4-.149,1.065-.608,1.527-.254a.77.77,0,0,1,.218.694c-.031.223-.2.391-.252.576a1.275,1.275,0,0,0,1.192-.643,1.336,1.336,0,0,0,.184-.458c-.009-.083-.176-.235-.251-.338a2.7,2.7,0,0,1-.5-1.863,1.962,1.962,0,0,1-1.057-1.947,2.007,2.007,0,0,1,1.493-1.66.55.55,0,0,0-.05-.2,4.89,4.89,0,0,0-.52.186c-.156.062-.408.217-.537.1-.229-.2.342-.331.486-.389a4.206,4.206,0,0,0,.571-.254c-.062-.218.13-.452.1-.644-.02-.126-.233-.3-.319-.457a2.1,2.1,0,0,1,.285-2.269c.115-.126.251-.173.336-.339a6.475,6.475,0,0,0-3.355.813m32.811-2.4c-.1.041-.162.148-.268.186-.177.064-.336.038-.57.1a3.729,3.729,0,0,1-.1,1.254,4.788,4.788,0,0,1,.571-.034c.234.018.961.219.922.474s-.366,0-.47-.051a1.483,1.483,0,0,0-.386-.118,1.809,1.809,0,0,0-.788.067c-.112.062-.18.3-.3.441a2.559,2.559,0,0,1-1.8.914c-.019.325.279.365.453.508a2.7,2.7,0,0,1,.839,1.3c.206-.159.369-.344.587-.492s.461-.24.688-.389a1.148,1.148,0,0,1-.7-.322.755.755,0,0,1-.2-.575c.059-.409.591-.618,1.107-.576.337.027.749.134,1.174.2a4.791,4.791,0,0,0,2.8-.118,1.721,1.721,0,0,0,.671-.627,1.469,1.469,0,0,1-1.292-.9.707.707,0,0,1-1.023-.373.648.648,0,0,1-.738-.423c-.464.056-.6-.221-.722-.508a3.522,3.522,0,0,0-.453.051m-25.179-.2a1.745,1.745,0,0,0-1.744,1.134c.22.044.557-.044.553.169s-.376.139-.637.153a.563.563,0,0,0-.034.389c.247.073.733-.1.722.17s-.476.057-.672.169a.979.979,0,0,0,.2.44c.3.044.9-.123.872.169-.02.222-.419.106-.6.136a1.192,1.192,0,0,0,.7.457,4.033,4.033,0,0,0,.419-.457c-.2.024-.347-.037-.335-.169s.254-.179.436-.136c.116.028.107.1.2.119a2.909,2.909,0,0,1,1.51-.39,1.735,1.735,0,0,0-1.594-2.353M56.59,35.36a1.7,1.7,0,0,0,.386.1c.1-.013.251-.2.335-.287a2.618,2.618,0,0,0,.621-1.287,2.5,2.5,0,0,0-.671-2.083,2.225,2.225,0,0,0-2.282-.542c.186.535.4,1.042.554,1.609.422-.06.382.343.068.338a2.124,2.124,0,0,0,.083.424c.254.1.864-.118.923.118.083.338-.635.115-.873.2a.38.38,0,0,0,.017.271c.244.079.77-.1.755.17-.013.247-.5.076-.738.152a.626.626,0,0,0,.017.373c.269.01.635-.061.621.169-.017.259-.483.039-.655.186a6.671,6.671,0,0,1,.839.085m3.372-.44a2.148,2.148,0,0,0-.168-4.284c-.017,0-.02.014-.033.017a3.411,3.411,0,0,1,.486,1.862c.2.068.544-.077.57.136.033.265-.378.124-.62.186a.573.573,0,0,0-.051.271c.183.029.366-.006.37.152,0,.207-.28.126-.487.169a1.441,1.441,0,0,0-.235.441c.092.035.164.082.151.186-.023.18-.2.066-.386.119-.074.02-.2.165-.3.254-.12.1-.257.193-.285.27a1.769,1.769,0,0,0,.99.221m-.151-2.286a2.461,2.461,0,0,0,0-.712A2.315,2.315,0,0,0,57.5,29.891a2.267,2.267,0,0,0-1.09.321,1.284,1.284,0,0,0-.537.525,3.58,3.58,0,0,1,.637.119c.183.061.391.226.537.254.246.047.718-.112.688.169-.015.138-.171.128-.252.136.073.062.158.333.352.372.174.035.382-.077.369.135-.007.124-.138.089-.2.187.054.1.076.228.168.287.163.018.292.034.285.17s-.119.086-.184.186c.039.12,0,.21.05.3s.164.089.168.2c0,.15-.239.2-.118.423.327-.012.361.374-.033.339a4.067,4.067,0,0,0-.135.525,2.254,2.254,0,0,0,1.611-1.913M35.756,30.178c.092.119.183.25.3.407.088.116.241.351.336.372.189.042.4-.215.352-.491-.089-.529-1.277-.885-1.678-1.1.2.268.4.448.689.812m1.962-1.27c-.141-.2-.14-.519-.285-.694a1.033,1.033,0,0,0-1.006-.169c.075.235.886.8.419,1.084-.374.229-.981-.121-1.375-.051a3.538,3.538,0,0,1,1.559,1.033c.369.6-.163,1.547-.872,1.2a1.2,1.2,0,0,1-.335-.356c-.675-.894-1.4-2.01-2.735-2.082a2.287,2.287,0,0,0-1.006.186c-.233.1-.509.212-.571.508.471,0,.939.108.873.559s-.628.511-1.091.592a.547.547,0,0,1-.5.8c-.616.005-1.3-.633-1.778-.762.209.409.747,1.136.436,1.727.119.167.244.277.2.525-.022.128-.148.189-.152.288a.863.863,0,0,0,.219.423,1.28,1.28,0,0,0,.4.085,3.575,3.575,0,0,0,1.661-.3,5.707,5.707,0,0,1,1.292-.22c.539-.027,1.068.062,1.576.085a2.933,2.933,0,0,1,.99.135,5.334,5.334,0,0,1,.2-.762c-.073-.208-.658-.4-.571-.677.075-.237.357.063.436.135a2.709,2.709,0,0,0,.285.254,2.479,2.479,0,0,1,1.678-.948,2.283,2.283,0,0,1,1.778.66c.057.059.118.175.218.17.063-.234-.112-.478-.235-.677a2.249,2.249,0,0,0-.671-.745c-.133-.082-.4-.113-.335-.322s.469.071.536.118a2.055,2.055,0,0,1,.336.3c.258.27.371.526.553.745a11.985,11.985,0,0,1,1.259-2.1c-.177-.132-.3-.319-.487-.441-.14.251-.289.485-.6.525-.489.063-.743-.338-1.006-.559-.334.312-1.11-.013-1.292-.271m17.06,1.965c.116-.056.312-.028.47-.1.092-.043.207-.247.285-.339.1-.12.274-.236.3-.338a1.13,1.13,0,0,0,0-.339,2.195,2.195,0,0,0-2.348-1.964,1.631,1.631,0,0,0-1.023.406,13.8,13.8,0,0,1,1.157,1.084c.312.056,1.04-.145,1.006.169-.024.226-.45.1-.7.136.024.14.123.2.2.288.208-.009.389-.013.386.152,0,.115-.085.093-.151.186a4.36,4.36,0,0,0,.419.661M57.16,27.2a2.012,2.012,0,0,0-1.107.491c-.1.088-.423.431-.419.576a.669.669,0,0,0,.268.356c.17.067.593-.069.638.118.067.28-.27.142-.487.2.044.382.869-.069.856.3-.009.238-.447.126-.7.153a2.167,2.167,0,0,0,.05.406,3.78,3.78,0,0,1,1.091-.322,2.9,2.9,0,0,1,1.845.559A2.049,2.049,0,0,0,57.16,27.2M51.323,41.709c-.01,0-.019.014,0,.017a5.054,5.054,0,0,0,.905-.558,8.061,8.061,0,0,0,1.88-2.066,7.872,7.872,0,0,0,1.19-5.114,7.347,7.347,0,0,0-.134-.83,7.817,7.817,0,0,0-4.194-5.384,7.533,7.533,0,0,0-3.875-.8,7.767,7.767,0,0,0-6.911,5.233c.213.027.436,0,.4.2-.029.175-.282.1-.5.118a.733.733,0,0,0-.1.508c.218.068.589-.081.6.152.012.21-.261.167-.52.17a2.4,2.4,0,0,0,.017.457c.233.089.9-.123.872.169-.024.27-.667.061-.94.153-.009.069-.048.109-.05.186a2.386,2.386,0,0,0,.436.152c.355.048.971-.126.956.153-.008.165-.2.136-.4.135.071.075.2.355.4.407s.4-.049.4.152c0,.153-.129.1-.2.2.088.126.13.3.218.423.209-.018.341.016.335.153-.009.2-.417.087-.235.355.254.07.8-.094.772.187-.026.239-.516.079-.755.152a1.6,1.6,0,0,0-.033.44,5.963,5.963,0,0,0,.754.017c.215,0,.625-.09.6.153-.018.2-.42.135-.655.135h-.8a1.477,1.477,0,0,0-.184.39c.554.03,1.415.016,2.1.016.23,0,.559-.047.537.17-.024.244-.508.049-.721.135.121.089.255.314.436.356.262.06.728-.118.755.118s-.291.154-.52.17c0,.132.133.27.184.406h.94c.256,0,.8-.081.8.153s-.522.152-.738.152a8.1,8.1,0,0,0-.889.017.88.88,0,0,0,.067.322c.721.03,1.58.017,2.348.017.235,0,.666-.07.671.135.006.221-.407.152-.637.152-.815,0-1.651-.013-2.382.017a2.061,2.061,0,0,0-.034.407c1.657.031,3.472.016,5.167.016.134,0,.638-.083.57.187-.034.139-.388.1-.637.1-1.748,0-3.537-.014-5.2.018.025.1.192.142.318.22s.225.2.336.22a4.132,4.132,0,0,0,.687,0H49.93c.2,0,.563-.045.554.152-.011.217-.557.135-.7.135a7.111,7.111,0,0,0-.822.017c.062.128.212.219.319.356a3.228,3.228,0,0,1,.218.356,1.809,1.809,0,0,1,1.342-.762c.026-.066-.026-.2.051-.254.256-.1.708.039.436.27M54.8,25.674a2.057,2.057,0,0,0-1.744,1.05c.234.088.891-.126.855.186-.03.262-.728.1-1.023.119a.464.464,0,0,0-.084.22c.375.092.759-.073,1.09.034.067.021.116.094.185.118.131.047.253.032.369.068-.06-.319.618-.292.587-.05-.019.149-.161.083-.319.152.206.12.4.252.6.373a2.629,2.629,0,0,1,1.409-1.084A2.057,2.057,0,0,0,54.8,25.674m4.8,4.521a2.522,2.522,0,0,1,2.449,1.457c.041.088.1.273.168.3a.894.894,0,0,0,.452-.05c.077-.03.133-.11.219-.153a6.157,6.157,0,0,1,1.073-.152c.1.124.054.382.1.525.215.056.546-.074.788.033.025.178-.128.176-.117.339.15.212.357-.052.57,0,.272.066.015.68.47.525.225-.077.126-.393.3-.558a2.408,2.408,0,0,1,.336.677,1,1,0,0,0,1.023.694c.125-.019.226-.151.352-.153.146,0,.214.143.3.238a3.035,3.035,0,0,1-1.761,1.574c.073.094.174.119.285.2s.2.24.318.272.274-.046.4.033c-.031.214-.259.369-.419.508.154.172.088.487.234.677.111.145.411.193.588.288a1.422,1.422,0,0,1,.872,1.016,1.326,1.326,0,0,1-.134.813c-.174-.046-.236-.28-.437-.339a1.271,1.271,0,0,0-.653.051c.168.181.49.148.57.39.134.407-.331.737-.672.83a2.763,2.763,0,0,1,.3.863,2.015,2.015,0,0,1-1.9,2.32,2.8,2.8,0,0,1-2.315,2.421,2.69,2.69,0,0,1-2.265-.779,2.713,2.713,0,0,1-2.264,1.778,2.6,2.6,0,0,1-1.963-.677,2.805,2.805,0,0,1-.889-1.744,3.357,3.357,0,0,0,0-.576c-.051-.179-.45-.293-.537-.457a2.858,2.858,0,0,1-1.795.813,2.772,2.772,0,0,1-1.308-.3c-.142.172-.245.385-.4.542a1.831,1.831,0,0,1-2.466,2.252,1.784,1.784,0,0,1-1.845,1.117,1.715,1.715,0,0,1-1.342-1.016,2.169,2.169,0,0,1-1.006.542c-.15.018-.3-.013-.487,0A1.612,1.612,0,0,1,43.3,48.8a1.66,1.66,0,0,1-1.174-.423,1.814,1.814,0,0,1-1.023.44A1.631,1.631,0,0,1,39.48,47.67a2.178,2.178,0,0,1-2.852-1.033,2.632,2.632,0,0,1-1.057.508,2.021,2.021,0,0,1-2.3-2.116,2.346,2.346,0,0,1-1.98.084c.2-.273.866-.488.8-1-.05-.422-.709-.095-.972.034a1.922,1.922,0,0,1-.822.3.688.688,0,0,1-.084-.322c.01-.12.123-.2.1-.3-.081-.357-.758.107-.823.153a5.024,5.024,0,0,1-.7.508c-.034-.384.264-.742.168-1.135-.762-.04-1.029.654-1.678.728.029-.52.191-1.416-.3-1.592a.818.818,0,0,1,0-.355,1.192,1.192,0,0,0,.872-1.05c0-.3-.186-.443-.234-.728.169-.049.475.039.536-.118-.016-.091-.168-.045-.2-.119a.466.466,0,0,1,.034-.508c-.447-.075-.972.34-1.443.051.088-.321.579-.358.6-.7.013-.184-.317-.553-.419-.677-.177-.213-.408-.356-.5-.576.3-.12.78.067,1.024-.05-.056-.406-.44-.483-.6-.779a8.093,8.093,0,0,0,2.13-.085,1.957,1.957,0,0,0,.721-.491c.253-.255.688-.589.621-1.1-.017-.129-.1-.22-.117-.372-.075-.077-.209-.094-.269-.186,0-.214.14-.288.218-.424-.213-.085-.529-.13-.671-.389-.034-.062-.069-.172-.117-.271s-.158-.2-.168-.254a.423.423,0,0,1,.235-.406c-.138-.326-.613-.223-.889-.39.185-.208.61-.175.8-.373a3.381,3.381,0,0,0-.755-1.524c-.1-.141-.259-.265-.268-.456a2.53,2.53,0,0,1,1.627.491c.184.1.378.2.571.287.171.077.392.233.6.1-.048-.459-.422-.59-.553-.965a4.287,4.287,0,0,0,1.208.186.714.714,0,0,0,.369-.186c-.222-.188-.682.038-.923-.1a1.943,1.943,0,0,1,.235-.88,2.461,2.461,0,0,1,1.543-.627,2.744,2.744,0,0,1,1.812.525c.167-.071.219-.217.369-.288.449-.211.977.052,1.459.068-.168-.343-.6-.506-.62-.948a.788.788,0,0,1,.4-.17,1.424,1.424,0,0,1,1.628.441c.085.164.088.387.184.541a.808.808,0,0,0,.637.254c.141-.06.069-.3.135-.406a1.357,1.357,0,0,1,.553.423c.138.151.3.429.554.424.521-.01.265-.833.235-1.2a2.245,2.245,0,0,1,.62.575c.081.1.413.6.6.593.12,0,.407-.372.554-.508a7.968,7.968,0,0,1,6.156-2.218,8.411,8.411,0,0,1,3.993,1.354.673.673,0,0,0,.184-.135,2.665,2.665,0,0,1,2.382-2.523,2.623,2.623,0,0,1,2.55,1.507,2.493,2.493,0,0,1,2.4,3.42M71.824,55.23a.657.657,0,0,0,0,1.309v0a.658.658,0,0,0,0-1.311m0,1.507a.853.853,0,1,1,.848-.853.821.821,0,0,1-.848.853m.032-.936c.087,0,.139-.018.139-.12s-.1-.1-.175-.1h-.136V55.8Zm-.172.541h-.195v-.918h.34c.235,0,.373.068.373.278a.214.214,0,0,1-.219.239l.233.4h-.231l-.21-.385h-.091Zm-22.45-1.858v-.413H47.805V56.7h1.429v-.414h-1v-.812h.971V55.06h-.971v-.576Zm-2.136.59H46v-1h-.43V56.7H46V55.491h1.1V56.7h.43V54.071H47.1Zm-3.237-.59h.591V56.7h.429V54.484h.6v-.413H43.861Zm4.05-2.231h.818v-.417h-.818V51.26h.844v-.413H47.482v2.631h.429Zm-2.889-.089a.927.927,0,1,1,.928.943.938.938,0,0,1-.928-.943m.928,1.357a1.359,1.359,0,1,0-1.357-1.354,1.355,1.355,0,0,0,1.357,1.354m19.992-2.993,1.9,4.908,1.9-4.908,1.056,6.177H70.2l-.67-3.955h-.014l-1.677,4.2L66.163,52.75h-.014l-.669,3.955h-.594ZM62,50.761A3.04,3.04,0,1,0,64.707,53.8,2.894,2.894,0,0,0,62,50.761m0,.6a2.437,2.437,0,1,1-2.139,2.423A2.286,2.286,0,0,1,62,51.364m-5.956-.6A3.04,3.04,0,1,0,58.751,53.8a2.894,2.894,0,0,0-2.712-3.034m0,.6A2.437,2.437,0,1,1,53.9,53.787a2.286,2.286,0,0,1,2.139-2.423M51.806,56.1h1.6v.6H51.161V50.861h.645Zm-10.119.6h-.644v-5.24H39.328v-.6h4.1v.6H41.687Zm-3.21,0h-.644V50.861h.644Zm-5.236-2.361a2.181,2.181,0,0,0,.253,1.3,1.5,1.5,0,0,0,1.173.557,1.523,1.523,0,0,0,1.135-.518,2.026,2.026,0,0,0,.284-1.34V50.861h.644v3.661a2.1,2.1,0,0,1-.506,1.618,2.172,2.172,0,0,1-3.06.07,2.107,2.107,0,0,1-.567-1.688V50.861h.644Zm-4.088-.2h.161l1.756,2.562h.79l-1.848-2.616a1.663,1.663,0,0,0,1.617-1.618c0-1.316-1.18-1.61-2.284-1.61h-.836v5.844h.644Zm0-2.678h.192c.775,0,1.64.093,1.64,1.053,0,.905-.9,1.052-1.632,1.052h-.2Zm-3.961,0V53.2h2.092v.611H25.192v2.895h-.644V50.861h2.8v.6Z"/></g></g></svg>