<svg xmlns="http://www.w3.org/2000/svg" xmlns:xlink="http://www.w3.org/1999/xlink" viewBox="0 0 97.219 86.203"><defs><clipPath id="a"><rect x="35.816" y="25.682" width="25.587" height="34.84" fill="none"/></clipPath></defs><g><rect width="97.219" height="86.203" fill="none"/><g clip-path="url(#a)"><polygon points="38.398 56.991 40.42 56.991 40.42 57.578 39.088 57.578 39.088 57.954 40.296 57.954 40.296 58.498 39.088 58.498 39.088 58.892 40.438 58.892 40.438 59.478 38.398 59.478 38.398 56.991"/><polygon points="42.084 58.213 41.257 56.991 42.059 56.991 42.504 57.691 42.954 56.991 43.737 56.991 42.91 58.206 43.773 59.478 42.972 59.478 42.49 58.729 42.004 59.478 41.221 59.478 42.084 58.213"/><path d="M45.673,58.228c.249,0,.4-.128.4-.324V57.9c0-.214-.151-.326-.4-.326h-.327v.657Zm-1.027-1.237h1.078c.636,0,1.045.324,1.045.874v.008c0,.586-.455.9-1.082.9h-.345v.71h-.7Z"/><path d="M48.832,58.185c.236,0,.372-.114.372-.3v-.007c0-.2-.142-.294-.375-.294h-.457v.6Zm-1.158-1.194h1.19a1.108,1.108,0,0,1,.819.27.766.766,0,0,1,.223.58v.007a.784.784,0,0,1-.518.763l.6.867h-.8l-.506-.753h-.3v.753h-.7Z"/><polygon points="50.868 56.991 52.892 56.991 52.892 57.578 51.559 57.578 51.559 57.954 52.766 57.954 52.766 58.498 51.559 58.498 51.559 58.892 52.91 58.892 52.91 59.478 50.868 59.478 50.868 56.991"/><path d="M53.685,59.109l.387-.458a1.318,1.318,0,0,0,.817.3c.187,0,.288-.065.288-.17v-.009c0-.1-.084-.16-.425-.237-.536-.121-.948-.271-.948-.782v-.008c0-.461.369-.8.973-.8a1.594,1.594,0,0,1,1.034.33l-.349.486a1.271,1.271,0,0,0-.7-.245c-.169,0-.251.072-.251.161v.007c0,.114.086.163.435.241.579.125.938.309.938.776v.006c0,.508-.406.811-1.017.811a1.768,1.768,0,0,1-1.179-.413"/><path d="M56.6,59.109l.386-.458a1.314,1.314,0,0,0,.818.3c.187,0,.287-.065.287-.17v-.009c0-.1-.083-.16-.424-.237-.536-.121-.95-.271-.95-.782v-.008c0-.461.37-.8.975-.8a1.6,1.6,0,0,1,1.034.33l-.349.486a1.268,1.268,0,0,0-.7-.245c-.167,0-.251.072-.251.161v.007c0,.114.087.163.434.241.579.125.939.309.939.776v.006c0,.508-.407.811-1.017.811a1.765,1.765,0,0,1-1.178-.413"/><path d="M40.567,54.626V54.62a.759.759,0,0,1,.791-.756.864.864,0,0,1,.6.213l-.238.284a.53.53,0,0,0-.355-.137.385.385,0,0,0-.377.4v.006a.386.386,0,0,0,.4.4.415.415,0,0,0,.236-.06v-.176h-.29v-.3H42v.656a1,1,0,0,1-.638.223.751.751,0,0,1-.8-.751"/><path d="M43.623,54.626V54.62a.379.379,0,0,0-.378-.392.372.372,0,0,0-.371.389v0a.379.379,0,0,0,.374.394.373.373,0,0,0,.375-.388m-1.168,0V54.62a.793.793,0,0,1,1.585,0v0a.793.793,0,0,1-1.585.006"/><polygon points="44.503 53.893 44.91 53.893 44.91 54.995 45.622 54.995 45.622 55.348 44.503 55.348 44.503 53.893"/><path d="M46.709,54.991a.359.359,0,0,0,.4-.369v0a.359.359,0,0,0-.4-.368h-.167v.74Zm-.574-1.1H46.7a.728.728,0,0,1,.828.719v0a.741.741,0,0,1-.837.731h-.558Z"/><path d="M48.659,55.133l.226-.267a.776.776,0,0,0,.479.174c.107,0,.166-.038.166-.1v0c0-.061-.048-.095-.248-.14-.311-.071-.555-.158-.555-.457v0c0-.27.218-.465.571-.465a.937.937,0,0,1,.6.193l-.2.286a.733.733,0,0,0-.413-.144c-.1,0-.147.041-.147.094v0c0,.067.05.095.253.141.339.074.551.181.551.454v0c0,.3-.238.474-.6.474a1.029,1.029,0,0,1-.689-.241"/><path d="M51.218,54.626V54.62a.759.759,0,0,1,.791-.756.86.86,0,0,1,.6.213l-.24.284a.521.521,0,0,0-.355-.137.383.383,0,0,0-.376.4v.006a.385.385,0,0,0,.4.4.414.414,0,0,0,.235-.06v-.176h-.289v-.3h.677v.656a1.008,1.008,0,0,1-.639.223.752.752,0,0,1-.8-.751"/><polygon points="53.538 54.803 52.981 53.893 53.447 53.893 53.747 54.423 54.052 53.893 54.508 53.893 53.948 54.798 53.948 55.348 53.538 55.348 53.538 54.803"/><polygon points="54.907 53.893 55.339 53.893 55.688 54.456 56.04 53.893 56.469 53.893 56.469 55.348 56.066 55.348 56.066 54.513 55.688 55.082 55.68 55.082 55.305 54.517 55.305 55.348 54.907 55.348 54.907 53.893"/><polygon points="48.116 54.285 47.837 53.849 48.394 53.849 48.116 54.285"/><path d="M38.205,38.743a10.407,10.407,0,1,1,10.4,10.642,10.537,10.537,0,0,1-10.4-10.642m-1.389,0A11.8,11.8,0,1,0,48.609,26.682,11.943,11.943,0,0,0,36.816,38.743"/><path d="M46.162,37.436c-.015-.049-.053-.034-.063-.012-.212.514-.611.73-.7,1.057a.564.564,0,0,0,.027.239,1.757,1.757,0,0,1-.091,1.3,2.1,2.1,0,0,0-.033.756.227.227,0,0,0,.065.138,2.08,2.08,0,0,1,.21.229,10.835,10.835,0,0,1,1.09-.292,4.205,4.205,0,0,1,.212-.543,2.474,2.474,0,0,0,.146-.446,4.98,4.98,0,0,0-.232-1.375,3.639,3.639,0,0,1-.635-1.051"/><path d="M50.431,40.784a9.837,9.837,0,0,1,1.167.29c.048-.053.1-.111.153-.16a.227.227,0,0,0,.065-.138,2.046,2.046,0,0,0-.033-.756,1.767,1.767,0,0,1-.089-1.3.559.559,0,0,0,.026-.239c-.085-.327-.483-.543-.7-1.057-.01-.022-.051-.037-.065.012a3.584,3.584,0,0,1-.634,1.051,4.907,4.907,0,0,0-.232,1.375,2.55,2.55,0,0,0,.145.446,4.037,4.037,0,0,1,.192.476"/><path d="M57.692,38.689A9.05,9.05,0,1,0,47.13,47.81a4.074,4.074,0,0,1,.27-1.518.785.785,0,0,0,.005-.337,2.037,2.037,0,0,0-.095-.3,6.029,6.029,0,0,1-.75-4.37c-.3.069-.581.149-.841.233.026.129.077.282-.026.378a.219.219,0,0,1-.193.033.167.167,0,0,1-.153.134.481.481,0,0,1-.166-.027c-.037.05-.043.078-.168.1a.249.249,0,0,1-.19-.053c-.008.028-.042.077-.139.046a.554.554,0,0,1-.162-.143c-.212.1-.391.2-.531.272l.535.954c.011.042.023.125-.172.239-.082.047-.215.074-.263.038a2.153,2.153,0,0,1-.122-.2,1.2,1.2,0,0,1-.133.118c-.095.061-.22.1-.275.058-.019-.025-.089-.14-.183-.3a.486.486,0,0,1-.116.1.275.275,0,0,1-.244.031c-.039-.044-.06-.111-.239-.428-.3.15-.383.255-.467.074-.023-.055-.088-.142-.064-.194.029-.079.219-.159.33-.239-.192-.345-.24-.426-.24-.426-.019-.08.081-.172.137-.208a.916.916,0,0,1,.141-.066c-.1-.189-.171-.314-.171-.314-.02-.08.1-.19.162-.226a.656.656,0,0,1,.184-.07c-.057-.1-.09-.16-.09-.16-.076-.128.124-.238.15-.254.236-.124.3-.022.3-.022l.643,1.15c.161-.09.375-.2.634-.321a.17.17,0,0,1,.036-.084,1.781,1.781,0,0,0,.185-.611,5.473,5.473,0,0,0-.243-.822,2.044,2.044,0,0,1-.134-.741,2.794,2.794,0,0,1,.154-1.228,6.171,6.171,0,0,1,.178-.813,1.19,1.19,0,0,1,.406-1.032,1.341,1.341,0,0,1,1.437-1.483c.518-.431,1.16-.37,1.255-.605A3.724,3.724,0,0,0,47.7,33c-.275-.081-.285-.552-.251-.658.037-.05.058-.035.094-.049a1.2,1.2,0,0,1,.44-1.329,1.176,1.176,0,0,1,.556-.159v0h.054v0a1.176,1.176,0,0,1,.555.159,1.2,1.2,0,0,1,.439,1.329c.035.014.057,0,.094.049.034.106.025.577-.252.658a3.709,3.709,0,0,0-.008,1.173c.094.235.737.174,1.252.605a1.34,1.34,0,0,1,1.438,1.483,1.2,1.2,0,0,1,.408,1.032,6.135,6.135,0,0,1,.177.813,2.867,2.867,0,0,1,.155,1.228,2.065,2.065,0,0,1-.135.741,5.473,5.473,0,0,0-.243.822,1.741,1.741,0,0,0,.165.569q.414.183.835.416l.625-1.119s.069-.1.3.022c.028.016.226.126.153.254l-.091.16a.656.656,0,0,1,.184.07c.056.036.181.146.162.226,0,0-.068.125-.173.314a.763.763,0,0,1,.141.066c.058.036.157.128.138.208,0,0-.048.081-.239.426.109.08.3.16.329.239.025.052-.041.139-.063.194-.085.181-.169.076-.468-.074-.178.317-.2.384-.238.428a.275.275,0,0,1-.244-.031.513.513,0,0,1-.117-.1c-.092.162-.162.277-.183.3-.055.041-.181,0-.274-.058a1.651,1.651,0,0,1-.135-.118c-.064.108-.107.179-.12.2-.046.036-.183.009-.263-.038-.2-.114-.183-.2-.172-.239l.552-.986c-.211-.117-.422-.221-.632-.318a.616.616,0,0,1-.041.073s-.1.128-.166.148c-.1.031-.129-.018-.138-.046a.246.246,0,0,1-.19.053c-.125-.025-.13-.053-.168-.1a.485.485,0,0,1-.165.027.167.167,0,0,1-.154-.134.215.215,0,0,1-.191-.033c-.116-.106-.041-.281-.022-.416l.011-.042c-.295-.091-.586-.165-.872-.224a6.033,6.033,0,0,1-.736,4.441,1.74,1.74,0,0,0-.095.3.785.785,0,0,0,0,.337,4.03,4.03,0,0,1,.267,1.547,9.2,9.2,0,0,0,7.7-9.15"/></g></g></svg>