<svg xmlns="http://www.w3.org/2000/svg" xmlns:xlink="http://www.w3.org/1999/xlink" viewBox="0 0 97.219 86.203"><defs><clipPath id="a"><rect x="23.049" y="33.947" width="53.294" height="18.819" fill="none"/></clipPath></defs><g clip-path="url(#a)"><path d="M36.66,40.887H30.675v1.776h4.244c-.209,2.491-2.281,3.553-4.237,3.553a4.744,4.744,0,0,1,.005-9.487,4.606,4.606,0,0,1,3.2,1.283l1.244-1.288a6.323,6.323,0,0,0-4.507-1.776A6.525,6.525,0,1,0,30.718,48a5.745,5.745,0,0,0,6.05-5.931,5.338,5.338,0,0,0-.108-1.178"/><path d="M41.587,41.248a2.552,2.552,0,1,1-2.4,2.538A2.412,2.412,0,0,1,41.587,41.248ZM41.563,39.6a4.194,4.194,0,1,0,4.208,4.208A4.144,4.144,0,0,0,41.563,39.6"/><path d="M50.756,41.248a2.552,2.552,0,1,1-2.4,2.538A2.412,2.412,0,0,1,50.756,41.248ZM50.732,39.6a4.194,4.194,0,1,0,4.208,4.208A4.144,4.144,0,0,0,50.732,39.6"/><path d="M59.889,41.249a2.372,2.372,0,0,1,2.24,2.555,2.343,2.343,0,0,1-2.264,2.541,2.383,2.383,0,0,1-2.32-2.525,2.417,2.417,0,0,1,2.344-2.571M59.726,39.6a4.2,4.2,0,0,0-.039,8.389,2.772,2.772,0,0,0,2.3-1.019V47.8a2.1,2.1,0,0,1-2.2,2.313,2.326,2.326,0,0,1-2.147-1.493l-1.612.674a4.035,4.035,0,0,0,3.772,2.47c2.241,0,3.949-1.412,3.949-4.373V39.857H61.987v.71a2.965,2.965,0,0,0-2.261-.962"/><path d="M71.636,41.208a1.671,1.671,0,0,1,1.552.9l-3.755,1.569a2.329,2.329,0,0,1,2.2-2.465M71.563,39.6a3.966,3.966,0,0,0-3.912,4.188,4.055,4.055,0,0,0,4.116,4.208,4.255,4.255,0,0,0,3.514-1.84l-1.45-.965a2.347,2.347,0,0,1-2.055,1.155,2.158,2.158,0,0,1-2.057-1.271l5.624-2.334-.292-.683A3.8,3.8,0,0,0,71.563,39.6"/><rect x="64.97" y="35.38" width="1.847" height="12.362"/></g></svg>