<svg xmlns="http://www.w3.org/2000/svg" xmlns:xlink="http://www.w3.org/1999/xlink" viewBox="0 0 97.219 86.203"><defs><clipPath id="a"><rect x="25.737" y="34.255" width="45.745" height="17.694" fill="none"/></clipPath></defs><g clip-path="url(#a)"><path d="M48.608,50.3c11.794,0,21.357-3.206,21.357-7.157S60.4,35.99,48.608,35.99s-21.355,3.2-21.355,7.155S36.815,50.3,48.608,50.3M26.737,35.255H70.483V50.949H26.737Z"/><path d="M43.543,45.555s.076-.065.086-.106a.529.529,0,0,0-.019-.26l-1.179-1.858v-.012l.005,1.953.034.155.064.084H38.806l.062-.084.032-.166,0-5.087-.032-.147-.061-.077h3.729l-.063.082-.032.163,0,1.823,1.35-1.768a.491.491,0,0,0,.028-.169.455.455,0,0,0-.061-.165l3.711.005-1.615,2.3,1.946,3.11.146.112.166.072H43.543Z"/><polygon points="36.737 45.287 36.77 45.461 36.831 45.565 33.105 45.555 33.149 45.449 33.163 45.272 33.163 40.18 33.147 40.03 33.104 39.95 36.832 39.95 36.77 40.032 36.739 40.194 36.737 45.287"/><polygon points="54.506 42.002 54.675 41.971 54.779 41.91 54.776 43.482 54.667 43.419 54.506 43.387 52.441 43.389 52.441 43.905 55.137 43.905 55.327 43.867 55.42 43.795 55.427 45.569 48.895 45.556 48.955 45.45 48.981 45.272 48.981 40.18 48.953 40.003 48.89 39.895 55.4 39.907 55.405 41.614 55.3 41.569 55.122 41.557 52.441 41.557 52.441 42.01 54.506 42.002"/><path d="M58.471,40.188a.512.512,0,0,0,.016-.179.147.147,0,0,0-.062-.107h5.052a.144.144,0,0,0-.063.108.54.54,0,0,0,.016.178l2.206,5.168.07.11.1.089-3.99.006a.555.555,0,0,0,.055-.182.984.984,0,0,0-.026-.131l-.259-.726H59.846l-.284.726s-.027.006-.027.062a.382.382,0,0,0,.066.2H56.383a.35.35,0,0,0,.172-.177c.05-.106.04-.1.04-.1ZM60.714,42.3l-.438.986h.878Z"/></g></svg>