<svg xmlns="http://www.w3.org/2000/svg" viewBox="0 0 8.294 8.294"><path d="M5.26,3.289a.254.254,0,1,1,.253-.254.259.259,0,0,1-.253.254M4.147,5.211A1.064,1.064,0,1,1,5.211,4.147,1.066,1.066,0,0,1,4.147,5.211m1.62-2.3a.67.67,0,0,0-.39-.39A1.309,1.309,0,0,0,5,2.449c-.214-.009-.283-.009-.839-.009s-.624.009-.839.009a1.252,1.252,0,0,0-.381.069.667.667,0,0,0-.39.39,1.307,1.307,0,0,0-.068.381c-.01.214-.01.292-.01.839s0,.624.01.839a1.245,1.245,0,0,0,.068.38.7.7,0,0,0,.39.391,1.307,1.307,0,0,0,.381.068c.215.01.283.01.839.01s.625,0,.839-.01a1.251,1.251,0,0,0,.381-.068.671.671,0,0,0,.39-.391,1.3,1.3,0,0,0,.068-.38c.01-.215.01-.293.01-.839s0-.625-.01-.839a1.307,1.307,0,0,0-.068-.381"/><path d="M3.513,3.88a.693.693,0,1,1,.375.905.693.693,0,0,1-.375-.905"/><path d="M6.225,5a1.52,1.52,0,0,1-.1.507,1.062,1.062,0,0,1-.615.615,1.5,1.5,0,0,1-.507.1c-.215.009-.293.009-.859.009s-.634,0-.859-.009a1.5,1.5,0,0,1-.507-.1A1.062,1.062,0,0,1,2.166,5.5a1.7,1.7,0,0,1-.107-.5c-.01-.215-.01-.293-.01-.859s0-.634.01-.859a1.525,1.525,0,0,1,.1-.507,1.062,1.062,0,0,1,.615-.615,1.526,1.526,0,0,1,.508-.1c.214-.01.292-.01.858-.01s.644-.01.869,0a1.525,1.525,0,0,1,.507.1,1.065,1.065,0,0,1,.615.615,1.526,1.526,0,0,1,.1.508c.01.214.01.292.01.858s0,.644-.01.859M4.147,0A4.147,4.147,0,1,0,8.294,4.147,4.144,4.144,0,0,0,4.147,0"/></svg>