<svg xmlns="http://www.w3.org/2000/svg" xmlns:xlink="http://www.w3.org/1999/xlink" viewBox="0 0 97.219 86.203"><defs><clipPath id="a"><rect x="34.557" y="25.857" width="28.105" height="28.211" fill="none"/></clipPath></defs><g><g clip-path="url(#a)"><path d="M53.605,51.215a1.17,1.17,0,0,1-1.22,1c-.395,0-.637-.161-.637-.449,0-.707,1.43-.525,1.857-.548m1.369,1.746h0v-2.59c0-1.006-.7-1.52-2.1-1.52-1.126,0-2.131.439-2.131,1.25h1.4c0-.234.3-.438.709-.438a.689.689,0,0,1,.751.782c-.989.021-3.111-.182-3.111,1.327-.02,1.04.847,1.3,1.651,1.3a1.809,1.809,0,0,0,1.494-.716v.609Zm7.854-.535a.2.2,0,0,0-.074-.159.23.23,0,0,0-.177-.055.281.281,0,0,0-.2.055.174.174,0,0,0-.021.266.375.375,0,0,0,.168.086h.03a.358.358,0,0,1,.126.053c.01.013.019.02.031.033a.077.077,0,0,1,.011.042.083.083,0,0,1-.042.076.223.223,0,0,1-.095.021.236.236,0,0,1-.135-.032.214.214,0,0,1-.054-.107h-.114a.281.281,0,0,0,.085.183.307.307,0,0,0,.209.063.3.3,0,0,0,.2-.063.194.194,0,0,0,.073-.162.165.165,0,0,0-.043-.127.653.653,0,0,0-.207-.087.223.223,0,0,1-.137-.055.064.064,0,0,1-.031-.062.1.1,0,0,1,.031-.066.161.161,0,0,1,.094-.02.187.187,0,0,1,.115.031.1.1,0,0,1,.042.086Zm.144-.2v.708h.107v-.578l.176.578h.115l.178-.578v.578h.114v-.708h-.178l-.177.57-.168-.57ZM59.13,47.651V51.5c0,1.531,1.107,1.714,2.537,1.414v-.944c-.774.15-1.147.1-1.147-.427V50.167h1.147V48.915H60.52V47.651Zm-3.56,1.338v3.972h1.4V51.174a1.026,1.026,0,0,1,.616-.889,2.648,2.648,0,0,1,1.242-.118V48.924c-.908-.073-1.649.076-1.911.9v-.836Zm-12.77,0v3.972h1.4v-1.97c0-.793.5-1.124.845-1.124.49,0,.7.418.7.846v2.248H47.1V50.778a.929.929,0,0,1,.846-.911.791.791,0,0,1,.752.846v2.248h1.349V50.552a1.53,1.53,0,0,0-1.609-1.7,1.808,1.808,0,0,0-1.545.889,1.342,1.342,0,0,0-1.223-.889,1.6,1.6,0,0,0-1.515.856v-.718Zm-3.834,1.7V47.651H37.557v5.31h1.409V50.874L40.7,52.961H42.62l-1.973-2.248h-.019L42.4,48.989H40.7ZM37.557,26.857h8.415v3.92l3.824-3.92H61.771l-9.552,9.786,9.552,9.777H49.8l-3.824-3.91v3.91H37.557Z"/></g><rect width="97.219" height="86.203" fill="none"/></g></svg>