<svg xmlns="http://www.w3.org/2000/svg" xmlns:xlink="http://www.w3.org/1999/xlink" viewBox="0 0 97.219 86.203"><defs><clipPath id="a"><rect x="27.734" y="32.121" width="41.751" height="21.961" fill="none"/></clipPath></defs><g><rect width="97.219" height="86.203" fill="none"/><g clip-path="url(#a)"><path d="M48.61,33.908c-10.547,0-19.1,4.116-19.1,9.194s8.55,9.194,19.1,9.194,19.1-4.116,19.1-9.194-8.55-9.194-19.1-9.194M68.485,43.1c0,5.512-8.9,9.98-19.875,9.98S28.734,48.614,28.734,43.1s8.9-9.98,19.876-9.98S68.485,37.59,68.485,43.1"/><path d="M43.949,38.814l-.892,1.451h.905Zm-3.5,3.265h1.6a.481.481,0,0,1,.037-.2c.076-.144.275-.493.275-.493H43.98l0,.435a.373.373,0,0,1-.11.265h1.6a.338.338,0,0,1-.141-.263l-.2-4.354s-.008-.278.124-.337H43.667s.112.138-.1.45-2.927,4.337-2.927,4.337a.4.4,0,0,1-.191.163m16.957,2.272.434-1.17H54.586s.117.1-.033.519-1.468,3.97-1.468,3.97-.234.467-.3.467h3.353l.4-1.184s-.05.066-.367.066H54.753l.3-.8h1.1s.234-.017.284.05L56.888,45s-.033.115-.334.115H55.487l.317-.884h1.351a.249.249,0,0,1,.25.116M49.3,43.182s.124.067.124.384v4.287s-.017.235-.106.284h1.342a.493.493,0,0,1,.133-.267c.133-.167,2.919-3.9,2.919-3.9s.635-.784.8-.784H52.59a.2.2,0,0,1,.034.284C52.507,43.65,50.8,46.2,50.8,46.2l.021-2.574s0-.413.163-.448ZM46.1,47.071c.45.083.945-.241,1.2-1.277.392-1.566-.331-1.579-.463-1.6-.4-.048-.933.412-1.149,1.371-.1.438-.205,1.388.408,1.5m-.114,1.17a3.08,3.08,0,0,0,2.88-3.041c0-1.332-.548-2.164-1.8-2.164a3.005,3.005,0,0,0-2.906,2.717,1.926,1.926,0,0,0,1.825,2.488m13.636-2.924s.613.047.8-.433c.222-.566-.331-.551-.331-.551H59.64l-.333.984Zm-1.193,2.82c-.125,0-.038-.3-.038-.3l.524-1.416.755,1.535a.274.274,0,0,1,.026.184h1.81c-.166,0-.35-.317-.35-.317l-.871-1.563a1.712,1.712,0,0,0,1.585-1.163,1.332,1.332,0,0,0-1.4-1.912H58.423c.15.167.033.518.033.518s-1.338,3.686-1.438,3.969a1.288,1.288,0,0,1-.292.465ZM41.576,44.3l-.339,1h.317a.881.881,0,0,0,.845-.436s.267-.563-.478-.563c-.163,0-.345,0-.345,0m-1.239,3.816c-.051,0-.051-.162-.051-.162l.587-1.557s.731,1.435.781,1.535a.267.267,0,0,1,.025.183h1.749c-.167,0-.339-.317-.339-.317l-.871-1.562a1.775,1.775,0,0,0,1.608-1.207c.6-1.918-1.421-1.868-1.421-1.868H40.337c.15.167.033.517.033.517s-1.285,3.672-1.384,3.956a1.553,1.553,0,0,1-.284.482ZM34.746,46.07h3.19l.388-1.112H36.26l2.355-.815.156-.45-3.625,1.188Zm17.8-5.123s.006,0,.231,0c.341,0,.971-.075,1.395-1.107.7-1.7-.275-1.639-.275-1.639h-.375Zm-.213-3.811s.125.2-.037.663-1.439,3.9-1.439,3.9-.1.324-.238.387l2,0A3.292,3.292,0,0,0,55.8,39.625,1.718,1.718,0,0,0,54,37.136Zm-6.693,4.939h1.464a.365.365,0,0,1-.038-.311c.087-.226.863-2.34.863-2.34l.338,2.651H49.6l1.739-4.715s.071-.221.168-.221l-1.409-.005a.551.551,0,0,1-.01.288c-.05.125-.851,2.265-.851,2.265l-.313-2.553H47.407a.328.328,0,0,1,.028.263L45.83,41.8s-.1.274-.187.274m-5.453-1.1h-1.3s1.2-3.211,1.3-3.453c.172-.43.275-.4.275-.4h-1.8c.222.107.025.526.025.526s-1.437,4-1.538,4.2-.175.226-.175.226h3.109l.434-1.186c-.037.113-.336.085-.336.085m20.341-1.95h-3.19l-.389,1.111h2.065l-2.355.815-.156.451,3.624-1.189Zm6.68,4.073c0,4.805-8.328,8.7-18.6,8.7s-18.6-3.9-18.6-8.7,8.329-8.7,18.6-8.7,18.6,3.895,18.6,8.7"/></g></g></svg>