<svg xmlns="http://www.w3.org/2000/svg" xmlns:xlink="http://www.w3.org/1999/xlink" viewBox="0 0 97.219 86.203"><defs><clipPath id="a"><rect x="25.073" y="37.058" width="47.072" height="12.087" fill="none"/></clipPath></defs><g clip-path="url(#a)"><path d="M41.4,48.146H40.376a3.09,3.09,0,0,1-3.015-3.217,3.123,3.123,0,0,1,3.393-3.256,3.107,3.107,0,0,1,3.357,3.387v.225H39.535A1.215,1.215,0,0,0,40.9,46.64a1.089,1.089,0,0,0,1.04-.558h2.09A2.835,2.835,0,0,1,41.4,48.146m.692-4.108a1.306,1.306,0,0,0-2.521,0Z"/><polygon points="47.939 48.066 45.764 48.066 45.764 43.753 44.678 43.753 44.678 41.971 45.764 41.971 45.764 40.141 47.939 40.141 47.939 41.971 49.011 41.971 49.011 43.753 47.939 43.753 47.939 48.066"/><rect x="55.728" y="41.554" width="2.175" height="6.512"/><path d="M62.266,48.039H60.092v-4.1H59.009V42.154h1.083v-.318a2.743,2.743,0,0,1,2.76-3.113,1.941,1.941,0,0,1,.931.214V40.8a1.865,1.865,0,0,0-.764-.2c-.562,0-.753.333-.753,1.022v.532h1.3v1.783h-1.3Z"/><path d="M68.116,48.146H67.023a3.084,3.084,0,0,1-2.979-3.213,3.376,3.376,0,0,1,6.75.131v.226H66.218a1.215,1.215,0,0,0,1.362,1.354,1.09,1.09,0,0,0,1.04-.558h2.091a2.829,2.829,0,0,1-2.595,2.06m.659-4.1a1.307,1.307,0,0,0-2.521,0Z"/><path d="M56.813,38.058a1.335,1.335,0,1,0,1.342,1.335,1.339,1.339,0,0,0-1.342-1.335"/><polygon points="27.531 39.529 29.73 39.529 31.474 44.095 33.32 39.529 35.542 39.529 36.841 48.073 34.607 48.073 33.98 43.155 33.958 43.155 31.896 48.073 31.006 48.073 29.035 43.155 29.012 43.155 28.295 48.073 26.073 48.073 27.531 39.529"/><polygon points="52.199 46.149 54.919 46.149 54.919 48.06 49.93 48.06 49.93 39.378 52.199 39.378 52.199 46.149"/><path d="M70.441,40.11a.71.71,0,1,1-.724.719.712.712,0,0,1,.724-.719m0,1.328a.614.614,0,0,0,0-1.226.613.613,0,0,0,0,1.226m-.26-1h.3c.185,0,.259.092.259.221a.185.185,0,0,1-.2.2l.223.332h-.13l-.2-.314h-.111V41.2h-.13Zm.13.332h.111c.093,0,.2,0,.2-.111,0-.092-.093-.11-.167-.11h-.148Z"/></g></svg>