<svg xmlns="http://www.w3.org/2000/svg" xmlns:xlink="http://www.w3.org/1999/xlink" viewBox="0 0 98.132 86.459"><defs><clipPath id="a"><rect x="27.62" y="34.052" width="48.152" height="18.61" fill="none"/></clipPath></defs><g clip-path="url(#a)"><path d="M34.532,35.789c-3,3.527-5.883,7.9-5.912,11.17a3.87,3.87,0,0,0,1.324,3.117,6.423,6.423,0,0,0,4.335,1.587A16.68,16.68,0,0,0,40.3,50.114c2.845-1.137,34.282-14.79,34.282-14.79.3-.151.246-.341-.133-.246-.153.038-34.225,9.272-34.225,9.272a7.515,7.515,0,0,1-1.983.283c-2.618.016-4.948-1.438-4.93-4.5a10.058,10.058,0,0,1,1.225-4.344"/><rect x="0.913" y="0.255" width="97.219" height="86.203" fill="none"/></g></svg>