<svg xmlns="http://www.w3.org/2000/svg" xmlns:xlink="http://www.w3.org/1999/xlink" viewBox="0 0 97.219 86.203"><defs><clipPath id="a" transform="translate(0)"><rect x="20.797" y="36.971" width="57.832" height="12.262" fill="none"/></clipPath></defs><g><g clip-path="url(#a)"><path d="M68.852,44.092a1.144,1.144,0,0,0-.153.613c0,.5.235.939.744.939.491,0,.733-.4.733-.9a1.074,1.074,0,0,0-.255-.788.652.652,0,0,0-.531-.175.613.613,0,0,0-.538.308m2.246.619a1.658,1.658,0,1,1-1.537-1.66,1.558,1.558,0,0,1,1.537,1.66" transform="translate(0)"/><path d="M72.545,43.478a1.048,1.048,0,0,1,.876-.408,1,1,0,0,1,.857.367,1.269,1.269,0,0,1,.915-.367.9.9,0,0,1,.863.45,1.786,1.786,0,0,1,.084.722v2.046h-.9V44.639a2.458,2.458,0,0,0-.035-.535.4.4,0,0,0-.4-.283.49.49,0,0,0-.3.1c-.17.139-.17.319-.17.662v1.709h-.9V44.429a.828.828,0,0,0-.089-.446A.446.446,0,0,0,73,43.821a.477.477,0,0,0-.249.072.682.682,0,0,0-.207.608v1.787h-.9V43.154h.9Z" transform="translate(0)"/><path d="M24.609,41.536a1.039,1.039,0,0,0-.858.465,2.326,2.326,0,0,0-.347,1.358,2.125,2.125,0,0,0,.4,1.426,1.043,1.043,0,0,0,.749.331c.814,0,1.173-.9,1.173-1.8,0-.762-.206-1.568-.891-1.746a.855.855,0,0,0-.228-.033m-1.324-.508c.054-.066.108-.132.162-.188a2.061,2.061,0,0,1,1.423-.507c1.39,0,2.465,1.071,2.465,2.993,0,1.182-.511,3.017-2.455,3.017a2.336,2.336,0,0,1-1.4-.486v2.376H21.8V40.487h1.488Z" transform="translate(0)"/><path d="M29.663,41.061A2.605,2.605,0,0,1,31.3,40.4v1.5l-.555.088c-.8.145-1.043.266-1.043,1v3.248H28.035V40.454h1.628Z" transform="translate(0)"/><rect x="32.027" y="40.454" width="1.651" height="5.779"/><path d="M43.277,42.63a1.384,1.384,0,0,0-.316-.817,1.172,1.172,0,0,0-.817-.32,1.14,1.14,0,0,0-.846.375,1.51,1.51,0,0,0-.336.762Zm1.662,2.133a4.508,4.508,0,0,1-.683.862,3.094,3.094,0,0,1-2.144.818,2.734,2.734,0,0,1-2.867-2.984c0-1.392.674-3.18,2.91-3.18a2.731,2.731,0,0,1,2.046.827,3.913,3.913,0,0,1,.8,2.585H40.95a1.291,1.291,0,0,0,1.292,1.437,1.507,1.507,0,0,0,1.438-1.017Z" transform="translate(0)"/><rect x="45.727" y="37.97" width="1.672" height="8.263"/><rect x="48.529" y="40.454" width="1.651" height="5.779"/><path d="M52.993,40.983a1.628,1.628,0,0,1,.564-.453,2.723,2.723,0,0,1,1.031-.209,2.126,2.126,0,0,1,1.01.231c.6.321.748.84.748,1.736v3.945H54.687V42.984a2.343,2.343,0,0,0-.077-.862.758.758,0,0,0-.749-.442c-.88,0-.88.718-.88,1.437v3.116H51.31V40.475h1.683Z" transform="translate(0)"/><path d="M61.005,42.63a1.382,1.382,0,0,0-.315-.817,1.165,1.165,0,0,0-.814-.32,1.148,1.148,0,0,0-.848.375,1.525,1.525,0,0,0-.335.762Zm1.661,2.133a4.476,4.476,0,0,1-.684.862,3.083,3.083,0,0,1-2.139.818,2.734,2.734,0,0,1-2.867-2.984c0-1.392.674-3.18,2.911-3.18a2.726,2.726,0,0,1,2.042.827,3.916,3.916,0,0,1,.8,2.585H58.682a1.289,1.289,0,0,0,1.291,1.437,1.5,1.5,0,0,0,1.433-1.017Z" transform="translate(0)"/><path d="M38.4,44.478c-.005-.015-.032-.01-.043.009a1.138,1.138,0,0,1-.132.187,1.108,1.108,0,0,1-.847.4c-.89,0-1.26-.961-1.26-1.723,0-.7.3-1.745,1.2-1.745a1.1,1.1,0,0,1,.63.2,1.329,1.329,0,0,1,.429.508c.01.019.037.027.041.012a2.96,2.96,0,0,1,.728-1.284,2.717,2.717,0,0,0-1.9-.726A2.8,2.8,0,0,0,34.407,43.4a2.818,2.818,0,0,0,4.44,2.5,2.635,2.635,0,0,0,.259-.214,2.662,2.662,0,0,1-.7-1.209" transform="translate(0)"/><path d="M33.76,39.014a.9.9,0,1,1-.9-.914.908.908,0,0,1,.9.914" transform="translate(0)"/><path d="M50.258,39.014a.9.9,0,1,1-.9-.914.907.907,0,0,1,.9.914" transform="translate(0)"/><path d="M64.359,45.785a.593.593,0,1,1-.593-.6.6.6,0,0,1,.593.6" transform="translate(0)"/><path d="M67.1,45.335c0-.009-.016-.006-.023,0a.536.536,0,0,1-.071.1.6.6,0,0,1-.457.214c-.48,0-.679-.517-.679-.929,0-.375.163-.941.65-.941a.6.6,0,0,1,.34.107.729.729,0,0,1,.231.274c0,.01.019.015.022.006a1.6,1.6,0,0,1,.392-.692,1.46,1.46,0,0,0-1.026-.391,1.511,1.511,0,0,0-1.534,1.667A1.52,1.52,0,0,0,67.342,46.1a1.518,1.518,0,0,0,.139-.115,1.445,1.445,0,0,1-.379-.652" transform="translate(0)"/><path d="M76.949,42.858h.116c.093,0,.158-.014.158-.106,0-.071-.062-.1-.149-.1h-.125Zm-.1-.3H77.1c.148,0,.221.063.221.19a.181.181,0,0,1-.163.194l.187.3h-.111l-.184-.3h-.1v.3h-.1Zm.207.83a.49.49,0,1,0-.472-.49.486.486,0,0,0,.472.49m0-1.069a.58.58,0,1,1-.57.579.573.573,0,0,1,.57-.579" transform="translate(0)"/></g><rect width="97.219" height="86.203" fill="none"/></g></svg>