<svg xmlns="http://www.w3.org/2000/svg" viewBox="0 0 97.219 86.203"><path d="M57.021,48.537l.988.691-.4.573-1-.7-1.852-.078.48-.686,1,.077-.408-.929.468-.669Zm-2.518.706,1.632,2.25-.583.423-1.656-.67.889,1.226-.556.4L52.6,50.625l.573-.416,1.678.68-.9-1.243Zm-2.631,3.393-.313.1-.024-.594Zm-.352-1.612-.629.2-.052,2.939.724-.235v-.487l.72-.234.288.393.724-.235-1.76-2.325Zm-2.071,1.423a.305.305,0,0,1-.082.221.4.4,0,0,1-.285.111l-.4.013-.021-.619.451-.015a.319.319,0,0,1,.247.086.3.3,0,0,1,.087.2m-.288-.929h-.01l-1.191.04.092,2.779.687-.022-.029-.868.353-.012a1.172,1.172,0,0,0,.834-.34.964.964,0,0,0,.262-.692.922.922,0,0,0-1-.885m-2.536-.192.636.207L46.4,54.176l-.654-.212.371-1.139-.987.993-.221-1.388-.371,1.141-.653-.212.859-2.644.661.215.191,1.443ZM43.041,51.3a.67.67,0,0,1-.718.312.589.589,0,0,1-.348-.264.813.813,0,0,1,.186-.885.775.775,0,0,1,.584-.323.555.555,0,0,1,.483.28.833.833,0,0,1-.187.88m.785-1.176a1.492,1.492,0,0,0-.8-.618,1.538,1.538,0,0,0-1.653,2.136,1.5,1.5,0,0,0,.8.619,1.069,1.069,0,0,0,.329.052,1.5,1.5,0,0,0,1.127-.631,1.364,1.364,0,0,0,.2-1.558m-2.479-1.59a.621.621,0,0,0-.786-.327.877.877,0,0,0-.587.576.665.665,0,0,0,.149.625.745.745,0,0,0,.414.223l.048.007-.307.666-.031-.01a1.547,1.547,0,0,1-.77-.59,1.319,1.319,0,0,1-.215-1.121,1.593,1.593,0,0,1,.621-.856,1.5,1.5,0,0,1,1.011-.274,1.4,1.4,0,0,1,.964.632,1.464,1.464,0,0,1,.268.907l0,.033-.732.041.011-.047a.789.789,0,0,0-.056-.485m6.844-.788a.4.4,0,0,1,.162-.1l.447.777a.908.908,0,0,1-.283.052.419.419,0,0,1-.43-.418.454.454,0,0,1,.1-.314m.415,1.366a1.245,1.245,0,0,0,.516-.147l.074.131h.747l-.316-.505a1.192,1.192,0,0,0,.227-.409l.007-.021-.517-.522-.023.152a.957.957,0,0,1-.05.177l-.6-1.051h.777v-.6H47.8v.432l.231.378a.955.955,0,0,0-.611.9.991.991,0,0,0,.3.766,1.146,1.146,0,0,0,.8.322c.026,0,.052,0,.079,0m8.045-13.817H58.5l-2.285,4.587v4.6H54.454V39.914l-2.319-4.622H53.98l1.317,3Zm-8.645,5.535.843-2.53.826,2.53Zm4.621,3.655-3.04-9.19H48.094c-.984,3.04-2.039,6.151-3.04,9.19h1.757l.6-1.862h2.864l.6,1.862Zm-11.193.123a3.64,3.64,0,0,1-3.075-1.651L39.7,41.689a2.174,2.174,0,0,0,1.827,1.177.982.982,0,0,0,1.037-.9c0-.4-.334-.826-1.23-1.336-1.283-.7-2.583-1.37-2.583-2.969a2.567,2.567,0,0,1,2.776-2.5,3.207,3.207,0,0,1,2.812,1.494L43.1,37.928a1.8,1.8,0,0,0-1.564-1.072.823.823,0,0,0-.932.809c0,.386.334.773,1.248,1.247,1.283.686,2.618,1.459,2.618,3.04a2.8,2.8,0,0,1-3.04,2.653m7.176,13.04A14.544,14.544,0,1,1,63.154,43.1,14.561,14.561,0,0,1,48.61,57.645m0-30.4A15.857,15.857,0,1,0,64.466,43.1,15.875,15.875,0,0,0,48.61,27.245"/></svg>