<svg xmlns="http://www.w3.org/2000/svg" viewBox="0 0 97.219 86.203"><path d="M63.517,45.091a3.636,3.636,0,0,0,3.932,3.47c1.55,0,3.771-.463,3.771-2.521,0-2.013-2.036-2.314-4.071-2.73-2.059-.416-4.094-.948-4.094-3.377,0-2.36,2.289-3.054,4.3-3.054,2.521,0,4.395,1.087,4.395,3.794h-.879c-.023-2.151-1.527-3.03-3.516-3.03-1.619,0-3.424.6-3.424,2.29,0,1.9,2.036,2.2,3.956,2.614,2.359.439,4.21.994,4.21,3.493,0,2.567-2.568,3.284-4.65,3.284-2.706,0-4.742-1.457-4.811-4.233Z"/><path d="M58.452,39.794h.069c.463-1.55,2.406-2.8,4.557-2.706v.878a4.023,4.023,0,0,0-3.284,1.157,4.431,4.431,0,0,0-1.342,3.424v6.5h-.879V37.157h.879Z"/><path d="M54.8,42.292c-.694.786-2.591.694-4.3.925-2.081.231-3.261.972-3.261,2.753,0,1.434,1.041,2.591,3.123,2.591A4.134,4.134,0,0,0,54.8,44.513Zm.879,6.7H54.8v-2.3h-.046a4.575,4.575,0,0,1-4.418,2.637c-2.244,0-3.979-.856-3.979-3.355,0-2.775,2.406-3.353,4.372-3.516,3.932-.277,4.094-.532,4.094-2.475,0-.532-.6-2.336-3.308-2.336-2.128,0-3.539,1.11-3.654,3.169h-.88c.116-2.614,1.735-3.932,4.534-3.932,2.082,0,4.164.648,4.164,3.1Z"/><path d="M44.874,42.454c-.047-2.5-1.62-4.811-4.349-4.811-2.637,0-4.187,2.451-4.372,4.811Zm-8.721.763c-.046,2.8,1.434,5.344,4.372,5.344a4.109,4.109,0,0,0,4.256-3.54h.879a4.79,4.79,0,0,1-5.135,4.3c-3.47,0-5.3-2.73-5.251-6.014-.046-3.262,1.665-6.431,5.251-6.431,3.724,0,5.39,2.938,5.228,6.338Z"/><path d="M26,45.091a3.635,3.635,0,0,0,3.932,3.47c1.55,0,3.771-.463,3.771-2.521,0-2.013-2.036-2.314-4.071-2.73-2.059-.416-4.094-.948-4.094-3.377,0-2.36,2.289-3.054,4.3-3.054,2.521,0,4.4,1.087,4.4,3.794h-.879c-.023-2.151-1.527-3.03-3.516-3.03-1.619,0-3.423.6-3.423,2.29,0,1.9,2.035,2.2,3.955,2.614,2.359.439,4.21.994,4.21,3.492,0,2.568-2.568,3.285-4.65,3.285-2.706,0-4.742-1.457-4.811-4.233Z"/></svg>