<svg xmlns="http://www.w3.org/2000/svg" xmlns:xlink="http://www.w3.org/1999/xlink" viewBox="0 0 97.219 86.203"><defs><clipPath id="a"><rect x="27.622" y="31.984" width="41.975" height="22.235" fill="none"/></clipPath></defs><g><rect width="97.219" height="86.203" fill="none"/><g clip-path="url(#a)"><path d="M49.025,52.851s0,0,0,0l0-.021h0a7.143,7.143,0,0,1-.086-1.52v-.12l0-1.473.131,0a5.817,5.817,0,0,1,1.391.221l.021,0V48.423h0l-.026.005a5.812,5.812,0,0,1-1.385.221l-.132.006V46.615h.546a5.872,5.872,0,0,1,1.606.225.071.071,0,0,0,.021,0h0V45.561l-3.573,0a.138.138,0,0,0,0,.026,4.975,4.975,0,0,1,.076,1.144v.649l.008.953a2.144,2.144,0,0,1-.141.952l0,0,0,.009a2.2,2.2,0,0,1,.139.957l-.006.795v.4c0,.115,0,.225,0,.329a4.6,4.6,0,0,1-.072,1.054.071.071,0,0,0,0,.021v0h1.479m17.023-7.3H61.406v0l0,1.309h0a.111.111,0,0,0,.027-.006,5.87,5.87,0,0,1,1.492-.237l.129,0,.008,1.7a2.219,2.219,0,0,1-.142.969l0,0h0a2.066,2.066,0,0,1,.143.941v0l0,.808v.171a7.577,7.577,0,0,1-.088,1.62.074.074,0,0,0,0,.02v0l-.005,0h.005v0l1.489,0v0a.079.079,0,0,0-.006-.025,5.188,5.188,0,0,1-.076-1.154c0-.109,0-.224,0-.342v-.293l0-.8a2.109,2.109,0,0,1,.142-.94l0-.011v0l0,0,0-.005a2.129,2.129,0,0,1-.135-.944v-.018l.007-1.7.129,0a5.8,5.8,0,0,1,1.494.239.069.069,0,0,0,.025,0s0,0,0,0h0Zm.817.317a.1.1,0,0,1-.059.014h-.041v-.117h.026a.2.2,0,0,1,.062.008.048.048,0,0,1,.032.047.057.057,0,0,1-.02.048m.119.207v-.048a.111.111,0,0,0-.035-.091.138.138,0,0,0-.057-.023.132.132,0,0,0,.069-.027.089.089,0,0,0,.029-.074.1.1,0,0,0-.054-.1.184.184,0,0,0-.08-.021h-.2v.4h.106v-.143h.022l.023,0a.134.134,0,0,1,.037.006.055.055,0,0,1,.03.03.2.2,0,0,1,.006.05.286.286,0,0,0,.007.055h.1l0-.011,0-.012m-7.646,2.539a.589.589,0,0,1-.375.109h-.72V46.61h.775a.527.527,0,0,1,.332.1.547.547,0,0,1,.179.457v.951a.6.6,0,0,1-.191.5m1.784,4.517-.023-.046a2.2,2.2,0,0,1-.243-1.111V51.95l.011-1.373c0-.034,0-.068,0-.1a.039.039,0,0,1,0-.012,1.136,1.136,0,0,0-.5-1.076l-.179-.1.17-.116a1.089,1.089,0,0,0,.449-.91,1.478,1.478,0,0,1,.162-.616l0,0,0,0h0v0a1.688,1.688,0,0,1-.164-.621v-.007a1.477,1.477,0,0,0-.466-1.07,1.723,1.723,0,0,0-1.175-.391h-.009l-2.316,0h0l0,.025a4.9,4.9,0,0,1,.076,1.142v.651l.008.953a2.135,2.135,0,0,1-.142.952s0,0,0,0l0,.008a2.171,2.171,0,0,1,.141.958l-.007.795,0,.4v.325a4.537,4.537,0,0,1-.072,1.055.093.093,0,0,0,0,.023v0h1.479v0a.107.107,0,0,0,0-.021,6.4,6.4,0,0,1-.087-1.441v-.2l.007-1.37h.738a.592.592,0,0,1,.435.165.671.671,0,0,1,.176.48v.016c0,.059,0,.923-.007,1.457v.031a.253.253,0,0,0,0,.029,1.478,1.478,0,0,0,.181.776,1.011,1.011,0,0,0,.833.451h.548a.054.054,0,0,0,0-.02.4.4,0,0,0-.026-.065M54.285,49.29a2.181,2.181,0,0,1,.145.962l-.008.879a.742.742,0,0,1-.192.537.718.718,0,0,1-.527.2h0a.7.7,0,0,1-.521-.2.745.745,0,0,1-.191-.534l-.007-.882a2.062,2.062,0,0,1,.147-.957l0-.009v0a2.018,2.018,0,0,1-.149-.942v-.011l.007-1.036a.747.747,0,0,1,.191-.535.7.7,0,0,1,.521-.2.726.726,0,0,1,.531.2.745.745,0,0,1,.192.537l.008,1.037a2.137,2.137,0,0,1-.145.952v0h0v.006m1.473.958A2.194,2.194,0,0,1,55.9,49.3l0-.013,0-.007a2.192,2.192,0,0,1-.141-.95l.007-.946a2.068,2.068,0,0,0-4.132,0l.009.952a2.133,2.133,0,0,1-.138.944l0,.013v0a2.2,2.2,0,0,1,.142.962l-.009.786a2.067,2.067,0,0,0,4.132,0ZM68.6,35.454h0l-1.427-.316,0,.013v.017c0,.019,0,.04,0,.062a9.006,9.006,0,0,1-.27,1.534l-.036.161-.5,2.271-.842-4.421h0l-1.187-.265h0v0a.121.121,0,0,0,0,.023c0,.021,0,.042,0,.064a6.989,6.989,0,0,1-.223,1.271c-.03.134-.061.274-.095.422l-.206.934a2.122,2.122,0,0,1-.346.9v.008a.851.851,0,0,1,.03.248,3.532,3.532,0,0,1-.1.721l-.176.792c-.037.165-.07.321-.1.468a5.785,5.785,0,0,1-.343,1.247.076.076,0,0,0-.011.029v0l0,0,1.4.31h0l0-.016v-.013c0-.018,0-.035,0-.052a6.147,6.147,0,0,1,.209-1.155c.039-.167.081-.346.124-.538l.519-2.3.926,4.47h0L67,42.579h0a.038.038,0,0,0,0-.019v-.011c0-.019,0-.038,0-.056a6.175,6.175,0,0,1,.2-1.137c.04-.169.082-.353.126-.548l.17-.8a2.2,2.2,0,0,1,.347-.905l0-.007,0-.007a.882.882,0,0,1-.029-.247,3.483,3.483,0,0,1,.1-.711l.213-.927c.034-.152.065-.3.094-.431a6.121,6.121,0,0,1,.36-1.3A.088.088,0,0,0,68.6,35.454ZM67.032,46.112a.3.3,0,0,1-.426,0,.3.3,0,0,1,0-.427.3.3,0,0,1,.427,0,.3.3,0,0,1,0,.426m-.213-.579a.358.358,0,0,0-.251.1.365.365,0,0,0,.251.632.361.361,0,0,0,.256-.1.352.352,0,0,0,.109-.262.356.356,0,0,0-.107-.259.351.351,0,0,0-.258-.106M68.6,35.453h0ZM38.986,49.284l0,.006a2.2,2.2,0,0,1,.145.962l-.008.879a.743.743,0,0,1-.193.537.715.715,0,0,1-.527.2h0a.707.707,0,0,1-.521-.2.753.753,0,0,1-.19-.534l-.008-.882a2.076,2.076,0,0,1,.147-.957l0-.009v0a2,2,0,0,1-.149-.939v-.014l.007-1.036a.76.76,0,0,1,.19-.535.707.707,0,0,1,.521-.2.722.722,0,0,1,.531.2.746.746,0,0,1,.193.537l.008,1.037a2.152,2.152,0,0,1-.145.952l0,0h0M40.6,49.3l0-.013,0-.007a2.2,2.2,0,0,1-.14-.95l.006-.946a2.067,2.067,0,0,0-4.131,0l.008.952a2.151,2.151,0,0,1-.137.944l0,.013v0a2.205,2.205,0,0,1,.141.962l-.008.786a2.067,2.067,0,0,0,4.132,0l-.007-.794a2.213,2.213,0,0,1,.14-.951m12.25-7.631.012.034a1.6,1.6,0,0,1,.089.514,1.88,1.88,0,0,1-2.045,1.713A1.24,1.24,0,0,1,49.491,42.7a.977.977,0,0,1,.988-1.026.626.626,0,0,1,.464.185.731.731,0,0,0-.156-.017.758.758,0,1,0,0,1.516.9.9,0,0,0,.948-.9,1.174,1.174,0,0,0-1.261-1.218A1.448,1.448,0,0,0,49,42.694c0,1.191.8,1.875,2.184,1.875a5.453,5.453,0,0,0,1.743-.343,9.573,9.573,0,0,1,1.024-.308,4.015,4.015,0,0,1,.894-.117c1.013,0,1.092.592,1.092.773v.048l.047,0c.026,0,.056,0,.089,0a3.323,3.323,0,0,0,.736-.084c.609-.177,1.025-.681.929-1.123-.071-.318-.423-.516-.919-.516a2.192,2.192,0,0,0-.419.043.67.67,0,0,0-.337-.868,1.492,1.492,0,0,0-1.424.284.864.864,0,0,0-.644-.922,1.242,1.242,0,0,0-.334-.043,1.286,1.286,0,0,0-.777.246ZM35.437,50.4h-.006l0,0-.005,0a3.664,3.664,0,0,1-1.2.165H34.2c-.036,0-.029.007-.033.009a.03.03,0,0,0,0,.017v.01a1.526,1.526,0,0,1,.024.309c0,.079,0,.161-.005.244v.016a.691.691,0,0,1-.218.5.793.793,0,0,1-.538.182.8.8,0,0,1-.56-.19.71.71,0,0,1-.209-.533l-.008-.891A2.2,2.2,0,0,1,32.8,49.3a.029.029,0,0,0,0-.013h0a2.128,2.128,0,0,1-.157-.95v-.01l.006-1.048a.706.706,0,0,1,.209-.534.8.8,0,0,1,.56-.191.786.786,0,0,1,.527.171.7.7,0,0,1,.226.487v.03c0,.069.005.147.01.23s.012.192.012.291a1.375,1.375,0,0,1-.03.306v0a.046.046,0,0,0,.008.031l.008.005.009,0a4.491,4.491,0,0,1,1.207-.184h.024a.04.04,0,0,0,0-.021v-.01c-.006-.05-.012-.095-.018-.14a4.774,4.774,0,0,1-.046-.481,1.812,1.812,0,0,0-1.965-1.88,1.953,1.953,0,0,0-2.1,1.993l.008.946a2.17,2.17,0,0,1-.14.953l0,.009,0,0a2.181,2.181,0,0,1,.144.963l-.008.783a1.954,1.954,0,0,0,2.1,1.995,2.02,2.02,0,0,0,1.433-.5,1.859,1.859,0,0,0,.532-1.374,3.266,3.266,0,0,1,.071-.729v0A.022.022,0,0,0,35.437,50.4Zm13.1-10.115,1.471.042h0v0a.124.124,0,0,0,0-.023,2.262,2.262,0,0,1-.042-.494c0-.2.011-.438.023-.7.008-.182.017-.378.024-.589l.035-1.2,1.57.05-.038,1.2c0,.159-.008.308-.012.451a5.926,5.926,0,0,1-.112,1.324.1.1,0,0,0,0,.023v0l1.472.044h0V40.41a.074.074,0,0,0,0-.024,2.38,2.38,0,0,1-.045-.541c0-.207.01-.45.021-.729.006-.157.012-.325.018-.505l.023-.812a2.184,2.184,0,0,1,.173-.956v0A1.8,1.8,0,0,1,53,36.057c0-.057,0-.117,0-.18l.035-.948.009-.3a6.874,6.874,0,0,1,.123-1.476l0-.008,0-.017v0l-1.507-.044h0v.006a.073.073,0,0,0,0,.022,3.385,3.385,0,0,1,.056.732c0,.257-.009.559-.02.9l0,.144-.042,1.3-1.569-.049.042-1.3.008-.271a7.043,7.043,0,0,1,.127-1.507.063.063,0,0,0,.005-.022v0h0l-1.486-.045h-.006v0a.144.144,0,0,0,.005.027,2.694,2.694,0,0,1,.049.613c0,.223-.009.485-.019.786,0,.118-.009.242-.013.372l-.029.963a2.158,2.158,0,0,1-.167.943l0,.01h0v0a1.775,1.775,0,0,1,.117.775c0,.06,0,.123,0,.191l-.028.8-.006.183a7.651,7.651,0,0,1-.134,1.591.1.1,0,0,0-.006.03v0M44.9,48.749l.245-.6,0,2.9v.3a6.757,6.757,0,0,1-.085,1.473v.006l0,0,0,.013v.006h1.463v0a.1.1,0,0,0,0-.023,6.271,6.271,0,0,1-.085-1.382v-.412l0-.813a2.178,2.178,0,0,1,.145-.96v0l0-.008a2.143,2.143,0,0,1-.141-.945.031.031,0,0,1,0-.011l.006-.936v-.571a5.371,5.371,0,0,1,.077-1.2.067.067,0,0,0,0-.024v-.006H45.1L44,48.271l-1.1-2.718H41.488v0a.105.105,0,0,0,.005.026,5.957,5.957,0,0,1,.079,1.292c0,.062,0,.125,0,.19v.3l.011.962v.006a2.123,2.123,0,0,1-.141.945l0,0,0,.008a2.193,2.193,0,0,1,.139.959l-.008.793v.167a7.7,7.7,0,0,1-.086,1.614.074.074,0,0,0-.005.023v0h1.463v0a.128.128,0,0,0,0-.025,6.814,6.814,0,0,1-.087-1.491v-.283l0-2.9.245.6c.149.363.327.8.368.914a2.985,2.985,0,0,1,.18.731v0l0,.008c.034,0,.075-.007.122-.009l.231,0,.229,0c.044,0,.085.005.122.009v0a2.929,2.929,0,0,1,.18-.738c.042-.114.219-.552.368-.916m-1.382-14.3h0a.069.069,0,0,0,.024-.006,5.8,5.8,0,0,1,1.483-.289l.129-.007.066,1.7c0,.076,0,.148,0,.215a1.787,1.787,0,0,1-.113.759v0h0a2.077,2.077,0,0,1,.176.942l.031.8.006.171c.012.354.022.663.022.923a3.164,3.164,0,0,1-.054.7.07.07,0,0,0,0,.022v.006h0l1.484-.05v0a.078.078,0,0,0-.006-.026,7.122,7.122,0,0,1-.127-1.492l-.01-.292-.025-.8c0-.071,0-.137,0-.2a1.7,1.7,0,0,1,.114-.742l0-.01v0l0,0,0,0a2.156,2.156,0,0,1-.169-.956L46.5,34.1h.192a5.812,5.812,0,0,1,1.437.187l.025.005h.005l-.046-1.306-4.638.158v0l.044,1.309h0m-4.689.653.027.282.1,1.025c.017.182.027.339.027.473a1.252,1.252,0,0,1-.073.486l0,.006,0,0a2.187,2.187,0,0,1,.226.943l.078.859a1.837,1.837,0,0,0,1.967,1.654c.083,0,.169,0,.254-.012a2.136,2.136,0,0,0,1.394-.65,1.739,1.739,0,0,0,.441-1.182c0-.065,0-.131-.009-.2l-.09-.859c-.016-.169-.024-.319-.024-.451a1.316,1.316,0,0,1,.076-.512v-.008l0-.006a2.173,2.173,0,0,1-.232-.935l-.093-1.03c-.016-.174-.034-.338-.05-.492-.041-.4-.076-.746-.076-1.011a1.623,1.623,0,0,1,.019-.276l0-.019-1.44.136,0,.014a6.9,6.9,0,0,1,.222,1.478l.027.294.11,1.031c.017.178.026.334.026.469a1.265,1.265,0,0,1-.072.488l0,0h0v0a2.225,2.225,0,0,1,.23.947l.071.856c0,.034,0,.068,0,.1a.624.624,0,0,1-.172.461.762.762,0,0,1-.477.194.955.955,0,0,1-.106.006.648.648,0,0,1-.462-.164.708.708,0,0,1-.2-.461l-.092-.861c-.016-.169-.024-.32-.024-.452a1.31,1.31,0,0,1,.078-.518v-.006a2.156,2.156,0,0,1-.234-.937l-.1-1.027c-.015-.164-.031-.32-.046-.466-.042-.412-.078-.763-.078-1.033a1.673,1.673,0,0,1,.02-.282l0-.02-1.483.141h0l.005.013a7.147,7.147,0,0,1,.222,1.5m-6.957,7.254a1.992,1.992,0,0,0,1.291-.882,1.917,1.917,0,0,0,.273-1.007,2.273,2.273,0,0,0-.062-.525,2.313,2.313,0,0,0-1.165-1.489l-.03-.018c-.056-.034-.112-.066-.175-.1a1.628,1.628,0,0,1-.569-.46s0,0-.005,0l-.035,0a2.266,2.266,0,0,1-.906-.278l-.017-.008-.008,0a1.2,1.2,0,0,1-.559-.772.892.892,0,0,1-.022-.189.635.635,0,0,1,.529-.626.96.96,0,0,1,.222-.029.741.741,0,0,1,.594.3,1.215,1.215,0,0,1,.234.6l.01,0,.009,0a3.576,3.576,0,0,1,1.074-.619c.011,0,.011-.006.012-.007v-.005a.087.087,0,0,0-.021-.037c-.055-.073-.106-.154-.161-.244-.076-.121-.168-.267-.292-.434a1.931,1.931,0,0,0-1.448-.664,2.023,2.023,0,0,0-.472.057,1.842,1.842,0,0,0-1.552,1.849,2.223,2.223,0,0,0,.059.507,2.434,2.434,0,0,0,1.237,1.477,2.34,2.34,0,0,1,.77.567l0,0v0h.033a1.849,1.849,0,0,1,.887.3l0,0,0,0a1.272,1.272,0,0,1,.524.759.88.88,0,0,1,.025.207.7.7,0,0,1-.58.7,1.029,1.029,0,0,1-.228.028.64.64,0,0,1-.464-.185,1.032,1.032,0,0,1-.25-.507s-.044-.224-.056-.3c0-.018-.008-.017-.017-.019h0a.033.033,0,0,0-.017.007,3.6,3.6,0,0,1-1.125.718c-.028.011-.028.013-.028.015a.077.077,0,0,0,.014.031c.066.1.123.206.178.3a2.5,2.5,0,0,0,.22.357,1.707,1.707,0,0,0,1.415.693,2.862,2.862,0,0,0,.64-.08M39.5,43.42c-.1.442.32.946.929,1.123a3.323,3.323,0,0,0,.736.084c.033,0,.063,0,.089,0l.047,0v-.048c0-.181.078-.773,1.091-.773a4.016,4.016,0,0,1,.895.117,9.573,9.573,0,0,1,1.024.308,5.444,5.444,0,0,0,1.743.343c1.388,0,2.184-.684,2.184-1.875a1.448,1.448,0,0,0-1.478-1.449A1.175,1.175,0,0,0,45.5,42.463a.9.9,0,0,0,.949.9.758.758,0,1,0,0-1.516.724.724,0,0,0-.156.017.626.626,0,0,1,.464-.185.976.976,0,0,1,.987,1.026,1.24,1.24,0,0,1-1.415,1.226,1.881,1.881,0,0,1-2.046-1.713,1.572,1.572,0,0,1,.09-.514l.012-.034-.029-.022a1.289,1.289,0,0,0-.778-.246,1.253,1.253,0,0,0-.334.043.865.865,0,0,0-.643.922,1.492,1.492,0,0,0-1.424-.284.67.67,0,0,0-.337.868,2.2,2.2,0,0,0-.42-.043c-.495,0-.847.2-.918.516m-4.083-8.345a.938.938,0,0,1,.156-.013.647.647,0,0,1,.454.167.774.774,0,0,1,.222.454l.174,1.023a3.91,3.91,0,0,1,.057.6,1.037,1.037,0,0,1-.049.357v0l0,.006a2.194,2.194,0,0,1,.3.927l.133.868a1.019,1.019,0,0,1,.013.162.663.663,0,0,1-.162.457.75.75,0,0,1-.449.223.89.89,0,0,1-.143.012H36.1a.673.673,0,0,1-.661-.624l-.148-.869a3.821,3.821,0,0,1-.056-.6,1.076,1.076,0,0,1,.049-.368v-.013a2.033,2.033,0,0,1-.3-.916l-.158-1.023a.98.98,0,0,1-.014-.16.66.66,0,0,1,.6-.679m-1.747,2.078a3.944,3.944,0,0,1,.061.614,1.027,1.027,0,0,1-.046.34l0,.011v0a2.214,2.214,0,0,1,.293.927l.118.777A1.869,1.869,0,0,0,36.023,41.5a2.627,2.627,0,0,0,.425-.035A1.906,1.906,0,0,0,38.2,39.552a2.535,2.535,0,0,0-.032-.382l-.133-.782a4.052,4.052,0,0,1-.06-.618,1.07,1.07,0,0,1,.046-.343l0-.011c0-.006,0,0,0-.009a2.165,2.165,0,0,1-.29-.914l-.145-.936A1.863,1.863,0,0,0,35.658,33.9a2.658,2.658,0,0,0-.428.036,1.9,1.9,0,0,0-1.754,1.9,2.346,2.346,0,0,0,.031.377Zm20.111,3.331,3.593.323h.006l.114-1.283h-.028a5.822,5.822,0,0,1-1.085.1c-.173,0-.352-.008-.533-.024l-.577-.052.2-2.171.129.014a5.747,5.747,0,0,1,1.408.352.022.022,0,0,0,.013,0l.015,0,.138-1.508h-.01l-.02,0a5.955,5.955,0,0,1-1.077.1c-.12,0-.243,0-.367-.013l-.129-.009.177-1.917.565.051a5.888,5.888,0,0,1,1.579.37.074.074,0,0,0,.025.006h0l.118-1.282-3.565-.328v0l0,.023a1.513,1.513,0,0,1,.02.273c0,.25-.034.571-.076.977-.016.164-.035.338-.051.525l-.095.955a2.171,2.171,0,0,1-.227.935l0,.005v0a1.313,1.313,0,0,1,.078.518c0,.131-.008.281-.024.453l-.112,1.191a6.406,6.406,0,0,1-.2,1.378.065.065,0,0,0-.007.023v0Zm6.547-5.549.759.115a.523.523,0,0,1,.316.148.459.459,0,0,1,.112.325,1.075,1.075,0,0,1-.012.145l-.144.937a.636.636,0,0,1-.211.428.479.479,0,0,1-.3.1h0a.81.81,0,0,1-.128-.011l-.7-.107ZM58,40.887h0l1.45.222h0l0-.011v-.016a1.2,1.2,0,0,1-.008-.151,7.774,7.774,0,0,1,.134-1.088c.026-.163.055-.338.083-.524l.181-1.22.728.111a.589.589,0,0,1,.4.227.615.615,0,0,1,.111.369.878.878,0,0,1-.012.142l-.186,1.172a2.258,2.258,0,0,0-.037.38,1.124,1.124,0,0,0,.153.6,1.076,1.076,0,0,0,.69.453l.546.083,0-.016V41.6a.7.7,0,0,0-.031-.112,1.876,1.876,0,0,1-.11-.664,3.134,3.134,0,0,1,.041-.493c.085-.525.178-1.087.178-1.091a2.181,2.181,0,0,0,.043-.414.977.977,0,0,0-.35-.826l-.16-.125.182-.089a1.116,1.116,0,0,0,.581-.837,1.623,1.623,0,0,1,.255-.585v0a1.408,1.408,0,0,1-.072-.495c0-.045,0-.093,0-.149a1.86,1.86,0,0,0,.01-.2,1.49,1.49,0,0,0-1.424-1.5l-2.278-.349h0V33.7a1.241,1.241,0,0,1,.008.153,8.358,8.358,0,0,1-.139,1.14c-.025.155-.052.319-.079.492l-.134.937a2.168,2.168,0,0,1-.279.914l-.006.012v0a1.071,1.071,0,0,1,.051.369,4.236,4.236,0,0,1-.055.608l-.13.8c-.022.143-.043.281-.062.41a6.189,6.189,0,0,1-.275,1.33.113.113,0,0,0-.01.033M33.081,43.145a.6.6,0,0,0-.6.6c0,.616.535.852,1.3.847,1.089-.007,2.674-.519,3.812-.479a4.07,4.07,0,0,1,1.766.474.065.065,0,0,0,.1-.02.066.066,0,0,0-.012-.085,1.529,1.529,0,0,1-.436-1.067c-2.244-.814-4.206.867-5.5.754h0a.591.591,0,0,0,.178-.423.6.6,0,0,0-.6-.6m25.145.27a1.529,1.529,0,0,1-.436,1.067.066.066,0,0,0-.012.085.065.065,0,0,0,.095.02,4.07,4.07,0,0,1,1.765-.474c1.139-.04,2.724.472,3.813.479.762.005,1.3-.231,1.3-.847a.6.6,0,1,0-1.2,0,.6.6,0,0,0,.177.423h0c-1.295.113-3.257-1.568-5.5-.754"/></g></g></svg>