<svg xmlns="http://www.w3.org/2000/svg" viewBox="0 0 8.294 8.294"><path d="M4.147,0A4.147,4.147,0,1,0,8.294,4.147,4.144,4.144,0,0,0,4.147,0M6.059,3.3v.117a2.58,2.58,0,0,1-2.595,2.6A2.532,2.532,0,0,1,2.069,5.6a1.625,1.625,0,0,0,.214.009,1.849,1.849,0,0,0,1.132-.39.912.912,0,0,1-.849-.634.972.972,0,0,0,.41-.02.926.926,0,0,1-.732-.9v-.01a.832.832,0,0,0,.41.107.905.905,0,0,1-.283-1.21A2.64,2.64,0,0,0,4.245,3.5a1.307,1.307,0,0,1-.02-.205.892.892,0,0,1,.293-.664.92.92,0,0,1,1.288.039,1.939,1.939,0,0,0,.575-.224.935.935,0,0,1-.4.507,2.079,2.079,0,0,0,.527-.136,2.95,2.95,0,0,1-.449.478"/></svg>