<svg xmlns="http://www.w3.org/2000/svg" xmlns:xlink="http://www.w3.org/1999/xlink" viewBox="0 0 97.219 86.203"><defs><clipPath id="a"><rect x="30.161" y="31.823" width="36.897" height="22.558" fill="none"/></clipPath></defs><g><rect width="97.219" height="86.203" fill="none"/><g clip-path="url(#a)"><path d="M48.609,41.7h0l.071,0a10.248,10.248,0,0,1,5.464,1.4,10.24,10.24,0,0,1-5.468,1.4h-.146a10.247,10.247,0,0,1-5.463-1.4,10.255,10.255,0,0,1,5.469-1.4ZM31.164,50.112a18.317,18.317,0,0,0,4.267,1.975,23.769,23.769,0,0,0,5.046,1.294l-.012-6.242a4.277,4.277,0,0,1,1.08-2.728,30.2,30.2,0,0,0,7.06.816h0a30.165,30.165,0,0,0,7.069-.818,4.278,4.278,0,0,1,1.081,2.73l-.011,6.242a23.784,23.784,0,0,0,5.046-1.294,18.256,18.256,0,0,0,4.266-1.975c-.135-2.8-2.632-5.329-6.459-7.01,3.824-1.682,6.32-4.207,6.455-7.009a18.161,18.161,0,0,0-4.267-1.976,23.783,23.783,0,0,0-5.045-1.295l.011,6.243a4.28,4.28,0,0,1-1.08,2.729,30.956,30.956,0,0,0-14.13,0,4.28,4.28,0,0,1-1.082-2.731l.01-6.243a23.8,23.8,0,0,0-5.044,1.295,18.161,18.161,0,0,0-4.267,1.976c.136,2.8,2.633,5.329,6.459,7.011-3.824,1.682-6.32,4.207-6.455,7.008"/></g></g></svg>