<svg xmlns="http://www.w3.org/2000/svg" viewBox="0 0 97.219 86.203"><path d="M25.891,44.342a11.792,11.792,0,0,1,.507-1.8c.056.169.507,1.746.507,1.746ZM22.623,47.61h2.141l.564-1.3,2.2.056.62,1.3h2.141l-3.832-10.65Z"/><path d="M31.639,43.947c0-2.762,3.043-1.409,3.043-1.409l1.24-1.409a4.161,4.161,0,0,0-2.7-.958c-.845,0-3.268.282-3.607,4,1.353,5.917,6.368,2.762,6.368,2.762l-1.24-1.41s-3.1,1.184-3.1-1.577"/><polygon points="58.011 39.608 57.109 37.804 47.192 37.804 45.163 43.158 42.853 37.748 32.766 37.748 31.696 39.608 36.26 39.608 36.26 47.61 38.401 47.61 38.401 39.608 41.331 39.608 45.107 49.187 48.826 39.608 58.011 39.608"/><polygon points="39.449 47.666 41.388 47.666 41.388 40.284 39.472 40.284 39.449 47.666"/><polygon points="48.803 47.666 50.742 47.666 50.742 40.284 48.826 40.284 48.803 47.666"/><polygon points="55.678 47.666 57.617 47.666 57.617 40.284 55.701 40.284 55.678 47.666"/><path d="M53.784,41.862h1.24l.056-1.521-2.2-.057s-1.522,0-1.522,1.409,1.8,3.381,1.8,3.381.451.4.226.733-2.085.113-2.085.113v1.69h2.7A1.294,1.294,0,0,0,55.475,46.2c0-1.577-2.029-3.662-2.029-3.662-.309-.333-.145-.677.338-.677"/><path d="M61.955,45.863a1.714,1.714,0,0,1-1.972-1.916c0-2.2,1.86-1.915,1.86-1.915s1.634.112,1.69,1.578a1.806,1.806,0,0,1-1.578,2.253m-.056-5.8S57.842,39.946,57.955,44A3.625,3.625,0,0,0,61.9,47.892a3.816,3.816,0,0,0,3.663-4.113,3.585,3.585,0,0,0-3.663-3.72"/><polygon points="69.506 40.284 69.337 42.764 65.9 40.059 65.956 47.61 67.985 47.61 67.985 44.792 71.31 47.61 71.31 40.284 69.506 40.284"/><path d="M73.131,46.547h.227a.648.648,0,0,1,.2.021.165.165,0,0,1,.114.163q0,.189-.3.189h-.242Zm0,1.078v-.533h.118a.259.259,0,0,1,.161.043,1.061,1.061,0,0,1,.21.292l.11.2h.246l-.153-.246a1.4,1.4,0,0,0-.185-.247.327.327,0,0,0-.106-.067.392.392,0,0,0,.25-.1.325.325,0,0,0,.107-.248.331.331,0,0,0-.059-.183.352.352,0,0,0-.214-.137,1.351,1.351,0,0,0-.261-.018h-.429v1.251Zm-.268-1.655a1.1,1.1,0,0,0-.432.425,1.169,1.169,0,0,0-.006,1.167,1.115,1.115,0,0,0,.426.428,1.147,1.147,0,0,0,.583.156,1.178,1.178,0,0,0,.58-.155,1.1,1.1,0,0,0,.425-.422,1.156,1.156,0,0,0,.157-.585,1.2,1.2,0,0,0-.155-.584,1.111,1.111,0,0,0-.424-.423,1.155,1.155,0,0,0-.583-.156,1.2,1.2,0,0,0-.571.149m1.047.169a.916.916,0,0,1,.359.353.973.973,0,0,1,.007.97.918.918,0,0,1-.355.358.955.955,0,0,1-.487.132.974.974,0,0,1-.481-.13.923.923,0,0,1-.356-.351.952.952,0,0,1-.131-.487.981.981,0,0,1,.13-.486.921.921,0,0,1,.352-.354.973.973,0,0,1,.486-.13,1,1,0,0,1,.476.125"/></svg>