<svg xmlns="http://www.w3.org/2000/svg" viewBox="0 0 97.219 86.203"><rect width="97.219" height="86.203" fill="none"/><path d="M25.891,44.342a11.854,11.854,0,0,1,.507-1.8c.056.169.507,1.746.507,1.746ZM22.623,47.61h2.141l.564-1.3,2.2.056.62,1.3h2.141l-3.832-10.65Z"/><path d="M31.639,43.947c0-2.762,3.043-1.409,3.043-1.409l1.24-1.409a4.162,4.162,0,0,0-2.7-.958c-.845,0-3.268.282-3.607,4,1.353,5.917,6.368,2.762,6.368,2.762l-1.24-1.41s-3.1,1.184-3.1-1.577"/><polygon points="58.011 39.608 57.109 37.804 47.192 37.804 45.163 43.158 42.853 37.748 32.766 37.748 31.696 39.608 36.26 39.608 36.26 47.61 38.401 47.61 38.401 39.608 41.331 39.608 45.107 49.187 48.826 39.608 58.011 39.608"/><polygon points="39.449 47.666 41.388 47.666 41.388 40.284 39.472 40.284 39.449 47.666"/><polygon points="48.803 47.666 50.742 47.666 50.742 40.284 48.826 40.284 48.803 47.666"/><polygon points="55.678 47.666 57.617 47.666 57.617 40.284 55.701 40.284 55.678 47.666"/><path d="M53.784,41.862h1.24l.056-1.521-2.2-.057s-1.522,0-1.522,1.409,1.8,3.381,1.8,3.381.451.4.226.733-2.085.113-2.085.113v1.69H54a1.293,1.293,0,0,0,1.476-1.41c0-1.577-2.029-3.662-2.029-3.662-.309-.333-.145-.677.338-.677"/><path d="M61.955,45.863a1.713,1.713,0,0,1-1.972-1.916c0-2.2,1.86-1.915,1.86-1.915s1.634.112,1.69,1.578a1.807,1.807,0,0,1-1.293,2.2,1.828,1.828,0,0,1-.285.05m-.056-5.8S57.842,39.946,57.955,44a3.625,3.625,0,0,0,3.332,3.9,3.586,3.586,0,0,0,.613,0,3.816,3.816,0,0,0,3.672-3.955c0-.052-.005-.1-.009-.158a3.584,3.584,0,0,0-3.447-3.718c-.072,0-.144,0-.216,0"/><polygon points="69.506 40.284 69.337 42.764 65.9 40.059 65.956 47.61 67.985 47.61 67.985 44.792 71.31 47.61 71.31 40.284 69.506 40.284"/><path d="M73.131,46.547h.227a.674.674,0,0,1,.2.021.165.165,0,0,1,.114.163q0,.189-.3.189H73.13Zm0,1.078v-.533h.118a.255.255,0,0,1,.161.043,1.064,1.064,0,0,1,.21.292l.11.2h.246l-.153-.246a1.35,1.35,0,0,0-.185-.247.328.328,0,0,0-.106-.067.391.391,0,0,0,.25-.1.325.325,0,0,0,.107-.248.334.334,0,0,0-.059-.183.349.349,0,0,0-.214-.137,1.426,1.426,0,0,0-.261-.018h-.429v1.251Zm-.268-1.655a1.1,1.1,0,0,0-.432.425,1.169,1.169,0,0,0-.006,1.167,1.116,1.116,0,0,0,.426.428,1.147,1.147,0,0,0,.583.156,1.182,1.182,0,0,0,.58-.155,1.1,1.1,0,0,0,.425-.422,1.158,1.158,0,0,0,.157-.585,1.194,1.194,0,0,0-.155-.584,1.118,1.118,0,0,0-.424-.423,1.147,1.147,0,0,0-.583-.156,1.2,1.2,0,0,0-.571.149m1.047.169a.916.916,0,0,1,.359.353.971.971,0,0,1,.007.97.925.925,0,0,1-.355.358.96.96,0,0,1-.487.132.977.977,0,0,1-.481-.13.917.917,0,0,1-.356-.351.949.949,0,0,1-.131-.487.975.975,0,0,1,.13-.486.921.921,0,0,1,.352-.354.975.975,0,0,1,.486-.13.992.992,0,0,1,.476.125"/></svg>