<svg xmlns="http://www.w3.org/2000/svg" xmlns:xlink="http://www.w3.org/1999/xlink" viewBox="0 0 97.219 86.203"><defs><clipPath id="a"><rect x="23.938" y="26.575" width="51.517" height="29.564" fill="none"/></clipPath></defs><g clip-path="url(#a)"><path d="M26.8,47.8a.043.043,0,0,0-.046-.028c-.023,0-.051.035-.069.081l-.316.715a.455.455,0,0,0-.048.154c0,.041.226.047.416.047.224,0,.392,0,.392-.035a.207.207,0,0,0-.012-.063Zm1.332,1.823c.174.425.2.489.386.606.163.1.3.1.3.161,0,.04-.024.044-.137.044-.2,0-.33-.022-.734-.022h-.691c-.052,0-.087,0-.087-.079s.053-.094.15-.1c.133-.013.243-.048.243-.151a.97.97,0,0,0-.059-.207l-.235-.767c-.012-.042-.029-.059-.156-.059-.144,0-.335-.022-.732-.022-.144,0-.2.075-.289.306a3.173,3.173,0,0,0-.266.7c0,.166.134.184.272.2.058.005.173.021.173.108s-.052.1-.179.1c-.068,0-.184-.022-.4-.022-.231,0-.4.022-.658.022-.057,0-.1,0-.1-.044,0-.1.161-.075.306-.161a.654.654,0,0,0,.253-.278l.986-2.108c.225-.48.364-.884.5-1.235h.07Z"/><path d="M31.345,49c.056.133.125.259.167.259s.149-.277.091-.138l.75-1.891c.109-.278.161-.346.422-.346h.886c.1,0,.114.024.114.086s-.021.1-.257.122c-.289.028-.335.039-.335.253V49.83c0,.245.069.342.311.4.2.039.289.086.289.121,0,.073-.029.1-.2.1-.145,0-.461-.036-.668-.036s-.491.011-.785.011c-.069,0-.092,0-.092-.079s.068-.105.226-.115c.207-.019.235-.087.235-.156V47.8c0-.115-.007-.155-.023-.155s-.086.116-.167.323l-.933,2.312a.072.072,0,0,1-.082.053c-.045,0-.064-.029-.1-.11l-.993-2.274c-.046-.106-.13-.292-.166-.292s-.028.033-.028.058l-.024,1.826c-.006.566.052.665.248.688.316.033.369.045.369.131s-.046.075-.179.075c-.11,0-.335-.023-.629-.023-.253,0-.385.023-.531.023-.1,0-.132,0-.132-.075,0-.086.022-.114.266-.131.155-.013.254-.063.271-.432l.126-2.381c.012-.222-.04-.285-.328-.324-.229-.036-.244-.063-.244-.133,0-.051.015-.086.123-.086s.328.035.479.035c.185,0,.328-.024.387-.024.23,0,.246.016.271.068Z"/><path d="M34.67,47.423c0-.14,0-.329-.184-.347-.294-.029-.318-.051-.318-.114s.024-.081.116-.081c.249,0,.508.024,1.211.024.369,0,.76-.024,1.256-.024.117,0,.128.01.128.479,0,.218,0,.351-.086.351s-.1-.167-.214-.358c-.1-.174-.426-.253-.916-.253-.253,0-.266.016-.266.334v.894c0,.116.024.155.369.155.329,0,.405-.074.479-.19.092-.138.138-.323.224-.323s.081.151.081.168c0,.134-.047.443-.047.663a3.546,3.546,0,0,0,.025.387c0,.051-.018.079-.087.079s-.081-.021-.143-.294c-.043-.172-.162-.294-.67-.294-.213,0-.236.03-.236.174V49.96c0,.213.276.253.542.253a.736.736,0,0,0,.438-.1c.4-.224.4-.576.536-.576.074,0,.074.057.074.109,0,.081-.069.306-.091.445s-.065.344-.11.344c-.495,0-.715-.022-.939-.022H34.608a3.61,3.61,0,0,0-.411.022c-.074,0-.133-.016-.133-.085,0-.115.128-.115.173-.12.381-.048.433-.064.433-.64Z"/><path d="M38.633,48.389c0,.111.027.122.1.122.513,0,1.027-.028,1.027-.725,0-.624-.565-.72-.93-.72-.177,0-.2.132-.2.4Zm-.681-1.042a.23.23,0,0,0-.2-.259c-.328-.035-.345-.042-.345-.11s.029-.1.114-.1c.25,0,.814.024.924.024.092,0,.64-.024.887-.024.508,0,1.114.2,1.114.814,0,.749-.688.767-.688.882a.245.245,0,0,0,.053.132l.726,1.246a.607.607,0,0,0,.352.281c.23.065.254.07.254.111s-.006.062-.057.062H40.061a.116.116,0,0,1-.108-.062c-.106-.215-.22-.432-.255-.5-.53-1.067-.657-1.148-.87-1.148-.173,0-.2.023-.2.478v.64c0,.294.051.4.165.411.336.033.392.058.392.126s-.028.08-.092.08c-.2,0-.322-.023-.829-.023h-.791c-.108,0-.126,0-.126-.068s.052-.105.178-.115c.111-.013.381-.023.381-.265,0-.116.041-.307.041-1.285Z"/><path d="M41.993,47.412c0-.238-.04-.313-.276-.324-.145-.006-.173-.036-.173-.105s.028-.1.162-.1.294.024.576.024c.467,0,.536-.024.727-.024.139,0,.161.016.161.068s-.046.094-.179.1c-.292.023-.317.059-.317.278v2.537c0,.3.1.311.312.358.121.027.19.045.19.137,0,.053-.01.069-.133.069-.156,0-.444-.023-.863-.023-.331,0-.509.023-.67.023-.088,0-.1-.04-.1-.109s.023-.087.254-.1c.2-.013.327-.019.327-.456Z"/><path d="M43.48,48.714A1.854,1.854,0,0,1,45.446,46.8c.444,0,1.013.134,1.04.3.012.075.034.392.034.444s-.01.07-.073.07c-.153,0-.366-.641-1.017-.641-.614,0-1.216.651-1.216,1.632,0,1.493.876,1.69,1.144,1.69.751,0,.981-.773,1.106-.773.04,0,.061.053.061.1,0,.062-.078.455-.1.575-.054.237-.772.317-1.023.317a1.863,1.863,0,0,1-1.918-1.8"/><path d="M48.739,47.8a.042.042,0,0,0-.045-.028c-.022,0-.052.035-.068.081l-.318.715a.474.474,0,0,0-.047.154c0,.041.226.047.415.047.226,0,.393,0,.393-.035a.181.181,0,0,0-.013-.063Zm1.332,1.823c.174.425.2.489.388.606.16.1.3.1.3.161,0,.04-.023.044-.139.044-.2,0-.327-.022-.732-.022H49.2c-.052,0-.087,0-.087-.079s.051-.094.15-.1c.132-.013.242-.048.242-.151a.96.96,0,0,0-.058-.207l-.235-.767c-.012-.042-.032-.059-.156-.059-.146,0-.335-.022-.733-.022-.142,0-.2.075-.287.306a3.039,3.039,0,0,0-.267.7c0,.166.134.184.272.2.057.005.172.021.172.108s-.051.1-.177.1c-.07,0-.186-.022-.4-.022s-.4.022-.656.022c-.059,0-.1,0-.1-.044,0-.1.162-.075.306-.161a.65.65,0,0,0,.254-.278l.985-2.108c.225-.48.365-.884.5-1.235h.069Z"/><path d="M51.628,47.451c0-.265-.068-.3-.466-.362-.081-.013-.092-.023-.092-.1,0-.039.011-.08.092-.08.818,0,.945-.007,1.164-.023l1.4,1.706a6.657,6.657,0,0,0,.708.76c.024.025.034.03.046.03a.027.027,0,0,0,.03-.023V47.5c0-.351-.042-.393-.462-.415-.1-.006-.12-.029-.12-.1s.017-.119.149-.119.352.021.535.021c.312,0,.474-.021.566-.021s.132.021.132.092-.01.069-.316.127c-.156.027-.179.09-.2.4-.029.559-.045,1.21-.045,1.874v1.146c0,.093-.031.117-.065.117-.1,0-.167-.168-.428-.463l-2.35-2.641c-.012-.011-.036,0-.036.013V48.6c0,.455.024.819.024,1.166,0,.283.067.373.432.456.161.033.218.062.218.108,0,.1-.057.1-.159.1-.209,0-.411-.022-.625-.022-.241,0-.391.022-.551.022-.1,0-.173,0-.173-.085,0-.063.069-.11.235-.12.214-.019.312-.053.318-.371s.039-1.187.039-1.256Z"/><path d="M57.751,47.423c0-.14,0-.329-.182-.347-.3-.029-.32-.051-.32-.114s.023-.081.116-.081c.248,0,.506.024,1.212.024.369,0,.76-.024,1.256-.024.116,0,.128.01.128.479,0,.218,0,.351-.088.351s-.1-.167-.213-.358c-.1-.174-.427-.253-.917-.253-.253,0-.264.016-.264.334v.894c0,.116.023.155.368.155.33,0,.406-.074.478-.19.092-.138.139-.323.225-.323s.082.151.082.168c0,.134-.048.443-.048.663a3.546,3.546,0,0,0,.025.387c0,.051-.018.079-.087.079s-.081-.021-.144-.294c-.041-.172-.162-.294-.669-.294-.214,0-.238.03-.238.174V49.96c0,.213.278.253.543.253a.737.737,0,0,0,.439-.1c.4-.224.4-.576.536-.576.075,0,.075.057.075.109,0,.081-.07.306-.093.445s-.064.344-.109.344c-.5,0-.715-.022-.94-.022H57.69a3.61,3.61,0,0,0-.411.022c-.074,0-.133-.016-.133-.085,0-.115.126-.115.173-.12.381-.048.432-.064.432-.64Z"/><path d="M62.279,47.8a.045.045,0,0,0-.047-.028c-.023,0-.053.035-.068.081l-.318.715a.474.474,0,0,0-.047.154c0,.041.225.047.417.047.224,0,.391,0,.391-.035a.244.244,0,0,0-.011-.063Zm1.33,1.823c.174.425.2.489.387.606.161.1.3.1.3.161,0,.04-.025.044-.14.044-.2,0-.329-.022-.73-.022h-.694c-.051,0-.086,0-.086-.079s.053-.094.15-.1c.133-.013.242-.048.242-.151a.9.9,0,0,0-.057-.207l-.237-.767c-.012-.042-.029-.059-.156-.059-.143,0-.335-.022-.732-.022-.144,0-.2.075-.287.306a3.074,3.074,0,0,0-.266.7c0,.166.133.184.271.2.057.005.173.021.173.108s-.052.1-.178.1c-.07,0-.185-.022-.4-.022-.231,0-.4.022-.659.022-.056,0-.1,0-.1-.044,0-.1.161-.075.306-.161a.654.654,0,0,0,.253-.278l.986-2.108c.225-.48.363-.884.5-1.235h.07Z"/><path d="M67.562,50.115c0,.149-.733.4-1.369.4a1.757,1.757,0,0,1-1.927-1.8,1.851,1.851,0,0,1,2-1.914c.444,0,1.123.081,1.128.317,0,.185.033.364.033.547,0,.037-.022.053-.065.053s-.061-.012-.139-.179a.912.912,0,0,0-.907-.564c-.835,0-1.36.731-1.36,1.735a1.486,1.486,0,0,0,1.259,1.586c.647,0,.757-.064.757-.979,0-.295-.016-.376-.279-.392-.362-.024-.367-.03-.367-.105s.028-.082.137-.082h.893c.229,0,.41-.023.5-.023s.17,0,.17.087c0,.058-.022.081-.241.123-.159.026-.2.073-.209.356Z"/><path d="M68.823,47.289a.284.284,0,0,0-.308-.2c-.2,0-.229-.058-.229-.115s.036-.093.1-.093c.255,0,.508.024.763.024s.506-.024.76-.024c.121,0,.161.011.161.109,0,.041-.036.086-.126.1-.289.034-.445.064-.445.212v2.578c0,.3.029.324.162.324h.405c.876,0,1-.628,1.135-.628.039,0,.079.015.079.125,0,.2-.1.732-.208.732-.446,0-1.25-.023-1.659-.023-.26,0-.633.023-.952.023-.149,0-.207,0-.207-.1s.179-.1.37-.132.2-.06.2-.694Z"/><path d="M72.143,47.423c0-.14,0-.329-.184-.347-.294-.029-.317-.051-.317-.114s.023-.081.115-.081c.248,0,.509.024,1.213.024.367,0,.76-.024,1.255-.024.116,0,.128.01.128.479,0,.218,0,.351-.087.351s-.1-.167-.215-.358c-.1-.174-.425-.253-.914-.253-.254,0-.265.016-.265.334v.894c0,.116.022.155.368.155.328,0,.4-.074.477-.19.093-.138.14-.323.226-.323s.081.151.081.168c0,.134-.046.443-.046.663a3.849,3.849,0,0,0,.023.387c0,.051-.018.079-.089.079s-.078-.021-.142-.294c-.04-.172-.162-.294-.668-.294-.215,0-.236.03-.236.174V49.96c0,.213.276.253.54.253a.731.731,0,0,0,.439-.1c.4-.224.4-.576.537-.576.074,0,.074.057.074.109,0,.081-.068.306-.092.445s-.064.344-.11.344c-.5,0-.715-.022-.938-.022H72.081a3.528,3.528,0,0,0-.409.022c-.076,0-.134-.016-.134-.085,0-.115.127-.115.174-.12.381-.048.431-.064.431-.64Z"/><path d="M36.652,54.979c.6,0,1.032-.5,1.032-1.336,0-.958-.429-1.337-1.032-1.337s-1.032.379-1.032,1.337c0,.835.428,1.336,1.032,1.336m0-2.831a1.506,1.506,0,1,1-1.687,1.495,1.581,1.581,0,0,1,1.687-1.495"/><path d="M39.041,52.616c.005-.141-.018-.21-.143-.21-.288,0-.292-.023-.292-.079,0-.093.078-.1.162-.1h1.137c.085,0,.1.023.1.084s-.012.056-.157.064c-.227.005-.256.019-.26.415l-.018,1.238c-.015.782.306.93.828.93.463,0,.9-.176.913-.7l.024-1.565c.006-.172-.014-.247-.312-.322-.143-.035-.168-.046-.168-.087s.02-.079.09-.079.147.018.223.018h.715c.038,0,.038.033.038.052,0,.056-.01.061-.15.1-.2.057-.26.112-.265.322l-.028,1.48c-.014.661-.394.958-1.17.958-.385,0-1.3-.1-1.291-.868Z"/><path d="M44.7,52.3c.445,0,.292-.214.417-.214.038,0,.057.029.057.131,0,.669-.029.715-.09.715-.035,0-.054-.028-.069-.074-.069-.3-.162-.381-.808-.381-.2,0-.221.018-.221.112v2c0,.226.022.325.153.325.273,0,.351.037.351.1s-.046.069-.134.069c-.143,0-.487-.017-.631-.017-.223,0-.451.035-.674.035-.094,0-.1-.021-.1-.059,0-.1.242-.061.381-.125.052-.024.107-.186.107-.265v-1.9c0-.251-.009-.259-.358-.269-.672-.019-.692.511-.845.511-.055,0-.065-.024-.065-.052a4.086,4.086,0,0,1,.209-.678c.042-.125.061-.143.113-.143.124,0-.049.185.454.185Z"/><path d="M46.447,53.369c0,.084.033.114.185.114.46,0,.571-.092.617-.179.069-.135.076-.237.14-.237s.084.009.084.572c0,.423-.006.439-.08.439-.051,0-.068-.082-.1-.176-.046-.133-.116-.26-.552-.26-.27,0-.292.019-.292.172v.775c0,.238.059.27.361.317.177.027.185.05.185.1s-.013.069-.125.069c-.227,0-.45-.017-.677-.017s-.442.017-.661.017c-.059,0-.078-.027-.078-.077,0-.066.032-.079.292-.089.066,0,.125-.024.125-.2,0-.7.029-1.4.029-2.094,0-.177-.056-.233-.191-.238-.181,0-.186-.031-.186-.083s.043-.083.177-.083c.232,0,.46.019.669.019.265,0,.985-.019,1.188-.019.183,0,.215,0,.215.219,0,.473-.009.476-.079.476s-.065-.161-.129-.273c-.136-.232-.591-.256-.776-.256-.293,0-.339.014-.339.307Z"/><path d="M48.648,52.639c0-.191-.033-.251-.224-.261-.115,0-.139-.027-.139-.083s.024-.083.13-.083.239.018.464.018c.377,0,.433-.018.585-.018.112,0,.131.013.131.055s-.037.076-.144.084c-.237.019-.256.046-.256.222v2.044c0,.241.083.252.251.289.1.023.153.037.153.111,0,.042-.009.055-.1.055-.127,0-.359-.017-.7-.017-.265,0-.41.017-.539.017-.069,0-.079-.033-.079-.087s.019-.069.2-.079c.158-.009.266-.014.266-.367Z"/><path d="M52.469,52.3c.446,0,.292-.214.419-.214.035,0,.055.029.055.131,0,.669-.028.715-.089.715-.036,0-.056-.028-.069-.074-.07-.3-.163-.381-.808-.381-.2,0-.223.018-.223.112v2c0,.226.023.325.154.325.273,0,.352.037.352.1s-.046.069-.134.069c-.144,0-.488-.017-.632-.017-.223,0-.45.035-.673.035-.093,0-.1-.021-.1-.059,0-.1.243-.061.381-.125.052-.024.107-.186.107-.265v-1.9c0-.251-.009-.259-.357-.269-.673-.019-.693.511-.845.511-.057,0-.065-.024-.065-.052a4.264,4.264,0,0,1,.208-.678c.042-.125.061-.143.111-.143.126,0-.046.185.455.185Z"/><path d="M55.776,52.3c.447,0,.293-.214.419-.214.036,0,.057.029.057.131,0,.669-.029.715-.091.715-.037,0-.055-.028-.068-.074-.07-.3-.163-.381-.809-.381-.2,0-.222.018-.222.112v2c0,.226.022.325.153.325.273,0,.352.037.352.1s-.046.069-.135.069c-.144,0-.487-.017-.631-.017-.222,0-.449.035-.674.035-.092,0-.1-.021-.1-.059,0-.1.241-.061.379-.125a.412.412,0,0,0,.108-.265v-1.9c0-.251-.01-.259-.357-.269-.675-.019-.693.511-.846.511-.055,0-.064-.024-.064-.052a4.291,4.291,0,0,1,.209-.678c.042-.125.059-.143.112-.143.124,0-.047.185.454.185Z"/><path d="M56.971,52.649c0-.113,0-.266-.148-.279-.238-.023-.257-.043-.257-.093s.019-.065.093-.065c.2,0,.41.018.976.018.3,0,.614-.018,1.013-.018.092,0,.1.009.1.385,0,.176,0,.284-.07.284s-.078-.135-.17-.289c-.085-.139-.345-.2-.739-.2-.2,0-.214.014-.214.27v.72c0,.093.018.125.3.125s.325-.061.386-.153c.075-.111.11-.26.181-.26s.064.122.064.135c0,.106-.036.357-.036.534a3,3,0,0,0,.019.311c0,.042-.015.066-.07.066s-.065-.02-.117-.238c-.031-.139-.13-.237-.538-.237-.172,0-.19.024-.19.139v.892c0,.172.223.2.435.2a.588.588,0,0,0,.353-.084c.326-.182.326-.465.432-.465.062,0,.062.047.062.089,0,.065-.057.245-.075.356s-.051.279-.089.279c-.4,0-.575-.017-.757-.017h-.992a3.021,3.021,0,0,0-.331.017c-.059,0-.106-.013-.106-.069,0-.092.1-.092.138-.1.306-.037.349-.053.349-.516Z"/><path d="M60.194,53.431c0,.088.024.1.083.1.414,0,.83-.024.83-.586,0-.5-.456-.58-.75-.58-.144,0-.163.106-.163.319Zm-.547-.842a.187.187,0,0,0-.164-.21c-.264-.027-.279-.031-.279-.088s.023-.079.095-.079c.2,0,.654.019.742.019s.515-.019.715-.019c.408,0,.9.162.9.654,0,.6-.552.618-.552.712a.19.19,0,0,0,.043.107l.584,1a.5.5,0,0,0,.285.227c.184.05.2.054.2.087s0,.052-.045.052h-.823A.1.1,0,0,1,61.258,55c-.084-.172-.175-.348-.205-.4-.425-.859-.528-.925-.7-.925-.139,0-.158.019-.158.388v.514c0,.236.043.32.135.329.269.027.317.047.317.1s-.024.063-.075.063c-.164,0-.262-.017-.67-.017h-.635c-.089,0-.1-.005-.1-.057s.041-.082.145-.092c.089-.009.306-.018.306-.213,0-.093.033-.246.033-1.036Z"/><path d="M64.212,52.793c0,.05-.018.073-.059.073-.118,0-.1-.552-.66-.552a.473.473,0,0,0-.539.483c0,.515,1.472.442,1.472,1.447,0,.328-.158.894-1.045.894-.4,0-.868-.1-.868-.3s0-.586.11-.586.062.222.224.423a.9.9,0,0,0,.655.292c.39,0,.562-.237.562-.478,0-.71-1.445-.59-1.445-1.561,0-.474.312-.784.967-.784.334,0,.626.065.626.191Z"/><path d="M46.35,43.42c.2.087.244.339.328.546a1,1,0,0,0,.3-1.011c-.335.029-.469.259-.628.465M39.63,29.105c.073.382.041.87.328,1.038,0-.529-.227-1.676.136-2.076a2.216,2.216,0,0,0,.355,1.393c.033-.576-.147-1.531.3-1.83A2.6,2.6,0,0,0,41.9,30.389c.04-.006-.025-.136,0-.218,1.051,1.214,2.6,1.726,3.716,2.841S47,35.881,48.29,36.863c1.22-.423,1.437-1.781,1.857-3.005a6.257,6.257,0,0,1,1.476-2.4,10.756,10.756,0,0,1,2.4-1.475,14.945,14.945,0,0,0,2.4-1.448c.157-.131.246-.36.518-.437-.016.55-.466.9-.682,1.339a3.246,3.246,0,0,0,1.256-.792,4.713,4.713,0,0,0,.546-.519c.159-.183.263-.43.492-.547A1.99,1.99,0,0,1,57.8,29.05a7.876,7.876,0,0,0-.9.82c.3.1.574-.134.792-.273a7.98,7.98,0,0,0,1.284-1.066,2.319,2.319,0,0,1,.628-.546c-.085,1.135-1.07,1.607-1.666,2.322A7.363,7.363,0,0,0,59.9,29.242c-.248,1.072-1.486,1.155-2.186,1.775.356.186.737-.066,1.038-.191a5.822,5.822,0,0,1,.984-.382c-.117,1.012-1.413,1.082-2.131,1.584.455.2,1-.2,1.475-.246a1.233,1.233,0,0,1-.737.6c-.313.141-.7.145-.929.383.072.214.394.057.573.054-.032.414-.61.282-.9.437.082.146.323.132.492.192-.123.433-1.029.082-1.23.437.06.159.343.094.492.163-.142.3-.814.061-.956.356,0,.134.229.188.218.246-.092.244-.7-.031-.764.246.012.105.122.114.191.163-.056.245-.468.134-.6.3-.034.158.164.115.191.136,0,.247-.272.22-.355.383-.027.181.157.152.137.328-.125.026-.325-.017-.356.164.033.168.184.216.137.464-.153-.031-.3-.018-.355.109.034.158.247.135.191.383-.129-.037-.31-.038-.328.109.042.213.323.187.273.492-.2-.066-.45-.017-.518.136.043.184.22.235.191.492-.073.053-.163-.109-.273-.027-.031.146.2.335.082.573-.139-.025-.163-.165-.356-.136-.081.206.154.366.055.6-.069.027-.247-.132-.355,0,0,.222.11.344.082.6-.233.032-.3-.1-.465-.137-.078.132.064.369-.027.519-.128.03-.391-.25-.574-.082-.064.185.143.206.083.3-.767.019-.827-.667-1.421-.82a6.446,6.446,0,0,0,1.83,2.459c.473.36,1.344.53,1.312,1.42-.286.007-.284.3-.574.3-.089.084-.1.246-.219.3a.724.724,0,0,1-.328-.082c-.145.019-.16.168-.272.219-.332-.188-.491.2-.739.218-.125.011-.2-.115-.354-.136-.17-.023-.354.125-.493.109-.22-.025-.4-.471-.764-.191-.164-.036-.157-.244-.3-.3-.1-.018-.1.06-.191.055-.111-.069-.21-.241-.41-.137-.132-.074-.147-.327-.382-.218a1.544,1.544,0,0,1-.055-.274c-.047-.081-.169.04-.191-.026-.131-.677.813-.926.547-1.558a.875.875,0,0,0-.547.793c-.1.013-.086-.1-.137-.137a1.6,1.6,0,0,0-.191.737.542.542,0,0,1-.164-.273,1.477,1.477,0,0,0-.519.738c-.082-.063-.043-.248-.164-.274-.267.064-.272.4-.191.547.165.3,1.083.372.656.956-.056-.1-.073-.236-.164-.3a.714.714,0,0,1-.656-.246c-.556-.037-.916.122-.956.6a.388.388,0,0,1-.109-.519.309.309,0,0,0-.328.246c-.156-.067-.144-.283-.055-.41-.213-.025-.258.244-.382.218-.174-.557.6-.583,1.038-.71-.047-.179-.2-.1-.355-.164-.373-.156-.91-.735-1.2-.219-.159-.108-.051-.382.055-.464-.258-.065-.369.159-.465.165a.537.537,0,0,1,.191-.438c-.134-.1-.358-.006-.491.055.142-.486.608-.325.983-.164.138.059.341.233.492.219.245-.024.427-.709.546-1.066a4.245,4.245,0,0,0,.492-2.022.88.88,0,0,0-1.2-.846c-.07.021-.12.08-.191.109-.306.124-.774.028-1.011.273-.1-.1.095-.24-.027-.3-.216.048-.265.263-.3.491A.69.69,0,0,1,44,38.694a.889.889,0,0,1,.382-.847c.385-.307,1.273-.438,1.339-.793.081-.435-.536-1.177-.738-1.393-1.036-1.111-2.737-1.6-4.152-2.24.08-.057.263-.01.355-.054-.232-.278-.635-.385-.792-.738a1.642,1.642,0,0,0,.355.027c-.25-.3-.808-.521-.983-.983.175,0,.349.233.573.273a3.058,3.058,0,0,1-.847-2.1,1.381,1.381,0,0,1,.137-.738"/></g></svg>