<svg xmlns="http://www.w3.org/2000/svg" xmlns:xlink="http://www.w3.org/1999/xlink" viewBox="0 0 97.219 86.203"><defs><clipPath id="a"><rect x="32.32" y="25.295" width="33.66" height="33.688" fill="none"/></clipPath></defs><g><g clip-path="url(#a)"><path d="M53.205,43.4c-2.845.282-6.629,2.333-6.138,5.873a4.305,4.305,0,0,1-.222-1.32c0-3.048,2.647-4.8,5.657-5.425a12.889,12.889,0,0,1,2.646-.271,5.955,5.955,0,0,1,1.962.236c-.314-1.167-1.144-2.939-5.814-2.939-4.543,0-7.936.763-7.936,2.578a4.556,4.556,0,0,0,.76,2.267l3.02,5.064,3.333,5.6a5.841,5.841,0,0,0,5.373,2.923h9.135Z"/><path d="M39.343,36.39c1.25,2.09,1.712,2.611,4.686,2.615h5.682l-7.833-10.1c-1.729-2.182-2.725-2.582-4.313-2.615H33.32Z"/></g><rect width="97.219" height="86.203" fill="none"/></g></svg>