<svg xmlns="http://www.w3.org/2000/svg" viewBox="0 0 97.219 86.203"><path d="M78.972,43.653a1.9,1.9,0,0,1,1.684-.89,1.841,1.841,0,0,1,2,1.92v2.91H82.08V44.861a1.41,1.41,0,0,0-1.523-1.544A1.529,1.529,0,0,0,78.972,44.9v2.712H78.4V40.328h.574Zm-1.326-.3h-2.2V45.95c0,.812.416,1.168,1.05,1.168a1.74,1.74,0,0,0,1.069-.356l.277.435a2.166,2.166,0,0,1-1.386.475c-.99,0-1.584-.554-1.584-1.7V43.356H73.785v-.534h1.089V41.278h.574v1.544h2.2Zm-4.415,4.237h-.574V40.328h.574Zm-6-2.376a1.852,1.852,0,1,0,1.86-1.92,1.831,1.831,0,0,0-1.86,1.92m4.255,2.376h-.574v-.911a2.127,2.127,0,0,1-1.881.99,2.456,2.456,0,0,1,0-4.909,2.128,2.128,0,0,1,1.881.989v-.91h.574ZM62.145,44.92h3.4a1.668,1.668,0,0,0-1.643-1.663,1.789,1.789,0,0,0-1.762,1.663m4,.258a.95.95,0,0,1-.02.237H62.145a1.775,1.775,0,0,0,1.841,1.742,2.21,2.21,0,0,0,1.6-.673l.316.4a2.551,2.551,0,0,1-1.94.792,2.456,2.456,0,0,1-.039-4.909,2.276,2.276,0,0,1,2.217,2.415m-9.087-1.525a1.9,1.9,0,0,1,1.683-.89,1.839,1.839,0,0,1,2,1.92v2.91h-.574V44.861a1.41,1.41,0,0,0-1.524-1.544A1.528,1.528,0,0,0,57.057,44.9v2.712h-.574V40.328h.574Zm-5.563,1.525a1.467,1.467,0,1,0,1.465-1.544,1.446,1.446,0,0,0-1.465,1.544m3.9,2.415H54.345v-.574a1.828,1.828,0,0,1-1.524.713A2.428,2.428,0,0,1,50.406,45.2a2.463,2.463,0,0,1,2.415-2.574,1.826,1.826,0,0,1,1.524.713v-.594h1.049Zm-5.681-3.049v3.029H48.644V44.9c0-.812-.415-1.267-1.129-1.267A1.2,1.2,0,0,0,46.268,44.9v2.672H45.2v-4.81h1.049v.593a1.711,1.711,0,0,1,1.485-.712,1.84,1.84,0,0,1,1.98,1.9m-8.83.218H43.4a1.221,1.221,0,0,0-1.227-1.188,1.252,1.252,0,0,0-1.287,1.188m3.583.4c0,.139-.019.277-.019.4H40.883a1.361,1.361,0,0,0,1.445,1.227,2.414,2.414,0,0,0,1.406-.514l.534.752a2.933,2.933,0,0,1-1.979.673,2.386,2.386,0,0,1-2.475-2.534,2.361,2.361,0,0,1,2.415-2.534,2.294,2.294,0,0,1,2.237,2.534m-8.829-1.821a1.727,1.727,0,0,1,1.465-.693,1.861,1.861,0,0,1,1.96,1.92v3.029H37.993V44.9c0-.812-.416-1.267-1.129-1.267A1.2,1.2,0,0,0,35.617,44.9v2.672H34.548V40.328h1.069v3.009Zm-1.8.376h-1.86v2.1c0,.654.336.911.772.911a1.742,1.742,0,0,0,.97-.337l.415.852a2.646,2.646,0,0,1-1.484.475c-1.089,0-1.742-.594-1.742-1.881V43.713h-.97v-.95h.97V41.3h1.069v1.465h1.86ZM25.6,45.178a1.467,1.467,0,1,0,1.465-1.544A1.424,1.424,0,0,0,25.6,45.178m3.9,2.415h-1.05v-.574a1.83,1.83,0,0,1-1.525.713A2.429,2.429,0,0,1,24.511,45.2a2.464,2.464,0,0,1,2.415-2.574,1.828,1.828,0,0,1,1.525.713v-.594H29.5Z"/><path d="M18.85,42.743a4.439,4.439,0,0,1-.95-2.376,3.152,3.152,0,0,1,.871-2.1,4.439,4.439,0,0,1,.95,2.376,3.152,3.152,0,0,1-.871,2.1"/><path d="M20.355,41.04a.594.594,0,1,0,.593-.594.6.6,0,0,0-.593.594m3.464.3a7.762,7.762,0,0,1-1.128,4.217,5.531,5.531,0,0,1-3.366,2,7.757,7.757,0,0,1,1.129-4.217,5.368,5.368,0,0,1,3.365-2"/><path d="M18.81,45.317h0a5.6,5.6,0,0,0-.871-3.088A4.244,4.244,0,0,0,15.346,40.7a5.842,5.842,0,0,0,.871,3.227,4.02,4.02,0,0,0,2.237,1.445v2.059a.178.178,0,1,0,.356,0Z"/></svg>