<svg xmlns="http://www.w3.org/2000/svg" xmlns:xlink="http://www.w3.org/1999/xlink" viewBox="0 0 97.219 86.203"><defs><clipPath id="a"><rect x="28.211" y="31.208" width="40.797" height="23.788" fill="none"/></clipPath></defs><g clip-path="url(#a)"><path d="M65.381,45.424H63.522v5.949H60.469V45.424H58.61V43.593h6.771Zm-7.448,5.949h-2.95v-3.02h-1.62v3.02H50.414v-7.78h2.949v2.849h1.62V43.593h2.95ZM45.2,49.178a1.461,1.461,0,0,0,1.66.625v-1.32h-.922v-1.54h3.572v4.041a7.606,7.606,0,0,1-3.153.628,5.427,5.427,0,0,1-2.846-.618,3.743,3.743,0,0,1-1.678-3.441A4.031,4.031,0,0,1,42.917,44.6a4.46,4.46,0,0,1,3.212-1.22,4.88,4.88,0,0,1,3.5,1.185L48.28,46.108a2.7,2.7,0,0,0-1.856-.745c-1.086,0-1.559.877-1.543,2.115a3.481,3.481,0,0,0,.317,1.7m-8.58-6.553v-7.78H41.4c1.377,0,2.326.7,2.326,1.844a1.752,1.752,0,0,1-1.106,1.723,1.988,1.988,0,0,1,1.342,2c0,1.158-.874,2.216-2.624,2.216Zm4.508,8.748H38.041v-7.78h3.085Zm-3.733,0H31.846v-7.78H34.9v5.859h2.5Zm7.134-16.528h2.94v5.11c0,.8.442.905.744.905s.808-.034.808-.905v-5.11h2.875v4.924c0,2.527-1.688,2.96-3.66,2.96-1.818,0-3.707-.43-3.707-2.982Zm8.311,0h3.914c2.372,0,3.894,1.21,3.894,3.89a3.674,3.674,0,0,1-4.029,3.89H52.838Zm14.206-2.637H30.174a1.055,1.055,0,0,0-.964.928V53.068a1.056,1.056,0,0,0,.964.928h36.87a1.054,1.054,0,0,0,.963-.928V33.136a1.053,1.053,0,0,0-.963-.928"/><path d="M41.022,37.23c0-.529-.208-.792-.768-.792H39.47v1.586h.748c.581,0,.8-.284.8-.794"/><path d="M40.387,39.3h-.916v1.686h.916c.54,0,.76-.263.76-.842,0-.555-.263-.844-.76-.844"/><path d="M57.6,38.735c0-1.067-.168-2.2-1.537-2.2h-.285V40.9h.306c1.344,0,1.516-1.182,1.516-2.167"/></g></svg>