<svg xmlns="http://www.w3.org/2000/svg" viewBox="0 0 97.219 86.203"><path d="M54,45.764a2.775,2.775,0,1,1,2.774-2.775A2.777,2.777,0,0,1,54,45.764m-21.578,0a2.777,2.777,0,0,1-2.774-2.775c0-.033,0-.066,0-.1h.017v-.212a2.775,2.775,0,1,1,2.756,3.086m36.52-8.074v0l-.03,0a1.464,1.464,0,0,0-1.36,1.55l-.007,3.735h0a2.757,2.757,0,0,1-5.514-.014l0-5.272H59.3v3.84a5.492,5.492,0,0,0-10.591.006v-3.81h-1.44l0,0a1.483,1.483,0,0,0-1.3,1.545l0,3.736h0A2.758,2.758,0,0,1,40.455,43l-.011-5.272H37.72v3.8a5.491,5.491,0,0,0-8.05-3.284l0-5.233A1.472,1.472,0,0,0,28.3,31.457h-1.37V42.989a5.492,5.492,0,0,0,10.885,1.039,5.493,5.493,0,0,0,10.789-.011A5.493,5.493,0,0,0,59.4,44.005a5.492,5.492,0,0,0,8.149,3.7v1.589c-.013,1.4-1.037,2.811-3.693,2.811a7.776,7.776,0,0,1-.986-.061v1.372h0a1.352,1.352,0,0,0,1.417,1.332h.638a5.491,5.491,0,0,0,5.354-5.393l0-11.662Z"/></svg>