<svg xmlns="http://www.w3.org/2000/svg" xmlns:xlink="http://www.w3.org/1999/xlink" viewBox="0 0 97.219 86.203"><defs><clipPath id="a"><rect x="21.43" y="33.484" width="56.532" height="19.746" fill="none"/></clipPath></defs><g clip-path="url(#a)"><path d="M24.021,41.831c1.565-2.9,4.27-6.056,7.464-7.111a2.535,2.535,0,0,1,2.109.1,1.562,1.562,0,0,1,.47,1.63c-.154.7-.632,1.582-1.432,1.694a.47.47,0,0,1-.359-.152.824.824,0,0,1-.149-.764,1.643,1.643,0,0,1,1.236-1.22c.1-.065.058-.187.029-.274a.494.494,0,0,0-.316-.246,2.413,2.413,0,0,0-1.615.664A19.291,19.291,0,0,0,27.1,41.5a15.334,15.334,0,0,0-1.949,5.524,3.565,3.565,0,0,0,1.651,3.6c1.409.746,3.233.241,4.646-.143l1.3-.4,2.495-.74a12.391,12.391,0,0,1,7.633.07,7.954,7.954,0,0,1,3.743,2.749c0,.036,0,.08-.044.072-1.979-.54-4.555-1.074-6.517-.138l-.093-.022a3.932,3.932,0,0,0-2.63-1.687c-3.326-.321-6.061,1.254-9.188,1.646-1.585.146-3.284.1-4.389-1.116C22.015,49.17,22.22,46.1,23.049,44a17.638,17.638,0,0,1,.972-2.164"/><path d="M41.807,44.486a2,2,0,0,0-.163,1.144.32.32,0,0,0,.2.159c.324.008.542-.286.751-.516A23.91,23.91,0,0,0,44.922,41.1a2.576,2.576,0,0,0,.277-.92c-.007-.072-.079-.123-.136-.159-.144-.066-.281.035-.4.092a9.606,9.606,0,0,0-2.6,3.728Zm-9.754-3.354a1.229,1.229,0,0,0,.811.953c.093.029.244.1.324-.013a3.713,3.713,0,0,0,.3-.878c.074-.4.133-.928-.248-1.189a.546.546,0,0,0-.461-.016,1.271,1.271,0,0,0-.731,1.143M30.816,42.8a6.124,6.124,0,0,0-.837,2.619.552.552,0,0,0,.351.44.691.691,0,0,0,.562-.163,7.744,7.744,0,0,0,1.795-2.457c.036-.086.1-.194.051-.288a3.524,3.524,0,0,1-1.3-.926l-.079-.015c-.072.014-.1.086-.152.136Zm-2.2.072c.826-1.517,2.093-3.37,3.845-3.926a1.5,1.5,0,0,1,1.331.25c.754.751.461,2.039.206,2.924a.124.124,0,0,0,.093.116,2.54,2.54,0,0,0,1.695-.794c1.041-1.163,2.156-2.686,3.847-2.507a1.1,1.1,0,0,1,.791.528,2.232,2.232,0,0,1-.578,2.447.829.829,0,0,1-.829.278.522.522,0,0,1-.287-.3,1.453,1.453,0,0,1,.711-1.466c.137-.137.555-.042.441-.352a.389.389,0,0,0-.353-.138,4.733,4.733,0,0,0-1.836,1.888,12.1,12.1,0,0,0-1.407,3,1.688,1.688,0,0,0,.025,1.232.669.669,0,0,0,.719.247,6.21,6.21,0,0,0,2.151-1.649c1.425-1.709,2.181-3.824,4.088-5.214a2.121,2.121,0,0,1,2.14-.345c.115.043.208.2.352.138.115-.115.2-.36.426-.3.525.009,1.131-.018,1.67.034l.036.051-.152.366-2.959,6.011a.392.392,0,0,0-.023.223.19.19,0,0,0,.238.051,4.05,4.05,0,0,0,1.055-1.077,7.257,7.257,0,0,0,.681-1.128c.079-.115.174-.258.332-.236s.374-.049.5.066a11.343,11.343,0,0,1-.747,1.438c-.8,1.236-1.853,2.673-3.331,3.042a.9.9,0,0,1-.734-.132c-.287-.217-.3-.563-.378-.873a.11.11,0,0,0-.123-.029,2.775,2.775,0,0,1-2.164,1.022.983.983,0,0,1-.653-.528,3.474,3.474,0,0,1-.132-1.5c-.021-.058-.093-.036-.122-.015A6.628,6.628,0,0,1,35.9,47.749a1.691,1.691,0,0,1-1.5-.524c-.953-1.249-.2-2.888.3-4.1.021-.058.014-.137-.058-.152-.345.028-.677.084-1.008.133l-.116.13a11.9,11.9,0,0,1-3.01,4.029,2.036,2.036,0,0,1-2.111.317,2.146,2.146,0,0,1-.677-2.148,10.173,10.173,0,0,1,.888-2.561"/><path d="M47.963,40.791a15.442,15.442,0,0,1,.877-1.675.819.819,0,0,1,.562-.171l1.419.02.057.057a18.305,18.305,0,0,1-.8,1.675.553.553,0,0,1-.389.3,15.681,15.681,0,0,1-1.736-.006c-.057-.058-.007-.137.008-.2"/><path d="M57.174,40.693a.525.525,0,0,0,.3.476c.388.11.7-.177.988-.4A6.523,6.523,0,0,0,60.3,36.937c0-.216.074-.489-.048-.677a.362.362,0,0,0-.252.071,7.177,7.177,0,0,0-1.836,1.838,4.932,4.932,0,0,0-.988,2.524m-7.788,2.976a21.472,21.472,0,0,1,3.858-5.748,10.9,10.9,0,0,1,5.543-3.351,2.073,2.073,0,0,1,1.684.366.315.315,0,0,0,.309.1,6.8,6.8,0,0,1,5.207-.061,28.712,28.712,0,0,1,2.594,1.528c.108.058.057.173,0,.238-.491.545-.9,1.106-1.345,1.673a.15.15,0,0,1-.18,0l-2.263-1.556a4.987,4.987,0,0,0-3.648-.992c-.151.079-.08.267-.1.41a6.881,6.881,0,0,1-1.151,3.763A4.21,4.21,0,0,1,57.8,41.905a1,1,0,0,1-1.035-.364c-.674-1.025-.079-2.276.414-3.189a9.127,9.127,0,0,1,2.386-2.641c.021-.036.065-.072.036-.115-.093-.094-.252-.037-.367-.016a9.994,9.994,0,0,0-3.9,3.155A23.452,23.452,0,0,0,50.894,46.9c-.27,1.115-.636,2.828.5,3.609,1,.537,1.96-.152,2.711-.8a8.047,8.047,0,0,0,2.225-4.025c.052-.454.176-1.072-.241-1.384-.374-.167-.684.142-.937.4a4.487,4.487,0,0,0-.937,2.453c-.261.215-.571.351-.845.559a7.833,7.833,0,0,0-1.445,1.32c-.05.014-.058-.044-.072-.073a6.985,6.985,0,0,1,1.456-4.388,2.909,2.909,0,0,1,2.805-1.3,1.437,1.437,0,0,1,.919,1.126,7.024,7.024,0,0,1-1.189,4.223c-1.144,1.8-2.951,3.612-5.24,3.4a2.534,2.534,0,0,1-2.069-1.469c-.865-1.724-.267-3.94.315-5.609Z"/><path d="M68.89,49.3c-.016.208-.067.467.091.626a.325.325,0,0,0,.331.059,3.028,3.028,0,0,0,.961-1.048,25.493,25.493,0,0,0,2.1-4.263c.022-.13.058-.31-.064-.4-.352-.167-.627.221-.887.407a11.259,11.259,0,0,0-2.333,3.909Zm-7.938-3.845a1.211,1.211,0,0,0,.782,1c.079.029.223.065.281-.035a3.151,3.151,0,0,0,.352-1.85.569.569,0,0,0-.337-.354.673.673,0,0,0-.461.071,1.413,1.413,0,0,0-.617,1.171m-2.088,4.04a.611.611,0,0,0,.387.578.65.65,0,0,0,.49-.085,6.73,6.73,0,0,0,1.773-2.428c.043-.086.08-.223-.035-.288a4.239,4.239,0,0,1-1.192-.94.154.154,0,0,0-.173-.023,7.6,7.6,0,0,0-.732,1.337,4.7,4.7,0,0,0-.518,1.849m-.231-3.911c.832-1.1,1.938-2.3,3.336-2.387a1.077,1.077,0,0,1,.876.45c.595.881.094,2.01-.125,2.9a.135.135,0,0,0,.093.159,1.5,1.5,0,0,0,.872-.127l.108-.137a33.462,33.462,0,0,1,4.27-8.057A11.351,11.351,0,0,1,72.231,34.7a1.457,1.457,0,0,1,1.325-.009c.417.339.3.93.19,1.383-.045.4-.491.444-.787.537-.014-.007-.029,0-.043-.014a4.5,4.5,0,0,1,.2-.741.68.68,0,0,0-.021-.382c-.071-.13-.229-.087-.338-.052a5,5,0,0,0-1.43,1.249,29.326,29.326,0,0,0-3.8,5.963c-.348.719-.711,1.431-.994,2.179a.1.1,0,0,0,.042.1c.245-.006.39-.258.578-.387a25.32,25.32,0,0,0,3.586-4.207,2.079,2.079,0,0,1,.743-.128l.05.015c-.015.2-.188.36-.283.539a27.744,27.744,0,0,1-4.121,4.775l-1.17.961c-.246.215-.254.546-.377.819a9.12,9.12,0,0,0-.484,2.31.41.41,0,0,0,.172.34c.309.138.555-.157.772-.358,1.583-1.831,2.282-4.075,4.218-5.718a2.232,2.232,0,0,1,2.292-.553c.144.051.251.238.424.152.123-.086.131-.28.3-.272.569-.005,1.174-.025,1.721.02.05.044.014.115,0,.166l-.391.791-2.423,4.888a1.542,1.542,0,0,0-.24.712c.036.108.151.116.245.095a3.423,3.423,0,0,0,1.084-1.091c.3-.417.536-.855.818-1.279a1,1,0,0,1,.526-.02c.1.094-.03.216-.052.324a8.256,8.256,0,0,1-3.254,3.9,1.4,1.4,0,0,1-1.253.125c-.317-.217-.286-.613-.429-.916a.11.11,0,0,0-.137-.015c-.643.574-1.337,1.22-2.236.972-.561-.261-.623-.91-.665-1.464-.028-.022-.014-.065-.05-.087l-.072.029c-.629.754-1.424,1.7-2.483,1.6a1.14,1.14,0,0,1-.876-.78,6.942,6.942,0,0,1,.286-3.593.158.158,0,0,0-.129-.137l-.885.011-.145.165a12.578,12.578,0,0,1-2.5,3.585,2.274,2.274,0,0,1-2.134.72,1.7,1.7,0,0,1-.851-1.717,9.616,9.616,0,0,1,1.881-4.624"/><path d="M70.569,38.557l.767-.991.115-.1c2.219-.042,3.951-1.36,5.512-2.919a1.846,1.846,0,0,1-.175.59c-1.023,2.409-3.508,4.525-6.194,4.559l-.634-.009c-.115-.029-.035-.145-.006-.2Z"/><path d="M73.75,51.228V51H73.9c.078,0,.16.017.16.108,0,.113-.084.119-.178.119Zm0,.095h.128l.193.318H74.2l-.209-.324a.19.19,0,0,0,.19-.2c0-.144-.085-.208-.259-.208h-.279v.734h.111Zm.135.587a.637.637,0,1,0-.647-.638.635.635,0,0,0,.647.638m-.519-.638a.517.517,0,1,1,.519.532.515.515,0,0,1-.519-.532"/></g></svg>