<svg xmlns="http://www.w3.org/2000/svg" viewBox="0 0 97.61 86.56"><g opacity="0.5"><rect y="0.357" width="97.219" height="86.203" fill="none"/></g><rect x="0.39" width="97.219" height="86.203" fill="none"/><path d="M43.364,45.7c-.093-.238-.2-.282-.447-.237-.1.017-.134.059-.107.156.069.241.135.482.2.722a.106.106,0,0,0,.047.062c.163.079.416-.087.413-.335a3.816,3.816,0,0,0-.11-.368m.035,1.255c-.173.02-.182.033-.125.2.07.206.144.411.216.616.084.235.084.235.333.192.169-.029.224-.1.174-.265a4.613,4.613,0,0,0-.19-.524.343.343,0,0,0-.362-.225l-.046.005M53.45,43.389c-.073-.258-.168-.307-.434-.26-.1.018-.135.062-.115.158.065.3.127.605.2.906a.113.113,0,0,0,.074.076c.2.022.382-.155.378-.435-.022-.1-.052-.276-.1-.445m-.391-5.5a.279.279,0,0,0-.244.018.267.267,0,0,0-.01.243,1.609,1.609,0,0,0,.247.338,1.644,1.644,0,0,0,.214.172l.1-.247a.513.513,0,0,0-.311-.524m.412,1.911a.847.847,0,0,0,.4,1.058.354.354,0,0,0,.476-.17.169.169,0,0,0-.011-.155c-.257-.271-.523-.534-.8-.813a.7.7,0,0,0-.064.08M43.129,42.767q-.1-1.007-.2-2.012a.84.84,0,0,0-.047-.2.173.173,0,0,0-.078-.088.387.387,0,0,0-.441.31c.038.572.074,1.145.121,1.717.022.258.065.515.106.771.006.038.05.1.077.1a.483.483,0,0,0,.465-.515c0-.013,0-.05-.006-.086M45.1,39.973a1.124,1.124,0,0,0-.013.115q-.009.561-.014,1.121c0,.2,0,.392,0,.588,0,.09.03.124.127.088.114-.043.235-.069.353-.106.163-.051.169-.071.113-.234-.108-.313-.213-.628-.319-.943-.07-.21-.138-.421-.207-.631Zm9.112,3.148a.049.049,0,0,0,.09.011c.066-.126.169-.325.206-.414a.359.359,0,0,0,.016-.215c-.025-.107-.064-.268-.093-.365a.14.14,0,0,0-.1-.085.747.747,0,0,0-.265.055.157.157,0,0,0-.062.136c.041.206.154.659.209.877m1.572,1.534a.981.981,0,0,1-.016.2.191.191,0,0,1-.2.166.218.218,0,0,1-.128-.159c-.043-.316-.054-.271-.318-.161a.259.259,0,0,1-.038.017.137.137,0,0,0-.11.175,3.5,3.5,0,0,0,.081.47.41.41,0,0,0,.649.245.9.9,0,0,0,.407-.622,2.744,2.744,0,0,0-.011-1.006.642.642,0,0,0-.549-.6.575.575,0,0,1-.168-.057c-.046-.025-.108-.063-.117-.105a2.91,2.91,0,0,1-.071-.523c0-.053.082-.139.14-.153s.13.058.161.112a2.112,2.112,0,0,1,.081.259c.015.037.06.085.093.086.2.009.292-.1.256-.3-.006-.036-.009-.073-.017-.108a1.02,1.02,0,0,0-.375-.633.407.407,0,0,0-.561.019.843.843,0,0,0-.2.319,1.939,1.939,0,0,0,.028,1.065.839.839,0,0,0,.692.718.342.342,0,0,1,.277.347c0,.059.008.118.014.218m-7.045-.469a.53.53,0,0,1,.081.13c.043.149.074.3.109.452q.184.777.37,1.555c.1.434.212.867.315,1.3.025.107.082.128.179.1.136-.04.272-.078.41-.108a.117.117,0,0,0,.106-.156c-.024-.121-.049-.241-.076-.361-.123-.556-.245-1.112-.371-1.667-.1-.431-.2-.862-.3-1.291-.028-.114.015-.161.116-.184s.2-.055.306-.073.13-.084.106-.179c-.036-.141-.071-.282-.108-.423-.046-.176-.056-.187-.235-.146-.536.126-1.071.26-1.607.385-.11.025-.129.087-.106.18.039.159.082.317.118.477.021.1.072.129.167.106.128-.031.257-.059.42-.1m-5,4.39v-.008c.141-.008.283-.01.423-.026a.472.472,0,0,0,.457-.5,1.981,1.981,0,0,0-.432-1.213.638.638,0,0,1-.171-.493,1.847,1.847,0,0,0-.413-1.257.644.644,0,0,0-.666-.255c-.232.049-.458.119-.688.178a.1.1,0,0,0-.083.143c.111.423.2.852.339,1.266.221.669.474,1.328.71,1.992a.221.221,0,0,0,.265.176,1.862,1.862,0,0,1,.259,0m8.438-3.484c-.027-.139-.056-.277-.08-.416s-.055-.175-.2-.14c-.181.044-.362.093-.541.145-.079.023-.117.005-.135-.078-.06-.276-.124-.551-.188-.827-.025-.1,0-.158.117-.181.223-.045.443-.1.663-.163.071-.018.144-.041.117-.147-.041-.159-.073-.32-.113-.479a.134.134,0,0,0-.19-.112c-.434.106-.87.2-1.3.3-.147.033-.17.074-.136.219.147.63.3,1.259.435,1.891.149.7.281,1.394.422,2.091.03.15.071.172.22.124.395-.127.788-.256,1.185-.377a.151.151,0,0,0,.124-.191c-.02-.131-.041-.262-.057-.393-.013-.11-.062-.137-.167-.1-.2.069-.4.131-.6.193-.072.023-.158.063-.181-.062-.052-.277-.1-.556-.152-.834-.017-.09.016-.133.105-.156.176-.044.351-.1.526-.147.081-.023.144-.062.128-.164m-4.249,3.045a.815.815,0,0,0,.885-.876,2.54,2.54,0,0,0-.281-1.089.966.966,0,0,0-.548-.489,2.055,2.055,0,0,0-.486-.134c-.441-.044-.524-.391-.526-.746a.231.231,0,0,1,.189-.239.224.224,0,0,1,.263.125,1.882,1.882,0,0,1,.13.342c.024.086.067.129.155.111a3.1,3.1,0,0,0,.372-.09.15.15,0,0,0,.08-.119,1.449,1.449,0,0,0-.558-1.041.81.81,0,0,0-1.257.518,2.119,2.119,0,0,0,.293,1.468.873.873,0,0,0,.482.387,4.083,4.083,0,0,0,.512.142.5.5,0,0,1,.424.321,3.354,3.354,0,0,1,.111.463.194.194,0,0,1-.148.23c-.219.077-.347.012-.439-.232-.1-.271-.1-.271-.382-.208l-.04.009c-.289.058-.289.058-.2.339a1.062,1.062,0,0,0,.973.808m6.095-3.913a1.278,1.278,0,0,0,.054-.542,2.472,2.472,0,0,0-.193-.747.768.768,0,0,0-.8-.546c-.3.034-.588.115-.882.178-.087.018-.117.071-.1.161.038.156.11.4.142.559.192.944.376,1.888.538,2.837.023.134.042.354.055.489s.063.176.18.129c.087-.034.175-.066.265-.094a.188.188,0,0,0,.143-.242q-.1-.655-.184-1.312a.184.184,0,0,1,.054-.154c.076-.047.118.014.147.086.169.408.343.813.511,1.222.036.09.085.107.168.069s.175-.079.264-.112a.151.151,0,0,0,.09-.2c-.183-.436-.37-.871-.547-1.31a.334.334,0,0,1,.005-.2c.027-.093.056-.186.082-.268m-8.111,4.21a.7.7,0,0,0,.756-.846,2.512,2.512,0,0,0-.081-.318c-.167-.587-.341-1.172-.5-1.76-.114-.418-.215-.839-.318-1.259-.024-.1-.074-.13-.168-.1-.119.034-.237.068-.357.1s-.154.084-.118.206c.061.21.1.426.158.637q.252.909.511,1.815c.058.206.13.408.179.616.042.179-.083.3-.254.234a.518.518,0,0,1-.225-.213,1.213,1.213,0,0,1-.11-.308c-.168-.562-.339-1.124-.5-1.689-.093-.324-.171-.652-.249-.981-.029-.125-.088-.154-.206-.112a2.224,2.224,0,0,1-.3.079c-.094.02-.116.076-.095.161.049.2.088.392.146.584q.351,1.177.712,2.353a1.037,1.037,0,0,0,1.026.808m8.929-7.323.048-.032c.122.4.389.3.648.252.147-.029.164-.062.066-.181-.153-.187-.314-.368-.461-.559A.27.27,0,0,1,55.1,40.4c.029-.151.082-.3.121-.448.025-.093.046-.191-.058-.258s-.221-.143-.334-.212c-.065-.04-.113-.025-.132.054-.023.1-.042.2-.068.293a.629.629,0,0,1-.05.1.4.4,0,0,1-.1-.057c-.2-.192-.382-.391-.581-.579a.188.188,0,0,1-.043-.261,1.033,1.033,0,0,0,.072-.809,1.288,1.288,0,0,0-.835-.824,1.47,1.47,0,0,0-.523-.074.553.553,0,0,0-.506.853,2.778,2.778,0,0,0,.745.9.136.136,0,0,1,.034.206,1.575,1.575,0,0,0-.2.474,1.623,1.623,0,0,0,.718,1.671.994.994,0,0,0,1.441-.248l.042-.071m-4.251-3.66c-.268.027-.505.046-.74.076-.316.04-.632.087-.947.134-.091.013-.159.046-.122.162.187.59.378,1.179.555,1.772.151.506.289,1.016.429,1.525.1.356.186.714.283,1.07.049.183.087.2.274.157.351-.077.7-.15,1.055-.226.267-.057.534-.117.8-.175.086-.019.13-.065.1-.156q-.085-.3-.173-.59a.136.136,0,0,0-.177-.105c-.326.064-.654.12-.979.191-.108.024-.153-.009-.18-.1q-.135-.465-.272-.93c-.059-.2-.1-.207.168-.252.027-.005.054-.005.081-.009.207-.033.415-.064.621-.1.1-.017.137-.069.092-.174a3.967,3.967,0,0,1-.153-.424c-.037-.122-.11-.151-.228-.133-.248.038-.5.065-.745.1a.143.143,0,0,1-.189-.118c-.082-.265-.178-.525-.271-.787-.06-.169-.062-.172.119-.2.284-.038.57-.07.855-.1.13-.016.15-.046.1-.168-.037-.088-.085-.172-.117-.262-.047-.133-.12-.214-.242-.178m-6.652,5.365c-.005-.066-.007-.148-.017-.229-.062-.511-.128-1.022-.188-1.534-.039-.321-.053-.646-.109-.964a.549.549,0,0,0-.848-.449c-.335.152-.652.343-.977.518a.236.236,0,0,0-.118.229A18.462,18.462,0,0,0,42,44.32c.032.171.058.186.228.135.223-.067.445-.135.668-.2a1.355,1.355,0,0,0,.83-.559,1.65,1.65,0,0,0,.218-.88M48,41.078a.928.928,0,0,1-.051-.089q-.366-.919-.73-1.84c-.118-.3-.233-.593-.352-.888-.032-.078-.073-.152-.183-.118-.178.055-.358.1-.536.16-.151.047-.162.083-.1.228.189.458.374.919.565,1.377.4.953.8,1.906,1.192,2.86a.164.164,0,0,0,.222.116c.225-.058.452-.108.679-.159.18-.04.207-.075.2-.262-.05-.746-.1-1.492-.151-2.238-.056-.777-.119-1.555-.18-2.332-.011-.14-.048-.165-.186-.137l-.414.085c-.224.046-.23.046-.21.277.079.908.161,1.816.241,2.724.006.064,0,.129,0,.236m-3.653.731c0,.607,0,1.214,0,1.82,0,.166.054.2.215.156.127-.036.252-.083.381-.109a.169.169,0,0,0,.15-.2c-.008-.187,0-.375-.022-.561-.017-.148.047-.2.176-.236.212-.053.425-.107.631-.179.12-.042.164,0,.2.1.065.184.141.365.21.548a.162.162,0,0,0,.212.118l.463-.121c.224-.056.242-.1.154-.31-.325-.777-.651-1.554-.966-2.336-.239-.595-.463-1.2-.69-1.8-.044-.118-.109-.155-.229-.108-.186.073-.376.137-.564.207a.2.2,0,0,0-.135.185,21.875,21.875,0,0,0-.189,2.824m4.207,9.6A8.312,8.312,0,1,1,56.9,43.146a8.171,8.171,0,0,1-8.341,8.262M48.6,34.033a9.067,9.067,0,1,0,9.057,9.159A9.067,9.067,0,0,0,48.6,34.033m10.488,9.06a10.589,10.589,0,0,1-3.13,7.423,10.457,10.457,0,0,1-17.818-7.465A10.435,10.435,0,0,1,48.652,32.642,10.137,10.137,0,0,1,55.976,35.7a10.583,10.583,0,0,1,3.108,7.39" transform="translate(0.39)"/></svg>