<svg xmlns="http://www.w3.org/2000/svg" viewBox="0 0 97.219 86.203"><path d="M63.276,39.426A5.1,5.1,0,1,0,71.8,43.112a5.2,5.2,0,0,0-1.458-3.675,4.827,4.827,0,0,0-7.061-.011M57.5,43.445h3.365V41.863H57.5V39.655h3.664V38.062H55.917V48.151H61.17V46.558H57.5V43.445ZM35.94,38.062H34.361V48.151H35.94ZM27.46,48.151A5.687,5.687,0,0,0,31.5,46.87a5.325,5.325,0,0,0-.04-7.589,5.794,5.794,0,0,0-3.981-1.219H25.424V48.151Zm15.58-2.207.883,2.207H45.67l-4.1-10.12h-.794l-4.211,10.12H38.3l.924-2.249c.019-.062.029-.1.039-.146.04.021.1.042.169.073a4.754,4.754,0,0,0,1.738.323A4.871,4.871,0,0,0,42.7,45.9a1.352,1.352,0,0,0,.288-.125c.01.042.039.136.05.167m10.177-4.8,1.2-1.083a4.787,4.787,0,0,0-4.04-2.165,5.211,5.211,0,0,0-.07,10.411,4.728,4.728,0,0,0,3.565-1.686,4.11,4.11,0,0,0,.844-1.666,6.282,6.282,0,0,0,.169-1.885l-.021-.3H50.537v1.593H53.2a2.422,2.422,0,0,1-.914,1.614,2.98,2.98,0,0,1-2,.739A3.213,3.213,0,0,1,47.935,45.6a3.484,3.484,0,0,1-.973-2.467A3.653,3.653,0,0,1,48,40.519a3.121,3.121,0,0,1,2.363-1.03,3.375,3.375,0,0,1,2.859,1.655m16-.6a3.518,3.518,0,0,1,1,2.561,3.611,3.611,0,0,1-1,2.561A3.217,3.217,0,0,1,66.8,46.714,3.514,3.514,0,0,1,63.4,43.1a3.632,3.632,0,0,1,1-2.571,3.181,3.181,0,0,1,2.4-1.041,3.249,3.249,0,0,1,2.413,1.051m-41.7-.885a4.166,4.166,0,0,1,2.9.844,3.358,3.358,0,0,1,1.072,2.6,3.409,3.409,0,0,1-1.033,2.551,4.039,4.039,0,0,1-2.939.906h-.436v-6.9Zm12.323,4.7c.03-.063.08-.167.1-.219l1.212-3.082,1.191,3.113c.02.052.06.136.09.208l-.149.032a4.041,4.041,0,0,1-2.224,0,1.064,1.064,0,0,0-.219-.052"/></svg>