<svg xmlns="http://www.w3.org/2000/svg" viewBox="0 0 97.219 86.203"><path d="M27.578,51.577c.1.186.2.141.271.041a4.748,4.748,0,0,0,.507-4.582c-.023-.05-.046-.1-.081-.1s-.048.064-.049.077a5.872,5.872,0,0,1-1.311,2.864.3.3,0,0,0-.058.33Z" fill="#aeb0b3"/><path d="M35.041,37.128c-.038-.356-.226-.35-.4-.236a8.1,8.1,0,0,0-3.767,6.872c0,.093.008.185.063.207.07.016.117-.069.127-.091a10.083,10.083,0,0,1,3.917-3.665.515.515,0,0,0,.3-.481Z" fill="#aeb0b3"/><path d="M21.984,47.3c-.17.267-.037.364.145.379a7.294,7.294,0,0,0,6.414-2.712c.048-.066.1-.132.071-.177s-.12-.015-.138-.006a9.04,9.04,0,0,1-4.741.414.459.459,0,0,0-.475.168Z" fill="#aeb0b3"/><path d="M24.355,42.043c-.855-.766-2.588-1.96-3.552-.49-.67,1.068.186,2.4,1.483,2.833a12.782,12.782,0,0,0,5.358.375c.118-.019.159-.04.174-.094s-.023-.086-.083-.115a16.7,16.7,0,0,1-3.38-2.509" fill="#aeb0b3"/><path d="M25.816,48.179c-.488.187-1.052.565-.681,1.164a.832.832,0,0,0,1.291-.04c.673-.713.764-1.458.6-1.595s-.59.231-1.214.471" fill="#aeb0b3"/><path d="M28.74,43.5c.087-.052.043-.285.021-.5a5.389,5.389,0,0,1,.558-3.235,6.364,6.364,0,0,0,1-3.8,2.331,2.331,0,0,0-3.129-1.6c-1.722.5-1.763,2.575-1.645,3.486a9.854,9.854,0,0,0,2.691,5.358c.2.186.4.353.5.294" fill="#aeb0b3"/><path d="M25.111,40.446,23.468,39.7c-.156-.078-.227,0-.145.126l1.067,1.463c.106.142.155.23.317.291L25.929,42c.163.054.2-.007.128-.127l-.591-1.086a.684.684,0,0,0-.355-.343" fill="#aeb0b3"/><path d="M40.953,45.589a3.421,3.421,0,0,0-.933-.163c-.884,0-1.3.478-1.3,1.06a1.013,1.013,0,0,0,1.056,1.136,1.245,1.245,0,0,0,.926-.356,1.31,1.31,0,0,0,.254-.886Zm1.588,2.405a1.748,1.748,0,0,1-.678.176.765.765,0,0,1-.825-.478,1.983,1.983,0,0,1-1.444.571,1.668,1.668,0,0,1-1.85-1.735c0-1.164.843-1.737,2.107-1.737a4.018,4.018,0,0,1,1.1.2v-.228a1.3,1.3,0,0,0-.225-.876,1.278,1.278,0,0,0-.986-.412,3.068,3.068,0,0,0-1.491.306V43.1a3.45,3.45,0,0,1,1.56-.263,2.364,2.364,0,0,1,1.7.578,1.663,1.663,0,0,1,.419,1.237v2.492a.306.306,0,0,0,.333.339.845.845,0,0,0,.282-.077Z"/><path d="M54.548,41.439a2.7,2.7,0,0,0-.809-.128.658.658,0,0,0-.589.244,1.191,1.191,0,0,0-.139.677v.733h1.378l-.19.643H53.011v4.523h-.973V43.608h-.823v-.643h.823v-.652a1.676,1.676,0,0,1,.362-1.222,1.431,1.431,0,0,1,1.168-.418,3.4,3.4,0,0,1,.98.158Z"/><path d="M45.918,41.439a2.7,2.7,0,0,0-.809-.128.658.658,0,0,0-.589.244,1.181,1.181,0,0,0-.14.677v.733h1.379l-.19.643H44.38v4.523h-.972V43.608h-.823v-.643h.823v-.652a1.676,1.676,0,0,1,.362-1.222,1.429,1.429,0,0,1,1.167-.418,3.4,3.4,0,0,1,.981.158Z"/><path d="M74.221,43.043a3.7,3.7,0,0,0-1.3-.208c-.791,0-1.928.254-1.928,1.345s1.255,1.408,1.69,1.573,1.081.375.984,1.1c-.062.457-.331.773-1.026.767a3.838,3.838,0,0,1-1.539-.264v.682a6.062,6.062,0,0,0,1.57.224c.834,0,1.971-.328,1.971-1.537s-1.23-1.431-1.8-1.68-.878-.417-.878-.9c0-.338.239-.673,1.029-.673a3.78,3.78,0,0,1,1.22.224Z"/><path d="M56.892,43.474c-.909,0-1.354.647-1.354,2.079s.445,2.069,1.354,2.069,1.354-.637,1.354-2.069-.445-2.079-1.354-2.079m0,4.79c-1.431,0-2.327-.972-2.327-2.711s.9-2.72,2.327-2.72,2.327.983,2.327,2.72-.9,2.711-2.327,2.711"/><path d="M62.3,43.474c-.909,0-1.354.647-1.354,2.079s.445,2.069,1.354,2.069,1.354-.637,1.354-2.069-.445-2.079-1.354-2.079m0,4.79c-1.431,0-2.327-.972-2.327-2.711s.9-2.72,2.327-2.72,2.328.983,2.328,2.72-.9,2.711-2.328,2.711"/><path d="M47.924,46.538a1.239,1.239,0,0,0,.16.708.639.639,0,0,0,.573.245,3.055,3.055,0,0,0,.532-.086v.589a3.363,3.363,0,0,1-.817.177,1.463,1.463,0,0,1-1.127-.428,1.673,1.673,0,0,1-.283-1.141V43.608h-.941l.187-.643h.754V41.6l.962-.283v1.645h1.265v.643H47.924Z"/><path d="M37.549,43.711a1.28,1.28,0,0,0-1.253.431,1.721,1.721,0,0,0-.29,1.142v2.847h-.97V43.607h-.689v-.64h1.285l.193.741a1.7,1.7,0,0,1,1.724-.8Z"/><path d="M31.2,44.669l1.331-1.7h1.05l-1.53,2.015a.053.053,0,0,0,0,.057l1.214,2.071c.165.3.322.415.545.413a.894.894,0,0,0,.319-.112l.005.586a1.509,1.509,0,0,1-.656.176,1.15,1.15,0,0,1-1.111-.657l-1.262-2.2h-.748v2.825H29.3V40.651h1.052v4.018Z"/><path d="M69,43.79a1.434,1.434,0,0,0-.885-.315c-1.2,0-1.752.7-1.752,2.243,0,1.112.309,1.9,1.315,1.9a1.175,1.175,0,0,0,1.136-.642A2.185,2.185,0,0,0,69,45.988Zm.063,3.92a1.924,1.924,0,0,1-1.461.556c-1.519,0-2.219-1.09-2.219-2.5a3.152,3.152,0,0,1,.754-2.214,2.6,2.6,0,0,1,1.912-.712,1.8,1.8,0,0,1,.951.273V40.921l.985-.249v6.389c0,.334.116.4.284.4a1.234,1.234,0,0,0,.284-.055v.556a1.14,1.14,0,0,1-.811.216.748.748,0,0,1-.679-.467"/><path d="M48.879,48.848c-.036-.016-.084,0-.22.067-.895.445-3.481,1.823-9.377,1.823S30.8,49.36,29.906,48.915c-.136-.066-.183-.083-.22-.067-.054.029.1.185.1.185.774.788,4.2,2.942,9.5,2.942s8.724-2.154,9.5-2.942c0,0,.153-.156.1-.185" fill="#aeb0b3"/></svg>