<svg xmlns="http://www.w3.org/2000/svg" xmlns:xlink="http://www.w3.org/1999/xlink" viewBox="0 0 97.219 86.203"><rect width="97.219" height="86.203" fill="none"/><rect x="23.262" y="35.633" width="1.873" height="10.66"/><path d="M29.906,40.365a2.163,2.163,0,1,1-2.137,2.163,2.145,2.145,0,0,1,2.137-2.163m.022-1.806a3.971,3.971,0,1,0,4.049,3.954,3.958,3.958,0,0,0-4.049-3.954"/><path d="M38.66,40.365a2.163,2.163,0,1,1-2.137,2.163,2.145,2.145,0,0,1,2.137-2.163m.022-1.806a3.971,3.971,0,1,0,4.049,3.954,2.99,2.99,0,0,0-.611-2.035l.519-.178V38.78H39.98a4.024,4.024,0,0,0-1.3-.221"/><path d="M40.828,46.814a2.161,2.161,0,1,1-4.322,0h-1.9a4.057,4.057,0,0,0,8.112,0Z"/><rect x="43.48" y="38.78" width="1.873" height="7.512"/><polygon points="47.171 46.293 47.171 40.464 46.167 40.464 46.167 38.781 47.171 38.781 47.171 36.474 49.044 36.474 49.044 38.781 50.075 38.781 50.075 40.464 49.044 40.464 49.044 46.293 47.171 46.293"/><path d="M45.653,36.647a1.24,1.24,0,1,1-1.24-1.24,1.24,1.24,0,0,1,1.24,1.24"/><path d="M54.226,40.2a1.861,1.861,0,0,1,1.942,1.564H52.246a1.955,1.955,0,0,1,1.98-1.564m.059-1.649a3.889,3.889,0,0,0-3.967,4.032,3.772,3.772,0,0,0,4.006,3.92,4.444,4.444,0,0,0,3.4-1.425l-1.252-1.254a3.333,3.333,0,0,1-2.128,1.02A2.025,2.025,0,0,1,52.3,43.286h5.835v-.515c0-2.058-1.191-4.217-3.847-4.217"/><path d="M62.816,46.507a3.978,3.978,0,1,1-.008-7.954,4.118,4.118,0,0,1,3.211,1.5l-1.306,1.3a2.674,2.674,0,0,0-1.914-.977,2.161,2.161,0,0,0-.014,4.321,2.667,2.667,0,0,0,1.926-.976l1.319,1.3a4.1,4.1,0,0,1-3.214,1.488"/><path d="M66.711,46.3V35.6h1.873v3.929a2.862,2.862,0,0,1,2.276-.981,3.048,3.048,0,0,1,3.1,3.321V46.3H72.085V42.157a1.581,1.581,0,0,0-1.644-1.772,1.727,1.727,0,0,0-1.857,1.869V46.3Z"/></svg>