<svg xmlns="http://www.w3.org/2000/svg" xmlns:xlink="http://www.w3.org/1999/xlink" viewBox="0 0 97.219 86.203"><defs><clipPath id="a"><rect x="18.074" y="34.199" width="61.071" height="17.805" fill="none"/></clipPath></defs><g><rect width="97.219" height="86.203" fill="none"/><g clip-path="url(#a)"><path d="M64.643,40.923a4.309,4.309,0,1,0,0,3.763l.614-.014a4.859,4.859,0,1,1-.01-3.759Z"/><path d="M50.619,38.495A4.309,4.309,0,1,0,54.975,42.8a4.333,4.333,0,0,0-4.356-4.309m0-.549a4.911,4.911,0,0,1,4.36,2.625V38.193h.554v9.5h-.554V45.037a4.9,4.9,0,1,1-4.36-7.091"/><path d="M41.622,37.979a3.65,3.65,0,0,0-3.39,2.274,3.666,3.666,0,0,0-6.5-.543V38.193h-.554v9.5h.554v-6.42a3.133,3.133,0,0,1,6.228.036v6.384h.553V41.3a3.13,3.13,0,0,1,6.238.131h-.009v6.253h.553V41.435h-.022a3.635,3.635,0,0,0-3.646-3.456"/><polygon points="72.415 38.195 68.882 46.814 65.385 38.195 64.803 38.195 68.582 47.545 67.164 51.004 67.779 51.004 73.044 38.195 72.415 38.195"/><path d="M77.854,40.179a2.154,2.154,0,0,0-.664-1.534,2.473,2.473,0,0,0-1.727-.717,2.267,2.267,0,0,0-2.276,2.251c0,1.207.58,1.856,2.146,2.4,1.632.609,2.362,1.333,2.362,2.349a2.308,2.308,0,0,1-3.959,1.606,3.014,3.014,0,0,1-.823-2.015l-.508,0a3.506,3.506,0,0,0,.97,2.363,2.8,2.8,0,0,0,2,.846,2.83,2.83,0,0,0,2-.82,2.777,2.777,0,0,0,.774-1.417V44.4c-.289-1.273-1.614-1.914-2.64-2.3-1.356-.468-1.811-.953-1.811-1.926a1.732,1.732,0,0,1,.518-1.238,1.767,1.767,0,0,1,1.25-.51A1.961,1.961,0,0,1,76.831,39a1.66,1.66,0,0,1,.516,1.18Z"/><polygon points="72.725 36.04 73.626 36.04 73.902 35.199 74.178 36.04 75.076 36.04 74.349 36.562 74.627 37.406 73.9 36.884 73.177 37.404 73.455 36.563 72.725 36.04"/><polygon points="29.337 41.767 25.534 41.767 24.179 37.791 22.841 41.767 19.074 41.767 22.067 43.874 20.903 47.525 24.207 45.426 27.49 47.508 26.322 43.858 29.337 41.767"/></g></g></svg>