<svg xmlns="http://www.w3.org/2000/svg" xmlns:xlink="http://www.w3.org/1999/xlink" viewBox="0 0 98.306 86.459"><defs><clipPath id="a" transform="translate(0 0.255)"><rect x="23.945" y="31.292" width="51.502" height="24.129" fill="none"/></clipPath></defs><g clip-path="url(#a)"><path d="M49.7,52.839a9.483,9.483,0,1,1,9.32-9.482,9.415,9.415,0,0,1-9.32,9.482M64.35,47.7H59.69a11.853,11.853,0,0,0,.6-1.841h5.882l1.556-1.583H60.532c.024-.307.04-.614.04-.921s-.016-.613-.04-.92h9l1.555-1.583h-10.8a10.4,10.4,0,0,0-.6-1.842h13.2l1.556-1.583H58.865a10.759,10.759,0,0,0-18.345,0H24.946l1.548,1.583H39.7a11.9,11.9,0,0,0-.595,1.842H28.3l1.548,1.583h9.01c-.024.307-.04.613-.04.92s.016.614.04.921H31.669l1.548,1.583H39.1a10.361,10.361,0,0,0,.6,1.841H35.027l1.548,1.583h3.937a10.758,10.758,0,0,0,18.345,0h3.937Zm-7.216-1.841H56.118v-5h1.016Zm-5.294,0h-.977v-5h1.2l1.961,3.626V40.862H55v5H53.8l-1.96-3.61Zm-2.1,0H48.728v-5h1.016Zm-6.525,0h-.961v-5h1.429l1.255,4,1.246-4h1.429v5h-.993V42.154l-1.151,3.707H44.4L43.219,42.13Z" transform="translate(0 0.255)"/><rect x="1.087" width="97.219" height="86.203" fill="none"/></g><g opacity="0.5"><rect y="0.255" width="97.219" height="86.203" fill="none"/></g></svg>