<svg xmlns="http://www.w3.org/2000/svg" xmlns:xlink="http://www.w3.org/1999/xlink" viewBox="0 0 98.306 86.56"><defs><clipPath id="a" transform="translate(0.39)"><rect x="23.555" y="31.649" width="51.502" height="24.129" fill="none"/></clipPath></defs><g clip-path="url(#a)"><path d="M49.31,53.2a9.483,9.483,0,1,1,9.318-9.645c0,.054,0,.108,0,.163A9.417,9.417,0,0,1,49.31,53.2m14.649-5.139H59.3a11.816,11.816,0,0,0,.6-1.841h5.882l1.556-1.583H60.142c.024-.307.04-.614.04-.921s-.016-.613-.04-.92h9L70.7,41.209H59.9a10.4,10.4,0,0,0-.6-1.842H72.5l1.556-1.583H58.475a10.758,10.758,0,0,0-18.345,0H24.556L26.1,39.367H39.31a11.637,11.637,0,0,0-.595,1.842H27.91l1.548,1.583h9.01c-.024.307-.04.613-.04.92s.016.613.04.921H31.279l1.547,1.583h5.883a10.45,10.45,0,0,0,.6,1.841H34.637l1.548,1.583h3.937a10.759,10.759,0,0,0,18.345,0H62.4Zm-7.216-1.841H55.728v-5h1.015Zm-5.293,0h-.978v-5h1.2l1.96,3.626V41.219h.977v5h-1.2l-1.96-3.61Zm-2.1,0H48.338v-5h1.016Zm-6.525,0h-.961v-5h1.429l1.255,4,1.246-4h1.429v5H46.23v-3.7l-1.151,3.707H44.01l-1.181-3.731Z" transform="translate(0.39)"/><rect x="1.087" y="0.102" width="97.219" height="86.203" fill="none"/></g><g opacity="0.5"><rect y="0.357" width="97.219" height="86.203" fill="none"/></g><rect x="0.39" width="97.219" height="86.203" fill="none"/></svg>