<svg xmlns="http://www.w3.org/2000/svg" xmlns:xlink="http://www.w3.org/1999/xlink" viewBox="0 0 97.61 86.56"><defs><clipPath id="a" transform="translate(0.39)"><rect x="29.835" y="35.194" width="37.549" height="13.814" fill="none"/></clipPath><clipPath id="b" transform="translate(0.39)"><rect x="34.89" y="36.765" width="9.493" height="12.178" fill="none"/></clipPath><clipPath id="c" transform="translate(0.39)"><rect x="37.417" y="38.582" width="8.22" height="10.361" fill="none"/></clipPath><clipPath id="d" transform="translate(0.39)"><rect x="32.362" y="35.194" width="10.781" height="13.749" fill="none"/></clipPath><clipPath id="e" transform="translate(0.39)"><rect x="29.835" y="36.888" width="9.637" height="12.055" fill="none"/></clipPath><clipPath id="f" transform="translate(0.39)"><rect x="35.973" y="36.889" width="9.624" height="12.054" fill="none"/></clipPath><clipPath id="g" transform="translate(0.39)"><rect x="39.636" y="35.194" width="11.012" height="13.749" fill="none"/></clipPath><clipPath id="h" transform="translate(0.39)"><rect x="38.445" y="36.751" width="9.678" height="12.192" fill="none"/></clipPath></defs><g opacity="0.5"><rect y="0.357" width="97.219" height="86.203" fill="none"/></g><rect x="0.39" width="97.219" height="86.203" fill="none"/><g clip-path="url(#a)"><path d="M50.529,42.7c.3,0,.535-.062.535-.648V39.534l-.445-.023V39.32l1.362.022.874,2.393h.005l.884-2.393,1.346-.022v.191l-.456.023v3.141l.456.023v.192c-.225,0-.648-.023-.873-.023s-.625.023-.851.023V42.7l.451-.023V39.781h-.011l-1.109,3.1h-.276l-1.121-3.1h-.012V42.05c0,.586.221.648.581.648v.192c-.282,0-.446-.023-.67-.023s-.39.023-.67.023Z" transform="translate(0.39)"/><path d="M57.105,41.589c0-.766-.152-1.183-.551-1.183s-.547.417-.547,1.183.158,1.182.547,1.182.551-.411.551-1.182m-1.92.028a1.3,1.3,0,0,1,1.369-1.4,1.253,1.253,0,0,1,1.374,1.346,1.289,1.289,0,0,1-1.374,1.4,1.247,1.247,0,0,1-1.369-1.346" transform="translate(0.39)"/><path d="M58.405,40.812c0-.31-.095-.31-.383-.31v-.191l1.126-.057V41.8c0,.541.012.816.361.816.276,0,.625-.326.625-.878v-.929c0-.31-.13-.31-.378-.31v-.191l1.121-.057v2.411l.383.011v.191l-1.081.056-.017-.5h-.006a1.054,1.054,0,0,1-.94.53c-.591,0-.811-.3-.811-.946Z" transform="translate(0.39)"/><path d="M62.876,42.7v.192c-.27,0-.417-.023-.743-.023s-.479.023-.754.023V42.7l.382-.028V40.8c0-.3-.1-.3-.382-.3V40.31l1.08-.056.012.49h.005a1.064,1.064,0,0,1,.941-.535c.472,0,.81.288.81,1V42.67l.389.028v.192c-.276,0-.428-.023-.755-.023s-.467.023-.743.023V42.7l.372-.028v-1.3c0-.608-.068-.828-.366-.828-.276,0-.619.327-.619.879v1.25Z" transform="translate(0.39)"/><path d="M65.646,42.141c-.011.349,0,.54.231.54.209,0,.327-.3.327-.3l.18.068a.7.7,0,0,1-.71.518c-.692,0-.765-.378-.765-.817V40.531h-.423v-.22h.423v-.94a2.526,2.526,0,0,0,.737-.107v1.047h.631v.22h-.631Z" transform="translate(0.39)"/><path d="M50.985,46.583c.045.253.411,1.211,1.148,1.211.462,0,.648-.259.648-.552,0-1.042-1.942-.462-1.942-1.887a1.107,1.107,0,0,1,1.2-1.114,2.783,2.783,0,0,1,.8.152c.1,0,.124-.124.124-.124h.186c0,.186-.012.321-.012.5,0,.265.012.417.012.6h-.186c-.045-.248-.366-.935-.969-.935a.514.514,0,0,0-.568.5c0,.957,2,.406,2,1.915,0,.828-.625,1.16-1.312,1.16a3.188,3.188,0,0,1-1.009-.2c-.118,0-.14.135-.14.135h-.186c0-.27.017-.433.017-.7s-.017-.422-.017-.653Z" transform="translate(0.39)"/><path d="M54.4,43.914a.429.429,0,1,1-.456.428.425.425,0,0,1,.456-.428" transform="translate(0.39)"/><path d="M55.146,47.7V47.9c-.271,0-.428-.022-.755-.022s-.478.022-.754.022V47.7l.383-.028V45.818c0-.31-.1-.31-.383-.31v-.192l1.126-.056v2.416Z" transform="translate(0.39)"/><path d="M56.762,47.7V47.9c-.271,0-.417-.023-.744-.023s-.478.023-.754.023V47.7l.383-.028v-1.87c0-.3-.1-.3-.383-.3v-.192l1.081-.056.012.49h.005a1.06,1.06,0,0,1,.94-.535c.473,0,.811.288.811,1v1.464l.389.028V47.9c-.276,0-.428-.023-.755-.023S57.28,47.9,57,47.9V47.7l.372-.028v-1.3c0-.608-.068-.828-.366-.828-.276,0-.62.327-.62.879v1.25Z" transform="translate(0.39)"/><path d="M60.213,46.622c-.7-.011-.855.174-.855.529,0,.333.129.5.366.5.219,0,.467-.191.478-.6Zm1.29.839a.632.632,0,0,1-.659.512.58.58,0,0,1-.6-.394H60.23a.8.8,0,0,1-.771.417.764.764,0,0,1-.861-.772c0-.732.861-.8,1.627-.794v-.275c.016-.451-.023-.749-.389-.749a.472.472,0,0,0-.434.2.286.286,0,0,1,.125.259.34.34,0,0,1-.378.337.347.347,0,0,1-.377-.36c0-.4.512-.625,1.121-.625.985,0,1.069.558,1.058,1.087l-.028,1.064c-.006.175.05.293.174.293.164,0,.22-.242.22-.242Z" transform="translate(0.39)"/><path d="M62.268,43.914a.429.429,0,1,1-.456.428.426.426,0,0,1,.456-.428" transform="translate(0.39)"/><path d="M63.017,47.7V47.9c-.27,0-.428-.022-.754-.022s-.479.022-.755.022V47.7l.383-.028V45.818c0-.31-.1-.31-.383-.31v-.192l1.126-.056v2.416Z" transform="translate(0.39)"/><g opacity="0.5"><g clip-path="url(#b)"><polygon points="37.708 47.943 36.28 47.943 43.015 37.766 43.773 38.863 37.708 47.943"/></g></g><g opacity="0.5"><g clip-path="url(#c)"><polygon points="40.235 47.943 38.807 47.943 44.269 39.583 45.027 40.681 40.235 47.943"/></g></g><g opacity="0.5"><g clip-path="url(#d)"><path d="M41.707,36.437h0c-.049-.071-.133-.243-.319-.243s-.271.177-.32.243L33.362,47.943h1.429l7.352-10.875Z" transform="translate(0.39)"/></g></g><g opacity="0.5"><g clip-path="url(#e)"><path d="M38.045,38.13h0c-.049-.071-.133-.242-.32-.242s-.27.176-.319.242l-6.571,9.812h1.428l6.209-9.169Z" transform="translate(0.39)"/></g></g><g opacity="0.5"><g clip-path="url(#f)"><path d="M38.043,38.131h0c-.049-.07-.133-.242-.319-.242s-.271.176-.32.242l-.432.646,6.2,9.166H44.6Z" transform="translate(0.39)"/></g></g><g opacity="0.5"><g clip-path="url(#g)"><path d="M41.706,36.437h0c-.049-.071-.133-.243-.319-.243s-.271.177-.32.243l-.431.646,7.584,10.86h1.428Z" transform="translate(0.39)"/></g></g><polygon points="43.772 38.864 43.014 37.766 42.279 38.877 43.038 39.963 43.772 38.864"/><polygon points="45.026 40.681 44.268 39.583 43.545 40.69 44.304 41.776 45.026 40.681"/><g opacity="0.5"><g clip-path="url(#h)"><polygon points="46.085 47.943 47.513 47.943 40.584 37.751 39.836 38.862 46.085 47.943"/></g></g><path d="M41.706,36.437h0c-.049-.071-.133-.243-.319-.243a.286.286,0,0,0-.067.008c-.143.035-.209.177-.252.235h0l-.391.582-.042.064.76,1.089.746-1.1Z" transform="translate(0.39)"/><polygon points="40.584 37.75 39.836 38.861 40.585 39.95 41.33 38.847 40.584 37.75"/><polygon points="41.834 41.766 42.567 40.668 41.821 39.57 41.086 40.68 41.834 41.766"/><polygon points="43.099 43.603 43.819 42.51 43.074 41.412 42.352 42.517 43.099 43.603"/><path d="M38.044,38.131c-.049-.07-.133-.242-.32-.242a.351.351,0,0,0-.066.007c-.143.036-.209.177-.252.235l-.433.646.748,1.107.752-1.111-.006-.008Z" transform="translate(0.39)"/><polygon points="40.114 40.646 39.378 39.544 38.634 40.656 39.37 41.746 40.114 40.646"/><polygon points="41.348 42.494 40.614 41.395 39.881 42.502 40.616 43.59 41.348 42.494"/><polygon points="42.597 44.363 41.863 43.264 41.143 44.367 41.877 45.454 42.597 44.363"/></g></svg>