<svg xmlns="http://www.w3.org/2000/svg" xmlns:xlink="http://www.w3.org/1999/xlink" viewBox="0 0 97.219 86.203"><defs><clipPath id="a"><rect x="20.847" y="38.183" width="55.524" height="9.838" fill="none"/></clipPath></defs><g><rect width="97.219" height="86.203" fill="none"/><g clip-path="url(#a)"><path d="M23.819,43.3c0,.946.1,2.24,1.367,2.24,1.232,0,1.366-1.222,1.366-2.177s-.093-2.291-1.346-2.291-1.387,1.252-1.387,2.228m3.842-2.69a4.251,4.251,0,0,1,.863,2.68,4.467,4.467,0,0,1-.729,2.578,3.2,3.2,0,0,1-2.578,1.151,3.2,3.2,0,0,1-2.558-1.027,4.9,4.9,0,0,1-.092-5.259,3.233,3.233,0,0,1,2.557-1.14,3.141,3.141,0,0,1,2.537,1.017"/><path d="M31.268,44.945c0,.133-.041.719.185.719.1,0,.205-.072.338-.072.34,0,.453.277.453.585,0,.391-.175.709-.606.709s-.852-.1-1.274-.1c-.39,0-.78.092-1.12.1-.39,0-.564-.318-.564-.709,0-.308.113-.585.451-.585.134,0,.237.072.339.072.227,0,.186-.586.186-.719v-1.88c0-.359.02-.4-.35-.4-.4,0-.626-.093-.626-.544,0-.422.154-.607.575-.607.318,0,.4.031.411-.338.041-1.119,1.006-1.582,2.023-1.582a2.472,2.472,0,0,1,1.058.215,1.065,1.065,0,0,1,.616.914.757.757,0,0,1-.77.8.662.662,0,0,1-.7-.605.471.471,0,0,1,.093-.277.457.457,0,0,0-.2-.042c-.381,0-.514.226-.514.586,0,.328.021.328.349.328.431,0,.729.021.729.556,0,.472-.195.595-.647.595-.421,0-.431-.02-.431.4Z"/><path d="M35.338,44.945c0,.133-.04.719.185.719.1,0,.206-.072.34-.072.338,0,.452.277.452.585,0,.391-.175.709-.607.709s-.852-.1-1.274-.1c-.389,0-.78.092-1.119.1-.39,0-.565-.318-.565-.709,0-.308.113-.585.453-.585.133,0,.235.072.338.072.226,0,.186-.586.186-.719v-1.88c0-.359.02-.4-.35-.4-.4,0-.627-.093-.627-.544,0-.422.155-.607.575-.607.319,0,.4.031.411-.338.042-1.119,1.007-1.582,2.024-1.582a2.475,2.475,0,0,1,1.058.215,1.065,1.065,0,0,1,.616.914.757.757,0,0,1-.77.8.662.662,0,0,1-.7-.605.471.471,0,0,1,.093-.277.458.458,0,0,0-.206-.042c-.38,0-.514.226-.514.586,0,.328.021.328.35.328.431,0,.729.021.729.556,0,.472-.2.595-.647.595-.421,0-.432-.02-.432.4Z"/><path d="M39.544,40.148a.966.966,0,1,1-.966-.965.964.964,0,0,1,.966.965m-.051,4.8c-.01.133-.051.719.175.719.1,0,.2-.072.337-.072.34,0,.453.277.453.585,0,.391-.175.709-.606.709s-.852-.1-1.274-.1c-.391,0-.78.092-1.149.1-.432,0-.606-.318-.606-.709,0-.308.112-.585.452-.585.133,0,.235.072.338.072.226,0,.185-.586.185-.719V43.466c0-.134.041-.719-.185-.719-.1,0-.2.072-.338.072-.34,0-.452-.277-.452-.586,0-.39.174-.709.614-.709.289,0,.567.1.844.1.308,0,.606-.1.9-.1s.308.288.308.525Z"/><path d="M42.936,42.716c-.76,0-1.027.8-1.027,1.438a2,2,0,0,0,.257,1.028,1.1,1.1,0,0,0,.852.452c.473,0,.627-.257.792-.648.072-.174.092-.287.257-.39a.788.788,0,0,1,.451-.123.75.75,0,0,1,.8.76,1.651,1.651,0,0,1-.676,1.243,2.611,2.611,0,0,1-1.684.544A2.664,2.664,0,0,1,41,46.291a2.992,2.992,0,0,1-.78-2.064,2.635,2.635,0,0,1,2.824-2.856c.955,0,2.146.452,2.146,1.592a.914.914,0,0,1-.966.9c-.42,0-.821-.2-.821-.668a.465.465,0,0,1,.1-.308.824.824,0,0,0-.565-.175"/><path d="M48.543,43.344c.164,0,.36.051.36-.176a.674.674,0,0,0-.216-.44.832.832,0,0,0-.555-.2.856.856,0,0,0-.7.277c-.093.092-.257.256-.257.39,0,.2.318.144.431.144Zm-.956,1.14c-.205,0-.462-.062-.462.215a1.024,1.024,0,0,0,1.058,1.027c.874,0,.812-.811,1.613-.811a.643.643,0,0,1,.709.646A1.313,1.313,0,0,1,49.8,46.61a3.113,3.113,0,0,1-1.632.411,2.6,2.6,0,0,1-2.734-2.794,2.633,2.633,0,0,1,2.691-2.856,2.517,2.517,0,0,1,1.737.565,2.476,2.476,0,0,1,.739,1.787c0,.607-.062.761-.678.761Z"/><path d="M56.966,40.662c.093-.379.2-.934.78-.924.524,0,1.038.1,1.561.1.371,0,.884-.1,1.408-.1a.707.707,0,0,1,.718.781c0,.308-.184.688-.533.688-.154,0-.3-.072-.463-.072-.308,0-.256.636-.256.832v2.691c0,.2-.052.832.256.832.165,0,.309-.072.463-.072.349,0,.533.38.533.688a.707.707,0,0,1-.718.781c-.442,0-.884-.1-1.242-.1-.453,0-.895.1-1.337.1-.39,0-.565-.339-.565-.781,0-.308.124-.688.36-.688.1,0,.205.072.318.072.216,0,.186-.637.186-.832V41.114l-1.418,4.869a1.742,1.742,0,0,1-.257.585c-.144.206-.3.206-.533.206h-.351c-.625,0-.656-.186-.8-.791L53.7,41.114v3.544c0,.2-.02.832.2.832.113,0,.215-.072.318-.072.236,0,.36.38.36.688,0,.442-.176.781-.494.781-.441,0-.882-.1-1.242-.1-.452,0-.894.1-1.335.1a.728.728,0,0,1-.8-.781c0-.308.184-.688.534-.688.154,0,.3.072.461.072.309,0,.258-.637.258-.832V41.967c0-.2.051-.832-.258-.832-.164,0-.307.072-.461.072-.35,0-.534-.38-.534-.688,0-.442.256-.781.975-.781.524,0,1.037.1,1.562.1.368,0,.882-.1,1.407-.1.493-.01.514.39.606.77l.841,3.565Z"/><path d="M64.718,44.535c-.3.318-1.489.164-1.489.709,0,.359.289.481.587.481.6,0,.9-.358.9-.964ZM63.682,42.8c0,.473-.453.688-.883.688a.9.9,0,0,1-.946-.883c0-1.058,1.459-1.233,2.239-1.233a3.668,3.668,0,0,1,1.664.309,1.592,1.592,0,0,1,.658,1.581v1.931c0,.134-.032.472.174.472.082,0,.164-.01.246-.01a.531.531,0,0,1,.514.576c0,.575-.575.79-1.058.79a1.167,1.167,0,0,1-1.171-.657,2.484,2.484,0,0,1-1.756.657,1.62,1.62,0,0,1-1.828-1.541c0-2.434,3.183-1.17,3.183-2.526a.625.625,0,0,0-.7-.575c-.174,0-.338.031-.338.236Z"/><path d="M68.693,43.19c-.093-.134-.309-.443-.464-.443a.972.972,0,0,0-.286.073c-.3,0-.4-.278-.4-.586,0-.39.153-.709.543-.709.258.011.534.1.812.1.308,0,.605-.092.925-.1a.518.518,0,0,1,.533.586c0,.349-.266.37-.266.535a2.267,2.267,0,0,0,.3.626l.145.267.154-.267a1.762,1.762,0,0,0,.277-.555c0-.206-.339-.082-.339-.585,0-.381.174-.607.421-.607s.533.1.813.1c.307,0,.605-.092.923-.1.37,0,.524.319.524.709,0,.308-.093.586-.391.586a.667.667,0,0,0-.3-.082c-.154,0-.194.112-.277.247l-.7,1.078.7,1.171c.083.123.234.39.38.39a1.792,1.792,0,0,1,.257-.031c.3,0,.391.277.391.585,0,.391-.156.709-.526.709-.317-.01-.616-.1-.923-.1-.277,0-.555.093-.811.1a.607.607,0,0,1-.535-.647.373.373,0,0,1,.154-.339c.062-.052.184-.144.184-.246a2.06,2.06,0,0,0-.287-.586L70.47,44.8l-.3.483a1.1,1.1,0,0,0-.205.411c0,.246.349.113.349.535a.6.6,0,0,1-.574.656c-.321-.01-.616-.1-.925-.1-.278,0-.555.093-.812.1-.359,0-.513-.318-.513-.709,0-.308.092-.585.39-.585.113,0,.215.042.328.042.175,0,.3-.217.391-.371l.175-.256.555-.884Z"/><path d="M74.417,41.922h.189c.1,0,.2.018.2.141,0,.145-.115.151-.242.151h-.149Zm-.144.8h.144v-.4h.152l.25.4h.154l-.263-.407a.236.236,0,0,0,.241-.251c0-.177-.1-.263-.322-.263h-.356Zm-.486-.464a.792.792,0,1,0,.794-.784.787.787,0,0,0-.794.784m.143,0a.65.65,0,1,1,.651.676.649.649,0,0,1-.651-.676"/></g></g></svg>