<svg xmlns="http://www.w3.org/2000/svg" xmlns:xlink="http://www.w3.org/1999/xlink" viewBox="0 0 97.219 86.203"><defs><clipPath id="a"><rect x="26.508" y="28.591" width="44.203" height="29.022" fill="none"/></clipPath></defs><g><rect width="97.219" height="86.203" fill="none"/><g clip-path="url(#a)"><path d="M48.039,30.148c6.718,0,13.489.648,17.519,1.8a4.09,4.09,0,0,1,2.956,3.075,38.858,38.858,0,0,1,.634,8.034,48.219,48.219,0,0,1-.634,8.034,4.144,4.144,0,0,1-2.956,3.075c-4.15,1.283-10.462,1.884-16.749,1.884-6.584,0-13.141-.659-17.153-1.884A4.6,4.6,0,0,1,28.7,51.1a48.145,48.145,0,0,1-.635-8.034,48.145,48.145,0,0,1,.635-8.034,4.123,4.123,0,0,1,2.956-3.075c3.907-1.241,10.122-1.8,16.383-1.8m0-.558c-6.857,0-12.89.667-16.552,1.83a4.671,4.671,0,0,0-3.335,3.5,48.776,48.776,0,0,0-.644,8.139,48.694,48.694,0,0,0,.647,8.155l0,.014A5.14,5.14,0,0,0,31.493,54.7c3.914,1.2,10.387,1.909,17.316,1.909,6.826,0,12.991-.7,16.913-1.91a4.683,4.683,0,0,0,3.339-3.5,48.011,48.011,0,0,0,.645-8.141v-.047a38.286,38.286,0,0,0-.646-8.1,4.63,4.63,0,0,0-3.348-3.5c-3.927-1.127-10.7-1.826-17.673-1.826"/><path d="M37.107,43.525c-.1-.082-.153-.179-.226-.185-.175-.015-.259-.261-.459-.229-.284.181-.392.582-.672.8a.446.446,0,0,0,.088.274.15.15,0,0,0-.088.15c.006.054-.075.035-.029.084l.079-.053c-.029-.111.15-.058.079-.172.026-.111.067.035.122,0,.146-.054.212.053.337.075.084-.075.075.106.184.044.029.088.116.027.158.093a3.211,3.211,0,0,0,.058.34l.01.014.011-.014c.005-.151-.1-.3-.029-.433-.067-.066.05-.066.071-.106.071-.067.176-.053.121.062a.3.3,0,0,0,.217.1c.042-.071-.075-.084-.038-.137.063-.035.08.057.138.04,0-.054-.062-.084-.067-.137a.064.064,0,0,0-.083.1c-.075.009-.083-.106-.158-.066.041-.036.046-.112.108-.093s.033-.09.155-.068.07-.184.208-.219c.033-.217-.2-.171-.3-.253m-.677.275c-.1.044-.318.109-.33.083s.248-.116.288-.18.1-.144.113-.169.182.121.279.2c.065.052-.246.039-.35.066"/><path d="M34.106,42.96c0,.106-.112.106-.087.221.005.02.041.027.05-.008.037-.085.087.012.108.043.05-.031.113-.074.129-.128.038.107.076.252.2.288-.009.119.2.018.121.123a.621.621,0,0,0-.409.022c.058.066.217-.03.309,0a.318.318,0,0,0,.271.014c.037-.053.158-.062.121-.15.141.018-.009-.177.137-.19-.042-.075-.108.052-.121-.022,0-.058.059-.049.092-.062a.38.38,0,0,0-.092-.159.645.645,0,0,0-.567-.089c-.038-.053-.121-.027-.171-.017-.025.074.059-.023.079.039l-.008.084c-.059.045-.109-.031-.163-.009m.071.115-.034,0c-.05-.058.088-.069.034,0m.709.212.042-.04a.312.312,0,0,1-.08.168c-.033.054-.1.045-.141.045a.365.365,0,0,0,.179-.173m-.3-.212c.106-.013.039.072-.024.08s0-.08.024-.08"/><path d="M38.132,42.226c-.038.025-.3.288-.3.469.062.009.058.08.1.115.021.022.079,0,.058.053.1.013,0,.132.092.159.112.075.033-.093.042-.115l.037.031a.25.25,0,0,0,.242-.053,1.606,1.606,0,0,0,.05-.252c-.05-.088-.037-.234-.15-.265.033-.053.075.013.108-.035a.639.639,0,0,1,.1.3c.129,0,.075-.128.162-.194a4.4,4.4,0,0,0-.4-.23.141.141,0,0,0-.142.017m0,.363c-.031.046-.048.059-.071.044l-.03-.066c0-.036.139-.034.1.022"/><path d="M39.946,49.112c.19-.058.617.008.617-.1-.062-.066-.489-.059-.567-.061a9.57,9.57,0,0,0-.972.048c-.141.009-.277,0-.417,0a3.587,3.587,0,0,0-.478-.03c-.207.036-.443-.1-.656-.043.018.08.468.074.54.117.114.068.093.183.259.185a3.726,3.726,0,0,0,.463-.007,2.95,2.95,0,0,1,.506,0c0,.08.207.093.242.044.07.067.273,0,.351-.023.11-.032-.027-.095.112-.137"/><path d="M38.933,49.537c-.033-.005-.117.033-.174.026a4.265,4.265,0,0,1-.492-.061,2.593,2.593,0,0,0-.828-.134c-.06.083.25.044.3.09.072.063.258.079.312.1.1.043.183.046.247.153.047.077.242.139.3.057.041.04.169-.076.187-.083.082-.034.235.046.332.051.119.007.731,0,.77-.126.006.011.508.014.521-.045a7.7,7.7,0,0,0-1.48-.03"/><path d="M40.455,49.559c-.008.088.108.04.15.053a.165.165,0,0,0-.15-.053"/><path d="M39.942,50.023c-.067.061-.975-.1-1.089-.018-.317.217-.843-.3-.981-.113-.02.027.2.095.239.094.149,0,.185.068.3.128.068.035.476.148.5.065.034-.12.325.048.411.046.124,0,.223-.1.339-.135a.773.773,0,0,1,.3.008c.048-.133.169.08.242-.022-.093,0-.167-.08-.263-.053"/><path d="M63.2,47.871c-.075-.061-.184-.011-.271-.04-.039.072.273.117.3.125a1.645,1.645,0,0,0,.348.118c-.005,0,.231.009.2-.048a1.265,1.265,0,0,0-.579-.155"/><path d="M61.4,48.976c.092.049.406-.047.633-.085.114-.019.548.074.617-.053.055-.1.238-.106.231-.3a2,2,0,0,0-.537-.234c-.123-.034-.355,0-.457-.058a1.185,1.185,0,0,0-.687-.119c0,.078.727.223.809.2.016.042.291.124.12.162s.082.183.089.232a3.694,3.694,0,0,0-.388.181c-.125.032-.228-.061-.351-.044-.276.071-.573.051-.842.127.1.125.288-.043.392,0,.132.094.256-.019.371-.008"/><path d="M58.787,48.937c.043,0,.1.03.147-.046.021-.034.072.1.271.025.057-.021.159.032.257.015.016-.046-.8-.208-.83,0,.051.071.111.005.155.006"/><path d="M53.619,48.976c-.251-.146-.574.072-.862.105-.321.036-.655-.093-.983-.063-.379.034-.781.007-1.166.02A4.886,4.886,0,0,1,49.493,49c-.139-.057-.294.007-.438-.017a3.637,3.637,0,0,0-.514-.036c-.418-.01-.835-.043-1.253-.044-.392,0-.776.033-1.167.065a5.389,5.389,0,0,0-1.174.1,1.727,1.727,0,0,0,.834-.017c.114-.068.465,0,.595.007a2.532,2.532,0,0,0,.4-.029c.167-.017.323.033.486.016A2.041,2.041,0,0,1,48.1,49a5.036,5.036,0,0,0,.63.058,1.2,1.2,0,0,0,.326.024c.114-.013.357.063.443.01.11.078.264.049.368.1a.237.237,0,0,0,.124,0c.1-.013.1.092.159.15.169.09.247.034.4.046.085.007.217-.039.289.06,0-.088.176-.075.219-.051.142.076.346-.062.431-.17.149.054.307-.037.435-.022a1.929,1.929,0,0,0,.451-.015c.21-.032.744.076.872-.014.012-.009.2-.079.234-.092a.56.56,0,0,1,.369.037c-.029-.1-.175-.067-.237-.137"/><path d="M55.07,49.316a.808.808,0,0,0,.5.2l.17-.02c.04-.033.185.062.254.068a1.053,1.053,0,0,0,.518-.085c.107-.073.181.056.3,0,.155-.069-.3-.085-.334-.087a7.557,7.557,0,0,1-.78-.047c-.19-.028-1.326-.32-1.367-.2.144.061.577.235.742.172"/><path d="M60.076,49.166c-.062.057-.163,0-.184.051-.042-.073-.476-.07-.576-.062-.184.015-.538-.118-.69.058-.044.051-.063.119-.114.165a2.093,2.093,0,0,1-.4.14c-.082.037-.634-.009-.623.072.134.035.256-.023.388,0,.106.022.232.042.328.059.249.042.331-.139.517-.247a.324.324,0,0,1,.312-.023c.111.031.209-.069.316-.08.156-.066.775,0,.85-.093.029-.079-.1-.035-.129-.044"/><path d="M57.953,49.241l.008-.075a1.3,1.3,0,0,0-.651.191c.038.034.312.011.392.043,0-.043.193-.164.251-.159"/><path d="M49.544,49.665c.075.085.3.086.4.107s.386.249.454.22c.173.184.328-.014.521-.022a.61.61,0,0,0,.429.119.2.2,0,0,0,.1-.112c.052-.1.156-.087.249-.132.2-.1.132-.159.376-.149.159.006.76-.106.8-.009.045-.141.163,0,.25-.013a3.094,3.094,0,0,0-1.321-.128.34.34,0,0,0-.279.1c-.11.086-.209.054-.344.062a3.974,3.974,0,0,1-.771.019c-.165.093-.243-.082-.364-.155a1.409,1.409,0,0,0-.585-.071c-.278-.012-.557-.008-.835.007-.133.007-.505-.027-.606.091.095.043.235-.049.3.006s.3.017.375.033c.27.061.582-.077.854.027"/><path d="M59.946,49.493a5.558,5.558,0,0,1-.783.13.776.776,0,0,0-.331.06c-.092.041-.264.016-.327.064,0,0,.347.039.423.044a.814.814,0,0,0,.573-.077,2.327,2.327,0,0,1,.248-.1c.007-.015.483-.008.455-.085-.083-.042-.186.041-.258-.035"/><path d="M60.756,49.537a1.4,1.4,0,0,0-.521.022.207.207,0,0,0,.17.04c.043-.041.172,0,.211,0,.062.009.449-.036.449-.085-.1.028-.207,0-.309.023"/><path d="M55.479,50.014c.092.07.3,0,.445.007.124.006.3.107.377,0,.11-.2.229-.147.429-.157.1-.005.156-.061.258-.052s.2.049.293,0c-.027-.078-.519-.08-.6-.072a5.706,5.706,0,0,0-.667.134.763.763,0,0,1-.258-.018,1.461,1.461,0,0,1-.408-.063,2.244,2.244,0,0,0-.387-.127,1.8,1.8,0,0,0-.309.009c-.009.02.432.129.467.154.061.042.3.248.363.186"/><path d="M52.489,50.076a.647.647,0,0,0-.66.052,1.1,1.1,0,0,1-.306.115c-.21.088-.283.165-.526.092-.314-.095-.626.009-.942-.072-.167-.044-.226-.131-.4-.131-.09,0-.449.049-.512-.012-.023.062.474.143.542.106.029.057.241.07.3.089a1.734,1.734,0,0,0,.325.092,8.367,8.367,0,0,0,1.145.138.87.87,0,0,0,.336-.088c.077-.037.174,0,.3-.025a.088.088,0,0,1,.127.016c.05-.005.035-.1.107-.071a.855.855,0,0,0,.12-.128.232.232,0,0,0,.188-.054c.141.058.362-.043.5-.067a2.619,2.619,0,0,1,.376,0c.114,0,.171.12.33.037a3.312,3.312,0,0,0-1.339-.089"/><path d="M56.944,50.026c-.252-.01-.2.124-.384.21a.455.455,0,0,1-.253-.009c-.114-.016-.09.049-.221.043a2.949,2.949,0,0,0-.528-.021c.022.154.423.1.5.121a.671.671,0,0,0,.465-.007A1.247,1.247,0,0,1,57,50.13c.056-.019.516.016.526-.043l-.027-.042a3.773,3.773,0,0,1-.559-.019"/><path d="M54.049,50.151l-.058-.031c-.033.035.036.057.058.031"/><path d="M53.89,50.142c-.05,0,0,.048.017.022Z"/><path d="M55.449,50.235h.059c.008-.035-.15-.067-.059,0"/><path d="M30.982,46.673a1.493,1.493,0,0,1,.409-.272c.068-.028.31-.026.313-.09.137.069.208-.008.3-.071.068-.049.151.061.216-.022.162.031.3-.08.459-.084.044.009.115.035.144.015l.065-.038c.014.017.175.022.185-.07a2.844,2.844,0,0,1-.777.072.973.973,0,0,0-.3.019.758.758,0,0,1-.239.033c-.23.1-.516.043-.721.212-.025.078-.13.087-.13.181-.1.053-.039.174-.108.244.07-.023.1-.159.187-.129"/><path d="M32.288,47.782c-.186-.1-.414-.041-.554-.195-.043-.047-.842-.323-.811-.362-.092.117.343.317.422.35.265-.17.345.262.559.286a3.216,3.216,0,0,1,.6.112,2.989,2.989,0,0,0,.38.177.183.183,0,0,0-.127-.072,3.179,3.179,0,0,0-.469-.3"/><path d="M34.386,47.99c-.025-.053-.255-.2-.258-.106a1.3,1.3,0,0,0,.5.317c.04.005.457.011.458.01a1.071,1.071,0,0,0-.264-.133,3.976,3.976,0,0,1-.437-.088"/><path d="M35.15,48.255l.05-.013c.008-.075-.154-.04-.05.013"/><path d="M34.119,49.081c.042.066.289.275.338.147.22-.025.335-.115.555-.068a1.632,1.632,0,0,0,.459.005,1.2,1.2,0,0,0,.429.053c-.021-.135-.329-.089-.446-.126-.26-.08-.543-.067-.8-.13-.1-.067-.118,0-.237.008a.539.539,0,0,1-.361-.14,3.228,3.228,0,0,0-.416-.271c-.03-.047-.289-.149-.269-.1.049.107.281.144.365.25.063.079.207.549.388.376"/><path d="M32.787,46.858c.049-.008.133-.089.176-.112.107-.057.213-.047.307-.134-.119.048-.372,0-.453.092a1.576,1.576,0,0,0-.737.278c-.171.082.118.157.149.17.1.042.2-.048.291-.019a3.521,3.521,0,0,1,.864.314,1.294,1.294,0,0,0,.5.234.625.625,0,0,0,.215.143c.076-.057-.616-.377-.692-.407-.243-.1-.39-.364-.683-.4-.336-.035-.084-.135.062-.164"/><path d="M33.927,49.378l.042-.021c-.013-.045-.084-.01-.042.021"/><path d="M34.286,49.528c-.092-.1-.2-.08-.288-.15,0,.277.474.254.63.274.091.019.181-.088.275-.095a1.7,1.7,0,0,1,.355.042l-.008.044c.052.006.421-.038.421-.084-.247-.062-.542-.11-.792-.149-.21-.033-.38.167-.593.118"/><path d="M36.222,49.174c-.088,0-.229-.045-.272.023.075.031.447.057.522-.023a.873.873,0,0,0-.25,0"/><path d="M35.729,49.546c.015.071.213.107.28.053-.049-.1-.2-.03-.28-.053"/><path d="M36.05,49.6c.071.062.192.013.28.044-.05-.075-.188-.031-.28-.044"/><polygon points="34.41 46.056 34.399 46.059 34.382 46.066 34.41 46.056"/><path d="M63.788,48.591c0-.177-.232-.186-.337-.2a1.314,1.314,0,0,1-.47-.286,1.617,1.617,0,0,0-.551-.151c-.142-.034-.274.017-.417-.02a1.275,1.275,0,0,0-.265.038c.011-.117-.156-.06-.219-.074-.118-.026.033-.18.086-.16.081.022.259-.166.262-.243.274-.081.012.32.138.3,0-.079.145-.311.251-.243a1.392,1.392,0,0,0,.281-.452c.054-.142.024-.229.118-.355.034-.045.16-.2.122-.284.03-.114.518-.251.632-.317.2-.118.13-.373.063-.526-.053-.125-.065-.092.014-.205a.35.35,0,0,0-.029-.353.485.485,0,0,0-.55-.081c-.085.028-.233.107-.309.018-.029-.035-.05-.159-.092-.159-.212-.164-.69.035-.918.095-.1.027-.405.2-.5.17-.141-.042-.066-.11-.25-.092a1.216,1.216,0,0,0-.35.093c-.108.044-1.736,1.059-1.829,1.117a3.259,3.259,0,0,1-.933.512c-.371.083-.8-.291-1.054-.537a2.775,2.775,0,0,0-2.279-.73,4.542,4.542,0,0,0-.633.125c-.186.053-.349.168-.515.222a4.124,4.124,0,0,0-.794.256,1.085,1.085,0,0,0-.425-.253,1.12,1.12,0,0,0-.525-.278,2.556,2.556,0,0,0-1.075-.082,3.285,3.285,0,0,0-1.023.283,4.8,4.8,0,0,1-.534.207c-.017.006-.348.053-.18-.007-.112-.119-.324-.087-.457-.122a5.018,5.018,0,0,0-.652-.068c-.009.019.855.254.951.31-.07.1-.359-.014-.494.017a3.436,3.436,0,0,1-.718.071.516.516,0,0,1-.3-.088,2.222,2.222,0,0,0-.552.038c-.06.011-.675.131-.6.2a1.713,1.713,0,0,1,1.234-.017c.083.045.2,0,.286-.008s.179-.009.2-.1c.039.021.383.025.372.053a.626.626,0,0,1-.483.164c-.143.013-.44.109-.564.052-.358-.166-.619.036-1.006,0,.087.136.633.074.772.031.278.135.618-.055.871-.042.127.006-.256.187-.272.192-.034.01-.378.106-.328.15a3.243,3.243,0,0,0,1.23-.406,1.89,1.89,0,0,0,1.153-.358c.121-.074.275-.18.4-.24s.234-.016.36-.1a.969.969,0,0,1,.483-.109,1.182,1.182,0,0,0,.255-.013,2.052,2.052,0,0,1,.23-.05.092.092,0,0,0,.1.069c.072,0,.3.019.321.108.147-.016.271.148.373.152a.444.444,0,0,1,.263.166c.122.158.362.192.474.354.045.138.239.139.251.3.115,0,.283.264.352.328.145.136.33.226.469.361a1.04,1.04,0,0,0,.371.221c-.158.077-.445-.194-.565-.269-.138-.085-.28-.161-.414-.251-.006,0-.282-.215-.272-.138.256.037.391.414.629.456a1.266,1.266,0,0,1,.423.309c-.154.108-.446-.113-.592-.176-.119-.051-.692-.3-.8-.172-.049.058.354.069.392.167a1.73,1.73,0,0,1,.471.194c-.2.067-.32-.112-.5-.1.1.143.3.139.427.2a3.231,3.231,0,0,1,.5.228,2.114,2.114,0,0,1-.754-.046,1.533,1.533,0,0,0-.62-.022c-.249.066.071.142.163.144.116,0,.465-.073.51.092-.147.062-.4-.022-.552-.031a1.956,1.956,0,0,1-.658-.182.754.754,0,0,0-.55-.24,1.531,1.531,0,0,0-.31.023l-.193-.031a2.927,2.927,0,0,1-.278.183c-.15.066-.264-.038-.409.009-.258.082-.616.367-.9.269.123-.218.442-.244.642-.327.066-.07.276-.173,0-.1a1.812,1.812,0,0,1-.653.179c.037-.119.348-.139.432-.245.059-.075.273-.03.361-.117.054-.052-.17.011-.17.011-.1.012-.228.006-.281.117-.08.061-.679.131-.651.264.043,0,.158-.07.18,0-.283.063-.4.367-.73.226l.2-.2c.089-.043.245-.02.311-.134-.278-.068-.369.144-.563.236-.125.06-.059-.127-.189-.1-.095.018-.189.128-.291.1.039-.218.662-.162.642-.321,0,0-1.192.279-1.33.311-.044-.115.141-.074.188-.128-.155-.163.176-.088.112-.221a4.645,4.645,0,0,0-.752.141c-.074.025-.525.223-.562.164a1.411,1.411,0,0,1,.423-.214c.129-.063-.13-.16.115-.147a1.733,1.733,0,0,0,.413-.033c-.075-.152-.682-.043-.807-.008a2.141,2.141,0,0,1-1.036.2,3,3,0,0,0-.575-.127c-.041,0-.412.05-.314.174l-.242.065c-.287.085-.025.049-.129.094-.041.032-.156,0-.079-.062.086,0,.155-.067.212-.12-.131-.039-.28.054-.421.1-.024-.211-.2.026-.292-.084a.138.138,0,0,1,.13-.045c-.055-.116-.333.034-.406.05a2.955,2.955,0,0,1-.659-.01.719.719,0,0,1-.336-.015,1.178,1.178,0,0,0-.307-.08.6.6,0,0,1-.311-.059c-.117.037-.126-.115-.234-.106.194-.15.534.009.733.072a2.235,2.235,0,0,0,.271.076c.113.02.057-.007.139-.02.128.046.264-.042.394-.037a.957.957,0,0,0,.277.024.372.372,0,0,0,.172-.115.241.241,0,0,0,.166.03c.112-.017.217-.067.322.009l-.037.1a.891.891,0,0,0,.308-.155l.071.036c.011-.16.146.062.15-.1.112.069.222.015.333-.022.129-.044.247.059.355.013-.216-.189-.647-.067-.879-.012a1.322,1.322,0,0,1-.49.055,1.562,1.562,0,0,0-.57-.012c-.274,0-.541.186-.811.075a.458.458,0,0,0-.353-.053,1.229,1.229,0,0,0-.468-.142c.011-.189.511.031.568.044s.22-.01.233.045c.191.033.359-.115.551-.089.016-.129-.437-.007-.551-.106a.5.5,0,0,1,.318-.031c.045-.013,0-.062.041-.075-.008-.123.238-.065.3-.15a3.36,3.36,0,0,0-.522-.006c-.14.01-.366.066-.463-.074l.219-.036a.383.383,0,0,0,.252-.03c.076.085.079-.073.159-.022.038-.081-.2,0-.212,0a.977.977,0,0,1-.46-.058c.122-.135.626.107.672-.07-.072.007-.755-.005-.7-.159a.079.079,0,0,0,.095-.02c.037-.026.112.036.166.041a2.453,2.453,0,0,0,.623-.064c.165-.026.3.012.458-.024.069-.016.265.044.3.014-.012-.115-.685-.1-.792-.1-.066,0-.749.04-.717-.037a2.285,2.285,0,0,1,.557-.117c.162-.034.672.075.781-.056-.3.028-.579-.034-.88-.023-.148.005-.591-.066-.29-.161.088-.028.462-.058.519-.157.162-.056.412.03.609-.084a.765.765,0,0,0-.489,0,.969.969,0,0,1-.7.033c.593-.152,1.156-.382,1.748-.5.2-.041.38-.183.584-.142.042-.1.326-.012.35-.137l.05.031c.017-.11.5-.075.629-.119a3.192,3.192,0,0,1,.372-.116c.1-.022.21.028.336,0a5.6,5.6,0,0,1,.847-.042,3.215,3.215,0,0,1,.894.107c.189.043.637.057.778.2.038.04.734.231.7.277-.128.15-.623-.259-.827-.065s-.679-.193-.912-.138c.029.118.266.049.32.117.1.126.337.109.5.134a1.3,1.3,0,0,1,.462.178c.068.122-.618-.021-.69-.005a.98.98,0,0,0,.442.145c.014-.007.534.137.417-.052a.351.351,0,0,0,.3-.106.527.527,0,0,1-.208-.106l.212.031c.119.087.11.036.213-.015.185-.091.312.049.526,0a3.128,3.128,0,0,1-.521-.245c-.2-.09-.419-.144-.62-.24a2.492,2.492,0,0,0-.89-.249,5.35,5.35,0,0,0-.742-.1c-.238.031-.521-.047-.781-.013-.281.038-.558.1-.838.149-.608.1-1.2.22-1.8.353.136-.065-.27-.264-.31-.288a6.006,6.006,0,0,1-.639-.562c-.088-.073-.449-.193-.341-.415.1-.2-.338-.083-.371-.266-.055-.3-.215-.148-.38-.167s-.24-.337-.447-.185c-.15.11-.111.276-.245.087-.083-.116-.3.038-.378.115a1.675,1.675,0,0,0-.254.578c.055.027.1-.063.136-.094.078-.073.119,0,.2,0,.063,0,.345-.328.394-.164a.454.454,0,0,0-.309.247.331.331,0,0,0-.376.057.954.954,0,0,0-.218.338c-.057.131-.231.32-.219.463-.06.144-.08.335-.2.441a2.245,2.245,0,0,1-.375.235c-.039.024-.334.217-.343.083,0-.044.324-.179.381-.205a.711.711,0,0,0,.334-.241c.028-.048-.025-.437.09-.43.227.014-.142-.2-.174-.256a.973.973,0,0,1,.061-.465c.057-.04.135.055.162-.011s-.143-.061-.13-.14c.01-.054.128-.052.1-.122-.038-.1-.13-.063-.141-.206s-.144-.059-.168-.174a2.364,2.364,0,0,0-.112-.41c.047-.179-.108-.248-.172-.36-.106-.188.314-.277.318-.313.024-.2-.214-.364-.417-.427a2.155,2.155,0,0,1-.509-.279.4.4,0,0,1-.039-.107c-.028-.083-.1-.024-.134-.075-.044-.07.047-.15-.1-.1-.143-.116-.316.051-.463-.044-.128.03-.224-.074-.332-.118a.172.172,0,0,0-.128-.008c-.127.044-.117-.025-.255-.035a.337.337,0,0,0-.194.046.143.143,0,0,0-.149-.044.089.089,0,0,1-.128-.06c-.071-.083-.14.079-.211.1-.283.092-.541-.017-.784.055a.8.8,0,0,0-.114.037c-.159.071-.333-.007-.5.034-.064.079-.2.184-.313.128a.471.471,0,0,0-.26.021c-.3.066,0,.042-.146.128-.106.061-.169-.009-.261,0s-.118.1-.231.1c-.144,0-.116.027-.236.082s.056.165-.033.2c-.159.071-.1.077-.2.208a.658.658,0,0,0-.092.131c-.032.08-.127.1-.146.18a.919.919,0,0,1-.012.312c-.058.278-.451.307-.426.643.073,0,.07-.11.159-.107.052,0,.3,0,.2-.127a.411.411,0,0,1,.181-.213c.123-.066.127-.258.14-.334.026-.152-.027-.171.113-.261.077-.049.056-.269.187-.275.134-.046.029-.274.221-.3.036.056.289-.047.3-.1.033.132.173-.06.224-.034.1.053.112-.106.244-.146.156-.046.238-.01.379-.072.115-.051.529-.057.586-.148.086.1.142-.008.283-.022a.359.359,0,0,1,.194.033c.049.015.05-.077.071-.073s.41-.048.472.007a1.158,1.158,0,0,1,.565.011c.041.008.341.039.344.042.064-.072.182.087.238.108.248.093.534.075.744.327.071.086.269.094.312.2.154,0,.058.213.187.265-.156.11,0,.137.039.249.056.175-.034.368.153.41,0,.015-.1.108.011.169.025.085-.011.188.047.263.01.042.122.052.071.107-.023.054.012.151.011.2,0,.1-.037.328.031.414-.03.041-.173.012-.1.1.04.052.191.143.092.182-.052.021-.11-.043-.166-.062,0,.184-.029.037-.163.1,0,.01.25.269.052.226-.111-.024-.136-.218-.273-.173.012.169.48.474.371.636s-.1.124-.187.019c-.2.08-.243-.234-.343-.222.011.089.356.628.241.62-.173-.013-.164-.4-.32-.354.062.021.13.274.2.34-.017.019-.026.176-.091.062-.1-.057-.136.057-.172.119-.033-.063-.215-.549-.317-.53-.008,0,.01.125-.041.084s-.114-.5-.236-.459l.127.3c-.058.06-.052-.059-.091-.067-.12.216.283.511.347.662a.091.091,0,0,1-.106.124c-.084-.027-.052-.122-.112-.167-.024-.039-.135-.233-.171-.107-.1-.088-.381-.668-.564-.588-.071.031.162.257.176.279.144.006.356.385.407.486s-.023.238-.094.13c-.045-.068-.047-.157-.1-.221-.007-.009-.24-.376-.224-.242.009.08.317.4.182.483-.043-.054-.162-.459-.271-.393-.018.037.093.26.108.287-.088.055-.638-.727-.266-.42.02.016.243.127.153.017-.036-.044-.051-.046.026-.083s-.048-.067-.121-.15c-.034-.024-.126.034-.159.031a.632.632,0,0,1-.287-.1c-.136-.093-.293-.214-.462-.11-.134.084-.185.24-.325.326s-.48.137-.54.291c-.037-.031.027-.08.021-.115-.2.137-.142.387-.18.592a.045.045,0,0,1-.059-.038c-.049-.078-.031.007-.082.007.024-.35.179-.609.129-.636-.1.021-.2.468-.207.558,0,.122-.083.571-.181.525s.135-.405.029-.522c-.072.084-.167.122-.242.2-.012.013-.152.2-.135.025a.3.3,0,0,1,.064-.108c-.065-.033-.051-.124-.048-.181.008-.163-.074-.15-.122-.018-.1.269-.389.225-.158-.1a.583.583,0,0,0,.136-.377c0-.061.13-.143.1-.2-.053-.111-.554.764-.621.769a2.411,2.411,0,0,0,.207-.52c0-.063.158-.325.115-.352-.068.071-.141.122-.211.184-.094.084-.109.218-.181.316-.077-.071.081-.432.149-.468-.19-.025-.509.621-.563.564-.261-.271.3-.492.163-.626.038-.052.076.027.113.03.083-.045.058-.137.056-.211-.007-.263-.067.055-.106.062a.43.43,0,0,1-.063-.115c-.018.008-.2.575-.288.446.036-.137.179-.289.109-.438-.112.062-.125.222-.209.31-.111-.076.074-.209.009-.3-.129-.176-.285-.027-.317-.059s.132-.7.275-.7c-.012-.174-.206-.049-.3-.115.049-.088-.013-.4.115-.4.041,0,.039.027.056.027l.079-.137c-.068-.092-.5.088-.647.189-.26.177-.212.246.013.313.275.083.183.46.061.7a.625.625,0,0,0-.068.14c0,.026.108.082.131.118a1.04,1.04,0,0,1,.133.5c-.182.221-.536.065-.793.148a.7.7,0,0,0-.18.094c-.11.074-.166.021-.288.065-.058.022-.378.151-.252.247a.976.976,0,0,1,.617-.184c.109.008.293-.119.334-.073.017-.12.338-.057.442-.058.141,0,.194.02.213.159.009.065.087.253-.046.261.022.058.1.019.121.085a.932.932,0,0,0,.031.284c-.128-.08-.468.017-.614.035s-.284.036-.426.055a2.289,2.289,0,0,0-.5.2c-.122.045-.248.082-.371.126-.021.008-.178.13-.146.132-.077.112.262.268.313.309a1.074,1.074,0,0,0,.655.174c.129.013.272.165.425.138s.564.478.722.3a1.121,1.121,0,0,1,.53.139c.064.029.155.055.14.134,0,.018.142.078.17.124.092.153.093.281.27.368a1.337,1.337,0,0,0,.458.095,4.741,4.741,0,0,1,1.018.083,4.207,4.207,0,0,0,.447.078c.046-.045.1.039.137-.035.108.1.229-.024.35-.009a.975.975,0,0,0-.45-.053,2.013,2.013,0,0,0-.6-.077c-.337-.013-.616-.2-.917-.236-.15-.017-.3.08-.448.02-.132-.054-.2-.194-.28-.3-.246-.309-.616-.312-.956-.433a.446.446,0,0,1-.3-.3c-.134-.109-.365-.042-.522-.11-.278-.122-.9.032-.7-.45a1.526,1.526,0,0,1,.732-.356c.073-.017.349-.109.392-.075.075.059.4-.022.507-.061.083.089-.015.256.059.363s.1.327.207.429a2.066,2.066,0,0,0,.493.3c.031.084.506.206.61.232.05.012.253.071.262.139a3.191,3.191,0,0,1,.328.064c.094.07-.078.04.1.067.072.011.126.062.2.075.138.023.275.14.433.112.114.1.839.182.85.252.144.029.5-.022.585.035a1.831,1.831,0,0,0,.608.071c.313-.079.7.112,1.043,0,.061.1.879-.045,1.049-.022s.322-.052.47,0a1.705,1.705,0,0,0,.612-.01c.063-.1.588.008.728-.01.366-.048.738.015,1.1-.049a3.322,3.322,0,0,1,.489.036c.17,0,.346-.013.509,0a8.159,8.159,0,0,1,1.189.04,2.932,2.932,0,0,0,.459.005c.187.007.354-.025.541,0,.087-.085.258.095.351.009a2.355,2.355,0,0,0,.682.022,6.73,6.73,0,0,1,1.812.062c.139-.064.392.092.521-.03.034.065.435.1.509.084.041-.067.439-.013.516-.012a2.588,2.588,0,0,1,.611.078,4.967,4.967,0,0,0,1.144.023,1.814,1.814,0,0,0,.823-.216,1.068,1.068,0,0,1,1.047.155,4.324,4.324,0,0,0,1.039.216,1.45,1.45,0,0,0,.549.024c.1-.013.645.141.707.041.256.131.622-.03.895.014.133.021.934.14.957-.015.02-.134.188-.18.253-.291a.5.5,0,0,0-.04-.314.957.957,0,0,1,.338-.106c.035-.014.063-.211.049-.244-.038-.085-.14-.121-.17-.211.078-.081.313.273.475.074.077-.095-.037-.419.017-.454.29.167.358-.447.38-.584a.634.634,0,0,0-.631-.281,3.246,3.246,0,0,0-1.5.373,6.11,6.11,0,0,1-1.8.41c0-.036.1-.015.093-.057-.029-.134-.745-.015-.848.036a.812.812,0,0,1-.425.089,1.586,1.586,0,0,0-.228.014c-.019-.018-.15-.094-.044-.125.181-.053.509.059.6-.176.055-.033.58.029.572-.009a1.352,1.352,0,0,0-.529-.2A.256.256,0,0,1,54.8,47c-.1.02-.107.1-.191.147-.112.058-.242-.011-.355.038-.075.031-.072.152-.167.133-.066-.014-.095-.093-.162-.1.1-.1.213-.1.3-.187.062-.069.173-.021.227-.109-.186-.017-.3.113-.492.075-.123-.024-.332-.106-.359.009a2.808,2.808,0,0,1-.519-.388c.1.063.1.053.2-.036a2,2,0,0,0,.222-.177c.05.015.53-.07.513-.142A9.3,9.3,0,0,0,53,46.551a.327.327,0,0,1-.165-.125c.115.008.448-.3.56-.351a6.732,6.732,0,0,1,.873-.167,1.367,1.367,0,0,0-.7.028c-.182.044-.546.384-.728.216a4.347,4.347,0,0,1,1.558-.573,3.014,3.014,0,0,1,.729.075c.135.028.257.014.4.056.027.04.335.158.371.123-.016.149.192,0,.158.151.15-.083.585.385.2.187-.113-.059-1.171-.53-1.171-.187.079.065.394,0,.51.025.19.035.328.2.525.208.13.007.684.151.734.3-.185.112-.335-.041-.489-.125a.909.909,0,0,0-.629-.043c.079.087.181.006.274.038.139.049.269.108.414.174a1.671,1.671,0,0,1,.688.279c.057.042.14.138.23.092a6.182,6.182,0,0,1,.951-.345,1.85,1.85,0,0,1,.8-.126c.166.032.276.082.445.113.125.022.082.085.17.15.072.053.127-.093.2-.078.043.009-.1.262-.1.356a2.643,2.643,0,0,1-.034.278c.026-.021.287-.167.269-.123-.029.075-.143.066-.2.1-.119.078-.194.206-.316.28a1.122,1.122,0,0,1-.134.057c-.033.057.038.123-.015.182.055.218-.115.219-.225.3-.079.057-.083.171-.147.241-.087.1-.223.041-.165.22.133.124.563,0,.753.024a2.915,2.915,0,0,0,.577.033.094.094,0,0,0,.095-.046c.029-.1.049-.117.193-.137a1.288,1.288,0,0,1,.312.022c.414,0-.043.33-.3.264a1.162,1.162,0,0,1-.556.041c-.018,0-.343-.01-.274.077l.041-.029a.851.851,0,0,0,.285-.011c.188-.025.376.058.563,0a1.345,1.345,0,0,0,.45-.031c.054.1.429-.128.429-.076a.1.1,0,0,0,.175-.093c-.017-.134-.139-.089-.26-.116a1.622,1.622,0,0,1-.365-.131.819.819,0,0,1-.337-.039c.078-.078.516-.133.521-.173-.1-.048-.213.007-.313-.04.033-.034.005-.124.071-.128a.237.237,0,0,1,.029.1c.064-.039.307-.457.392-.278-.025.156-.021.193.106.158l.269.024-.054.074A.459.459,0,0,0,61.907,48c.048.083.133.061.21.055a3.054,3.054,0,0,1,.589.063c.391.059.732.414.569.8s-.639.144-.9.229a10.241,10.241,0,0,0-1.074.17.556.556,0,0,1,.257.009c.123.017.237-.06.36-.053.053.019.517.047.534-.031.091.233.7-.065.8-.122a.413.413,0,0,0,.125-.177c.05-.091.149-.07.181-.138.045.066.281.042.232-.056-.036-.07-.143-.137.006-.157M33.977,45.908c-.026.043-.03.04-.05.018-.015-.047.088-.21.142-.208-.049.055-.054.128-.092.19m7.558-1.07-.05.023c0-.027.058-.115.05-.023m-.027-.42c.014,0,.034-.218.148-.229a.856.856,0,0,1-.071.142c-.058,0-.04.076-.077.087m.148,1.278c.033-.035.042-.146.108-.075a.123.123,0,0,1-.108.075m.1-.7a.2.2,0,0,0,.1-.031c-.052.074-.054.2-.162.221-.068-.072.046-.13.062-.19m.33.358a.217.217,0,0,1-.121.066c.023-.067.109-.2.192-.19a.724.724,0,0,1-.071.124m.2.069.024-.047c.075-.013.005-.107.063-.075a.076.076,0,0,0,.016.1Zm.116.156.05-.022Zm-.071-1.157c.112.018.182.2.129,0-.038-.147.329-.083.392.032.15.274.5.421.694.667-.218,0-.232-.036-.417-.144a1.126,1.126,0,0,1-.251-.228c-.062-.064-.121-.13-.176-.2-.061-.027-.09-.013-.086.038.071.089.181.187.275.289.058.063.051.149.118.2.051.035.124.053.152.114-.234.122-.157-.193-.331-.168-.029,0,.131.2.1.243-.274.072-.334-.734-.593-.734-.045.035.012.061-.017.107-.039-.042-.1-.231.009-.212m-.242.012a.6.6,0,0,0-.152-.44c0-.042.026-.053.068-.033s0,.085.055.111c-.038.118.093.255.088.366-.008.188.037.107.084.284.03.112.094.149.016.222l-.017.092c-.075.078-.061-.32-.058-.3-.032-.171-.193-.214-.272-.355.057-.032.108.094.188.053m-.288,1.154c-.062-.026.034-.04.05-.062.076.031-.03.023-.05.062m.058-1.189c.009.035-.014.05-.037.067-.057-.009,0-.138.037-.067m-.17-.548c0,.106.112.009.142.085-.158.076-.277-.13-.422-.152.088-.063.211.018.28.067m-.368.327c.015.026.256-.183.289-.2-.026.079-.109.117-.164.166-.087.078-.116.2-.2.281-.04-.1.124-.153.07-.244M41.314,45.5l.05-.075Zm-.058-.49c.062.053-.123.33-.171.362-.072-.056.121-.325.171-.362m-.08.649c-.033.062-.046-.026-.012-.035Zm.059-1.18-.05-.008Zm-.251.544a.361.361,0,0,1,.1-.226c.012.071-.063.16-.1.226m.042-.924.009.053c-.088.116-.055-.022-.009-.053m.03.252c.058-.08-.022.254-.063.31-.074-.1.05-.211.063-.31m-.23.226c.021.123-.072.223-.121.327-.042-.029.086-.316.121-.327m-.046-.344.008.065c-.05.027.006.12-.1.106Zm-.225.512c.038.04-.034.066-.041.083-.059-.039.02-.057.041-.083m-.142-.266a.4.4,0,0,1,.071-.083c.013.077-.032.32-.129.339,0-.085.126-.171.058-.256m-.071.562c.056.075-.027.188-.058.181.008-.027,0-.137.058-.181m-.138-.146c.147.053.02.276-.07.252.019-.08.1-.226.07-.252m-2.823.689c.118.081.1.247.108.372-.119-.067-.11-.3-.108-.372m-.192-.287c.008.031.083.082.133.1-.127.017-.023.179-.012.242-.067.04-.186-.286-.121-.34m-1.118.256a.1.1,0,0,1,.129.094c.07,0,.033-.148.05-.182.053.05-.021.154.05.194.022-.058.055-.052.071-.172.068.057.037.159.088.226a.564.564,0,0,0-.008-.31c.03-.179.162.112.17.137.1-.034-.055-.187.077-.214.065-.014.079.071.111.055a.433.433,0,0,0,.021-.2c.136.074.075.284.2.358.062-.029-.088-.206.009-.234.1.035.2.493.128.526-.024.012-.092-.2-.128-.239-.1-.042.038.2-.05.226-.111,0-.062-.129-.1-.183-.056-.073,0,.074-.028.127-.074.13-.12-.132-.149-.148-.085.019.047.17-.037.168s-.012-.2-.134-.221a.453.453,0,0,1-.008.18c-.037.072-.113-.046-.15-.044-.174.009.062.355.058.447-.058-.087-.213-.209-.217-.317-.01-.236-.038.1-.091.114-.085-.107-.054-.264-.059-.389m-.121.106c.065.081-.011.188,0,.276.015.117.16.154.16.308-.129.015-.18-.193-.219-.291-.013-.032-.03-.4.06-.293m-.221-.066c.033.014.036.194.029.243-.11-.039-.009-.16-.029-.243M35.7,46.1c0-.158.1.082.1.092.054.157.1.047.005.2-.12.053-.108-.27-.108-.287m-.08.15c0,.039-.029.018-.041.008-.05-.039.045-.076.041-.008m-.763-.235-.029.023c-.062-.049.092-.1.029-.023m-.287.628c.037.013.112.076.066.115-.025-.022-.075-.079-.066-.115m-.188-.576.016-.007.012,0c.1-.024.156.019.117.118-.073.185-.367,0-.145-.108m.145.479c-.054-.023-.141-.119-.058-.146s.026.053.058.146m-.191.075c-.025-.018,0-.071.021-.022Zm.564.605c-.083-.2-.38-.183-.581-.278.182-.138.685.315.73.257.013.138.191.158.271.242-.141-.077-.323.009-.42-.221m1.772.712c-.083-.033-.052-.02-.024-.008-.094-.034-.412-.149-.362-.173.1-.049.188.172.265.061a.571.571,0,0,0,.208.067c.023.061-.052.069-.087.053m4.012-1.272c-.292.065-.29.149-.422.242-.085.06-.416.142-.37.234.131-.065.339-.029.392-.2a.524.524,0,0,0,.4-.223c.025-.062.291.007.3-.1l.08.031c0-.111.075-.009.12-.009-.112.083-.63.236-.671.393.1.1.177-.118.242-.094.088.033.124-.019.2.019a1.549,1.549,0,0,1-.607.19c-.056.005-.512.159-.411.2a1.271,1.271,0,0,0,.467-.047,1.082,1.082,0,0,1,.564-.2c-.123.135-.574.143-.622.327.136.035.265-.04.4-.031-.051.079-.151.079-.233.077a.52.52,0,0,0-.167.008l-.05-.071c-.014,0-.045.092-.071.137-.076,0-.218.006-.221.03l.363.166c-.036.093-.7-.056-.821-.023s.263.131.27.134c.1.048.18-.036.253.057,0-.005-.523-.076-.566-.015,0,.072.07.015.092.061.09-.055.125.044.179.089-.251.074-.635-.191-.9-.212a1.3,1.3,0,0,0-.588-.022c.109-.02.174.079.276.082s.165-.084.282-.022a2.924,2.924,0,0,1,.544.245c-.139.093-.7-.261-.75-.139,0,0,.253.113.266.152-.019.1-.365-.09-.407-.105a1.787,1.787,0,0,0-.584,0c-.589.015-1.09-.308-1.662-.329.035-.1.571.011.613.088a.717.717,0,0,0,.518.011c.118-.026.236-.056.354-.086.028.067.147.044.187.022-.2-.157-.436-.043-.655,0a.444.444,0,0,1-.32-.038,1.008,1.008,0,0,0-.587-.083,1.04,1.04,0,0,0-.343,0c.031.033.016.046-.045.038s-.084-.087-.145-.1c-.118-.034-.16.112-.035.164s.258-.019.358.065a.478.478,0,0,0-.25.035c-.126.03-.162-.051-.254-.108-.13-.081.138-.17-.155-.159-.073,0-.1-.121-.027-.107.086.017.119.049.209.062a3.035,3.035,0,0,0,.439,0c-.014-.156-.337-.034-.4-.063a2.439,2.439,0,0,1-.709-.339,1.42,1.42,0,0,1,.389.116c.121.077.291.142.174-.032-.132-.047-.326-.2-.456-.208-.111-.005-.3-.035-.366-.141a1.978,1.978,0,0,0,.325.009,1.69,1.69,0,0,1,.4.227,3.861,3.861,0,0,0,.581.171c.128.05.267-.04.4.017-.132.165.25.057.3.039.137.106.364,0,.446.017.322.073.677-.11,1-.131-.115-.055-.241.014-.355.031a1.08,1.08,0,0,1-.406-.038c-.292-.1-.579.146-.862.068.135-.1-.276-.062-.3-.067-.12-.027-.173-.1-.313-.086a1.043,1.043,0,0,1-.337-.045,1.853,1.853,0,0,1-.494-.235c-.142-.082-.339,0-.359-.234.065.107.193.112.3.137-.028-.047-.114-.114-.079-.181.128.085.206.26.38.265.06.12.312.062.35.172a3.016,3.016,0,0,1,.3.069c.072.029.213-.012.294.046.034-.064-.4-.18-.45-.2-.209-.068-.358-.014-.5-.226.167-.165.416.046.521.161.029.032.146-.008.182-.022a.562.562,0,0,0,.156.041,1.1,1.1,0,0,0,.283-.063c.079-.017.2.057.2-.042-.081-.12-.273-.029-.377-.013a.762.762,0,0,1-.6-.137c.033.035.3-.026.365-.041a.818.818,0,0,1,.429.073,1.1,1.1,0,0,0,.322.064c.03,0,.341-.1.362-.057-.1-.214-.613.085-.711-.176.04-.048.122.029.138.044.045.047.276-.062.307-.072a.162.162,0,0,1,.1.04c.074.038.206-.013.29-.006a.82.82,0,0,0,.518-.114,5.42,5.42,0,0,1,1.175-.3c.048-.141.228-.105.3-.155a1.088,1.088,0,0,1,.273-.128,1.112,1.112,0,0,0,.211-.132c.018-.029.342-.188.4-.137.16-.185.139-.058.284.015.116.058.12-.123.174-.154.108-.064-.035.181-.036.183-.029.046-.092.2-.143.23.061.106.36-.39.4-.152.008.044-.031.335-.018.334.067,0,.2-.173.218-.244.067.034-.024.292.169.087a1.038,1.038,0,0,1,.273-.162c.014.086-.108.111-.129.182a1.441,1.441,0,0,0,.023.3c0,.168-.334.166-.244.293.162-.148.386-.056.123.066-.192.089-.432.058-.6.213m1.894,1.449a.981.981,0,0,0-.5-.062c-.081.01-.06-.114-.193-.11s-.284.038-.388-.058c.082-.067.2.118.242-.036.128.075.292.033.422.12.114-.044.353.059.47.081l.389-.095c-.073.19-.3.093-.438.16m.517-.146c.017-.044.084-.044.113-.044a.107.107,0,0,1-.113.044m.893.084c.036-.048.261-.1.25-.031s-.172.035-.25.031m1.51-.031c.025,0,.058-.013.071.022Zm.392-.031a.246.246,0,0,0-.14,0c.058-.09.709-.388.74-.277,0,.1-.512.175-.6.278m4.375.265c.058-.1.88,0,.88.018a4.927,4.927,0,0,1-.88-.018m.88-.1c-.046-.021-.152.006-.178-.062.071-.059.16-.01.237-.053.028.034-.059.08-.059.115m.792-.009c-.258-.136-.415-.068-.62-.122s-.313-.161-.467.006a2.883,2.883,0,0,1-1.212.157c-.047-.085.511-.123.536-.191.181.106.678-.052.842-.151.024.119.456.084.533.077.128-.012.263.143.418.127.039.078.215.09.271.137-.1.083-.194-.061-.3-.04m1.912-.088.1-.009c0,.1-.058-.009-.1.009m5.205-1.185a1.509,1.509,0,0,0,.25.04c-.064.044-.334.1-.38.031,0-.083.106,0,.13-.071m.028.584c.009.031.335.2.063.159-.069-.074-.19-.028-.242-.128.033-.121.112.014.179-.031m-.27-.3c-.03.054-.145,0-.167-.018a.586.586,0,0,1,.167.018m-.038.636c-.016.032-.062,0-.042-.017Zm-.1-.017-.03.017c-.038-.022.016-.043.03-.017M58.7,48c.025.022.136-.029.121.106-.179.1-.28-.2-.121-.106m-4.4.234c-.033-.031.037-.053.042-.013Zm.121.031c-.033-.031.038-.048.042-.009Zm1.243.509c-.3-.036-.568-.184-.864-.235-.014-.088.486.012.539.023a1.381,1.381,0,0,1,.305.093c.034.016.116.136.02.119m-.642-.827.012.053c-.066.018-.07-.045-.012-.053m.041.062c.05,0,.121,0,.138.044-.037-.031-.129.018-.138-.044m.18.278c.083-.031.136.052.208.009.035.1-.338-.02-.379-.009,0-.07.15-.026.171,0m.392.106-.063-.044Zm-.021-.278c.05.009.167-.071.138.053a.284.284,0,0,1-.138-.053m.73.457c-.139-.016-.6-.027-.678-.157-.021-.035.344.037.378.04a.4.4,0,0,0,.429-.008.915.915,0,0,0,.451-.023.9.9,0,0,1-.58.148m.13-.469c.011-.042.048-.007.062,0,0,.032-.072.037-.062,0m.1-.018a.312.312,0,0,1,.162-.032c-.012.022-.14.1-.162.032m.241-.063.021.053Zm.151.221v-.053c.043.057.156,0,.208.029Zm.071-.221c.212-.031.549-.194.809-.12a1.482,1.482,0,0,1-.809.12m.187.477c-.029-.044-.086-.029-.129-.044a1.152,1.152,0,0,1,.7-.082,5.152,5.152,0,0,0-.572.126m1.113.191a1.653,1.653,0,0,1-.513.01c.046,0-.292.032-.256-.007a2.049,2.049,0,0,1,.454-.132c.067-.016.334,0,.315.129m-.2-.615c.013.005.131-.1.167,0a.246.246,0,0,1-.167,0M57.7,47.65a1.031,1.031,0,0,1,.772-.137,1.555,1.555,0,0,1-.772.137m.142-.69c.017-.066.506-.129.588-.106a2.8,2.8,0,0,1-.988.266.9.9,0,0,1,.4-.16m-.484.16.034.021Zm-.116.039c.041-.018.025.036,0,.036-.063.009-.034-.022,0-.036m-.414.5c.021.026,1.565-.57,1.552-.38a1.672,1.672,0,0,0-.808.238,3.455,3.455,0,0,1-.388.174c-.039.013-.48.1-.443.038.02-.037.091,0,.087-.07m-.229-.168a.764.764,0,0,1,.2-.045c0,.083-.294.117-.359.128a.3.3,0,0,1,.159-.083m-.091.38-.268.066a.222.222,0,0,1,.268-.066m-.71.278c.109-.012.28-.119.342.009a.872.872,0,0,1-.342-.009m-.692-.725c.108-.017.274-.032.326-.045a1.192,1.192,0,0,1,.266.028c-.021.008-.677.128-.669.071a.149.149,0,0,1,.077-.054m.063.248c.221.088.356,0,.537.01.146.011.32-.059.422.03-.37.238-.834.083-1.231.022a1.47,1.47,0,0,1,.272-.062m-.651.318c.009,0,.339.079.312.147-.043.108-.65-.051-.612-.2.127-.065.173.09.3.053m-.079-.2c-.005.014-.013.063-.051.022Zm-.084.014c-.042-.026-.129.049-.15-.022.05.008.112-.018.15.022m-.267.318-.05.022Zm7.546-.773c-.016.156-.1.234-.139.063-.032-.156.155-.23.139-.063m.142-1.061c.016-.049.312-.119.3-.159.015.031.375-.121.438,0a3.021,3.021,0,0,1-.738.159m.371.751c-.066-.017-.149-.352-.142-.374.034-.105.255.29.142.374m.079.406-.029.009c-.013-.027.038-.062.029-.009m.3-.855c-.051-.009-.06-.1-.123-.09-.062-.031-.109,0-.179-.089.111-.19.376.193.3.179m.259-.846a4.188,4.188,0,0,0-.6.1c-.471.091-.917.29-1.234.367.083-.061.514-.177.529-.243l.191-.086c.111.055.266-.032.385-.07a2.061,2.061,0,0,1,.647-.1c.059-.042.221-.01.244-.013a.636.636,0,0,1,.3.035c-.1.133-.334,0-.461.009m-2.355.212c-.055-.086.437-.326.542-.3-.126.186-.374.179-.542.3m.472.288-.042-.022c.013.009.08-.018.042.022m-.3-.107c-.1.125-.363.232-.393.169.136-.044.245-.164.393-.169m1.441-.671c.058.026.1-.056.143-.056s-.225.151-.3.178-.288.074-.428.125c.174-.12.4-.142.582-.247m-.4-.071c.078-.035.055-.087.11-.1a.737.737,0,0,1,.249-.005.9.9,0,0,1-.359.106m.98-.159c.059-.031.516-.181.565-.084.092.181-.644.25-.706.159,0-.068.1-.052.141-.075m-.177.277c.04-.012.082.063.1-.021.075.044.314-.063.338.031a1.034,1.034,0,0,1-.221.039c.012,0-.337-.013-.215-.049m-.114-.149-.029.009c-.014-.035.016-.035.029-.009m-.088-.341c-.069.1-.591.167-.663.16.133-.067.583-.241.663-.16m-.722.191a1.512,1.512,0,0,1-.371.137.738.738,0,0,1,.371-.137m-.4.159-.051.031c-.045-.04.03-.074.051-.031m-.172.058c-.017-.062.061-.026.08-.014-.163.049-.271.212-.45.222,0-.086.3-.161.37-.208m-.45-.08c.017-.013.1-.161.142-.062-.078.1-.21.121-.313.181.054-.044.088-.124.171-.119m-1.251.862c-.025.057-.123.059-.172.061.075-.021.071-.163.151-.145.128-.069.22-.273.392-.212-.051.089-.245.313-.371.3m.3.053c-.033-.044.037-.027.05-.053.113.018-.046,0-.05.053m.121-.1c0-.08.425-.388.538-.358a1.06,1.06,0,0,1-.538.358m.309,1.5c-.054.031-.123.11-.18.071.008-.142.45-.265.522-.265-.026.148-.254.1-.342.194m.551.265c-.092.066-.195.252-.322.2a3.3,3.3,0,0,1,.3-.412c.078.021.028.16.022.212m-.109-.756c0-.027.062-.066.059-.022Zm.109-.04c.033-.052.107-.118.171-.106a.572.572,0,0,1-.171.106m.22-.128c-.049.027-.037-.057-.008-.053.008.018.046.035.008.053m-.358-.225c-.051.032-.284.025-.251,0a2.4,2.4,0,0,1,.638-.15,1.84,1.84,0,0,1-.387.146m.617.636a.34.34,0,0,1-.116.2c-.076-.215.142-.3.116-.2m.25-.243a.65.65,0,0,1-.134-.138c-.087-.137-.192-.095-.316-.074,0-.077.22-.125.262-.084.071.035.164,0,.228.052s.077.231-.04.244m-.037-.486c.113-.044.38-.161.38,0-.127,0-.326.039-.38,0"/><path d="M39.542,46.045c.032-.008.132-.2.192-.084-.154.094-.284.223-.442.31-.025.013-.4.172-.349.19s.23-.039.211-.116c.052.028.055.047.071-.021a1.271,1.271,0,0,0,.509-.226c.2.077.6-.357.651-.453,0,.006.147-.04.058-.086-.124.084-.232.248-.388.274.012-.065.158-.1.158-.177a1.99,1.99,0,0,1-.408.265c.034-.127.262-.188.321-.309a7.868,7.868,0,0,1-.733.4,3.285,3.285,0,0,0-.788.362.088.088,0,0,0,.078.033c0-.133.845-.384.859-.363"/><path d="M41.006,46.014c.221-.2-.129,0-.163.054.067.053.088-.062.163-.054"/><path d="M40.434,46.2c-.13.077-.156.2-.308.232-.042.011-.286.174-.3.077a.664.664,0,0,1,.229-.141c.02-.123.162-.065.209-.159-.328.031-.513.355-.775.5a3.8,3.8,0,0,1-.466.263c-.042.017-.4.085-.39.138a1.138,1.138,0,0,0,.8-.222c.1-.143.278-.156.405-.208a2.882,2.882,0,0,0,.34-.113c.112-.064.1-.183.183-.248.063-.047.245-.309.3-.287.034-.154-.247.086-.229.168"/><path d="M40.326,46.005c.011-.015.024-.045-.021-.031s-.008.067.021.031"/><path d="M41.306,45.992c-.117-.026-.163.067-.226.116-.08.063-.162.037-.25.084-.066.035-.35.333-.36.332.094.008.866-.432.836-.532"/><path d="M40.826,46.121c.007-.012.017-.039-.02-.04l-.02.071Z"/><path d="M40.013,46.112c-.174.1-.651.143-.672.411.1-.012.328-.227.363-.221.037.04.37-.125.309-.19"/><path d="M37.911,46.492c.034-.08.491-.152.613-.234-.1-.066-.328,0-.433.022-.125.155-.341.142-.51.212a.962.962,0,0,0,.33,0"/><path d="M38.432,46.452l.149-.026c.017-.071-.153-.071-.149.026"/><path d="M39.154,46.8c.11.107.493-.328.5-.324-.009-.048-.029-.033-.058-.016a3.87,3.87,0,0,0-.688.455c.1.013.219,0,.25-.115"/><path d="M37.932,46.717c.121.022.577-.035.608-.129-.134.063-1.212,0-1.159.235.1.008.519-.151.551-.106"/><path d="M38.374,47.035a.975.975,0,0,0,.231-.173c.093-.087.367-.087.386-.234.039.069.1.019.084-.031-.112-.055-.487.183-.572.248a1.348,1.348,0,0,1-.621.19c.14.1.336-.044.492,0"/><path d="M39.8,46.992c.013-.072.2-.108.252-.129.032-.013.411-.184.4-.234a1.092,1.092,0,0,0-.666.292c-.079.008-.01.064.015.071"/><path d="M36.772,46.947c-.134-.093-.613-.143-.542,0a2.424,2.424,0,0,1,.417.007c.122.02.277.091.4-.007l.288-.009c-.147-.125-.405-.019-.567.009"/><path d="M39.321,47.137c.053-.038.2-.076.254-.146-.061-.044-.42.143-.412.156.028.047-.4.177-.49.237a1.292,1.292,0,0,0,.23-.023,1.281,1.281,0,0,1,.289-.019c.169-.017.492-.1.57-.276a1.135,1.135,0,0,1-.326.13c-.016,0-.325.048-.219-.063Z"/><path d="M38.074,47.371a3.673,3.673,0,0,1-.793.066,1.353,1.353,0,0,0,.567.085c.265-.048.523-.189.793-.243,0-.01-.035-.084-.567.092"/><path d="M35.687,47.309a.421.421,0,0,1,.15.044.309.309,0,0,0-.209-.1.057.057,0,0,1,.059.053"/><path d="M39.654,47.393a2.966,2.966,0,0,1-.542.128c.064-.115-.267-.1-.313-.1a.794.794,0,0,0-.282.076c-.084.034-.306.016-.356.051.029.2.559.01.615-.047.039-.039.124.079.106-.046.043.037.133.059.092.137.126-.042.261-.014.388-.044l.215.039c.07-.01.435-.131.465-.092.037-.1.123.045.142-.053-.18-.037-.383.12-.53-.053"/><path d="M36.572,47.468c-.041.086.636.124.53-.009a1.025,1.025,0,0,1-.53.009"/><path d="M39.074,47.672c-.05.049-.21.027-.171.106a.67.67,0,0,1,.43.053c.032.013.129.029.108-.044a.646.646,0,0,0-.367-.115"/><path d="M38.161,47.871a1.6,1.6,0,0,0-.68,0c-.016.14.7.059.711.044Z"/><path d="M42.7,44.847c.014-.031-.068-.046-.043,0s.029.03.043,0"/><path d="M39.225,43.415c.042-.039-.051-.06-.05-.03Z"/><path d="M39.425,43.5c0-.049-.088-.071-.134-.106-.1.115.1.04.134.106"/><path d="M39.375,43.605a.194.194,0,0,0-.134-.071c-.029.1.1.06.134.071"/><path d="M39.162,43.734c-.107.129.15.313.24.259.02-.012-.234-.176.081-.237-.127-.11-.313-.043-.442-.151-.035.12.169.071.121.129"/><path d="M39,43.893l-.021.053c0,.021.079.078.119.179.019.048.155.126.206.15s-.217-.454-.3-.382"/><path d="M38.882,44.582c-.008-.12-.177-.04-.221-.137-.024.025.15.306.145.226,0-.035-.082-.069-.024-.1s.148.157.242.167a.2.2,0,0,0-.142-.159"/><path d="M34.336,44.757c.058-.008.126-.191.092-.237-.15.086-.046.192-.179.076-.116.052-.028.2-.071.283.108.017.085-.112.158-.122"/><path d="M34.069,44.688c.008-.013.039-.052-.013-.052Z"/><path d="M38.682,45.057c.159.082-.084-.385-.186-.321.025.018.083.205.043.173s-.2-.16-.236-.136c.024.091.265.267.321.384.024-.052-.1-.182.058-.1"/><path d="M39.162,44.967c.051-.007-.045-.2-.1-.151.061.035.049.158.1.151"/><path d="M35.771,44.838c-.025.023-.007.045.029.04Z"/><path d="M34.457,44.879c-.021-.017-.139.087-.079.15.1,0,.036-.1.079-.15"/><path d="M35.687,45.007l.063-.031c0-.124-.076,0-.063.031"/><path d="M38.073,45.007c-.05.124.077.23.109.341.036-.037-.068-.317-.109-.341"/><path d="M35.637,45.144c.008,0,.06-.058.033-.092a.069.069,0,0,0-.033.092"/><path d="M34.578,45.294c.013-.079.154-.106.1-.212-.029.062-.117.133-.1.212"/><path d="M35.158,45.263c0-.035.018-.061-.008-.106-.027.041-.3.4-.244.454l.093-.03c.042.082-.037.162-.012.243a.251.251,0,0,0,.166-.253c-.026-.121.184-.218.155-.352-.068,0-.172.264-.271.309-.056-.046.05-.254.121-.265"/><path d="M35.408,45.444c.048-.04.091-.241.05-.265-.019.042-.1.309-.05.265"/><path d="M38.774,45.4a.227.227,0,0,0-.05-.137c-.065-.023,0,.118.05.137"/><path d="M38.812,45.506c.017-.022.017-.084-.029-.062-.017.026-.008.067.029.062"/><path d="M35.22,45.749a.2.2,0,0,1,.029.12c.041-.044.166-.289.088-.372-.005.132-.243.277-.117.252"/><path d="M38.824,44.975c.014-.022-.264-.474-.312-.447s.273.508.312.447"/><path d="M35.854,43.321a.332.332,0,0,0,.226.055l-.021-.053c-.067-.018-.3-.053-.2,0"/><path d="M35.808,43.446c.046-.022.1.084.113,0,0-.057-.188-.089-.113,0"/><path d="M35.7,43.649c.012.018.13.05.121-.008-.041.015-.089-.039-.121.008"/><path d="M35.5,43.848c-.027.041,0,.054-.061.1,0,.092.071.034.107.047.1.034-.09.092-.083.13l.2-.049c-.006-.018-.028-.191-.078-.17.037-.038.121-.181.157-.127.076-.079-.2-.112-.258-.021.016.024.187.013.133.075-.026.03-.092-.015-.114.017"/><path d="M37.539,44.065a.139.139,0,0,0-.167-.053c.059.009.113.067.167.053"/><path d="M37.252,44.083a.05.05,0,0,0,.025.074l.062.012c.044-.027-.067-.088-.087-.086"/><path d="M35.921,44.37a.188.188,0,0,0,.129-.075l-.07-.053c-.009.049-.093.066-.059.128"/><path d="M36.293,44.328c-.135,0-.048.156.008.055.058.063-.064.117-.013.191l.1-.16c.033-.1-.043-.086-.095-.086"/><path d="M34.857,42.492c-.058,0-.034-.116-.121-.093.015.039.121.236.121.093"/><path d="M34.469,42.611c.055.244.4.153.359.04a.244.244,0,0,1-.172-.08c-.083-.076-.121.105-.187.04"/><path d="M34.206,43.427c-.065-.044-.147.088-.147.088s.116-.027.147-.088"/><path d="M34.807,43.6c-.015-.022-.467.018-.279.159.046-.128.238-.023.279-.159"/><path d="M34.407,43.641c-.056-.133-.154.1-.159.106-.016.058.145.006.159-.106"/><path d="M34.219,43.756c-.008-.048-.046-.018-.05.009.017.04.029,0,.05-.009"/><path d="M37.781,41.983c-.008.031-.042.058-.029.1a.131.131,0,0,1,.088-.044Z"/><path d="M37.973,42.028c-.052-.053-.156.1-.212.128-.02.129.11.036.15.123.033-.094.168-.075.212-.158a.321.321,0,0,0-.2.022c-.043-.038.075-.09.05-.115"/><path d="M38.653,42.792c-.07,0-.056.163-.179.16-.04.066-.239-.016-.163.114a.453.453,0,0,1,.469.023c-.028-.058-.13-.083-.13-.148,0-.012.115.036.132-.012s-.021-.068-.069-.054c-.113,0,.01-.08-.06-.083"/><path d="M44.166,45.4c-.176.061-.7.366-.878.278.073.094-.068.11.141.046.122-.038.249-.06.367-.108.276-.037.546-.134.821-.179.151-.025.221-.05.357-.062.037,0,.451-.109.357-.175-.158.067-.782.068-1.165.2"/><path d="M47.9,45.59c-.091-.084-.243-.054-.359-.075a1.658,1.658,0,0,0-.6-.159c-.135.008-.633-.015-.693.15.035.064.553-.027.635-.022a2.72,2.72,0,0,0,.376.067c.2.016.431.135.641.039"/><path d="M45.031,45.644c.075.1.1-.086.167,0,.017-.149.839.016.822-.191-.1-.044-.177.047-.273.061-.17.025-.324-.062-.508-.014s-.342.126-.522.16-.358-.057-.529.036c-.011.064.341.081.412.087.206.018.2.023.325-.093.038-.034.1.054.106-.046"/><path d="M51.046,45.674a1.759,1.759,0,0,0-.585.194c-.207.063-.493.049-.667.2.121.054.371-.063.477-.1a.547.547,0,0,1,.344-.031,1.245,1.245,0,0,0,.38-.079c.139-.025,1.014.21,1.025.186a5.165,5.165,0,0,0-.974-.365"/><path d="M46.09,45.908c.071.071.089-.091.158-.022.057-.1.268-.009.351-.024a2.555,2.555,0,0,1,.411,0c.127,0,.3.139.41-.019-.117-.027-.212-.01-.32-.042-.085-.026-.177-.068-.263-.089a1.735,1.735,0,0,0-.739.1c-.1-.028-.248.058-.349.071a2.442,2.442,0,0,1-.373.022c-.071,0-.453-.078-.458.066.117.033.272.018.388.039a1.61,1.61,0,0,0,.235.066c.128,0,.2.049.338-.015Z"/><path d="M43.045,46.005c-.1.067-.325-.069-.35.093.1.068.334-.072.463-.039a.421.421,0,0,1,.388.075,1.131,1.131,0,0,0,.521-.129c.066,0,.559.015.542-.045-.094-.076-.483-.042-.6-.054a1.465,1.465,0,0,0-.281-.007.336.336,0,0,1-.212.061c-.149.067-.317.013-.472.045"/><path d="M51.951,46.163a1.5,1.5,0,0,0-.442-.157c-.049-.015-.515-.034-.355.093.089-.158.647.107.743.171.2.132.57.427.821.395l-.022-.044a5.353,5.353,0,0,1-.745-.458"/><path d="M50.616,46.2a.623.623,0,0,0,.459.066,1.186,1.186,0,0,1,.5.063c.04.007-.161-.115-.2-.123-.153-.029-.333.035-.473-.039-.108-.057-.221-.158-.329-.038-.068-.018-.492-.006-.492.062.181.04.358-.027.542.009"/><path d="M55.1,46.189c.066-.034.158.068.224,0-.209-.074-.485.035-.542-.023-.1-.1-.422.01-.5.088a2.843,2.843,0,0,0,.473-.012,1.982,1.982,0,0,0,.341-.051"/><path d="M49.623,46.2c-.2.066-.9.057-1.209.362a7.58,7.58,0,0,0,1.48-.362c-.056-.082-.2.013-.271,0"/><path d="M44.43,46.31a.771.771,0,0,0-.405.085c-.1.031-.359.019-.429.1.311.126.653-.1.954-.055a1.99,1.99,0,0,0,.357-.039.817.817,0,0,0,.541-.087.8.8,0,0,0-.267.032c-.157.04-.174.006-.321-.019a1.127,1.127,0,0,0-.43-.013"/><path d="M49.043,46.681c-.133-.008-.588.156-.58.227a1.491,1.491,0,0,0,.774-.292c.041-.026.253.016.33-.011a1.851,1.851,0,0,1,.59-.162c.085,0,.41,0,.437.071a1.26,1.26,0,0,1,.352.085c.084.056.241-.007.349.006.061.006.387.146.43.089a4.51,4.51,0,0,0-.444-.2,1.044,1.044,0,0,0-.315-.029,1.05,1.05,0,0,1-.363-.085,1.311,1.311,0,0,0-.837.012,2.319,2.319,0,0,0-.723.293"/><path d="M54.578,46.492c.017-.08.185-.064.129-.106a4.1,4.1,0,0,0-.6.106c-.124-.084-.479-.038-.538.106a3.142,3.142,0,0,0,.322,0c.057.007.189.05.228-.006a.5.5,0,0,0,.3.022c.067-.006.1-.133.159-.119"/><path d="M45.861,46.43l-.021.04c.063.012.067-.055.021-.04"/><path d="M53.125,47.247a2.393,2.393,0,0,0-.371-.168,1.424,1.424,0,0,1-.415-.237,1.93,1.93,0,0,0-.844-.412,1.039,1.039,0,0,0,.421.221c.03.059.151.095.151.106.152.068.2.373.422.309a1.619,1.619,0,0,0,.636.181"/><path d="M45.781,46.461c0-.018-.079-.013-.042.022Z"/><path d="M57.173,46.969a2.242,2.242,0,0,0-.6-.165,2.226,2.226,0,0,1-.505-.145,2.415,2.415,0,0,1-.418-.115c-.079-.148-.315.044-.391.065-.034.01-.622.175-.531.231a2.642,2.642,0,0,1,.484-.145,1.593,1.593,0,0,1,.609.075c.169.073.171.112.324.04l.258.046a1.349,1.349,0,0,1,.408.224c.048.028.36-.049.362-.111"/><path d="M50.766,46.748c.046,0,.1.079.129.031a1.432,1.432,0,0,0-.948-.146c-.1.02-.772.157-.8.283a3.782,3.782,0,0,0,.77-.168c.23-.049.472.058.694-.066-.021.112.095.047.15.066"/><path d="M46.22,46.735a3.606,3.606,0,0,0-.768-.094c-.134.007-.621,0-.713.116.182.108.378,0,.568-.011a1.133,1.133,0,0,1,.512.13c.1.007.812-.11.843-.212a2.089,2.089,0,0,0-.442.071"/><path d="M47.191,47.119a3.813,3.813,0,0,0-1,.171,4.222,4.222,0,0,1-.948.293c-.012.031.193.152.232.15.007,0,.345.017.332-.027s-.092-.032-.1-.076a5.262,5.262,0,0,1,.816-.378c.255-.039.5.032.757-.011.128-.021.291-.211.45-.3.212-.113.639-.1.8-.265a2.346,2.346,0,0,0-.733.135c-.213.079-.384.223-.6.3"/><path d="M53.727,46.726c-.046.009-.275-.095-.4,0,.143.183.4.068.571.009-.02-.116-.111.007-.171-.009"/><path d="M43.108,46.748c-.062.009-.341.041-.35.128a.179.179,0,0,0,.171-.036c.093.042.2.033.293.068a.442.442,0,0,0,.318.022c.061-.025.375-.178.419-.1.02-.113.343-.039.45-.075a1.231,1.231,0,0,0-.6,0c-.233.035-.467-.059-.7-.007"/><path d="M54.278,46.735c-.146.031-.478.061-.446.119.043.077.523-.022.446-.119"/><path d="M42.486,46.788a.272.272,0,0,0,.121-.009c.008-.062-.113-.022-.121.009"/><path d="M51.893,47.192a.969.969,0,0,0,.162-.02.76.76,0,0,0,.292.075c-.021-.079-.114-.075-.171-.106a1.6,1.6,0,0,1-.667-.3c-.192-.124-.537-.025-.148.069a.739.739,0,0,1,.34.165.415.415,0,0,0,.192.113"/><path d="M52.605,46.788c-.012-.013-.079-.04-.037.013Z"/><path d="M47.341,46.779c-.254.142-.959-.047-1.093.235.051-.04.3,0,.368,0a1.1,1.1,0,0,0,.455-.041l.241-.1s.23-.117.029-.1"/><path d="M55.83,46.885a.241.241,0,0,0,.15.022c-.08-.064-.927-.189-.921-.044.076-.021.227.048.313.055.15.011.289-.072.458-.033"/><path d="M52.739,46.832l-.007,0-.073-.023c-.067.015.144.1.08.026"/><path d="M48.443,47.468c.025-.119.13.052.142-.075.292.231.631-.191.827-.266.134-.052.531-.047.594-.136a1.027,1.027,0,0,1,.227-.095,1.885,1.885,0,0,1,.4.041c-.263-.328-1.233.106-1.537.2a4.707,4.707,0,0,0-.75.218.837.837,0,0,0-.258.208c-.14.07-.283.137-.421.213.179.033.239-.037.4-.121.1-.05.2-.1.289-.158-.018-.087.056-.006.08-.031"/><path d="M49.085,46.96c.051,0,.057-.025.017-.031,0,0-.055,0-.017.031"/><path d="M56.56,47.181a1.513,1.513,0,0,0-.359-.146c-.024-.085.094-.02.079-.066-.139-.02-.186.092-.355.034-.056-.019-.318-.118-.346.01a1.714,1.714,0,0,1,.551.243c.046-.022.3.061.43-.075"/><path d="M44.668,47.15c.091.12.235-.006.35.022.049.091.252.065.313.022a.9.9,0,0,0,.285-.018.938.938,0,0,0,.466-.123,15.172,15.172,0,0,1-1.757-.07,3.51,3.51,0,0,0-.916.2c-.082.014-.672-.078-.672.03.1.032.208-.064.279.044a4.012,4.012,0,0,1,.485-.021c.2-.031.382-.112.579-.138a1.5,1.5,0,0,0,.588.053"/><path d="M56.722,47.128c-.054-.049-.367-.241-.362-.106.053,0,.374.186.362.106"/><path d="M50.916,47.128c.1.08.246.022.3.033s.221.093.265.075c.062-.026-.147-.144-.2-.13a.892.892,0,0,0-.571-.124c.02.106.16.052.2.146"/><path d="M48.622,47.088c-.021-.012-.154-.04-.209.01.062.1.134-.01.209-.01"/><path d="M47.4,47.583a.652.652,0,0,0,.408-.171c.136-.132.408-.148.564-.271-.055-.139-.527.11-.6.169s-.519.284-.488.318a.31.31,0,0,0,.117-.045"/><path d="M51.546,47.446c-.26-.108-.536-.173-.789-.276a1.446,1.446,0,0,0-.876.106,2.033,2.033,0,0,0-.779.329.946.946,0,0,0-.41.121c-.019.032.293-.034.329-.04a.84.84,0,0,0,.386-.126c.047-.03.2-.117.235-.1.106.041.22-.114.329-.146a1.051,1.051,0,0,1,.7.012c.174.066.592-.018.737.115a.572.572,0,0,0,.142.009"/><path d="M47.321,47.407c.1-.026.07-.1.123-.134s.2-.032.228-.113c-.09-.064-.472.142-.573.179-.058.022-.477.11-.449.152a1.219,1.219,0,0,0,.409,0,1.578,1.578,0,0,1,.262-.084"/><path d="M52.547,47.756c.084.067.219-.014.3.061.147-.02.285.136.429.076,0-.086-.607-.178-.7-.232-.326-.181-.653-.3-.97-.5-.056.047.43.351.495.418s.356.34.448.179"/><path d="M45.1,47.424c.263.027.455-.124.692-.159,0-.1-.288.023-.316.03a1.4,1.4,0,0,1-.6-.008c-.059.157.184.038.229.137"/><path d="M43.811,47.25c-.1.015-.44.172-.137.167a3.749,3.749,0,0,0,.473-.116.569.569,0,0,0,.342-.022l-.029-.045c-.3.014-.434-.015-.649.016"/><path d="M50.837,47.552c.058.08.369.06.417.031-.11-.158-.416-.039-.573-.067-.1-.017-.579-.156-.537.1.146-.085.622.06.693-.067"/><path d="M51.676,47.7a1.522,1.522,0,0,1,.542.168c0-.126-.551-.306-.542-.168"/><path d="M50.153,47.764c0,.095.55.007.592-.061a.841.841,0,0,0-.592.061"/><path d="M55.141,46.3c-.125-.031-.4.03-.392.072.006.064.531-.052.6-.041-.044-.042-.158-.1-.209-.031"/><path d="M51.746,46.717c.015.1.126.072.192.1a.325.325,0,0,0-.192-.1"/><path d="M59.486,42.358a1.315,1.315,0,0,0-.777.218.845.845,0,0,0-.412.711.813.813,0,0,0,.312.625,1.224,1.224,0,0,0,.833.271,1.26,1.26,0,0,0,.891-.3.808.808,0,0,0,.281-.62c0-.505-.429-.9-1.128-.9m.488,1.461a.472.472,0,0,1-.5.3.5.5,0,0,1-.528-.289,1.68,1.68,0,0,1-.077-.6c0-.4.05-.8.588-.8s.586.328.586.836a1.381,1.381,0,0,1-.067.56"/><path d="M57.542,43.212c-.093-.015-.189-.023-.289-.03.088-.008.177-.018.262-.034.268-.053.453-.182.453-.378,0-.129-.07-.264-.313-.358a2.046,2.046,0,0,0-.683-.086H55.76l-.045.044.045.044h.283v1.613H55.76l-.045.044.045.045h1.213c.393,0,.844-.014,1.042-.258a.332.332,0,0,0,.077-.215c0-.258-.284-.384-.55-.43m-.929-.8h.531c.165.034.248.128.248.369,0,.3-.161.368-.463.368h-.316Zm.771,1.514a.359.359,0,0,1-.172.1h-.6v-.8h.359a.614.614,0,0,1,.385.1.383.383,0,0,1,.108.321.4.4,0,0,1-.081.286"/><path d="M63.132,44.017h-.251l-.871-.955.52-.5a.463.463,0,0,1,.133-.092h.285L63,42.416l-.051-.051h-.812l-.045.05.051.052h.307v0l-.064.089-.444.42-.456-.514h.192l.051-.052-.051-.051H60.55l-.051.051.051.052h.273l.765.857L61,43.873a.581.581,0,0,1-.193.144H60.55l-.051.051.051.052h.806l.051-.052-.051-.051h-.3l0-.012c0-.02.024-.052.072-.1l.531-.5.559.618h-.256l-.052.051.052.052h1.174l.051-.052Z"/><path d="M63.885,37.369a1.92,1.92,0,0,0-1.669.536,1.852,1.852,0,0,0-.431.565v-.581c0-.016.026-.208-.166-.208H59.312a.162.162,0,0,0-.161.162v.008a.162.162,0,0,0,.161.163h.654a.228.228,0,0,1,.079.175v3.145c0,.2-.084.264-.155.286h-.471a.152.152,0,0,0,0,.3h3.525a.152.152,0,0,0,0-.3h-.909a.2.2,0,0,1-.174-.214l-.02-1.557c0-1.462.548-1.811.637-1.883a1.657,1.657,0,0,1,1.656-.255c.229.128.211.177.169.2h0a.986.986,0,0,0-.24-.029.758.758,0,1,0,0,1.5.89.89,0,0,0,.8-.444h0a.848.848,0,0,0,.061-.141c.322-1.194-1.038-1.422-1.038-1.422"/><path d="M59.356,40.688l.014-.034.007-.049a.182.182,0,0,0-.181-.181.191.191,0,0,0-.165.109l0,0A2.455,2.455,0,0,1,56.6,41.807c-.788,0-1.228-.218-1.228-.849V39.4H58.7c.242,0,.712.059.712-.232,0-1.261-1.44-2.1-2.941-2.1-1.728,0-3.548.909-3.548,2.559s1.7,2.5,3.578,2.5a2.9,2.9,0,0,0,2.859-1.436m-3.981-2.75c0-.327.273-.558.925-.558.728,0,1.061.194,1.061.51v1.188H55.375Z"/><path d="M48.975,40.833a.085.085,0,0,0-.076.051v0c-.179.372-.41.549-.7.549-.355,0-.581-.266-.581-.726V37.923h1.008a.161.161,0,0,0,.162-.161v-.047a.162.162,0,0,0-.162-.162H47.613l0-1.5a.092.092,0,0,0-.1-.1.094.094,0,0,0-.092.06c-.369,1.336-1.2,1.519-1.693,1.549h-.357a.162.162,0,0,0-.162.162v.047a.161.161,0,0,0,.162.161h.492l-.024,2.852c0,.429.258,1.276,1.736,1.218,1.064-.043,1.388-.612,1.478-1.056v0l0-.024a.083.083,0,0,0-.082-.082"/><path d="M52.743,40.833a.082.082,0,0,0-.075.051v0c-.179.372-.41.549-.7.549-.355,0-.581-.266-.581-.726V37.923h1.008a.162.162,0,0,0,.162-.161v-.047a.163.163,0,0,0-.162-.162H51.381l0-1.5a.092.092,0,0,0-.1-.1.1.1,0,0,0-.092.06c-.369,1.336-1.2,1.519-1.693,1.549h-.358a.162.162,0,0,0-.161.162v.047a.162.162,0,0,0,.161.161h.493l-.025,2.852c0,.429.259,1.276,1.737,1.218,1.064-.043,1.388-.612,1.478-1.056v0l0-.024a.083.083,0,0,0-.082-.082"/><path d="M40.978,35.118a4,4,0,0,0-4.032,3.657,3.091,3.091,0,0,0,1.063,2.273l.083-.019.075.045.05-.008a.9.9,0,0,1,.164-.019.444.444,0,0,1,.147.022l.044,0,.082.01.023.006.022.009a.321.321,0,0,1,.164.163.391.391,0,0,1,.138.192,1.667,1.667,0,0,0,.37.186.8.8,0,0,1,.389.233.374.374,0,0,1,.218.2A4.514,4.514,0,0,0,41,42.178c2.132,0,4.074-1.55,4.074-3.454s-1.959-3.606-4.092-3.606m.036,6.735c-1.578-.013-2.064-1.417-2.064-3.149s.582-3.175,2.123-3.175c1.459,0,1.981,1.467,1.981,3.2s-.641,3.138-2.04,3.125"/></g></g></svg>