<svg xmlns="http://www.w3.org/2000/svg" xmlns:xlink="http://www.w3.org/1999/xlink" viewBox="0 0 97.219 86.203"><defs><clipPath id="a"><rect x="34.154" y="29.511" width="28.911" height="27.182" fill="none"/></clipPath></defs><g><rect width="97.219" height="86.203" fill="none"/><g clip-path="url(#a)"><path d="M61.743,55.461a.03.03,0,0,1-.033.03h-.033v-.06h.033a.031.031,0,0,1,.033.03m.041.137-.044-.083a.056.056,0,0,0,.039-.054.061.061,0,0,0-.064-.061h-.074v.2h.036V55.52H61.7l.041.078Zm.067-.1a.147.147,0,1,1-.147-.15.147.147,0,0,1,.147.15m.037,0a.184.184,0,1,0-.184.183.184.184,0,0,0,.184-.183m-1.182.192.339-1.6h.725l-.339,1.6Zm-4.5-2.251a.144.144,0,0,1,.137-.114h.612l-.318,1.5a1.024,1.024,0,0,1-1.155.869H54.44c-.666,0-.91-.281-.785-.869l.318-1.5h.612a.09.09,0,0,1,.089.114l-.261,1.226c-.064.3.019.418.316.418h.719c.3,0,.43-.117.494-.418Zm.978-.113-.5,2.364h.72l.355-1.673.616,1.673h.542L60.1,54.019l-.357,1.673h.728l.5-2.364H59.836L58.8,54.8l-.52-1.467Zm3.99.1a.153.153,0,0,1,.143-.118h.523a.092.092,0,0,1,.092.118l-.076.36a.154.154,0,0,1-.143.118h-.523a.093.093,0,0,1-.093-.118Zm-11.192,0a.154.154,0,0,1,.143-.118h.523a.093.093,0,0,1,.093.118l-.077.36a.154.154,0,0,1-.143.118H50a.092.092,0,0,1-.092-.118Zm-3.786,2.261h2.3l.129-.607H47.047l.374-1.757H46.7Zm3.324,0,.339-1.6h.725l-.339,1.6Zm.953,0h2.806l.121-.568H51.736L53.619,53.9l.12-.568H50.977l-.121.568h1.621l-1.886,1.228ZM36.336,54.51a.054.054,0,0,0-.054.054.043.043,0,0,0,.008.029l.339.5h.712a.856.856,0,0,0,.827-.757l.044-.2c.1-.464-.037-.81-.726-.81H35.657l-.5,2.365h.725l.378-1.777h.96c.219,0,.278.092.243.252l-.019.091a.284.284,0,0,1-.288.252Zm6.375,1.182-.542-1.753L40.9,55.692H38.042l.5-2.364h2.362l-.117.548H39.153l-.08.379h1.455l-.1.49H38.969l-.081.379H40.5l1.307-1.8h.9l.627,2.022.432-2.022h1.864c.689,0,.824.346.725.81l-.043.2a.871.871,0,0,1-.731.752l.408.6h-.849l-.741-1.1a.043.043,0,0,1-.008-.029.054.054,0,0,1,.054-.054H45.3a.284.284,0,0,0,.289-.252l.019-.091c.034-.16-.025-.252-.243-.252h-.995l-.378,1.777Zm-.807-21.7a17.817,17.817,0,0,1,2.32-2.063.241.241,0,0,0-.14-.437c-.474,0-2.639,0-3.469,0a1.2,1.2,0,0,0-.719.181,10.577,10.577,0,0,0-2.3,1.985c-.265.3-.236.554.165.551h3.41a.878.878,0,0,0,.73-.217m-1.335,1.678a.207.207,0,0,0-.176-.317H36.949c-.39-.007-.581.111-.674.314-1.148,2.568-.409,5.535,2.132,8.066a.143.143,0,0,0,.24-.1c.005-.134.026-.373.044-.541a.844.844,0,0,0-.067-.532,4.848,4.848,0,0,1,.069-2.983,11.983,11.983,0,0,1,1.876-3.9m2.446,15.215a2.4,2.4,0,0,1-2.146-1.221,9.319,9.319,0,0,1-1.522-5.6,14.159,14.159,0,0,1,3.2-8.634,13.039,13.039,0,0,1,10.314-4.917,11.938,11.938,0,0,1,4.81.88,6.978,6.978,0,0,1,4.3,7.749,8.567,8.567,0,0,1-3.276,5.123,12.612,12.612,0,0,1-7.449,2.573,19.9,19.9,0,0,1-2.28-.072c-.256-.025-.31-.065-.4-.191a2.3,2.3,0,0,1-.275-.516c-.085-.209.041-.254.269-.278a9.719,9.719,0,0,0,3.223-.812,8.844,8.844,0,0,0,4.962-6.584,6,6,0,0,0-.889-4.517A3.927,3.927,0,0,0,52.8,32.413a5.591,5.591,0,0,0-4.28,2.164c-1.961,2.336-2.514,5.1-2.1,8.478.338,2.739,1.708,4.845,3.434,6.982a.547.547,0,0,1,.127.59.484.484,0,0,1-.424.257Z"/></g></g></svg>