<svg xmlns="http://www.w3.org/2000/svg" xmlns:xlink="http://www.w3.org/1999/xlink" viewBox="0 0 97.219 86.203"><defs><clipPath id="a"><rect x="24.917" y="35.655" width="47.384" height="14.893" fill="none"/></clipPath></defs><g><rect width="97.219" height="86.203" fill="none"/><g clip-path="url(#a)"><path d="M70.681,44.973a.528.528,0,0,0-.545.514.538.538,0,0,0,1.076.014.527.527,0,0,0-.531-.528m.621.653a.09.09,0,0,0-.02.028.627.627,0,0,1-.606.468.625.625,0,1,1,.586-.853c.014.035.027.07.04.106Z"/><path d="M27.207,46.909a6.322,6.322,0,0,1,.662-8.395,6.624,6.624,0,0,1,8.54-.562,13.2,13.2,0,0,1-3.472,5.642,13.577,13.577,0,0,1-5.73,3.315"/><path d="M38.033,39.7a6.336,6.336,0,0,1-1.676,8.59,6.6,6.6,0,0,1-8.892-1.056l.094-.032c.958-.292,1.929-.535,2.907-.75.817-.18,1.636-.355,2.452-.539a13.727,13.727,0,0,0,1.9-.556,6.177,6.177,0,0,0,1.441-.752,4.546,4.546,0,0,0,1.876-2.865,4.223,4.223,0,0,0-.076-1.945c-.008-.032-.017-.063-.025-.095"/><path d="M46.819,43.164a2.042,2.042,0,0,0-.375-1.233,1.881,1.881,0,0,0-1.845-.8,1.833,1.833,0,0,0-1.239.694,2.1,2.1,0,0,0-.463,1.74,1.8,1.8,0,0,0,.755,1.215,2.088,2.088,0,0,0,1.425.373,1.8,1.8,0,0,0,1.287-.669,2.031,2.031,0,0,0,.455-1.315M42.832,45.3v2.573c0,.19-.035.223-.23.223H41.97c-.14,0-.186-.045-.186-.183,0-1.456,0-2.912,0-4.369a4.63,4.63,0,0,1,.1-1.114,2.9,2.9,0,0,1,2.177-2.245,3.046,3.046,0,0,1,3.4,1.338,2.963,2.963,0,0,1,.425,1.239,3.018,3.018,0,0,1-.233,1.614,2.813,2.813,0,0,1-2.171,1.7,3,3,0,0,1-2.561-.723l-.073-.061-.021.01"/><path d="M56.749,43.2c0,.035,0,.071,0,.107s.008.089.013.134a1.82,1.82,0,0,0,.46,1.054,2.017,2.017,0,0,0,1.859.64,1.78,1.78,0,0,0,1.394-1,2.114,2.114,0,0,0,.22-1.165A2.09,2.09,0,0,0,60.38,42a1.931,1.931,0,0,0-2.8-.505,2.1,2.1,0,0,0-.834,1.7m-.036,2.075v2.641c0,.139-.044.182-.187.182h-.668a.341.341,0,0,1-.09-.01.12.12,0,0,1-.094-.109.422.422,0,0,1,0-.062q0-2.208,0-4.414a5.579,5.579,0,0,1,.083-.991,2.858,2.858,0,0,1,.614-1.315,2.907,2.907,0,0,1,1.945-1.085,3.059,3.059,0,0,1,3.094,4.53,2.791,2.791,0,0,1-2.037,1.435,2.965,2.965,0,0,1-2.495-.677c-.03-.026-.057-.054-.087-.079a.905.905,0,0,0-.078-.046"/><path d="M53.8,42.631c-.012-.04-.018-.068-.028-.1a2.155,2.155,0,0,0-1.168-1.257,1.846,1.846,0,0,0-.906-.17,2.03,2.03,0,0,0-1.181.475,1.975,1.975,0,0,0-.7,1.163c-.011.057-.014.115-.021.186.1-.031.188-.058.275-.083a4.575,4.575,0,0,1,1.542-.116q.329.021.657.046a4.248,4.248,0,0,0,1.227-.074c.1-.021.2-.048.307-.074m-1.189,1.108a7.566,7.566,0,0,1-1.007-.079c-.193-.024-.387-.051-.582-.059a2.593,2.593,0,0,0-1.056.173c-.061.024-.067.038-.043.1a1.622,1.622,0,0,0,.346.555,2.083,2.083,0,0,0,1.249.655,1.952,1.952,0,0,0,1.734-.591c.023-.023.046-.048.07-.071a.178.178,0,0,1,.218-.033c.226.111.45.226.675.34a.324.324,0,0,1,.047.028.169.169,0,0,1,.026.245,3.034,3.034,0,0,1-1.109.831,3.659,3.659,0,0,1-.994.258,3.018,3.018,0,0,1-1.371-.132,2.814,2.814,0,0,1-1.78-1.631,2.98,2.98,0,0,1,.114-2.667,2.919,2.919,0,0,1,2.041-1.51,2.954,2.954,0,0,1,.689-.071,2.881,2.881,0,0,1,2.15.975,3.007,3.007,0,0,1,.751,1.55c.025.15.033.3.048.454a.182.182,0,0,1-.111.187,3.929,3.929,0,0,1-1.1.4,4.233,4.233,0,0,1-1,.093"/><path d="M64.932,40.066a3.349,3.349,0,0,1,1.294.238,3.311,3.311,0,0,1,.755.451.167.167,0,0,1,.016.272c-.161.147-.325.29-.494.427a.213.213,0,0,1-.306-.005,2.1,2.1,0,0,0-.506-.3,1.893,1.893,0,0,0-1.306-.045.97.97,0,0,0-.344.2.662.662,0,0,0-.214.348.534.534,0,0,0,.154.526,1.148,1.148,0,0,0,.516.3c.269.075.542.139.816.2a7.562,7.562,0,0,1,.758.16,2.259,2.259,0,0,1,.65.323,1.422,1.422,0,0,1,.61,1.231,1.545,1.545,0,0,1-.656,1.245,2.314,2.314,0,0,1-.962.415,3.621,3.621,0,0,1-1.764-.059,3.385,3.385,0,0,1-1.106-.579c-.084-.065-.165-.134-.245-.2a.317.317,0,0,1-.061-.066.125.125,0,0,1,.034-.2c.182-.144.366-.287.55-.431.016-.013.033-.026.051-.038a.149.149,0,0,1,.207.008c.056.046.111.094.168.138a2.348,2.348,0,0,0,1.107.484,1.814,1.814,0,0,0,1.105-.145.914.914,0,0,0,.327-.268.566.566,0,0,0-.052-.754.874.874,0,0,0-.4-.23c-.164-.044-.332-.075-.5-.11-.292-.061-.587-.111-.876-.183a2.66,2.66,0,0,1-.956-.435,1.334,1.334,0,0,1-.58-.939,1.563,1.563,0,0,1,.225-1.016,1.951,1.951,0,0,1,1.09-.827,2.612,2.612,0,0,1,.891-.129"/><path d="M68.524,43.133c0-.876,0-1.752,0-2.628,0-.178.051-.228.232-.223.21.006.421,0,.631,0,.14,0,.188.046.188.183v5.275c0,.029,0,.059,0,.089a.141.141,0,0,1-.158.148c-.146,0-.292,0-.439,0-.1,0-.195,0-.293,0a.139.139,0,0,1-.157-.155c0-.12,0-.239,0-.359Z"/><path d="M69.744,39.045a.7.7,0,1,1-.7-.7.706.706,0,0,1,.7.7"/><path d="M70.59,45.472c.044,0,.077,0,.11,0,.053,0,.085-.031.089-.073a.089.089,0,0,0-.078-.095.966.966,0,0,0-.121,0Zm-.005.344h-.112c-.009-.2,0-.4,0-.591a.7.7,0,0,1,.346,0,.194.194,0,0,1,.046.311.922.922,0,0,1-.08.06l.154.215c-.085.018-.146.015-.186-.062a.905.905,0,0,0-.078-.109.059.059,0,0,0-.087-.024Z"/></g></g></svg>