<svg xmlns="http://www.w3.org/2000/svg" xmlns:xlink="http://www.w3.org/1999/xlink" viewBox="0 0 97.219 86.203"><defs><clipPath id="a"><rect x="19.028" y="38.583" width="59.162" height="9.038" fill="none"/></clipPath></defs><g><rect width="97.219" height="86.203" fill="none"/><g clip-path="url(#a)"><path d="M32.058,39.821l1.462-.03,1.645.01c2.355,0,3.137.551,3.137,2.958v.321c0,2.537-.153,3.4-3.2,3.5l-1.554.03c-.213.01-.436.01-.649.01-.467,0-.934-.02-1.4-.05-1.493-.111-2.386-.612-2.457-2.227-.021-.411-.021-.822-.021-1.233,0-2.627.315-3.249,3.036-3.289h0"/><polygon points="41.113 44.875 45.344 44.875 45.344 46.55 39.052 46.55 39.052 39.861 41.113 39.861 41.113 44.875"/><rect x="64.859" y="39.861" width="2.061" height="6.689"/><path d="M69.077,39.868c-1.151,0-1.714.922-1.714,2.059s.563,2.085,1.714,2.085L73.334,44a.443.443,0,1,1,0,.886H67.557v1.66l6.7,0c1.177,0,1.709-.942,1.709-2.1s-.532-2.105-1.709-2.105h-4.23a.419.419,0,0,1-.421-.416.4.4,0,0,1,.421-.389h5.645V39.864Z"/><path d="M76.55,39.666a.55.55,0,1,1-.541.548.532.532,0,0,1,.541-.548v-.084a.634.634,0,1,0,.64.632.638.638,0,0,0-.64-.632Z"/><path d="M76.4,39.923h.2c.088,0,.179.013.179.124,0,.143-.149.127-.25.127H76.4v.068h.161l.2.326h.105l-.216-.326c.127,0,.225-.055.225-.194,0-.117-.065-.187-.254-.187h-.313v.707H76.4Z"/><path d="M57.554,41.486h3.431a2.307,2.307,0,0,1,.589.06c.386.11.4.381.406.732,0,.742-.081.933-1.045.933H57.554v1.624H61c.864,0,.894.341.894,1.073v.642H63.98V45.266c0-.922-.517-1.173-1.38-1.283a2,2,0,0,0,1.177-.632,2.562,2.562,0,0,0,.284-1.374c0-1.614-.67-2.115-2.263-2.115h-6.3V46.55h2.061Z"/><path d="M52.7,44.879V46.55h2.062v-4.6a2.139,2.139,0,0,0-2.247-2.089H48.229a2.14,2.14,0,0,0-2.248,2.089v4.6h2.063V42.5c0-.653.713-.966,1.11-.966h2.432c.4,0,1.111.313,1.111.966v.7H48.044v1.672Z"/><path d="M22.089,41.486h2.964c.752,0,1.1.12,1.1.912,0,.733-.355.863-1.066.863h-3v1.624h3.746c2.081,0,2.4-.832,2.4-2.557,0-2.035-.771-2.466-2.721-2.466H20.028V46.55h2.061Z"/><polygon points="37.494 43.207 34.639 43.599 35.035 44.382 34.11 43.938 33.66 45.766 33.211 43.938 32.285 44.382 32.682 43.599 29.826 43.207 32.682 42.815 32.285 42.032 33.211 42.476 33.66 40.648 34.11 42.476 35.035 42.032 34.639 42.815 37.494 43.207" fill="#fff"/></g></g></svg>