<svg xmlns="http://www.w3.org/2000/svg" xmlns:xlink="http://www.w3.org/1999/xlink" viewBox="0 0 97.219 86.203"><defs><clipPath id="a" transform="translate(0.043 0.01)"><rect x="30.118" y="20.034" width="31.891" height="36.506" fill="none"/></clipPath></defs><g><g clip-path="url(#a)"><path d="M47.227,43.2a.816.816,0,0,1,.045.282c0,.016,0,.034,0,.051a.527.527,0,0,1-.105.336.55.55,0,0,1-.275.2.244.244,0,0,1-.219-.054.228.228,0,0,1-.051-.189,1.611,1.611,0,0,1,.081-.275l.013-.037c.018-.051.022-.081.012-.1s-.037-.034-.092-.051a1.35,1.35,0,0,1-.275-.116.645.645,0,0,0-.684.047.7.7,0,0,1-.169.07.14.14,0,0,0-.095.058.163.163,0,0,0,.012.128,1.6,1.6,0,0,1,.09.338.153.153,0,0,1-.063.133.245.245,0,0,1-.151.057.17.17,0,0,1-.051-.008.492.492,0,0,1-.3-.219.779.779,0,0,1-.084-.487,1.152,1.152,0,0,1,.078-.289,2.638,2.638,0,0,1,.19-.372,1.108,1.108,0,0,1,.631-.459.873.873,0,0,1,.209-.037c.033,0,.066-.007.1-.012a1.012,1.012,0,0,1,.745.311,2.387,2.387,0,0,1,.29.351,1.115,1.115,0,0,1,.114.3ZM46.064,54.947A14.552,14.552,0,0,1,31.7,40.247a14.814,14.814,0,0,1,4.948-11.089c.112.18.217.364.313.554s.2.389.284.591c.012.028.022.056.031.084s.014.046.02.069.011.048.017.071.007.037.011.055a.879.879,0,0,0,.245.555l.042.037.009.008c.029.027.058.053.089.079s.05.042.076.062l.093.071a2.94,2.94,0,0,0,.35.242c.152.083.309.16.465.234l.2.093.137.065.255.117.116.053.16.073c.129.059.259.12.387.182.07.035.14.073.21.111.091.05.181.1.269.152l.086.05-.061.048a3.5,3.5,0,0,0-.927-.238q-.071-.006-.144-.006h-.016c-.03,0-.061,0-.091,0h-.012c-.034,0-.067.007-.1.012l-.029.005a1.047,1.047,0,0,0-.11.029.682.682,0,0,0-.215.121.508.508,0,0,0-.151.21.6.6,0,0,0-.015.328,1.654,1.654,0,0,0,.093.3c.07.176.185.422.3.634a9.492,9.492,0,0,0-2.148,6.035,9.191,9.191,0,1,0,18.378,0,9.492,9.492,0,0,0-2.2-6.094c.1-.209.2-.424.277-.642l.03-.083a.984.984,0,0,0,.058-.254.593.593,0,0,0-.005-.119.581.581,0,0,0-.354-.419.532.532,0,0,0-.05-.021.641.641,0,0,0-.093-.025l-.025-.005a.79.79,0,0,0-.083-.012H52.8c-.024,0-.049,0-.074,0h-.012c-.04,0-.081,0-.121.007l-.017,0c-.035.005-.071.011-.107.019l-.04.009-.086.022-.038.01c-.038.012-.076.023-.114.036h0c-.121.04-.243.077-.366.11l-.132.034-.079-.06c.357-.194.913-.5,1.046-.562l.006,0c.122-.055.243-.11.364-.167l.137-.065.055-.026c.2-.094.407-.192.6-.3a2.427,2.427,0,0,0,.293-.2l.057-.044.023-.017.071-.054c.034-.026.066-.053.1-.081s.051-.045.075-.068l.027-.024.015-.013a.6.6,0,0,0,.143-.188c.1-.2.086-.42.182-.646a8.6,8.6,0,0,1,.633-1.177A14.809,14.809,0,0,1,60.43,40.247a14.552,14.552,0,0,1-14.366,14.7M36.788,28.565l.135.146.048.054a2.462,2.462,0,0,1,.4.649,6.313,6.313,0,0,0,1.166,1.312s.275.153.456.228l.059.023c.077,0,.161-.111.14-.246.005-.064.012-.132.017-.192s.01-.1.013-.138v-.025c0-.06-.009-.123-.013-.188l-.006-.11c-.012-.224-.016-.649-.055-1.167a10.462,10.462,0,0,0-.21-1.5,6.756,6.756,0,0,0-.184-.669,3.2,3.2,0,0,0-.247-.432,2.945,2.945,0,0,0-.218-.286,1.7,1.7,0,0,0-.25-.235c-.016-.012-.031-.025-.048-.036l-.006,0a1.12,1.12,0,0,0-.119-.07l-.056-.031-.036-.021-.006-.007,0,0,.027,0,.058-.006.016,0,.12-.008c.058,0,.118-.009.177-.015.033,0,.067-.007.1-.013a.28.28,0,0,0,.1-.046.179.179,0,0,0,.069-.085,1.2,1.2,0,0,0,.042-.189c.007-.052.012-.105.017-.159,0-.036,0-.072.005-.107,0-.052,0-.1,0-.154v-.219c0-.084,0-.171,0-.257-.01-.13-.022-.259-.035-.388-.008-.075-.015-.149-.021-.224l.01.06.025.133c.005.035.011.069.017.1s.011.069.017.1q.06.334.12.666l.08.447c.015.08.029.161.042.242l0,.014c0,.016.006.033.008.05.03.175.061.355.1.53.006.027.014.053.021.079a3.053,3.053,0,0,0,.126.331l.014.032c.032.075.065.147.1.219.041.087.084.172.127.252l.02.031a.422.422,0,0,0,.029.037l.01.013.005,0a.66.66,0,0,0,.086.075.169.169,0,0,0,.047.026l.013.005a.246.246,0,0,0,.046.008h0a.118.118,0,0,0,.037,0,.133.133,0,0,0,.033-.013.178.178,0,0,0,.071-.085.615.615,0,0,1,.04-.076,1.258,1.258,0,0,0,.069-.3l.007-.023.083-.325c.083-.319.168-.65.256-.974a1.058,1.058,0,0,1,.079-.186c.017-.034.034-.068.048-.1.032-.072.062-.146.091-.22.013-.034.027-.068.04-.1l.022-.057.027-.069c.029-.076.058-.152.09-.226.039-.09.079-.179.119-.268.027-.062.055-.122.083-.182.019-.042.038-.083.056-.124v0l.006-.012c-.038.147-.076.295-.115.442-.066.255-.133.509-.2.764-.017.069-.033.138-.05.207-.042.178-.083.357-.123.532l-.231,1.011-.133.581c-.034.147-.068.295-.1.443l-.045.193-.018.082c-.019.082-.054.427-.084.74,0,.035-.006.069-.01.1-.019.2-.035.374-.042.43,0,.03-.006.059-.009.089-.008.1-.011.2-.013.3l0,.127,0,.087c0,.119-.007.241-.008.362,0,.028,0,.056,0,.084s0,.082.005.122,0,.081.009.122.01.1.017.152a.9.9,0,0,0,.191.37c.014.016.028.033.044.05s.034.037.053.054a1.179,1.179,0,0,0,.259.185l.019.01c.06.032.121.063.182.093s.109.053.162.081c.452.236.895.467,1.338.69a1.361,1.361,0,0,0,.237.083l.043.013.067.02h0a.359.359,0,0,0,.041.011h.014l.022,0h0a.126.126,0,0,0,.028,0l.012,0a.126.126,0,0,0,.035-.017.275.275,0,0,0,.083-.209c.005-.052.007-.111.01-.176a3.3,3.3,0,0,1,.03-.374l.022.037c.011.02.021.041.029.055s.013.027.02.039a.345.345,0,0,0,.028.046.983.983,0,0,1,.069.149l.032.08c.029.073.058.15.082.21l.057.149c.012.028.021.052.029.07s.01.024.014.031a1.909,1.909,0,0,0,.214.314c.091.111.191.214.294.317.245.245.448.45.633.64l.079.081c.035.036.069.073.1.109l.159.168c.052.057.105.113.158.17l.093.1a.192.192,0,0,1,.06.112.188.188,0,0,1-.039.118,1.267,1.267,0,0,1-.13.165l-.006.006h0l-.055.055a.152.152,0,0,1-.026.022l0,0a.051.051,0,0,1-.023.007h-.007c-.022,0-.05-.023-.086-.066s-.072-.08-.108-.118-.073-.074-.108-.107l-.094-.087c-.045-.041-.092-.081-.139-.12l-.074-.063c-.049-.042-.1-.085-.145-.129a4.587,4.587,0,0,0-.691-.557c-.017-.01-.032-.022-.048-.032-.066-.044-.13-.092-.193-.139s-.1-.075-.154-.112c-.038-.027-.077-.053-.117-.077s-.105-.06-.159-.089l-.144-.077-.138-.071-.148-.075c-.029-.016-.059-.031-.089-.046-.279-.148-.556-.3-.834-.449l-.027-.014-.01-.005-.032-.018-.242-.133c-.1-.057-.21-.116-.316-.173s-.188-.1-.283-.148c-.22-.11-.429-.208-.633-.3l-.259-.111c-.058-.023-.114-.05-.169-.078a5.391,5.391,0,0,1-.6-.367l-.007-.005-.015-.01c-.1-.068-.211-.137-.348-.217l-.013-.011a.416.416,0,0,1-.089-.107l-.009-.016,0-.005c-.014-.031-.079-.191-.148-.363-.184-.454-.339-.835-.375-.894s-.095-.157-.153-.256c-.036-.061-.07-.119-.094-.158l-.025-.043c-.075-.128-.15-.257-.223-.387-.045-.08-.085-.166-.123-.25l.067.074m1.877-.909a1.757,1.757,0,0,1,.062.232,4.148,4.148,0,0,1,.03.42c.012.306.017.69.013.895,0,.049,0,.087,0,.112a3.742,3.742,0,0,1-.038.873,6.642,6.642,0,0,1-.572-.572c-.346-.379-.683-.786-.725-.847s-.08-.113-.122-.167a14.476,14.476,0,0,1,1.356-.946m7.4-2.109a14,14,0,0,1,5.511,1.127l.018.074c.04.157.074.317.1.466.06.29.12.766.173,1.253l.03.285s0,.085.016.209c.024.242.067.636.093.876v0l0,.024c-.135.773-.162,1.154-.208,1.222h0L51.8,31.1l-.078.042c-.216.118-.435.234-.649.346l-.012.007-.173.091c-.053.027-.106.056-.159.084s-.091.05-.142.076c-.082.043-.179.09-.311.148-.073-.039-.147-.076-.221-.113.04-.113.093-.243.142-.354q.018-.042.036-.081c.051-.112.084-.182.1-.223.006-.015.01-.027.012-.034a.3.3,0,0,0-.121-.26.358.358,0,0,0-.059-.025h0a.214.214,0,0,0-.054-.008h-.008a.231.231,0,0,0-.046,0l-.012,0a.193.193,0,0,0-.034.011l-.013.006-.035.02-.005,0c-.013.009-.025.019-.037.029l-.01.008c-.008.008-.017.016-.025.025l-.008.008c-.011.011-.02.022-.029.032-.06.071-.248.313-.425.55a8.96,8.96,0,0,0-6.569-.05c-.052-.1-.1-.19-.145-.267a1.127,1.127,0,0,0-.252-.343h0a.271.271,0,0,0-.049-.022l-.017,0a.232.232,0,0,0-.038-.006h-.036a.207.207,0,0,0-.042.008h0a.249.249,0,0,0-.135.1.275.275,0,0,0-.017.029c-.025.057-.043.135-.015.492.007.1.017.218.022.326-.1.049-.2.1-.3.155l-.067-.029c-.05-.023-.1-.048-.148-.073s-.1-.051-.15-.077l-.127-.068-.159-.084-.149-.079-.035-.019c-.173-.09-.349-.184-.524-.278l-.2-.11a8.4,8.4,0,0,1-.218-1.235c.064-.623.189-2.068.317-2.681.031-.149.065-.309.105-.466v0a14,14,0,0,1,5.6-1.167m-1.607,8.227-.212-.225c-.044-.048-.089-.095-.136-.145-.09-.1-.185-.2-.275-.306a9.113,9.113,0,0,1-.5-.792c-.035-.059-.068-.116-.1-.169l-.1-.17a8.386,8.386,0,0,1,5.934.025,5.159,5.159,0,0,1-.709.941L48.3,33q-.433.516-.912.99l-.028.028-.019.019a.6.6,0,0,1-.088.072.25.25,0,0,1-.035.021.549.549,0,0,1-.179.041h0c-.094.01-.188.018-.281.025l-.1.007c-.065,0-.131.008-.2.01l-.077,0c-.094,0-.187,0-.28,0s-.192,0-.287-.006h-.039c-.186-.008-.375-.041-.561-.042H45.16l-.025,0-.049.005-.037,0-.025,0h-.086c-.01,0-.02,0-.03-.006l-.022,0-.032-.013-.017-.007a.273.273,0,0,1-.045-.033c-.112-.115-.222-.231-.335-.349m8.5-.541v.007h0c0,.012,0,.024-.006.035a3.182,3.182,0,0,1-1.246,1.836,3.036,3.036,0,0,1-1.535.577l-.079.005-.114,0c-.168.007-.363.011-.516.026l-.087.011a.841.841,0,0,0-.672.617,2.88,2.88,0,0,0-.163.807c-.016.182-.033.366-.047.55-.019.261-.032.523-.029.784a4.519,4.519,0,0,0,.149,1.16,2.185,2.185,0,0,1,.056.548v.007c0,.011,0,.023,0,.034a3.662,3.662,0,0,1-.171.837l-.027.1a14.776,14.776,0,0,0-.542,2.984.016.016,0,0,0,.018.02.4.4,0,0,0,.076,0l.008,0a.26.26,0,0,0,.042-.019l0,0a.27.27,0,0,0,.04-.029h0a.444.444,0,0,0,.037-.038l0-.006c.011-.013.021-.027.032-.042l0-.008a.425.425,0,0,0,.027-.046l.006-.009c.008-.016.016-.031.023-.047l0-.008.02-.047v0l.085-.216.018-.057,0-.017c.005-.014.009-.028.013-.043l.006-.02c0-.015.009-.03.013-.045l.006-.019.014-.05,0-.017c.007-.021.013-.043.019-.066h0c.029-.107.059-.221.089-.335l0-.006c0-.02.011-.041.016-.062l0-.01c.014-.054.029-.106.043-.158l.011-.037.009-.033.011-.036.009-.033.011-.036c0-.01.006-.021.01-.031s.007-.024.011-.036l.009-.028c0-.014.009-.029.014-.043l.006-.018c.007-.019.013-.039.02-.057l.006-.015.015-.04.007-.018.013-.033.008-.018.014-.029.007-.015.014-.028.007-.012a.22.22,0,0,1,.019-.03l0,0a.34.34,0,0,1,.021-.028l0,0,.017-.017.006-.005.015-.01.007,0,.014,0,.007,0h.011l.014,0,.01,0a.065.065,0,0,1,.015.01l.01.009.016.02.008.011a.436.436,0,0,1,.024.044,1.486,1.486,0,0,1,.081.247,3.167,3.167,0,0,1-.023,1.222c-.006.038-.012.077-.019.115a3.408,3.408,0,0,1-.37,1.227,1.476,1.476,0,0,1-.144.2c-.032.036-.065.071-.1.1a6.13,6.13,0,0,1-.6.464,2.391,2.391,0,0,0-.191.155,3.691,3.691,0,0,0-.467.543l-.006.008-.136.183a2.431,2.431,0,0,1-.675.67l-.07.037-.013.006a.542.542,0,0,1-.07.029l-.014.005a.52.52,0,0,1-.075.02h-.006a.351.351,0,0,1-.072.007h-.014A.548.548,0,0,1,46,47.39h0a.609.609,0,0,1-.288-.151c-.028-.023-.055-.046-.081-.07L44.45,46.12l-.683-.609c-.065-.058-.13-.116-.193-.176a2.092,2.092,0,0,1-.36-.426,2.13,2.13,0,0,1-.232-.6c-.008-.033-.016-.067-.023-.1-.014-.058-.026-.116-.039-.174s-.019-.092-.029-.138a2.3,2.3,0,0,1,.157-1.814.382.382,0,0,1,.123-.114l.011-.006c.033.109.08.223.126.34a2.208,2.208,0,0,1,.187.676,2.87,2.87,0,0,0,.41,1,3.34,3.34,0,0,0,.369.469.044.044,0,0,0,.071-.01c.105-.2-.015-.56-.081-.776-.072-.236-.114-.3-.2-.531-.209-.567-.267-1.219-.5-1.775a2.332,2.332,0,0,0-.135-.263c-.12-.2-.263-.4-.384-.6a1.223,1.223,0,0,1-.231-.889,1.116,1.116,0,0,1,.032-.113c.011-.036.024-.07.038-.105.032-.074.066-.147.1-.221a2.567,2.567,0,0,0,.093-.281,5.15,5.15,0,0,0,.108-.511c.007-.037.013-.075.02-.113q.108-.644.217-1.287a.951.951,0,0,0-.056-.384,3.419,3.419,0,0,1-.126-.43c-.07-.074-.149-.164-.231-.235a.593.593,0,0,0-.127-.088h0L42.8,35.8l-.023-.009-.052-.017-.026-.008-.05-.014-.024-.006-.058-.012-.014,0-.07-.01-.018,0-.049-.005h-.024l-.042,0H42.2l-.043,0H42.14l-.044,0h-.05a3.1,3.1,0,0,1-1.149-.281,3.3,3.3,0,0,1-1.746-1.9.778.778,0,0,1-.053-.272.445.445,0,0,1,.014-.09.255.255,0,0,1,.049-.094l.008-.008a.344.344,0,0,1,.027-.027l.016-.01.028-.018L39.256,33l.033-.014.017,0,.039-.011.016,0c.015,0,.03,0,.046-.006h.015l.051,0a.769.769,0,0,1,.095.006l.027,0,.1.015H39.7c.036.006.072.015.109.024l.029.007c.036.009.072.019.109.031h0q.059.018.117.039l.029.01q.059.021.117.045l.119.05.027.012c.078.035.155.072.229.111l.023.012c.074.038.144.078.209.118l.02.012c.063.039.122.078.173.116l.017.012a1.343,1.343,0,0,1,.124.1l.012.012a.524.524,0,0,1,.04.046,2.875,2.875,0,0,0,.472.461c.111.093.221.183.316.272.036.035.071.069.1.1a1.077,1.077,0,0,1,.084.1l.016.026.084.079.025.024.017.014a3.6,3.6,0,0,0,.363.279c.139.094.285.181.435.264a.03.03,0,0,0,.042-.038c-.048-.13-.146-.389-.2-.5a3.156,3.156,0,0,0-.515-.827,1.256,1.256,0,0,0-.115-.108,3.043,3.043,0,0,1,1.65,1.588.786.786,0,0,0,.057.112.179.179,0,0,0,.02.026.132.132,0,0,0,.018.022l0,0a.176.176,0,0,0,.045.032h0a.165.165,0,0,0,.046.015h.013l.015,0,.019,0,.016,0a.3.3,0,0,0,.037-.011l.01,0a.347.347,0,0,0,.046-.025l.01-.007.034-.025.014-.013a.345.345,0,0,0,.028-.026l.014-.014.027-.03.01-.012c.012-.014.024-.029.034-.043l.206-.278c.065-.087.129-.174.193-.262l.047-.06a.449.449,0,0,1,.142-.126.315.315,0,0,1,.063-.022l.02,0a.2.2,0,0,1,.042,0h.052c.017,0,.035.006.053.011l.01,0a.381.381,0,0,1,.044.015l.018.007.037.016.019.009.038.02.016.009c.043.023.085.048.129.073l.03.018.025.014.033.018.024.012.035.017.021.01c.019.008.037.015.056.021l.011,0,.046.013.02,0,.037,0h.075l.01,0,.041-.007.02-.006c.009,0,.019-.005.028-.009L46.164,35l.026-.011.022-.011.025-.014.022-.013.023-.015.022-.015.023-.015.024-.017.022-.017.037-.026.021-.015.026-.019.02-.014.025-.016.019-.013.025-.015.02-.011.026-.013.019-.009.028-.01.018-.007.033-.007.015,0a.364.364,0,0,1,.048,0,.289.289,0,0,1,.05,0h0l.005,0a.218.218,0,0,1,.044.011l.01,0a.6.6,0,0,1,.222.183c.014.015.027.031.04.047l.536.669a.275.275,0,0,0,.022.026l.006.007a.154.154,0,0,0,.017.019l.009.009.016.016.01.009.017.013.011.008.017.01.012.006.018.008.012,0,.019,0h.018l.024,0a.141.141,0,0,0,.064-.03.245.245,0,0,0,.059-.072.775.775,0,0,0,.05-.11,2.771,2.771,0,0,1,.379-.681,2.887,2.887,0,0,1,.619-.6,2.751,2.751,0,0,1,.659-.347,2.339,2.339,0,0,0-.432.681c-.033.071-.087.2-.113.265a.025.025,0,0,0,.023.035l.249,0,.032,0,.033,0,.03,0,.042,0,.022,0,.061-.01.02,0,.042-.01.024-.007.036-.011.024-.01.033-.013.024-.012.03-.017.022-.013.029-.02.02-.016L50,34.7l.017-.017c.009-.01.017-.021.025-.031l.013-.017a.48.48,0,0,0,.032-.054v0a2.044,2.044,0,0,1,.394-.609,1.783,1.783,0,0,1,.255-.219,1.186,1.186,0,0,1,.161-.09,5.544,5.544,0,0,1,.543-.2c.081-.027.154-.052.215-.076l.145-.057.007,0,.128-.048.014-.005.117-.04.018-.005c.037-.012.074-.022.111-.032l.019-.005c.037-.009.074-.018.112-.025l.019,0q.057-.01.117-.018l.019,0c.041-.005.083-.008.127-.011h.017c.046,0,.093,0,.143,0l.092,0h.016a.119.119,0,0,1,.045.011l.012.007a.1.1,0,0,1,.028.089m-10.6,7.29a2.071,2.071,0,0,0,.086.268l.015.036a1.227,1.227,0,0,1,.062.119.839.839,0,0,1,.03.084l.016.041a3.94,3.94,0,0,1-.177,1.672c-.01.092-.017.183-.023.273-.008.142-.012.28-.009.412a3.816,3.816,0,0,0,.089.766,2.6,2.6,0,0,0,.137.424,1.964,1.964,0,0,0,.093.2,3.377,3.377,0,0,0,.538.7c.123.125.248.244.368.358l.2.184.058.052a7.6,7.6,0,0,1,.96.972,3.475,3.475,0,0,0,.584.744,1.037,1.037,0,0,0,.668.252.776.776,0,0,0,.432-.126c.071-.047.144-.092.217-.136a3.2,3.2,0,0,0,.758-.563c.113-.125.215-.259.316-.394.082-.109.163-.219.249-.324.165-.2.339-.394.508-.588a4.492,4.492,0,0,0,.617-.857c.059-.113.114-.23.164-.348a3.94,3.94,0,0,0,.2-.609,3.085,3.085,0,0,0,.075-1.019,9.181,9.181,0,0,0-.3-1.323c-.108-.373.1-.709.145-1.458,0-.021,0-.043,0-.065,0-.175-.009-.35-.02-.525l-.012-.187c-.032-.534-.124-1.052-.2-1.574-.018-.125-.036-.25-.052-.376a.406.406,0,0,1-.014-.141c0-.046.009-.092.009-.141,0-.134-.034-.264-.035-.4,0-.035,0-.068,0-.1v0a.793.793,0,0,1,.013-.089l0-.016c.006-.024.012-.047.019-.07l.008-.019a.6.6,0,0,1,.023-.059l.011-.02a.529.529,0,0,1,.029-.052c0-.007.01-.013.015-.021s.02-.03.031-.043.013-.014.019-.021a.414.414,0,0,1,.035-.038l.022-.019c.012-.011.024-.022.037-.032l.027-.019.038-.026a.187.187,0,0,1,.031-.017.384.384,0,0,1,.039-.022.368.368,0,0,1,.035-.015l.04-.018.038-.013.041-.013.041-.011.041-.01.044-.007.04-.007.048-.005.039,0,.05,0h.065c.043,0,.086,0,.128,0s.066,0,.1,0c.048,0,.1-.01.143-.016l.093-.01c.053-.008.1-.019.157-.029l.076-.014c.078-.017.154-.037.23-.06s.124-.04.185-.062a3.277,3.277,0,0,0,1.38-.953,3.5,3.5,0,0,0,.214-.283,8.885,8.885,0,0,1,1.934,5.553,8.612,8.612,0,1,1-17.219,0,8.894,8.894,0,0,1,1.894-5.505,3.914,3.914,0,0,0,.318.387,3.117,3.117,0,0,0,.692.553,3.055,3.055,0,0,0,1.115.394,2.858,2.858,0,0,0,.334.03c.129,0,.257.012.386.019l.175.008.032,0a.555.555,0,0,1,.446.3.716.716,0,0,1,.057.173,1.192,1.192,0,0,1-.011.457.548.548,0,0,1-.032.108,3.4,3.4,0,0,0-.331.991c-.041.2-.069.408-.1.612-.009.06-.02.119-.031.179s-.023.135-.033.2c-.006.043-.012.086-.016.129-.012.164-.017.33-.021.49,0,.053,0,.106-.005.159s0,.107-.006.161a1.417,1.417,0,0,0,.043.418m9.032-16.19c-.017-.066-.034-.132-.052-.2l-.063-.244.007.014c.086.188.175.381.258.574.027.065.054.131.079.2.013.033.026.065.038.1s.027.071.041.106l.021.055c.029.073.059.147.09.219.014.033.03.065.046.1l0,.006.009.019a1.074,1.074,0,0,1,.049.111,1.1,1.1,0,0,1,.035.111c.021.075.04.15.06.225.062.233.123.466.182.694l.078.3,0,.022,0,0,0,.018s.01.077.025.152c0,.023.01.046.016.067a.322.322,0,0,0,.028.077.534.534,0,0,1,.037.071l0,0,0,0a.161.161,0,0,0,.094.091l.008,0h0a.2.2,0,0,0,.034,0h0a.193.193,0,0,0,.047-.008l.012-.005a.2.2,0,0,0,.048-.025h0a.5.5,0,0,0,.15-.16c.059-.109.115-.227.17-.348.019-.041.038-.081.056-.123l.014-.032a2.409,2.409,0,0,0,.147-.41c.044-.192.077-.389.109-.58.015-.085.029-.171.044-.256l0-.015.078-.431.12-.666c0-.02.007-.04.01-.059l.007-.045c.006-.034.011-.068.017-.1l.035-.193-.009.095L53.584,24c-.013.129-.025.258-.035.388-.007.1-.005.2,0,.3V24.9c0,.076,0,.152.007.228a1.637,1.637,0,0,0,.051.318c0,.01.005.02.008.03a.145.145,0,0,0,.046.066h0l0,0a.265.265,0,0,0,.124.062,2.385,2.385,0,0,0,.277.028l.035,0,.085.007c.011,0,.021,0,.032,0l.043,0,.026,0-.009.009-.051.029-.041.023-.05.027-.039.024-.036.023a2.092,2.092,0,0,0-.516.558,3.225,3.225,0,0,0-.19.316c-.02.039-.04.077-.057.115a7.679,7.679,0,0,0-.3,1.292,15.511,15.511,0,0,0-.143,1.824c0,.025,0,.049,0,.073s0,.05,0,.074,0,.024,0,.036c0,.071-.008.136-.013.2,0,.033,0,.066-.007.1l0,.042c.005.063.015.164.024.263,0,.017,0,.034,0,.05a.254.254,0,0,0,.01.121l0,.016a.155.155,0,0,0,.124.109l.012,0a4.891,4.891,0,0,0,.5-.246,6.313,6.313,0,0,0,1.165-1.312,2.515,2.515,0,0,1,.4-.649c.062-.066.122-.133.183-.2l.067-.074c-.02.044-.04.089-.062.133s-.039.079-.061.117c-.073.13-.148.259-.223.387l-.025.043-.047.079c-.067.115-.16.272-.2.335-.016.025-.055.113-.109.241s-.116.281-.188.459c-.025.063-.052.128-.078.194-.073.18-.142.351-.151.368l-.018.03a.539.539,0,0,1-.04.054.271.271,0,0,1-.054.05L54.049,31c-.125.074-.229.138-.323.2l-.007,0-.015.01a5.12,5.12,0,0,1-.628.38c-.046.023-.092.046-.141.065-.089.037-.18.077-.272.117-.2.088-.4.184-.62.291l-.183.093c-.266.135-.669.343-.821.427,0,0-.218.122-.328.182l-.1.055-.177.1L50.277,33l-.1.052c-.183.1-.372.2-.553.3s-.343.228-.505.348l-.083.06-.225.171-.133.106c-.046.037-.093.074-.137.111a1.466,1.466,0,0,0-.126.123,1.223,1.223,0,0,1-.108.108c-.027.024-.056.046-.083.068l-.1.082c-.068.053-.136.107-.2.164a1.307,1.307,0,0,0-.184.213.126.126,0,0,1-.064.051.069.069,0,0,1-.02,0,.1.1,0,0,1-.069-.04v0l0-.005-.026-.033c-.022-.029-.045-.057-.069-.086-.012-.014-.024-.028-.037-.041a.226.226,0,0,1-.075-.15.214.214,0,0,1,.075-.147c.037-.039.074-.076.111-.113s.1-.1.144-.147q.157-.164.317-.326l0,0,0,0c.29-.3.59-.606.877-.917.019-.021.036-.042.053-.063a2.664,2.664,0,0,0,.181-.267c.031-.05.063-.1.1-.15l.065-.106.128-.209.1-.158c.017-.029.029-.048.031-.05v0a.378.378,0,0,1,.022-.031l0-.007.01-.012,0,0,.006,0h.007a.054.054,0,0,1,.024.013.269.269,0,0,1,.032.027l0,.025,0,.025c0,.032,0,.07-.006.111a.458.458,0,0,0,.075.311.2.2,0,0,0,.031.027h0a.148.148,0,0,0,.051.023l.021,0a.175.175,0,0,0,.032,0h.02a.4.4,0,0,0,.065-.01l.008,0a.559.559,0,0,0,.076-.025v0h0l.01,0,.009,0,.01,0,.007,0c.151-.065.3-.139.443-.211l.008,0,.044-.021.09-.046L50.7,32.1l-.006,0,.051-.026c.27-.136.52-.266.769-.4.053-.028.108-.054.162-.081s.135-.067.2-.1l.039-.022a1.107,1.107,0,0,0,.432-.44.721.721,0,0,0,.076-.2c.011-.073.018-.148.023-.222q.007-.087.009-.174c0-.149,0-.3-.009-.446v-.019l0-.068,0-.084c0-.014,0-.028,0-.043s0-.045,0-.067a3.184,3.184,0,0,0-.021-.323c0-.043-.013-.087-.021-.13-.012-.072-.027-.144-.043-.215l-.046-.518-.041-.46c-.026-.115-.053-.229-.079-.344-.023-.1-.045-.2-.067-.292l-.342-1.5-.022-.1c-.028-.121-.056-.245-.084-.368s-.058-.248-.089-.37c-.063-.256-.13-.51-.2-.765m3.375,4.232c-.051.066-.1.134-.148.2-.024.036-.151.191-.321.39a10.8,10.8,0,0,1-.975,1.029,3.21,3.21,0,0,1-.038-.836v0c0-.006,0-.089-.005-.216,0-.085,0-.191,0-.3v-.115a5.55,5.55,0,0,1,.046-.792,1.722,1.722,0,0,1,.047-.188c.011-.037.024-.073.037-.11a14.4,14.4,0,0,1,1.357.943m.991.057.044-.07.135-.22c.054-.09.109-.18.166-.269L56.14,28a1.153,1.153,0,0,0,.186-.493v-.005a.409.409,0,0,0,0-.063l0-.017a.275.275,0,0,0-.01-.034l-.007-.017-.015-.024-.011-.013a.19.19,0,0,0-.021-.019l-.011-.008-.035-.016,0,0a.326.326,0,0,0-.045-.009h-.048l-.041,0-.02,0-.064.012-.014,0-.052.015-.025.009c-.014,0-.027.009-.04.015l-.028.011-.036.015-.027.012-.033.017-.025.012-.031.017-.021.011-.033.02-.01.007-.012.006-.005.011h0a2.214,2.214,0,0,1-.219.345l-.052.068-.057.069c-.041.05-.083.1-.125.149a15.038,15.038,0,0,0-1.476-1.024c.124-.215.263-.424.389-.64l.115-.2.014-.024a2.5,2.5,0,0,1,.274-.177c.169-.1.345-.175.522-.255l.1-.046c.036-.016.083-.039.137-.069.236-.13.585-.377.464-.614a.2.2,0,0,0-.147-.1.2.2,0,0,0-.042,0h-.03l-.049.007h0c-.257.047-.532.115-.793.177l-.244.055h0l-.027.008-.021.007-.018,0a.2.2,0,0,1-.033.009h0a.1.1,0,0,1-.03,0h-.009l-.022,0-.008,0a.066.066,0,0,1-.024-.017h0a.176.176,0,0,1-.03-.1c-.036-.319-.1-.645-.112-.966v-.009c-.006-.151,0-.3,0-.451,0-.092,0-.185,0-.276,0-.187-.005-.369-.012-.542-.006-.135-.013-.275-.024-.426,0-.049-.006-.1-.01-.149a2.508,2.508,0,0,0-.036-.266c-.016-.089-.034-.178-.051-.266l-.042-.212c0-.022-.007-.043-.011-.065l-.009-.057c-.01-.064-.02-.129-.034-.192a.226.226,0,0,0-.1-.153h0a.166.166,0,0,0-.031-.012l-.011,0-.025,0h0l-.021,0H53.6l-.036.01a.188.188,0,0,0-.051.032.277.277,0,0,0-.072.084.21.21,0,0,0-.03.083c-.006.071-.01.142-.014.213,0,.054-.007.108-.01.163,0,.078-.007.157-.01.234l-.012.27,0,.046,0,.071a23.128,23.128,0,0,1-.38,2.894l-.035.2,0,.019c-.017.1-.034.2-.052.3l-.021.113c-.021.11-.043.221-.067.329,0,.015-.009.031-.014.046a1.3,1.3,0,0,1-.112.236l-.039.072-.005.008h0l-.005,0-.008,0h0a.029.029,0,0,1-.011-.011.615.615,0,0,1-.056-.112.344.344,0,0,1-.02-.056c-.021-.085-.04-.171-.059-.256l-.036-.155c-.038-.173-.077-.345-.12-.517-.009-.035-.02-.07-.031-.105-.027-.093-.057-.186-.087-.276l-.02-.059-.019-.056c-.009-.027-.019-.056-.028-.085-.027-.08-.056-.163-.088-.246-.062-.16-.129-.328-.2-.5-.016-.041-.032-.081-.049-.122l-.027-.06c-.062-.14-.126-.273-.178-.377-.031-.063-.075-.148-.122-.235-.055-.105-.115-.214-.163-.3s-.115-.2-.175-.3c-.1-.163-.2-.328-.3-.49s-.233-.35-.4-.568L50.4,21.58a.112.112,0,0,0-.027-.026l0,0a.237.237,0,0,0-.035-.019l-.007,0a.2.2,0,0,0-.041-.013h0a.2.2,0,0,0-.042,0h-.008a.145.145,0,0,0-.03,0h0a.211.211,0,0,0-.047.019.167.167,0,0,0-.082.139l0,.024q0,.05.006.1a.381.381,0,0,0,.077.2l.057.185c.016.053.034.105.05.158s.04.128.061.191c.382,1.145.806,2.259,1.083,3.438A14.61,14.61,0,0,0,40.626,26a29.06,29.06,0,0,1,.91-2.949q.1-.277.189-.558c.024-.07.046-.14.068-.211.014-.046.03-.092.044-.138l.041-.132.016-.053a.4.4,0,0,0,.079-.222c0-.026,0-.052,0-.078a.169.169,0,0,0-.111-.175l-.02-.007a.155.155,0,0,0-.031,0h-.008a.184.184,0,0,0-.041,0h0a.234.234,0,0,0-.04.012l-.008,0a.2.2,0,0,0-.035.02l-.005,0a.131.131,0,0,0-.027.025c-.065.086-.122.164-.176.239-.094.132-.176.252-.249.368-.133.211-.263.427-.386.637l-.088.149c-.024.041-.051.088-.078.138-.075.136-.157.292-.207.393s-.1.209-.158.332c-.016.035-.032.07-.047.105-.052.124-.1.248-.151.371-.033.083-.066.167-.1.247-.016.042-.031.083-.045.124-.026.072-.05.142-.071.207l-.021.062-.018.053c-.042.124-.085.251-.118.381l-.033.139c-.03.125-.059.252-.087.378s-.056.246-.085.368c0,.014-.007.028-.01.043s-.008.023-.012.035a.57.57,0,0,1-.064.132l0,.006-.006.006-.005,0-.005,0h0l0,0h0l-.005-.008-.007-.012c-.01-.02-.021-.04-.032-.06s-.034-.061-.05-.092a.8.8,0,0,1-.076-.19c-.055-.244-.1-.5-.14-.739l-.03-.174-.008-.049c-.122-.689-.241-1.385-.315-2.083-.029-.27-.052-.541-.065-.812v-.014l-.005-.1-.012-.27c-.008-.2-.017-.407-.034-.61a.252.252,0,0,0-.05-.115.278.278,0,0,0-.094-.079l-.009,0h0a.207.207,0,0,0-.033-.01H38.44l-.019,0h0l-.025,0-.011,0a.14.14,0,0,0-.034.013.226.226,0,0,0-.1.153l-.006.032c-.007.032-.013.064-.018.1s-.007.042-.01.063c-.007.041-.013.081-.02.122l-.042.212c-.017.088-.035.177-.051.266a2.508,2.508,0,0,0-.036.266c-.01.135-.018.26-.025.38,0,.052-.005.1-.007.152,0,.014,0,.029,0,.043s0,.022,0,.032c-.007.164-.01.334-.011.509q0,.138,0,.276h0c0,.151,0,.307,0,.46s-.025.322-.047.484-.047.323-.065.482a.192.192,0,0,1-.026.089l0,.007h0a.066.066,0,0,1-.024.017l-.008,0-.021,0h-.01a.165.165,0,0,1-.03,0h0l-.034-.009-.013,0-.026-.009-.028-.008c-.1-.021-.2-.045-.306-.07-.159-.038-.322-.077-.483-.112-.084-.018-.167-.035-.249-.05l-.049-.007h-.03a.222.222,0,0,0-.19.107c-.127.251.272.513.506.636l.1.047.141.064a4.037,4.037,0,0,1,.731.4l.025.018.05.085.079.136c.054.092.11.183.167.274.087.141.175.281.256.424a14.944,14.944,0,0,0-1.484,1.033l-.063-.074c-.049-.059-.1-.118-.147-.179l-.042-.054a2.687,2.687,0,0,1-.169-.247c-.022-.038-.043-.075-.061-.112l-.006-.012a1.147,1.147,0,0,0-.174-.172l-.019-.015a.206.206,0,0,0-.044-.027l-.009,0a.551.551,0,0,0-.054-.022l-.012,0a.461.461,0,0,0-.064-.016h0A.357.357,0,0,0,36,27.2H35.99l-.033,0h-.016a.4.4,0,0,0-.047.011l-.011,0-.033.014-.014.01a.22.22,0,0,0-.025.017l-.014.014a.22.22,0,0,0-.02.023l-.012.018-.015.03-.008.021c0,.013-.007.027-.01.041l0,.021a.447.447,0,0,0,0,.075,1.3,1.3,0,0,0,.24.583c.046.07.09.142.132.215.025.042.051.083.077.125.047.079.1.157.148.234a15.41,15.41,0,0,0-5.2,11.585,14.95,14.95,0,1,0,29.892,0,15.406,15.406,0,0,0-5.252-11.625m1.75,15.558a12.2,12.2,0,0,1-.678,1.609.045.045,0,0,1-.061.02l-.324-.174a.046.046,0,0,1-.018-.062,11.688,11.688,0,0,0,.65-1.545A.044.044,0,0,1,57.134,44l.345.121a.047.047,0,0,1,.029.059M35.643,45.789a12.069,12.069,0,0,1-.678-1.609.047.047,0,0,1,.028-.059L35.339,44a.044.044,0,0,1,.057.028,11.5,11.5,0,0,0,.65,1.545.047.047,0,0,1-.019.062l-.323.174a.044.044,0,0,1-.061-.02m21.466,1.7a.048.048,0,0,1-.008.045l-.3.405a.047.047,0,0,1-.056.017l-1.2-.449.1.225.8.611a.049.049,0,0,1,.019.033.046.046,0,0,1-.009.036l-.293.4a.047.047,0,0,1-.039.02.046.046,0,0,1-.029-.01l-2.27-1.743a.051.051,0,0,1-.01-.07l.293-.4a.051.051,0,0,1,.032-.019.048.048,0,0,1,.036.009l.684.526-.445-.888a.053.053,0,0,1,0-.053l.293-.4a.048.048,0,0,1,.082.008l.521,1.062,1.762.6a.049.049,0,0,1,.031.032m-1.68,2.094a.047.047,0,0,1,.013.036.05.05,0,0,1-.016.034l-.315.292a.049.049,0,0,1-.055.007l-1.422-.791,1.014,1.146a.05.05,0,0,1,0,.07l-.326.3a.046.046,0,0,1-.033.013h0a.046.046,0,0,1-.034-.016l-1.906-2.153a.05.05,0,0,1,0-.07l.335-.311a.047.047,0,0,1,.055-.007l1.308.7-.921-1.04a.051.051,0,0,1-.012-.036.046.046,0,0,1,.016-.034l.326-.3a.049.049,0,0,1,.069,0Zm-2.025,1.7a.051.051,0,0,1,.007.038.045.045,0,0,1-.021.031l-.409.271a.05.05,0,0,1-.026.008.048.048,0,0,1-.041-.023l-1.543-2.438a.05.05,0,0,1-.006-.038.045.045,0,0,1,.021-.031l.409-.271a.048.048,0,0,1,.067.015Zm-2.647-.456c-.02.066-.08.118-.193.169l-.114.051-.31-.728.114-.051a.3.3,0,0,1,.253-.03.505.505,0,0,1,.189.266.511.511,0,0,1,.061.323m.467.268a.794.794,0,0,0,.008-.83.918.918,0,0,0-.476-.548.88.88,0,0,0-.679.074l-.627.279a.051.051,0,0,0-.026.028.05.05,0,0,0,0,.038l1.134,2.663a.049.049,0,0,0,.045.03.043.043,0,0,0,.019,0l.447-.2A.055.055,0,0,0,51.1,52.6a.05.05,0,0,0,0-.038l-.445-1.046c.055-.026.109-.053.151-.076l.76.93a.049.049,0,0,0,.057.013l.454-.2a.05.05,0,0,0,.028-.035.048.048,0,0,0-.011-.044Zm-2.738,1.792-.4-1.942.118-.025a.292.292,0,0,1,.245.02.437.437,0,0,1,.122.265l.256,1.244c.056.27.006.363-.223.412Zm.669-1.746a1.007,1.007,0,0,0-.345-.636.776.776,0,0,0-.643-.1l-.708.153a.045.045,0,0,0-.031.021.048.048,0,0,0-.006.037l.585,2.842a.049.049,0,0,0,.047.04l.01,0,.708-.152a.789.789,0,0,0,.55-.355,1.029,1.029,0,0,0,.065-.724Zm-3.808,1.93a.239.239,0,0,1-.157.034.229.229,0,0,1-.166-.086.271.271,0,0,1-.057-.188.455.455,0,0,1,.083-.254,3.014,3.014,0,0,0,.3.494m-.184-1.9A.325.325,0,0,1,45.215,51a.114.114,0,0,1,.095-.048h.01c.038,0,.128.008.113.271a.763.763,0,0,1-.2.419,1.41,1.41,0,0,1-.072-.463M46.3,52.271l-.4-.132a.047.047,0,0,0-.038,0,.052.052,0,0,0-.024.03,3.012,3.012,0,0,1-.164.439,3.307,3.307,0,0,1-.254-.5l.031-.031a1.336,1.336,0,0,0,.5-.829.6.6,0,0,0-.589-.689.65.65,0,0,0-.706.693,2.224,2.224,0,0,0,.171.8,1.321,1.321,0,0,0-.411.807.729.729,0,0,0,.17.537.72.72,0,0,0,.516.234.763.763,0,0,0,.57-.171.858.858,0,0,0,.536.237h0a.047.047,0,0,0,.032-.012.048.048,0,0,0,.016-.035l.025-.442a.048.048,0,0,0-.038-.051.494.494,0,0,1-.214-.115l.03-.063a3.741,3.741,0,0,0,.267-.656.051.051,0,0,0-.031-.061m-3.86-1.781c.221.08.258.178.168.439l-.414,1.2a.435.435,0,0,1-.155.246.293.293,0,0,1-.246-.013l-.113-.041.647-1.871Zm.229-.458-.682-.247a.05.05,0,0,0-.062.031l-.946,2.738a.046.046,0,0,0,0,.038.044.044,0,0,0,.027.025l.682.247a1.014,1.014,0,0,0,.344.067c.334,0,.579-.221.731-.661l.375-1.085c.2-.579.042-.967-.471-1.153m-3.2,1.126a.357.357,0,0,1,.068-.206l.742-1.261c.067-.113.124-.166.193-.166a.242.242,0,0,1,.125.044c.092.057.108.107.111.139a.353.353,0,0,1-.067.206L39.9,51.175a.348.348,0,0,1-.146.158c-.03.011-.08.02-.172-.036s-.107-.106-.111-.139m1.794-1.528a.815.815,0,0,0-.4-.518.722.722,0,0,0-1.081.26l-.755,1.282a.755.755,0,0,0,.281,1.1.869.869,0,0,0,.453.142.634.634,0,0,0,.179-.025.788.788,0,0,0,.449-.377l.755-1.282a.821.821,0,0,0,.116-.582m-2.3-1.214a.35.35,0,0,1-.106.188l-.973,1.084a.339.339,0,0,1-.174.124c-.032.006-.083.005-.162-.07s-.084-.126-.081-.158a.35.35,0,0,1,.106-.188l.973-1.084a.345.345,0,0,1,.174-.125h.022a.2.2,0,0,1,.139.072c.079.074.085.125.082.158m.271-.552a.719.719,0,0,0-1.11.034L37.137,49a.757.757,0,0,0,.061,1.136.807.807,0,0,0,.55.245.752.752,0,0,0,.56-.28L39.3,49a.757.757,0,0,0-.061-1.135m-2.309-.007a.047.047,0,0,1-.068-.01l-.36-.5-.972.737a.053.053,0,0,1-.029.01.047.047,0,0,1-.039-.021l-.29-.4a.049.049,0,0,1-.009-.037.053.053,0,0,1,.019-.033l2.282-1.729a.047.047,0,0,1,.067.011l.81,1.118a.051.051,0,0,1-.01.07l-.341.259a.053.053,0,0,1-.036.009.046.046,0,0,1-.032-.02l-.491-.678-.51.387.36.5a.049.049,0,0,1,.009.037.053.053,0,0,1-.019.033Zm22.245-5.7a.051.051,0,0,1,.008.038l-.091.494a.049.049,0,0,1-.057.04l-2.343-.453-.135.728a.048.048,0,0,1-.02.032.054.054,0,0,1-.028.008H56.5l-.42-.082a.049.049,0,0,1-.039-.058l.234-1.271a.049.049,0,0,1,.057-.04l2.812.543a.049.049,0,0,1,.031.021M57.5,40.567l.005-.289.889.159Zm1.767-.477L56.419,39.5a.05.05,0,0,0-.041.01.049.049,0,0,0-.018.038l-.008.487a.051.051,0,0,0,.042.05l.59.093-.007.464-.593.073a.05.05,0,0,0-.043.049l-.008.487a.052.052,0,0,0,.017.039.055.055,0,0,0,.032.012h.008l2.869-.492a.05.05,0,0,0,.041-.049l.01-.624a.051.051,0,0,0-.039-.05m-3-1.508,2.838-.371a.049.049,0,0,1,.055.043l.062.5a.049.049,0,0,1-.01.037.045.045,0,0,1-.032.019l-2.838.371h-.006a.051.051,0,0,1-.049-.044l-.062-.5a.05.05,0,0,1,.01-.037.053.053,0,0,1,.032-.019m1.6-2.617a.733.733,0,0,1,.97.572.775.775,0,0,1-.59,1l-.2.058a.049.049,0,0,1-.061-.034l-.133-.484a.05.05,0,0,1,0-.038.049.049,0,0,1,.029-.024l.214-.062c.178-.051.265-.151.233-.268s-.072-.135-.1-.147a.334.334,0,0,0-.213.012l-1.4.4c-.193.056-.243.127-.2.284.026.092.066.118.093.129a.31.31,0,0,0,.19-.01l.331-.1a.049.049,0,0,1,.061.035l.133.483a.049.049,0,0,1-.033.062l-.317.092a.955.955,0,0,1-.259.038.708.708,0,0,1-.324-.075.781.781,0,0,1-.381-.512.838.838,0,0,1,.057-.66.792.792,0,0,1,.478-.347Zm-.542-1.24-1.3.664a.328.328,0,0,1-.207.053c-.032-.006-.079-.026-.128-.125a.194.194,0,0,1-.021-.179A.344.344,0,0,1,55.848,35l1.3-.664a.409.409,0,0,1,.177-.056.139.139,0,0,1,.03,0c.032.006.08.026.128.125.071.146.034.226-.145.317m-2.1.833a.8.8,0,0,0,.477.448.659.659,0,0,0,.193.029.853.853,0,0,0,.388-.1l1.318-.675a.76.76,0,0,0,.341-1.092.728.728,0,0,0-1.058-.375l-1.318.674a.76.76,0,0,0-.341,1.092m-.971-1.6a.832.832,0,0,1,.2-1.158.048.048,0,0,1,.066,0l.334.342a.055.055,0,0,1,.014.037.053.053,0,0,1-.017.036c-.187.164-.246.324-.163.437a.265.265,0,0,0,.148.11.2.2,0,0,0,.163-.046c.188-.144.2-.4.217-.693a1.277,1.277,0,0,1,.418-1.067.707.707,0,0,1,1.095.2.764.764,0,0,1-.154,1.05.047.047,0,0,1-.069,0l-.321-.351a.051.051,0,0,1,0-.072c.178-.161.133-.283.09-.341-.1-.134-.219-.084-.3-.019-.154.118-.169.364-.187.648a1.34,1.34,0,0,1-.415,1.088.787.787,0,0,1-.477.177.586.586,0,0,1-.126-.013.862.862,0,0,1-.518-.362m-5.271-3.868.965-2.756a.057.057,0,0,1,.025-.028.05.05,0,0,1,.038,0l.462.17a.05.05,0,0,1,.03.064l-.8,2.3.682.25a.044.044,0,0,1,.027.025.048.048,0,0,1,0,.039l-.144.412a.053.053,0,0,1-.025.028.054.054,0,0,1-.021.005l-.017,0-1.19-.436a.049.049,0,0,1-.027-.026.05.05,0,0,1,0-.038m-1.45-1.994-.491,1.637a.051.051,0,0,1-.053.035l-.409-.052a.05.05,0,0,1-.043-.047l-.186-2.973a.053.053,0,0,1,.015-.04.049.049,0,0,1,.04-.013l.456.058a.049.049,0,0,1,.043.048l.063,1.619.467-1.553a.047.047,0,0,1,.052-.035l.4.051a.049.049,0,0,1,.043.047l.09,1.617.424-1.55a.048.048,0,0,1,.053-.036l.456.058a.051.051,0,0,1,.035.022.052.052,0,0,1,.006.042l-.853,2.842a.048.048,0,0,1-.046.035H48.1l-.409-.052a.049.049,0,0,1-.043-.047Zm-2.887-.752c.017-.028.052-.066.16-.077a.186.186,0,0,1,.171.043.364.364,0,0,1,.066.208L45.2,28.99c.019.2-.027.278-.186.294s-.218-.047-.238-.251l-.143-1.477a.354.354,0,0,1,.026-.217m.295,2.487a1.079,1.079,0,0,0,.112-.006.747.747,0,0,0,.721-.877l-.146-1.5a.813.813,0,0,0-.249-.542.9.9,0,0,0-1.2.122.827.827,0,0,0-.141.582l.145,1.5a.73.73,0,0,0,.763.721m-2.5-1.984a.448.448,0,0,1,.146.245.343.343,0,0,1-.007.256.267.267,0,0,1-.167.137l-.123.039-.2-.655.131-.042a.234.234,0,0,1,.219.02m.23,1.932-.232-.764.1-.033a.342.342,0,0,1,.291.007.459.459,0,0,1,.165.267c.082.271.031.409-.178.475Zm.371-1.246a.732.732,0,0,0,.092-.67.84.84,0,0,0-.364-.522.8.8,0,0,0-.648-.02l-.7.221a.051.051,0,0,0-.029.025.05.05,0,0,0,0,.038L42.25,30.4a.048.048,0,0,0,.046.036l.015,0,.741-.235a.787.787,0,0,0,.521-1.106.718.718,0,0,0-.524-.559m-8.235,4.664a.046.046,0,0,1-.02-.032.047.047,0,0,1,.008-.038l.281-.412a.049.049,0,0,1,.068-.012l.915.654.243-.357-.914-.654a.046.046,0,0,1-.02-.032.045.045,0,0,1,.008-.037l.281-.412a.048.048,0,0,1,.068-.013l2.345,1.677a.05.05,0,0,1,.012.069l-.281.413a.052.052,0,0,1-.032.02.046.046,0,0,1-.036-.008l-1-.715-.243.357,1,.715a.05.05,0,0,1,.012.069l-.281.412a.049.049,0,0,1-.032.021h-.008a.047.047,0,0,1-.028-.009Zm-.877,2.149a.836.836,0,0,1,.038-.662.746.746,0,0,1,.467-.443.872.872,0,0,1,.612.066l.191.088a.051.051,0,0,1,.025.066l-.2.459a.048.048,0,0,1-.028.026.044.044,0,0,1-.037,0l-.2-.093a.385.385,0,0,0-.238-.041.161.161,0,0,0-.11.093.2.2,0,0,0-.014.181.343.343,0,0,0,.172.13l1.323.608a.337.337,0,0,0,.209.045c.031-.008.078-.03.122-.131a.17.17,0,0,0,.01-.16.316.316,0,0,0-.152-.117l-.314-.144a.051.051,0,0,1-.025-.067l.2-.458a.047.047,0,0,1,.064-.025l.3.138a.753.753,0,0,1,.4,1.053.81.81,0,0,1-.458.469.667.667,0,0,1-.222.037.876.876,0,0,1-.362-.085l-1.344-.618a.8.8,0,0,1-.423-.414m-.891,2.542a.05.05,0,0,1-.006-.038l.105-.453a.05.05,0,0,1,.042-.039l1.479-.178-1.345-.327a.05.05,0,0,1-.036-.06l.1-.442a.05.05,0,0,1,.022-.031.048.048,0,0,1,.037-.006l2.783.677a.05.05,0,0,1,.036.06l-.1.426a.051.051,0,0,1-.043.039l-1.621.172,1.481.36a.05.05,0,0,1,.036.06l-.1.442a.051.051,0,0,1-.048.039l-.011,0-2.783-.677a.046.046,0,0,1-.03-.022m1.973,2.644-2.137-.1a.046.046,0,0,1-.034-.016.049.049,0,0,1-.013-.036l.023-.5a.047.047,0,0,1,.051-.048l2.157.1a.315.315,0,0,0,.206-.045.2.2,0,0,0,.067-.16.2.2,0,0,0-.052-.167.32.32,0,0,0-.2-.063l-2.157-.1a.051.051,0,0,1-.034-.017.049.049,0,0,1-.012-.036l.022-.5a.047.047,0,0,1,.051-.047l2.138.1a.811.811,0,0,1,.588.249.96.96,0,0,1-.054,1.2.784.784,0,0,1-.551.193h-.057m-.734,1.636-.774.111-.019-.143a.413.413,0,0,1,.035-.31.443.443,0,0,1,.3-.122,1.042,1.042,0,0,1,.145-.012.285.285,0,0,1,.176.045.41.41,0,0,1,.118.288Zm1.734.309-.068-.5a.053.053,0,0,0-.019-.033.052.052,0,0,0-.036-.01l-1.114.16-.023-.167a1.031,1.031,0,0,0-.3-.684.87.87,0,0,0-.712-.138.887.887,0,0,0-.648.333,1.052,1.052,0,0,0-.106.743l.1.715a.053.053,0,0,0,.019.033.054.054,0,0,0,.03.01h.006l2.833-.408a.049.049,0,0,0,.042-.056" transform="translate(0.043 0.01)"/></g><rect width="97.219" height="86.203" fill="none"/></g></svg>