<svg xmlns="http://www.w3.org/2000/svg" xmlns:xlink="http://www.w3.org/1999/xlink" viewBox="0 0 97.219 86.203"><defs><clipPath id="a"><rect x="19.113" y="39.573" width="60.191" height="7.057" fill="none"/></clipPath></defs><g><g clip-path="url(#a)"><path d="M53.492,45.326a1.885,1.885,0,0,0,.132-.176A1.725,1.725,0,0,0,53.711,45l-2.677.017-.221.329Z"/><path d="M39.681,45.415s1.005.02,1.061.009l.036-.009c.048-.012,3.884-.032,3.884-.032l-.222-.327-4.532.074Z"/><path d="M77.979,44.314a.145.145,0,0,1,0,.053.091.091,0,0,1-.036.04.07.07,0,0,1-.059.017h-.077v-.11Zm-.257.352a.15.15,0,0,0,.051.007.094.094,0,0,0,.035-.008v-.153h.152l.022.153h.087a.737.737,0,0,0-.008-.136c-.011-.039-.042-.047-.037-.074s.033-.047.043-.07a.142.142,0,0,0-.037-.122.15.15,0,0,0-.052-.026.224.224,0,0,0-.092-.008H77.7Z"/><path d="M78.216,44.364a.36.36,0,0,1-.242.432.34.34,0,0,1-.393-.173.361.361,0,0,1,.094-.449.514.514,0,0,1,.215-.077.424.424,0,0,1,.272.151.387.387,0,0,1,.054.116m-.724-.068a.447.447,0,0,0,.23.556.409.409,0,0,0,.464-.1.56.56,0,0,0,.117-.3.5.5,0,0,0-.175-.349.377.377,0,0,0-.411-.041.389.389,0,0,0-.225.231"/><path d="M45.934,44.714c.038.187.009.289-.1.367a.3.3,0,0,1-.422-.074.326.326,0,0,1-.024-.306.286.286,0,0,1,.493-.066.242.242,0,0,1,.052.079m-.944.055a.8.8,0,0,0,.187.546.678.678,0,0,0,.811.115,1.745,1.745,0,0,0,.226-.21.691.691,0,0,0,.06-.656.664.664,0,0,0-1.21-.058,1.634,1.634,0,0,0-.074.263"/><path d="M50.175,44.7a.3.3,0,0,1-.358.367.283.283,0,0,1-.225-.252.311.311,0,0,1,.128-.3.379.379,0,0,1,.324,0,.346.346,0,0,1,.131.192m-.994,0a.689.689,0,0,0,1.084.634,1.661,1.661,0,0,0,.2-.231.711.711,0,0,0-.233-.928.6.6,0,0,0-.54-.084.63.63,0,0,0-.42.32.6.6,0,0,0-.1.289"/><path d="M46.148,43.405l3.193-.042a.607.607,0,0,1,.111.005.153.153,0,0,1,.153.131.134.134,0,0,1-.064.178.127.127,0,0,1-.1.028c-.863,0-2.379.016-2.588.031-.283.019-.7.03-.766.02-.121-.019-.212-.074-.174-.211a.155.155,0,0,1,.135-.132.422.422,0,0,1,.1-.008m-.594.638,4.5-.05a.262.262,0,0,0,.083-.007c.11-.034.083-.207.041-.257-.056-.067-.081-.052-.092-.145a.233.233,0,0,1,.034-.156c.017-.02.039-.03.056-.049a.214.214,0,0,0-.034-.273.238.238,0,0,0-.071-.026.407.407,0,0,0-.1,0l-4.443.05a.216.216,0,0,0-.09.009.184.184,0,0,0-.11.226.176.176,0,0,0,.036.079c.017.017.057.02.073.036a1,1,0,0,1,0,.219c-.016.016-.055.02-.072.037a.24.24,0,0,0-.035.19.215.215,0,0,0,.126.112.228.228,0,0,0,.1.01"/><path d="M48.608,42.93l.367,0a.413.413,0,0,0,0-.073.089.089,0,0,0-.044-.047,2.007,2.007,0,0,0-.238-.119.356.356,0,0,0-.081.005.665.665,0,0,1,.01.125.583.583,0,0,1-.014.111"/><polygon points="50.916 43.904 50.614 44.12 50.626 44.295 50.713 44.294 51.335 44.033 50.466 42.907 49.687 42.639 49.663 42.748 50.359 43.05 50.916 43.904"/><path d="M47.218,42.94l1.124.012a.27.27,0,0,0,.082,0,.146.146,0,0,0,.033-.017.129.129,0,0,0,.043-.07,1.21,1.21,0,0,0-.031-.255.289.289,0,0,0-.1-.062.311.311,0,0,0-.086,0c-.039.007-.048,0-.093-.034L47.577,42l-.428.439a.739.739,0,0,0-.062.067.43.43,0,0,0-.057.279.252.252,0,0,0,.09.134c.03.023.04.025.1.026"/><path d="M55.974,42.764l-.982,1.709a.329.329,0,0,1-.08.1.648.648,0,0,1-.351.219c-.118.026-.341.06-.341.06l-.211.447,2.615-.039.206-.461a1.332,1.332,0,0,1-.2,0,.307.307,0,0,1-.238-.144.643.643,0,0,1,0-.176,1.114,1.114,0,0,1,.1-.226c.109-.192.335-.527.335-.527s.145-.008.234,0c.107.008.257.107.26.213a1.23,1.23,0,0,1-.02.179l.526,0,.59-1.228-.526,0s-.068.1-.121.154a.627.627,0,0,1-.393.155,2.985,2.985,0,0,1-.3,0l.439-.943s.152,0,.254,0c.164.007.311.047.321.159,0,.053,0,.146,0,.146l.936-.006.419-.9s-2.519.174-2.764.2c-.439.053-.869.12-.869.12a1.242,1.242,0,0,1-.037.181.983.983,0,0,1-.035.093s.147.028.209.048a.187.187,0,0,1,.131.19.726.726,0,0,1-.048.154.985.985,0,0,1-.059.117"/><path d="M59.568,42.105a2.035,2.035,0,0,1,.227.042.212.212,0,0,1,.13.174.518.518,0,0,1-.03.146.644.644,0,0,1-.053.12L58.858,44.4a.533.533,0,0,1-.06.094,1.063,1.063,0,0,1-.24.173,1.3,1.3,0,0,1-.259.089c-.082.015-.192.026-.192.026l-.2.469,4.057-.048.58-1.163-1.1.007s-.181.337-.239.417a.917.917,0,0,1-.852.246.569.569,0,0,1-.159-.057.29.29,0,0,1-.019-.259.8.8,0,0,1,.045-.09l1.133-2.058a.576.576,0,0,1,.073-.109.449.449,0,0,1,.249-.158c.083-.021.216-.045.216-.045l.256-.472-2.384.182Z"/><path d="M65.238,41.711a1.83,1.83,0,0,1,.193.027c.12.026.149.059.131.141a.846.846,0,0,1-.1.176c-.077.1-.782.824-.782.824s-.3-.728-.331-.824a.642.642,0,0,1,0-.175.275.275,0,0,1,.215-.125,1.722,1.722,0,0,1,.2,0l.11-.438s-.978.023-1.615.054c-.3.015-.527.032-.73.06-.073.01-.089.013-.115.057-.063.109-.233.461-.233.461l.486-.037a.272.272,0,0,1,.088,0,.265.265,0,0,1,.044.017.5.5,0,0,1,.069.028c.029.017.035.025.063.077l.737,1.375-.58,1.057a.345.345,0,0,1-.067.095.461.461,0,0,1-.19.106c-.084.022-.237.049-.237.049l-.2.489,2.457-.016.217-.494a2.928,2.928,0,0,1-.292-.041c-.107-.024-.19-.067-.178-.188a.27.27,0,0,1,.028-.092l.433-1.089,1.7-1.543.359-.067.219-.434-1.988.052Z"/><path d="M67.444,41.653s.1.022.158.038c.361.1.04.584-.134.92-.219.423-.913,1.689-.951,1.734a.754.754,0,0,1-.333.253c-.112.04-.345.09-.345.09l-.22.494,4.033-.027.59-1.184-1.088.007c-.058,0-.068,0-.1.026a1.667,1.667,0,0,0-.206.3.45.45,0,0,1-.29.177c-.081.015-.553.027-.553.027l.6-1.252.547,0-.019.372.551,0,.652-1.318s-.471.014-.506.027-.095.087-.164.143a.742.742,0,0,1-.423.145c-.13.007-.331,0-.331,0l.568-1.031.732,0-.194.373,1.229-.008.387-.813-.416.019-3.558.052Z"/><path d="M48.711,42.093v-.214h.238l.151.045a.928.928,0,0,0-.094.128c-.01.029.086.149.161.208A.212.212,0,0,0,49.5,42.2a.381.381,0,0,0,.1-.28,1.11,1.11,0,0,0-.12-.2c-.049-.062-.517-.511-.555-.532a.4.4,0,0,0-.367.024c-.055.028-.478.354-.6.464-.078.069-.11.1-.128.171a.389.389,0,0,0,0,.132,3.743,3.743,0,0,0,.864.588c.051.03.06.032.091.021a.176.176,0,0,1,.072-.011,2.37,2.37,0,0,1,.254.272.332.332,0,0,0,.108.065,1.273,1.273,0,0,0,.13.01.445.445,0,0,0,.015-.1c0-.007-.008-.005-.011-.009a.088.088,0,0,1,0-.056.027.027,0,0,1,.021-.022c.03-.006.1,0,.132-.006a.151.151,0,0,0,.078-.14.492.492,0,0,0-.224-.165c-.042-.008-.168.01-.2,0s-.448-.33-.448-.33"/><path d="M22.671,41.929s-1.065,2.134-1.168,2.314a1.584,1.584,0,0,1-1.062.882.29.29,0,0,1-.071.005c-.032,0-.039,0-.062.056l-.2.444,2.853-.04.246-.489a2.623,2.623,0,0,1-.278-.047.376.376,0,0,1-.284-.394.841.841,0,0,1,.049-.167.918.918,0,0,1,.057-.118l1.453-2.664s.288-.013.447,0a.884.884,0,0,1,.439.139.855.855,0,0,1,.136.161,1.074,1.074,0,0,1-.183.922,1.222,1.222,0,0,1-.8.442c-.194.032-.508.058-.508.058l-.56,1.063s.341.168.612.293c.142.065.9.347,1.04.387a9.477,9.477,0,0,0,2.357.389c.2.011,1.951,0,2.162-.014a45.061,45.061,0,0,0,5.028-.667c1.075-.194,9.869-1.892,9.869-1.892l.141-.354s-3.05.579-5.308.991c-.1.019-7.137,1.286-8.762,1.446a16.061,16.061,0,0,1-2.744.039,6.485,6.485,0,0,1-2.468-.727c-.169-.1-.4-.255-.4-.255s.365-.053.568-.1a1.877,1.877,0,0,0,1.526-1.246,1.715,1.715,0,0,0-.039-1.027.9.9,0,0,0-.511-.555,2.19,2.19,0,0,0-.324-.065.622.622,0,0,0-.129-.008L22.25,41.2l-.332.5.672.066Z"/><path d="M32.858,43.876l1.323-2.427s.2-.008.31,0c.133.007.173.074.152.244a.246.246,0,0,1-.017.071.638.638,0,0,1-.046.091l-.9,1.642a.6.6,0,0,1-.072.108.641.641,0,0,1-.379.2c-.137.031-.373.07-.373.07m-.366-2.427a1.448,1.448,0,0,1,.184.042.172.172,0,0,1,.066.164.5.5,0,0,1-.029.119c-.022.051-.027.062-.054.115l-.986,1.924a.486.486,0,0,1-.071.109,1.943,1.943,0,0,1-.205.224.981.981,0,0,1-.194.111.817.817,0,0,0-.181.056c-.022.023-.182.42-.182.42s.712-.094,1.294-.176c.287-.041,1.976-.349,2.115-.386a.95.95,0,0,0,.469-.27,4.841,4.841,0,0,0,.369-.446c.058-.083.927-1.688.95-1.756a.557.557,0,0,0,.04-.437.365.365,0,0,0-.271-.206.517.517,0,0,0-.119-.028c-.054,0-.067,0-.125,0l-2.89.019Z"/><path d="M29.67,42.791l-1.415.009.493-.951a.255.255,0,0,1,.06-.088.826.826,0,0,1,.361-.148,6.4,6.4,0,0,1,.678,0c.157.023.259.08.26.217a1.034,1.034,0,0,1-.074.219c-.123.256-.363.746-.363.746m-1.941,2.078.357-.525s-.165-.026-.264-.054a.254.254,0,0,1-.207-.2.262.262,0,0,1,.032-.171c.056-.129.387-.724.387-.724l1.475-.032s-.431.794-.479.857a.718.718,0,0,1-.483.3.254.254,0,0,0-.093.047c-.033.032-.309.512-.309.512l.157.017c.095.01,1.3-.01,1.414-.024.335-.039.792-.095.792-.095l.256-.447s-.094-.012-.144-.021a.2.2,0,0,1-.065-.022.322.322,0,0,1-.087-.09.582.582,0,0,1,.016-.235.76.76,0,0,1,.046-.093l1.112-2.058a.676.676,0,0,0,.054-.119c.1-.281.05-.5-.189-.582a.983.983,0,0,0-.2-.045.7.7,0,0,0-.129-.007l-2.37.036a.492.492,0,0,0-.124.013,1.23,1.23,0,0,0-.445.272.443.443,0,0,0-.078.1l-1.28,2.171a.6.6,0,0,1-.075.106.77.77,0,0,1-.4.248c-.116.023-.3.033-.324.046s-.3.325-.3.325.309.122.518.2a5.637,5.637,0,0,0,.616.16c.3.053.812.136.812.136"/><path d="M36.522,41.416s.105.013.173.028a.193.193,0,0,1,.174.243,3.291,3.291,0,0,1-.2.4c-.219.381-.542.959-.6,1.032a.9.9,0,0,1-.422.313,1.139,1.139,0,0,0-.2.068c-.024.023-.278.561-.278.561l2.509-.486.2-.425-.164-.042a.38.38,0,0,1-.127-.057.693.693,0,0,1-.08-.164.372.372,0,0,1,.016-.156.8.8,0,0,1,.047-.094l.556-.984a.631.631,0,0,1,.06-.093.468.468,0,0,1,.262-.14,2.675,2.675,0,0,1,.281,0l.225-.439L36.69,41Z"/><path d="M40.662,41.786l-.488.893-.772.109s.091-.237.172-.433c.046-.112.337-.658.374-.7a.405.405,0,0,1,.232-.154.946.946,0,0,1,.447.03.191.191,0,0,1,.07.168.2.2,0,0,1-.035.09m-1.968,1.593,1.879-.289a.342.342,0,0,0,.124-.037,2.245,2.245,0,0,0,.777-.907,2.865,2.865,0,0,0,.319-.772.346.346,0,0,0-.132-.356.761.761,0,0,0-.157-.069.458.458,0,0,0-.1-.006l-1.485.01a.7.7,0,0,0-.129.009.829.829,0,0,0-.477.211.381.381,0,0,0-.08.1c-.233.395-.6,1.03-.683,1.195-.072.148-.291.6-.167.81a.277.277,0,0,0,.2.1.394.394,0,0,0,.116-.006"/><path d="M51.266,42.061,63.6,41.193l7.556-.2.13,0c.611-.01,1.433-.02,1.833-.011.195,0,1.685.128,1.832.152a2.24,2.24,0,0,1,1.654.922,1.8,1.8,0,0,1,.23,1.373c-.256.728-1.348.865-2.081.659a1.7,1.7,0,0,1-.39-.151c-.038-.026-.087-.065-.087-.065s.321-.07.54-.135c.557-.164,1.021-.486,1.073-1.052a1.2,1.2,0,0,0-.352-1.008,6.075,6.075,0,0,0-2.635-.519c-.408-.013-.984-.015-.984-.015l-.184.5A2.4,2.4,0,0,1,72,41.7c.074.034.075.172.036.277a.676.676,0,0,1-.054.119L70.722,44.4a.22.22,0,0,1-.085.1.539.539,0,0,1-.132.071,2.473,2.473,0,0,1-.259.067l-.27.516,2.311-.015.27-.632v-.07a1.03,1.03,0,0,1-.113.015.747.747,0,0,1-.189-.046c-.126-.089-.107-.228-.035-.4.047-.117,1.177-2.261,1.177-2.261s.236-.01.4,0a.822.822,0,0,1,.639.28.71.71,0,0,1-.039.722,1.218,1.218,0,0,1-.635.365,1.966,1.966,0,0,1-.335.057c-.161.017-.393.037-.393.037l-.409.787s.152.163.28.284a5.882,5.882,0,0,0,.521.368,2.954,2.954,0,0,0,1.655.394,3.009,3.009,0,0,0,2.081-.7,2.032,2.032,0,0,0,.342-2.157c-.457-1.249-1.991-1.493-3.278-1.575-.206-.013-2.766-.032-3.159-.023-.961.021-5.593.18-6.653.229-3.138.142-7.029.363-10.064.6q-1.443.113-2.879.245c-.058.006-.067.009-.084.036a.261.261,0,0,0-.027.066c-.033.1-.09.308-.09.308"/><path d="M49.2,41.133l.615.659a.293.293,0,0,0,.065.061.122.122,0,0,0,.184-.048c.068-.1.122-.268.225-.318.086-.042.1-.023.14-.078a.115.115,0,0,0,.013-.143c-.013-.028-.017-.037-.045-.089a5.729,5.729,0,0,0-.286-.5.445.445,0,0,0-.29-.075.654.654,0,0,0-.271.144c-.081.072-.35.385-.35.385"/></g><rect width="97.219" height="86.203" fill="none"/></g></svg>