<svg xmlns="http://www.w3.org/2000/svg" viewBox="0 0 97.61 86.56"><g opacity="0.5"><rect y="0.357" width="97.219" height="86.203" fill="none"/></g><rect x="0.39" width="97.219" height="86.203" fill="none"/><path d="M54.933,47.188l.741.519-.3.431-.75-.525-1.392-.058.361-.516.755.057-.307-.7.35-.5Zm-1.893.529,1.226,1.693-.438.318-1.244-.5.668.922-.418.3-1.228-1.692.431-.313,1.262.512-.678-.934Zm-1.978,2.551-.236.077-.018-.447ZM50.8,49.056l-.473.155-.04,2.21.544-.178v-.365l.543-.176.216.3.543-.177-1.322-1.747Zm-1.559,1.07a.22.22,0,0,1-.061.167.288.288,0,0,1-.214.083l-.3.011-.017-.466.34-.011a.237.237,0,0,1,.185.064.218.218,0,0,1,.065.152m-.216-.7h-.008l-.894.03.07,2.09.516-.017-.021-.652.264-.009a.877.877,0,0,0,.626-.257.717.717,0,0,0,.2-.519.693.693,0,0,0-.751-.666m-1.905-.144.478.156-.646,1.987-.491-.16.277-.857-.74.748-.167-1.043-.279.856-.492-.16.647-1.987.5.163.145,1.083Zm-2.694-.022a.5.5,0,0,1-.54.234.439.439,0,0,1-.262-.2.611.611,0,0,1,.139-.664.584.584,0,0,1,.439-.243.408.408,0,0,1,.109.014.417.417,0,0,1,.254.2.627.627,0,0,1-.139.662m.59-.883a1.123,1.123,0,0,0-.6-.465,1.024,1.024,0,0,0-1.1.435h0a1.025,1.025,0,0,0-.142,1.171,1.122,1.122,0,0,0,.6.464.788.788,0,0,0,.249.039,1.123,1.123,0,0,0,.846-.474,1.024,1.024,0,0,0,.149-1.17m-1.865-1.2a.467.467,0,0,0-.591-.246.66.66,0,0,0-.44.435.494.494,0,0,0,.112.469.562.562,0,0,0,.311.168l.037,0-.231.5-.023-.006a1.168,1.168,0,0,1-.58-.445.989.989,0,0,1-.161-.842,1.2,1.2,0,0,1,.466-.644,1.122,1.122,0,0,1,.76-.2,1.048,1.048,0,0,1,.724.474,1.1,1.1,0,0,1,.2.682v.025l-.551.03.008-.034a.586.586,0,0,0-.042-.366m5.146-.591a.282.282,0,0,1,.121-.073l.336.584a.67.67,0,0,1-.212.039.315.315,0,0,1-.323-.314.34.34,0,0,1,.078-.236m.311,1.026a.943.943,0,0,0,.388-.109l.056.1h.561l-.236-.379a.913.913,0,0,0,.17-.307l0-.016-.388-.393-.017.116a.674.674,0,0,1-.038.133l-.452-.791h.585v-.451H48v.325l.173.284a.716.716,0,0,0-.459.676.737.737,0,0,0,.229.575.855.855,0,0,0,.6.244l.06,0M54.653,37.23h1.388l-1.717,3.448v3.461H53V40.706L51.26,37.23h1.387l.989,2.26Zm-6.5,4.162.634-1.9.621,1.9Zm3.474,2.747L49.345,37.23H48.222c-.741,2.287-1.534,4.624-2.285,6.909h1.319l.451-1.4H49.86l.448,1.4Zm-8.414.093A2.735,2.735,0,0,1,40.9,42.991l1-.952a1.633,1.633,0,0,0,1.375.885.738.738,0,0,0,.779-.674c0-.3-.252-.62-.926-1-.964-.527-1.94-1.03-1.94-2.232a1.93,1.93,0,0,1,2.087-1.876,2.4,2.4,0,0,1,2.112,1.124l-.923.95a1.359,1.359,0,0,0-1.176-.806.619.619,0,0,0-.7.608c0,.291.251.581.937.939.965.514,1.969,1.095,1.969,2.284a2.1,2.1,0,0,1-2.285,1.995m5.394,9.8A10.933,10.933,0,1,1,59.542,43.1,10.946,10.946,0,0,1,48.61,54.035m0-22.854A11.921,11.921,0,1,0,60.529,43.1,11.933,11.933,0,0,0,48.61,31.181" transform="translate(0.39)"/></svg>