<svg xmlns="http://www.w3.org/2000/svg" xmlns:xlink="http://www.w3.org/1999/xlink" viewBox="0 0 97.219 86.203"><defs><clipPath id="a"><rect x="31.546" y="26.039" width="34.126" height="34.126" fill="none"/></clipPath></defs><g><rect width="97.219" height="86.203" fill="none"/><g clip-path="url(#a)"><path d="M48.62,54.3A11.194,11.194,0,1,1,59.814,43.1,11.194,11.194,0,0,1,48.62,54.3m.009-25.986A14.812,14.812,0,1,0,63.441,43.121,14.814,14.814,0,0,0,48.629,28.309"/><path d="M48.609,27.456A15.646,15.646,0,1,0,64.255,43.1,15.664,15.664,0,0,0,48.609,27.456m0,31.709A16.063,16.063,0,1,1,64.672,43.1,16.081,16.081,0,0,1,48.609,59.165"/><path d="M37.711,34.133a9.909,9.909,0,0,0-1.5,1.821c-.664,1.156-.52,1.821-.173,1.936.809.347,1.936-1.821,2.2-1.676.174.058.029.289-.173.665a5.728,5.728,0,0,1-1.1,1.329l.2.491c1.647-1.5,2.63-3.554,1.849-3.814-.982-.347-2.109,1.791-2.311,1.676-.087-.029.029-.26.2-.607a13.994,13.994,0,0,1,1.04-1.33Zm3.728-3.265a11.632,11.632,0,0,0-1.358.722c-1.445,1.012-1.937,2.139-1.358,2.659.693.607,1.965.058,3.323-.81.173-.144.376-.317.52-.433l-.578-.231c-.087.058-.2.144-.347.231-.867.607-1.387.52-1.7.2-.462-.491.723-1.416,1.59-1.762Zm.578-.52a5.683,5.683,0,0,0,.636-.232,5.819,5.819,0,0,0,.664-.231l.261.867c.375-.145.751-.26,1.127-.4-.087-.261-.2-.55-.289-.839.2-.057.433-.144.664-.231.2-.058.405-.144.636-.231.145.434.289.867.405,1.243.144.433.289.838.4,1.271-.2.058-.4.145-.635.231-.2.058-.405.145-.636.2-.087-.289-.2-.607-.318-.925-.376.115-.751.26-1.127.4a8.887,8.887,0,0,1,.318.925c-.232.087-.463.145-.665.232a5.6,5.6,0,0,0-.636.23c-.144-.4-.289-.837-.4-1.242-.145-.434-.261-.838-.4-1.271m4.45-1.5c.463-.029.9-.087,1.33-.087.058.26.115.52.173.809l.174.781c.086-.261.173-.55.26-.81.058-.26.173-.52.231-.809.433.029.838.058,1.243.058.058.289.144.549.173.809.058.289.116.578.174.838q.129-.39.26-.78c.087-.26.2-.549.289-.809.433.058.867.144,1.3.2-.2.434-.405.838-.607,1.243-.173.4-.376.809-.578,1.242-.434-.058-.867-.086-1.3-.144-.058-.231-.116-.492-.2-.751-.058-.261-.144-.492-.2-.752-.087.26-.2.491-.26.722-.087.261-.173.521-.26.752-.434.029-.867.029-1.329.058-.145-.434-.29-.838-.434-1.272s-.289-.867-.434-1.3m6.387.4,1.272.521L53.085,32.2l-1.3-.52Zm2.225,1.041,1.041.693.347,1.908.2-.347.578-.781,1.069.752-1.531,2.139-1.07-.723L55.4,31.966l-.232.375-.606.781L53.518,32.4ZM59.1,33.353l.723,1.04L59.5,36.3l.318-.26.809-.55.752,1.07-2.168,1.5-.751-1.041.346-1.965-.346.289-.781.549-.751-1.04Z" fill="#fff"/><path d="M60.516,51.556l-.756.894-.607-.588-2.293-.1.771-.7,1.414.046-.27-1.481.684-.9.388,2.247s.669.6.669.577" fill="#fff"/><path d="M57.222,54.605l-1.006.679-.863-1.445a9.312,9.312,0,0,1-.991.48l-.321-.71a10.119,10.119,0,0,0,2.5-1.547l.5.592a8.486,8.486,0,0,1-.781.613Z" fill="#fff"/><polygon points="52.882 56.698 52.172 54.298 53.234 53.951 54.169 56.259 52.882 56.698" fill="#fff"/><path d="M49.256,57.24,49.2,54.779l1.037-.062.056,1.645a10.765,10.765,0,0,0,1.5-.235l.148.837a14.951,14.951,0,0,1-2.686.276" fill="#fff"/><path d="M41.049,52.01l.889.7-.782,1.052c-.408.551.879,1.475,1.257.837l.7-1.2.976.551-.9,1.629c-.271.486-1.578.021-2.206-.377-.664-.419-1.542-1.2-.93-1.961Z" fill="#fff"/><path d="M39,51.668a.985.985,0,0,1-1.257-.24c-.3-.342-.531-1.077-.158-1.369.342-.265.95,0,1.231.312.3.337.546.97.184,1.3m.352-1.532c-.562-.674-1.711-1.46-2.446-.98-.689.444-.475,1.746.163,2.461.164.184.337.368.506.552V52.4l.8.838v-.567a1.228,1.228,0,0,0,1.394-.077c.658-.633.112-1.818-.419-2.461" fill="#fff"/><path d="M45.686,55.892l.679-.746.429.981a6.281,6.281,0,0,1-1.108-.235m1.563-1.236-1.537-.266-2.038,1.936,1.2.4.312-.321c.638.178,1.292.316,1.945.434l.159.367,1.118.021Z" fill="#fff"/><polygon points="48.585 43.088 48.6 43.103 48.615 43.088 48.585 43.088"/><path d="M48.616,43.118l2.29,2.29-2.29,8.024V43.118L48.6,43.1l-2.266,2.283L38.3,43.1l10.282-.009-2.268-2.251,2.29-8.032.009,10.283h0l2.289-2.29,8.024,2.29H48.616ZM51,40.7,48.6,32.27l-2.409,8.449-8.432,2.409,8.423,2.381,2.427,8.455,2.407-8.438,8.439-2.417Z"/></g></g></svg>