<svg xmlns="http://www.w3.org/2000/svg" viewBox="0 0 97.61 86.56"><g opacity="0.5"><rect y="0.357" width="97.219" height="86.203" fill="none"/></g><rect x="0.39" width="97.219" height="86.203" fill="none"/><path d="M54.642,48.026h-.164c-.286,0-.328-.069-.328-.208v-.591c0-.174.1-.278.349-.278h.143Zm2.534,1.059V45.7c0-.973-.43-1.581-2.534-1.581H52.986a1.777,1.777,0,0,0-1.737.9V44.2H48.715v4.881h2.554V46.428c0-.4.306-.643.777-.643h2.1V45.09h.226c.164,0,.264.087.264.226v.642h-.98c-.94,0-2.146.3-2.146,1.425v.26c0,1.129,1.084,1.442,2.024,1.442ZM55.152,38.176a1.472,1.472,0,0,0-1.268.609v-.539H51.35v4.881h2.534V40.539c0-.4.287-.643.777-.643h.491Zm14.277,9.885h-.185c-.2,0-.264-.07-.264-.192V45.42c0-.087.061-.191.264-.191h.185ZM63.77,45.889h-.511v-.573a.233.233,0,0,1,.247-.208c.162,0,.264.086.264.208Zm-20.894-4c0,.1-.124.208-.286.208h-.206V39.271h.206c.162,0,.286.1.286.208Zm2.227,5.7v-.209c0-.625-.328-.955-2.187-1.389-.511-.122-.735-.174-.735-.4v-.226c0-.121.122-.174.224-.174.143,0,.245.053.245.174v.5h2.411v-.4c0-1.025-1.124-1.338-2.656-1.338-1.451,0-2.739.313-2.739,1.355V45.7c0,.608.205,1.129,2.228,1.616.49.121.735.191.735.417v.243c0,.121-.1.156-.245.156-.1,0-.224-.052-.224-.174V47.47H39.645v.261c0,1.007.7,1.459,2.739,1.459,1.575,0,2.719-.3,2.719-1.6m-5.557,1.493V44.2H37.012v3.787h-.266c-.162,0-.2-.069-.2-.208V44.2H34.009v3.44c0,.955.755,1.441,1.982,1.441Zm26.739-1.563v-.347H63.751V47.9c0,.122-.1.174-.245.174-.124,0-.247-.052-.247-.174v-.938h3.026v-1.2c0-1.216-1.185-1.65-2.781-1.65s-2.758.4-2.758,1.633v1.737c0,1.251,1.164,1.668,2.758,1.668s2.781-.382,2.781-1.633M48.533,49.085V47.661h-.469c-.247,0-.328-.069-.328-.208v-1.72h.8V44.2h-.8v-.7H45.2v4.239c0,.973.633,1.337,1.942,1.337Zm12.154,0V47.661h-.449c-.265,0-.327-.069-.327-.208v-1.72h.776V44.2h-.776v-.7H57.376v4.239c0,.973.635,1.337,1.943,1.337ZM30.892,43.162H28.338v5.923h2.554Zm2.854,0H31.191v5.923h2.555Zm38.217,5.923V42.9H69.429v1.3h-.878c-.94,0-2.105.3-2.105,1.425v2.015c0,1.129,1.042,1.441,1.982,1.441Zm-43.909,0V42.172h-2.8v6.913Zm17.335-7.417v-1.98c0-1.234-1-1.442-2.085-1.442H39.85v5.715h2.534v-.834h.8c1.063,0,2.208-.243,2.208-1.459M64.2,41.616v-.209c0-.625-.326-.955-2.186-1.389-.512-.122-.736-.174-.736-.4v-.225c0-.122.122-.174.224-.174.143,0,.246.052.246.174v.5h2.329v-.382c0-1.025-1.063-1.355-2.6-1.355-1.451,0-2.717.33-2.717,1.372v.192c0,.607.224,1.128,2.248,1.615.49.122.736.191.736.417V42c0,.122-.1.157-.246.157-.1,0-.224-.053-.224-.174v-.487H58.764v.261c0,1.007.7,1.459,2.738,1.459,1.573,0,2.7-.3,2.7-1.6m-13.05-.052V39.792c0-1.233-1.206-1.633-2.781-1.633-1.613,0-2.8.4-2.8,1.633v1.772c0,1.216,1.185,1.632,2.8,1.632,1.575,0,2.781-.416,2.781-1.632m7.534,1.563V41.7h-.49c-.286,0-.346-.07-.346-.226V39.809h.817V38.246h-.817v-.7H55.312v4.256c0,.938.635,1.32,1.942,1.32Zm-19.014-1.6V41.2c0-1.007-.635-1.424-2.616-1.824-.594-.122-.818-.243-.818-.608v-.226a.282.282,0,0,1,.307-.26.27.27,0,0,1,.307.26v.713h2.717v-.435c0-1.181-.633-1.806-3.167-1.806-1.839,0-3.209.556-3.209,1.789v.226c0,1.077.552,1.563,2.615,2,.654.139.88.157.88.539v.226c0,.226-.062.312-.307.312-.286,0-.307-.156-.307-.329v-.591H33.191v.278c0,1.459.961,1.893,3.269,1.893,2.187,0,3.21-.4,3.21-1.824m8.966.417c0,.122-.143.208-.267.208a.233.233,0,0,1-.245-.208V39.41c0-.1.124-.191.245-.191s.267.087.267.191Z" transform="translate(0.39)"/></svg>