<svg xmlns="http://www.w3.org/2000/svg" xmlns:xlink="http://www.w3.org/1999/xlink" viewBox="0 0 97.219 86.203"><defs><clipPath id="a"><rect x="32.798" y="27.374" width="31.622" height="31.455" fill="none"/></clipPath></defs><g><rect width="97.219" height="86.203" fill="none"/><g clip-path="url(#a)"><line x1="57.504" y1="56.771" x2="57.82" y2="57.584"/><path d="M57.838,40.689h0c2.126-.737,3.526,1.374,5.172.883-1.593-1.691-2.893-3.609-2.717-5.826a.138.138,0,0,0-.223-.13,3.885,3.885,0,0,0-1.552,2.546,3.858,3.858,0,0,0-3.539-.381,11.245,11.245,0,0,1,2.859,2.908m-2.372-6.535h0a4.9,4.9,0,0,0-2.794,1.071,11.045,11.045,0,0,1,1.26-2.5,5.387,5.387,0,0,0-3.387,1.515l-.656-1.732,1.465-1.293-1.962-.134-.786-1.826-.784,1.826-1.963.134L47.33,32.51l-.662,1.732a5.371,5.371,0,0,0-3.38-1.515,11.066,11.066,0,0,1,1.253,2.5,4.883,4.883,0,0,0-2.793-1.071,12.947,12.947,0,0,1,1.657,2.685.175.175,0,0,0,.263.088,11.159,11.159,0,0,1,9.876,0,.175.175,0,0,0,.264-.088,13.124,13.124,0,0,1,1.658-2.685m-9.478,5.183h0a1.522,1.522,0,0,1,1.529-.047c.024-.309-.539-.655-1.1-.655-.4,0-.61.141-.61.339a.463.463,0,0,0,.182.363m4.809-.7h0a1.294,1.294,0,0,0-.96.374.365.365,0,0,0,.012.252c.6-.205,1.124-.21,1.382.076a.454.454,0,0,0,.175-.363c0-.2-.2-.339-.609-.339m-2.191-2.194h0a2.869,2.869,0,0,0-2.829,1.779c-.023.076.012.129.1.088a2.01,2.01,0,0,1,.832-.164,1.719,1.719,0,0,1,1.347.561,2.418,2.418,0,0,1-.006,1.4c-.228-.053-.31-.234-.539-.234s-.4.158-.779.158-.427-.176-.68-.176c-.3,0-.351.3-.351.644,0,1.532,1.406,3.638,2.905,3.638s2.906-2.106,2.906-3.638c0-.339-.071-.638-.375-.679a.949.949,0,0,1-.651.211c-.386,0-.491-.158-.714-.158-.269,0-.246.573-.568.608a2.7,2.7,0,0,1-.047-1.773,1.719,1.719,0,0,1,1.348-.561,2.04,2.04,0,0,1,.837.164c.088.041.117-.012.094-.088a2.864,2.864,0,0,0-2.83-1.779m-6.367,1.34h0a3.854,3.854,0,0,0-3.538.381,3.869,3.869,0,0,0-1.558-2.546.134.134,0,0,0-.217.13c.17,2.217-1.124,4.135-2.718,5.826,1.64.491,3.04-1.62,5.173-.883a11.054,11.054,0,0,1,2.858-2.908m21.164,6.2h0c-.017.357-.052.708-.094,1.054-1.675.28-2.278-1.218-3.995-1.141a9.723,9.723,0,0,1,.246,1.117c1.418-.006,1.992,1.322,3.568,1.123-.083.4-.182.807-.3,1.2-1.248.122-1.687-1.118-3.128-1.083.012.2.017.41.017.62,0,.117,0,.234-.005.346,1.23-.012,1.628,1.123,2.8,1.07a11.862,11.862,0,0,1-.487,1.164c-.843-.041-1.13-1.123-2.413-1.035-.041.275-.088.55-.146.819,1.112-.076,1.353.948,2.149,1.029-.2.369-.421.732-.656,1.077-.468-.252-.878-1.013-1.774-1.06.087-.28.169-.573.239-.859a3.7,3.7,0,0,1-2.465-1.006c.246-1.4-1.934-2.832-1.934-3.861,0-1.118.569-1.732.569-3.241a4.7,4.7,0,0,0-1.365-3.153,2.585,2.585,0,0,0-.51-.41,5.268,5.268,0,0,1,1.33,3.311c0,1.416-.656,2.165-.656,3.475s1.915,2.44,1.915,3.785a4.224,4.224,0,0,1-.732,2.071,4.322,4.322,0,0,0,2.706,1.328.426.426,0,0,0,.446-.257c.07-.158.14-.322.2-.48.78.029,1.137.737,1.564,1.018-.234.316-.486.62-.744.918a2.823,2.823,0,0,0-1.247-1.006c-.1.2-.2.392-.322.585a2.364,2.364,0,0,1,1.084.948c-.276.292-.569.567-.873.831a2.792,2.792,0,0,0-.815-.866c-.117.164-.246.327-.374.485a2.521,2.521,0,0,1,.685.808c-.346.28-.709.544-1.084.795-.187-1.5-2.238-2.533-1.687-4.276a2.259,2.259,0,0,0-.4,1.152c0,1.264,1.347,2.264,1.453,3.522-.276.164-.562.322-.856.468-.047-1.375-1.47-2.884-1.47-4.019,0-1.264,1.658-2.533,1.658-4.025s-1.916-2.522-1.916-3.832.814-2.065.814-3.738a4.491,4.491,0,0,0-1.487-3.271,2.555,2.555,0,0,0-.5-.351,4.842,4.842,0,0,1,1.341,3.353c0,1.579-.931,2.451-.931,3.995S54.7,46.884,54.7,48.323s-1.745,2.656-1.745,4.136c0,1.346,1.541,2.691,1.564,4.288-.334.147-.68.281-1.031.4.2-1.615-1.535-3.282-1.535-4.6,0-1.439,1.81-2.674,1.81-4.23s-1.839-2.27-1.839-3.867,1.13-2.474,1.13-4.229a4.279,4.279,0,0,0-1.669-3.37c-.024-.018-.041-.035-.064-.053-.094-.064-.17.018-.1.1a4.531,4.531,0,0,1,1.072,3.065c0,1.615-1.295,2.92-1.295,4.482,0,1.836,1.74,2.363,1.74,3.872s-1.868,2.721-1.868,4.323c0,1.486,1.769,3.136,1.464,4.856-.352.088-.715.17-1.078.234.334-2.135-1.4-3.674-1.4-5.066,0-1.515,1.933-2.867,1.933-4.347,0-1.392-1.388-1.849-1.57-3.276a.336.336,0,0,0-.4-.3,4.658,4.658,0,0,1-1.213.24,4.724,4.724,0,0,1-1.212-.24.341.341,0,0,0-.4.3c-.182,1.427-1.57,1.884-1.57,3.276,0,1.48,1.939,2.832,1.939,4.347,0,1.392-1.74,2.931-1.406,5.066-.364-.064-.727-.146-1.078-.234-.3-1.72,1.465-3.37,1.465-4.856,0-1.6-1.869-2.808-1.869-4.323s1.746-2.036,1.746-3.872c0-1.562-1.3-2.867-1.3-4.482A4.506,4.506,0,0,1,46,36.9c.064-.082-.012-.164-.1-.1-.024.018-.042.035-.065.053a4.28,4.28,0,0,0-1.67,3.37c0,1.755,1.131,2.638,1.131,4.229s-1.839,2.317-1.839,3.867,1.81,2.791,1.81,4.23c0,1.316-1.734,2.983-1.535,4.6-.351-.123-.691-.257-1.031-.4.024-1.6,1.564-2.942,1.564-4.288,0-1.48-1.746-2.691-1.746-4.136s1.875-2.3,1.875-3.844-.931-2.416-.931-3.995a4.816,4.816,0,0,1,1.347-3.353,2.6,2.6,0,0,0-.51.351,4.5,4.5,0,0,0-1.488,3.271c0,1.673.815,2.428.815,3.738s-1.91,2.346-1.91,3.832,1.658,2.761,1.658,4.025c0,1.135-1.43,2.644-1.476,4.019-.293-.146-.574-.3-.855-.468.1-1.258,1.452-2.258,1.452-3.522a2.25,2.25,0,0,0-.4-1.152c.556,1.743-1.5,2.773-1.687,4.276-.369-.251-.732-.515-1.084-.795a2.54,2.54,0,0,1,.691-.808c-.134-.158-.257-.321-.38-.485a2.864,2.864,0,0,0-.815.866c-.3-.264-.591-.539-.872-.831a2.387,2.387,0,0,1,1.083-.948c-.111-.193-.222-.386-.322-.585a2.866,2.866,0,0,0-1.248,1.006c-.257-.3-.509-.6-.744-.918.434-.281.791-.989,1.57-1.018.065.158.129.322.205.48a.416.416,0,0,0,.445.257,4.323,4.323,0,0,0,2.7-1.328,4.263,4.263,0,0,1-.726-2.071c0-1.345,1.915-2.48,1.915-3.785s-.662-2.059-.662-3.475a5.3,5.3,0,0,1,1.33-3.311,2.585,2.585,0,0,0-.51.41,4.722,4.722,0,0,0-1.359,3.153c0,1.509.562,2.123.562,3.241,0,1.029-2.178,2.457-1.932,3.861a3.707,3.707,0,0,1-2.467,1.006c.071.286.153.579.241.859-.891.047-1.3.808-1.775,1.06-.235-.345-.451-.708-.656-1.077.8-.081,1.037-1.105,2.149-1.029-.058-.269-.105-.544-.146-.819-1.277-.088-1.57.994-2.413,1.035-.176-.38-.34-.766-.487-1.164,1.172.053,1.57-1.082,2.8-1.07-.005-.112-.005-.229-.005-.346,0-.21.005-.415.017-.62-1.441-.035-1.88,1.2-3.128,1.083-.111-.393-.211-.8-.3-1.2,1.576.2,2.15-1.129,3.568-1.123a9.735,9.735,0,0,1,.252-1.117c-1.723-.077-2.32,1.421-4,1.141-.047-.346-.076-.7-.094-1.054,1.945.223,2.677-1.38,4.452-1.182a10.793,10.793,0,0,1,.58-1.228c-2.226-.392-2.982,1.469-5.05,1.182a14.818,14.818,0,0,1,29.623,0c-2.074.287-2.83-1.574-5.056-1.182a9.857,9.857,0,0,1,.58,1.228c1.775-.2,2.507,1.405,4.458,1.182m-14.8-2.8h0c-.181,0-.216-.065-.339-.065a.649.649,0,0,0-.4.176.218.218,0,0,0,.054.117c.263.041.38.187.684.187s.422-.146.686-.187a.181.181,0,0,0,.053-.117.615.615,0,0,0-.393-.176c-.123,0-.164.065-.346.065m-1.072.913h0a.164.164,0,0,0-.1.1c.311.24.522.784,1.171.784s.868-.544,1.178-.784a.183.183,0,0,0-.1-.1,5.059,5.059,0,0,1-1.079.1,4.968,4.968,0,0,1-1.072-.1M50.1,34.774h0a9.194,9.194,0,0,0-1.494-.129,9.032,9.032,0,0,0-1.487.129c-.077.012-.106-.059-.047-.1S48.606,33.5,48.606,33.5s1.489,1.13,1.535,1.171.029.111-.041.1"/><polygon points="56.783 57.829 56.783 57.829 56.636 57.829 56.636 56.899 56.297 56.899 56.297 56.77 57.129 56.77 57.129 56.899 56.783 56.899 56.783 57.829"/><polygon points="57.82 57.584 57.82 57.584 58.136 56.771 58.37 56.771 58.37 57.83 58.218 57.83 58.218 56.946 57.861 57.83 57.767 57.83 57.416 56.946 57.416 57.83 57.27 57.83 57.27 56.771 57.504 56.771 57.82 57.584"/></g></g></svg>