<svg xmlns="http://www.w3.org/2000/svg" xmlns:xlink="http://www.w3.org/1999/xlink" viewBox="0 0 97.219 86.203"><defs><clipPath id="a"><rect x="19.372" y="31.093" width="54.574" height="18.084" fill="none"/></clipPath></defs><g><g clip-path="url(#a)"><path d="M37.108,48.089c.4,0,2.306.059,2.648.088v-.44a9.348,9.348,0,0,1-1.481-.147V32.68a9.348,9.348,0,0,1,1.481-.147v-.44c-.342.029-2.25.088-2.648.088s-2.306-.059-2.648-.088v.44a9.348,9.348,0,0,1,1.481.147V47.59a9.348,9.348,0,0,1-1.481.147v.44c.342-.029,2.249-.088,2.648-.088"/><path d="M28.231,33.107h5.258c.043.4.047,2.053.047,2.053h.219V32.093c-.342.029-6.293.088-6.691.088s-6.35-.059-6.691-.088V35.16h.218s0-1.657.047-2.053H25.9V47.59a9.468,9.468,0,0,1-1.48.146v.441c.341-.03,2.249-.088,2.648-.088s2.306.058,2.648.088v-.441a9.469,9.469,0,0,1-1.481-.146Z"/><path d="M41.778,47.632c.228-.763,2.449-12.692,2.79-15.539h.854c.285,1.761,4.271,10.948,5.069,12.533.455-1,4.213-10.214,4.954-12.533h.825c.313,2.671,2.762,15.5,2.762,15.5a8.176,8.176,0,0,0,1.4.147v.44c-.342-.029-2.249-.088-2.648-.088s-2.306.059-2.648.088v-.44a9.335,9.335,0,0,0,1.481-.147s-1.566-8.834-1.822-10.1c-.257.734-4.584,10.683-4.584,10.683h-.741c-.455-1.086-4.384-10.184-4.5-10.771-.358,1.477-1.594,8.406-1.879,10.226a10.075,10.075,0,0,0,1.458.105v.44c-.274-.029-1.515-.088-1.834-.088s-2.006.059-2.28.088v-.44a8.476,8.476,0,0,0,1.346-.105"/><path d="M62.42,47.59a9.335,9.335,0,0,1-1.481.147v.44c.342-.029,3.463-.088,3.861-.088s7.8.059,8.146.088V45.11h-.219s0,1.656-.046,2.053H64.757V33.108h7.682c.043.4.046,2.053.046,2.053H72.7V32.093c-.342.029-7.5.088-7.9.088s-3.519-.059-3.861-.088v.44a9.335,9.335,0,0,1,1.481.147Z"/><path d="M64.755,40.561s5.965-.044,6.477,0c.057.176.2,1.1.228,1.35h.285c-.014-.176-.043-1.511-.043-1.834s.029-1.659.043-1.835H71.46c-.028.25-.171,1.174-.228,1.35-.512.045-6.477,0-6.477,0Z"/></g><rect width="97.219" height="86.203" fill="none"/></g></svg>