<svg xmlns="http://www.w3.org/2000/svg" xmlns:xlink="http://www.w3.org/1999/xlink" viewBox="0 0 97.219 86.203"><defs><clipPath id="a"><rect x="20.614" y="33.089" width="54.365" height="17.495" fill="none"/></clipPath></defs><g><rect width="97.219" height="86.203" fill="none"/><g clip-path="url(#a)"><path d="M37.834,43.776h.717v.837h.017a1.531,1.531,0,0,1,1.458-.9V44.3a1.338,1.338,0,0,0-.918.362,1.731,1.731,0,0,0-.557,1.151V48h-.717Z"/><path d="M43.34,45.718c-1.424.236-2.123.626-2.123,1.211a.721.721,0,0,0,.743.649,2.126,2.126,0,0,0,1.38-.7Zm-2.71-1.129a2.03,2.03,0,0,1,1.777-.894c.76,0,1.65.342,1.65,1.267v2.13a3.1,3.1,0,0,0,.1.909h-.734l-.069-.585a2.053,2.053,0,0,1-1.484.666A1.236,1.236,0,0,1,40.5,46.921c0-.927.847-1.39,2.84-1.723v-.227c0-.561-.389-.772-.924-.772a1.162,1.162,0,0,0-1.147.658Z"/><polygon points="46.93 48.001 46.006 48.001 44.625 43.776 45.352 43.776 46.49 47.27 46.507 47.27 47.646 43.776 48.276 43.776 46.93 48.001"/><polygon points="54.234 42.019 54.234 48.001 53.509 48.001 53.509 42.322 54.234 42.019"/><path d="M57.015,44.2c-.742,0-1.217.6-1.217,1.69s.475,1.689,1.217,1.689,1.216-.6,1.216-1.689-.474-1.69-1.216-1.69m0,3.883a2.211,2.211,0,1,1,1.934-2.193,1.974,1.974,0,0,1-1.934,2.193"/><path d="M62.521,45.035A1.089,1.089,0,0,0,61.46,44.2c-.767,0-1.216.617-1.216,1.691s.449,1.688,1.216,1.688a1.244,1.244,0,0,0,1.234-.779l.6.211a2,2,0,0,1-3.763-1.12,1.956,1.956,0,0,1,1.933-2.2A1.763,1.763,0,0,1,63.2,44.84Z"/><rect x="64.044" y="43.776" width="0.717" height="4.225"/><path d="M36.221,47.578c-.362,0-.509-.1-.509-.291V44.28h.9l.138-.5H35.712V42.271l-.717.3v1.2h-.66v.5h.66v3.1c.073.536.381.7,1.053.7a3.3,3.3,0,0,0,.67-.059l.136-.5a4.063,4.063,0,0,1-.633.052"/><path d="M72.5,43.776l-1.579,4.6A1.664,1.664,0,0,1,69.3,49.583a5.209,5.209,0,0,1-.587-.048l.153-.5a3.241,3.241,0,0,0,.337.024,1.1,1.1,0,0,0,1.173-1.007L68.81,43.776h.655L70.673,47h.017l1.053-3.225Z"/><path d="M67.633,47.578c-.363,0-.509-.1-.509-.291V44.28h.9l.138-.5H67.124V42.271l-.718.3v1.2h-.659v.5h.659v3.1c.074.536.381.7,1.055.7a3.292,3.292,0,0,0,.669-.059l.136-.5a4.054,4.054,0,0,1-.633.052"/><path d="M50.72,44.2c.673,0,1.07.52,1.07,1.3H49.513c.051-.78.457-1.3,1.207-1.3m1.332,2.687a1.394,1.394,0,0,1-1.229.693A1.428,1.428,0,0,1,49.5,46h3.011v-.39A1.732,1.732,0,0,0,50.7,43.7a1.959,1.959,0,0,0-1.925,2.194,2,2,0,0,0,2.045,2.193,1.615,1.615,0,0,0,1.677-.771Z"/><rect x="64.045" y="42.35" width="0.717" height="0.699"/><path d="M22.647,41.774c.106-.044.217-.056.326-.092a4.837,4.837,0,0,1-.5-.549c-.044-.057-.022-.088.014-.1.034,0,.01-.068.031-.1.074-.024.066-.094.107-.139,0-.018-.007-.07.012-.084a.075.075,0,0,1,.088,0,2.22,2.22,0,0,0,.452.371,3.908,3.908,0,0,1,.554.384c.017,0,.066.026.07-.007A1.453,1.453,0,0,1,23.958,41a.616.616,0,0,1,.333-.383c.151-.082.331-.006.436-.128.038-.029.1,0,.139,0,.1.047.241.016.316.1a8.129,8.129,0,0,0-.233.91c-.01.067-.058.164-.009.188a1.374,1.374,0,0,0,.56-.026,2.375,2.375,0,0,1,.6.049.951.951,0,0,1,.388.207.766.766,0,0,1,.2.713c0,.017-.1.106-.136.1-.017,0-.025-.072-.042-.074a1.854,1.854,0,0,1-.292.217c-.017,0-.125-.1-.173-.127a.824.824,0,0,0-.566-.061,2.183,2.183,0,0,0-.672.079c.083.149.229.22.352.339.2.2.4.348.62.532a1.681,1.681,0,0,1,.36.409c-.056.027,0,.054-.026.086-.037.012-.033-.042-.067-.047s-.058.043-.046.08c.015.018-.032.107-.069.119-.019.014-.1.065-.13.059s-.124-.045-.113-.033a.21.21,0,0,1,.057.133.279.279,0,0,1-.19-.082c-.281-.228-.525-.467-.821-.714a2.653,2.653,0,0,0-.3-.316c-.2.452-.344.778-.548,1.23-.049.078-.074.288-.119.314-.029.016-.156-.153-.217-.276a5.832,5.832,0,0,1,.05-.663l.007-.05c.019-.375.134-.7.119-1.081.005-.034-.047-.041-.1-.047-.514-.055-1.011-.106-1.523-.176a1.287,1.287,0,0,1-.357-.067.234.234,0,0,0-.1-.047c-.014-.019-.014-.019-.031-.022a2.333,2.333,0,0,1,.661-.521c.073-.033.28-.1.373-.142"/><path d="M27.407,44.393c-.03-.01-.014-.041-.014-.054.027-.055.1-.041.137-.041.138-.04.289,0,.426-.04.027-.013.055-.053.069-.053a2.667,2.667,0,0,1,.317-.095c.026-.013.1-.054.068-.094a1.147,1.147,0,0,1-.3-.393c-.042-.082-.11-.149-.11-.23s.083-.081.151-.054a2.615,2.615,0,0,1,.727.664c.041.055.082-.067.1-.108a7.044,7.044,0,0,1,.29-.662c.027-.068.082-.148.151-.162a.993.993,0,0,0,.261-.148c.069-.027.124,0,.193-.04.04-.014.1.053.151.027.082-.055.151-.013.233,0a.11.11,0,0,1,.054.136,3.615,3.615,0,0,1-.247.581c-.1.148-.18.283-.29.432,0,.014-.014.041.014.054a1.06,1.06,0,0,1,.206.027,4.7,4.7,0,0,0,.631.083c.11.027.11.177.2.258.055.04-.041.081-.1.094-.151.041-.3-.014-.453.027a4.556,4.556,0,0,0-.755.092c.081.082.164.149.232.231s.138.189.206.285a1.125,1.125,0,0,1,.137.324.438.438,0,0,1,.012.19c-.026-.014-.026-.068-.054-.082s-.055.054-.1.041a.116.116,0,0,1-.068-.068.577.577,0,0,1-.122-.19,1.419,1.419,0,0,0-.467-.474,6.372,6.372,0,0,1-.523,1c-.014.027-.056.027-.1.027-.014-.014-.041.027-.055.04-.013-.027-.041-.04-.054-.054-.069-.054-.165-.109-.192-.19a.491.491,0,0,1-.068-.23c0-.013-.028-.04-.028-.054.028-.054.028-.122.055-.162a.374.374,0,0,0,.11-.149,2.043,2.043,0,0,0,.222-.459,4.894,4.894,0,0,1-.989-.151,1.543,1.543,0,0,1-.219-.1c-.028-.027-.014-.068-.055-.081"/><path d="M27.8,39.361c.1-.236.265-.39.292-.656-.543-.287-1.2-.12-1.6-.8A1.847,1.847,0,0,1,26.547,37c.123-.25.359-.248.586-.074a.67.67,0,0,1,.229.049,2.164,2.164,0,0,1,.694.1,4.121,4.121,0,0,0,.85.116.192.192,0,0,0,.046-.156c-.068-.408-.166-.754-.27-1.179a1.533,1.533,0,0,1-.062-.33c-.018-.235-.19-.613-.033-.721.022-.016.051.047.074.032.045-.031.075-.094.112-.078a7.636,7.636,0,0,1,1.444,1.361c.154.143.182-.25.3-.374.031-.062,0-.2.026-.266.115-.2.141-.47.233-.657.181-.25.283-.61.559-.718a.588.588,0,0,1,.559.193c.037.016.119,0,.17.049.19.158.349.379.554.569a.334.334,0,0,1,.069.283c-.049.282-.308.3-.459.482q-.444.679-.887,1.358c-.03.063-.114.2-.049.282a9.617,9.617,0,0,0,1.234,1.092c.286.175.605.162.86.4a2.075,2.075,0,0,1,.411.709c-1.039.635-2.222-.411-3.333-.388-.081.015-.06.125-.069.172.06.455.142.9.187,1.319.025.314.191.613.237.912.021.11.127.409-.028.392a.531.531,0,0,1-.521-.3,8.4,8.4,0,0,1-.427-1.07.573.573,0,0,1-.024-.314,1.061,1.061,0,0,0-.157-.471c-.028-.064-.1.03-.148.061a5.994,5.994,0,0,0-.439.593,2.152,2.152,0,0,1-.891.7c-.254.092-.639.152-.811-.226.081-.015.151-.187.1-.235-.4-.552.155-.893.324-1.3"/><path d="M73.448,44.221a.592.592,0,0,0,.061,0,.159.159,0,0,0,.05-.011.072.072,0,0,0,.035-.029.1.1,0,0,0,.013-.055.091.091,0,0,0-.011-.047.074.074,0,0,0-.031-.027.114.114,0,0,0-.043-.013l-.047,0H73.35v.187Zm.042-.263a.256.256,0,0,1,.161.042.157.157,0,0,1,.052.128.144.144,0,0,1-.046.117.207.207,0,0,1-.115.044l.174.265h-.1L73.45,44.3h-.1v.257h-.095v-.6Zm-.428.47a.434.434,0,0,0,.09.138.425.425,0,0,0,.136.092.433.433,0,0,0,.17.033.418.418,0,0,0,.167-.033.41.41,0,0,0,.135-.092.4.4,0,0,0,.09-.138.449.449,0,0,0,.033-.174.433.433,0,0,0-.033-.17.389.389,0,0,0-.09-.137.425.425,0,0,0-.135-.092.418.418,0,0,0-.167-.033.433.433,0,0,0-.17.033.441.441,0,0,0-.136.092.418.418,0,0,0-.09.137.451.451,0,0,0-.032.17.468.468,0,0,0,.032.174m-.086-.375a.509.509,0,0,1,.113-.161.537.537,0,0,1,.167-.107.524.524,0,0,1,.681.268.5.5,0,0,1,.041.2.506.506,0,0,1-.041.2.53.53,0,0,1-.113.162.5.5,0,0,1-.165.107.553.553,0,0,1-.4,0,.5.5,0,0,1-.167-.107.514.514,0,0,1-.113-.162.49.49,0,0,1-.042-.2.481.481,0,0,1,.042-.2"/><path d="M73.448,44.221a.592.592,0,0,0,.061,0,.159.159,0,0,0,.05-.011.072.072,0,0,0,.035-.029.1.1,0,0,0,.013-.055.091.091,0,0,0-.011-.047.074.074,0,0,0-.031-.027.114.114,0,0,0-.043-.013l-.047,0H73.35v.187Zm.042-.263a.256.256,0,0,1,.161.042.157.157,0,0,1,.052.128.144.144,0,0,1-.046.117.207.207,0,0,1-.115.044l.174.265h-.1L73.45,44.3h-.1v.257h-.095v-.6Zm-.428.47a.434.434,0,0,0,.09.138.425.425,0,0,0,.136.092.433.433,0,0,0,.17.033.418.418,0,0,0,.167-.033.41.41,0,0,0,.135-.092.4.4,0,0,0,.09-.138.449.449,0,0,0,.033-.174.433.433,0,0,0-.033-.17.389.389,0,0,0-.09-.137.425.425,0,0,0-.135-.092.418.418,0,0,0-.167-.033.433.433,0,0,0-.17.033.441.441,0,0,0-.136.092.418.418,0,0,0-.09.137.451.451,0,0,0-.032.17.468.468,0,0,0,.032.174m-.086-.375a.509.509,0,0,1,.113-.161.537.537,0,0,1,.167-.107.524.524,0,0,1,.681.268.5.5,0,0,1,.041.2.506.506,0,0,1-.041.2.53.53,0,0,1-.113.162.5.5,0,0,1-.165.107.553.553,0,0,1-.4,0,.5.5,0,0,1-.167-.107.514.514,0,0,1-.113-.162.49.49,0,0,1-.042-.2.481.481,0,0,1,.042-.2"/></g></g></svg>