<svg xmlns="http://www.w3.org/2000/svg" xmlns:xlink="http://www.w3.org/1999/xlink" viewBox="0 0 97.219 86.203"><defs><clipPath id="a"><rect x="31.12" y="27.724" width="34.978" height="30.802" fill="none"/></clipPath></defs><g><rect width="97.219" height="86.203" fill="none"/><g clip-path="url(#a)"><path d="M40.356,43.473a2.841,2.841,0,1,0-2.918-2.84,2.88,2.88,0,0,0,2.918,2.84"/><path d="M56.81,37.794a2.841,2.841,0,1,1-2.919,2.84,2.881,2.881,0,0,1,2.919-2.84"/><path d="M40.356,35.217a5.419,5.419,0,1,1-5.568,5.417,5.493,5.493,0,0,1,5.568-5.417m8.227-3.873a16.357,16.357,0,0,1,6.181,1.2c-3.514,1.309-6.178,4.367-6.178,7.932,0-3.565-2.665-6.624-6.18-7.932a16.356,16.356,0,0,1,6.177-1.2m13.794,9.29a5.57,5.57,0,1,1-5.567-5.417,5.493,5.493,0,0,1,5.567,5.417m-30.248,0a8.118,8.118,0,0,0,8.227,8.005,8.32,8.32,0,0,0,5.591-2.134L48.584,49.3l2.637-2.79a8.322,8.322,0,0,0,5.59,2.131,8.121,8.121,0,0,0,8.23-8,7.883,7.883,0,0,0-2.685-5.916l2.692-2.85H59.08a19.067,19.067,0,0,0-20.975,0H32.12l2.692,2.85a7.89,7.89,0,0,0-2.683,5.916"/><path d="M64.762,56.542a.276.276,0,1,1,.284-.276.28.28,0,0,1-.284.276m0-.6a.328.328,0,1,0,.336.327.332.332,0,0,0-.336-.327"/><path d="M64.761,56.26h-.052v-.1h.052c.036,0,.057.017.057.049s-.021.049-.057.049m.11-.049a.1.1,0,0,0-.093-.095h-.122v.3h.053v-.108h.057l.056.108h.057l-.061-.119a.086.086,0,0,0,.053-.084"/><path d="M35.974,53.752v-.564h-.887v3.356h.888V54.531c0-.364.24-.543.615-.543h.487v-.8h-.418a.65.65,0,0,0-.685.564"/><path d="M37.907,51.862a.526.526,0,1,0,.537.529.526.526,0,0,0-.523-.529h-.014"/><rect x="37.464" y="53.188" width="0.886" height="3.354"/><path d="M40.712,55.807a.942.942,0,1,1,.968-.942A.955.955,0,0,1,40.712,55.807Zm.078-2.675a1.747,1.747,0,0,0-1.046.34v-.284H38.86v4.339h.886V56.259a1.749,1.749,0,1,0,1.044-3.126Z"/><path d="M57.975,54.571l-.517-.138c-.34-.086-.473-.188-.473-.363s.187-.289.453-.289a.412.412,0,0,1,.453.368v.019h.817v-.019c0-.609-.51-1.017-1.27-1.017s-1.3.408-1.3.971a.952.952,0,0,0,.819.905l.495.131c.376.1.516.214.516.415s-.2.355-.5.355a.477.477,0,0,1-.525-.48V55.41h-.867v.019A1.234,1.234,0,0,0,57.46,56.6a1.212,1.212,0,0,0,1.355-1.116c0-.316-.145-.731-.84-.911"/><path d="M45.717,54.865a.968.968,0,1,1-.968-.942A.955.955,0,0,1,45.717,54.865Zm0-1.393a1.781,1.781,0,0,0-2.827,1.393,1.78,1.78,0,0,0,2.827,1.393v.284H46.6V53.187h-.886Z"/><path d="M48.834,55.807a.942.942,0,1,1,.968-.943h0a.955.955,0,0,1-.968.942m.968-2.335a1.734,1.734,0,1,0,0,2.786v.284h.886V51.994H49.8Z"/><rect x="54.803" y="53.188" width="0.886" height="3.354"/><path d="M55.246,51.862a.526.526,0,1,0,.537.529.526.526,0,0,0-.523-.529h-.014"/><path d="M60.865,55.807a.942.942,0,1,1,.968-.942.955.955,0,0,1-.968.942m0-2.675a1.734,1.734,0,1,0,1.781,1.733,1.758,1.758,0,0,0-1.781-1.733"/><polygon points="35.52 51.995 32.12 51.995 32.12 52.764 33.379 52.764 33.379 56.543 34.262 56.543 34.262 52.764 35.52 52.764 35.52 51.995"/><polygon points="52.713 55.624 51.925 53.189 50.994 53.189 52.176 56.543 53.243 56.543 54.432 53.189 53.501 53.189 52.713 55.624"/><path d="M65.045,53.988v-.8H64.63a.649.649,0,0,0-.685.564v-.564h-.888v3.356h.888V54.531c0-.364.24-.543.614-.543Z"/></g></g></svg>