<svg xmlns="http://www.w3.org/2000/svg" xmlns:xlink="http://www.w3.org/1999/xlink" viewBox="0 0 97.219 86.203"><defs><clipPath id="a"><rect x="22.625" y="35.355" width="51.969" height="15.494" fill="none"/></clipPath></defs><g><rect width="97.219" height="86.203" fill="none"/><g clip-path="url(#a)"><path d="M69.088,37.222a.843.843,0,0,1-.9.771.967.967,0,0,1-.681-.267.693.693,0,0,1,0-1.009,1.006,1.006,0,0,1,1.361,0,.711.711,0,0,1,.219.505"/><path d="M71.325,41.161a.843.843,0,0,1-.9.77.966.966,0,0,1-.68-.266.689.689,0,0,1,0-1.008,1,1,0,0,1,1.361,0,.71.71,0,0,1,.218.5"/><path d="M71.8,43.13a.709.709,0,0,1,.219-.5,1,1,0,0,1,1.36,0,.709.709,0,0,1,.219.5.843.843,0,0,1-.9.771.97.97,0,0,1-.68-.266.711.711,0,0,1-.219-.5"/><path d="M73.594,45.1a.843.843,0,0,1-.9.771.971.971,0,0,1-.68-.266.692.692,0,0,1,0-1.01,1,1,0,0,1,1.36,0,.711.711,0,0,1,.219.5"/><path d="M73.594,47.054a.843.843,0,0,1-.9.771.966.966,0,0,1-.68-.266.691.691,0,0,1,0-1.009,1,1,0,0,1,1.36,0,.711.711,0,0,1,.219.5"/><path d="M66.851,47.069a.843.843,0,0,1-.9.77.966.966,0,0,1-.679-.266.691.691,0,0,1,0-1.009,1,1,0,0,1,1.36,0,.709.709,0,0,1,.219.5"/><path d="M61.913,41.158a.843.843,0,0,1-.9.77.966.966,0,0,1-.68-.266.689.689,0,0,1,0-1.008,1,1,0,0,1,1.36,0,.705.705,0,0,1,.219.5"/><path d="M59.609,37.125a.843.843,0,0,1-.9.771.963.963,0,0,1-.68-.267.687.687,0,0,1,0-1.008,1,1,0,0,1,1.36,0,.707.707,0,0,1,.219.5"/><path d="M61.873,47.066a.843.843,0,0,1-.9.771.97.97,0,0,1-.681-.266.693.693,0,0,1,0-1.009,1,1,0,0,1,1.361,0,.711.711,0,0,1,.219.5"/><path d="M59.632,45.153a.843.843,0,0,1-.9.771.975.975,0,0,1-.681-.266.691.691,0,0,1,0-1.009,1,1,0,0,1,1.36,0,.709.709,0,0,1,.219.5"/><path d="M59.609,43.169a.843.843,0,0,1-.9.77.966.966,0,0,1-.68-.266.687.687,0,0,1,0-1.008,1,1,0,0,1,1.36,0,.707.707,0,0,1,.219.5"/><path d="M29.982,41.158a.843.843,0,0,1-.9.77.97.97,0,0,1-.681-.266.692.692,0,0,1,0-1.008,1,1,0,0,1,1.361,0,.709.709,0,0,1,.219.5"/><path d="M29.942,47.066a.843.843,0,0,1-.9.771.97.97,0,0,1-.681-.266.693.693,0,0,1,0-1.009,1,1,0,0,1,1.361,0,.711.711,0,0,1,.219.5"/><path d="M27.7,45.153a.843.843,0,0,1-.9.771.972.972,0,0,1-.68-.266.691.691,0,0,1,0-1.009,1,1,0,0,1,1.36,0,.709.709,0,0,1,.219.5"/><path d="M27.678,43.169a.843.843,0,0,1-.9.77.968.968,0,0,1-.68-.266.689.689,0,0,1,0-1.008,1,1,0,0,1,1.36,0,.707.707,0,0,1,.219.5"/><path d="M46.023,47.055a.707.707,0,0,1,.219-.5,1,1,0,0,1,1.361,0,.71.71,0,0,1,.218.505.843.843,0,0,1-.9.77.968.968,0,0,1-.68-.266.711.711,0,0,1-.219-.5"/><path d="M45.552,45.085a.843.843,0,0,1-.9.771.975.975,0,0,1-.681-.266.691.691,0,0,1,0-1.009,1,1,0,0,1,1.361,0,.71.71,0,0,1,.218.5"/><path d="M43.754,43.116a.711.711,0,0,1,.219-.505,1,1,0,0,1,1.36,0,.711.711,0,0,1,.219.505.843.843,0,0,1-.9.77.965.965,0,0,1-.68-.266.711.711,0,0,1-.219-.5"/><path d="M43.754,41.161a.709.709,0,0,1,.219-.5,1,1,0,0,1,1.36,0,.709.709,0,0,1,.219.5.843.843,0,0,1-.9.77.97.97,0,0,1-.68-.266.707.707,0,0,1-.219-.5"/><path d="M50.5,41.147a.709.709,0,0,1,.219-.5,1,1,0,0,1,1.361,0,.708.708,0,0,1,.218.5.843.843,0,0,1-.9.77.97.97,0,0,1-.68-.266.707.707,0,0,1-.219-.5"/><path d="M41.223,41.161a.843.843,0,0,1-.9.77.97.97,0,0,1-.681-.266.692.692,0,0,1,0-1.008,1,1,0,0,1,1.361,0,.707.707,0,0,1,.219.5"/><path d="M36.739,45.1a.866.866,0,0,1-.921.792.992.992,0,0,1-.7-.272.713.713,0,0,1,0-1.04,1.025,1.025,0,0,1,1.392,0,.731.731,0,0,1,.225.519"/><path d="M36.717,47.069a.843.843,0,0,1-.9.77.97.97,0,0,1-.681-.266.693.693,0,0,1,0-1.009,1,1,0,0,1,1.361,0,.709.709,0,0,1,.219.5"/><path d="M27.678,37.125a.843.843,0,0,1-.9.771.964.964,0,0,1-.68-.267.689.689,0,0,1,0-1.008,1,1,0,0,1,1.36,0,.707.707,0,0,1,.219.5"/><path d="M27.676,39.132a.844.844,0,0,1-.9.77c-.611,0-.849.057-1.036.231a1.231,1.231,0,0,0-.318.968.843.843,0,0,1-.9.77.966.966,0,0,1-.68-.266.691.691,0,0,1,0-1.009.972.972,0,0,1,.68-.266c.638,0,.854-.053,1.043-.241a1.223,1.223,0,0,0,.311-.957.711.711,0,0,1,.219-.5,1,1,0,0,1,1.36,0,.711.711,0,0,1,.219.5"/><path d="M27.689,41.158a.843.843,0,0,1-.9.77c-.611,0-.85.058-1.036.231a1.233,1.233,0,0,0-.318.968.843.843,0,0,1-.9.77.972.972,0,0,1-.68-.265.691.691,0,0,1,0-1.009.968.968,0,0,1,.68-.266c.638,0,.854-.054,1.043-.241a1.23,1.23,0,0,0,.311-.958.707.707,0,0,1,.219-.505,1,1,0,0,1,1.36,0,.711.711,0,0,1,.219.505"/><path d="M36.716,43.128a.843.843,0,0,1-.9.771c-.611,0-.849.057-1.036.23a1.233,1.233,0,0,0-.318.968.843.843,0,0,1-.9.771.968.968,0,0,1-.68-.266.691.691,0,0,1,0-1.009.968.968,0,0,1,.68-.266c.638,0,.854-.054,1.043-.242a1.222,1.222,0,0,0,.311-.957.709.709,0,0,1,.219-.5,1,1,0,0,1,1.36,0,.709.709,0,0,1,.219.5"/><path d="M52.3,43.116a.843.843,0,0,1-.9.77c-.611,0-.849.058-1.035.231a1.229,1.229,0,0,0-.319.968.843.843,0,0,1-.9.771.968.968,0,0,1-.68-.266.691.691,0,0,1,0-1.009.968.968,0,0,1,.68-.266c.638,0,.854-.054,1.043-.242a1.223,1.223,0,0,0,.311-.957.707.707,0,0,1,.219-.5,1,1,0,0,1,1.36,0,.707.707,0,0,1,.219.5"/><path d="M52.305,45.085a.843.843,0,0,1-.9.771c-.611,0-.849.057-1.035.231a1.226,1.226,0,0,0-.319.967.843.843,0,0,1-.9.771.97.97,0,0,1-.68-.266.691.691,0,0,1,0-1.009.97.97,0,0,1,.68-.266c.639,0,.854-.054,1.044-.241a1.234,1.234,0,0,0,.31-.958.711.711,0,0,1,.219-.5,1,1,0,0,1,1.361,0,.714.714,0,0,1,.218.5"/><path d="M59.6,39.137a.843.843,0,0,1-.9.77c-.611,0-.849.057-1.036.231a1.231,1.231,0,0,0-.318.968.843.843,0,0,1-.9.771.967.967,0,0,1-.681-.267.692.692,0,0,1,0-1.008.97.97,0,0,1,.681-.266c.638,0,.854-.054,1.043-.242a1.225,1.225,0,0,0,.311-.957.707.707,0,0,1,.219-.5,1,1,0,0,1,1.36,0,.707.707,0,0,1,.219.5"/><path d="M59.613,41.16a.843.843,0,0,1-.9.771c-.611,0-.849.056-1.035.23a1.229,1.229,0,0,0-.319.968.843.843,0,0,1-.9.771.966.966,0,0,1-.68-.267.689.689,0,0,1,0-1.008.97.97,0,0,1,.68-.266c.639,0,.854-.054,1.043-.242a1.225,1.225,0,0,0,.311-.957.711.711,0,0,1,.219-.5,1,1,0,0,1,1.36,0,.711.711,0,0,1,.219.5"/><path d="M69.082,39.194a.843.843,0,0,1-.9.771c-.611,0-.85.057-1.036.23a1.233,1.233,0,0,0-.318.968.843.843,0,0,1-.9.771.968.968,0,0,1-.68-.266.691.691,0,0,1,0-1.009.968.968,0,0,1,.68-.266c.638,0,.854-.054,1.043-.242a1.225,1.225,0,0,0,.311-.957.709.709,0,0,1,.219-.5,1,1,0,0,1,1.36,0,.709.709,0,0,1,.219.5"/><path d="M69.077,41.158a.843.843,0,0,1-.9.771c-.611,0-.849.056-1.035.23a1.229,1.229,0,0,0-.319.968.843.843,0,0,1-.9.771.97.97,0,0,1-.68-.266.691.691,0,0,1,0-1.009.97.97,0,0,1,.68-.266c.639,0,.854-.054,1.043-.242a1.222,1.222,0,0,0,.311-.957.711.711,0,0,1,.219-.505,1,1,0,0,1,1.36,0,.709.709,0,0,1,.219.5"/><path d="M69.082,43.132a.843.843,0,0,1-.9.771c-.611,0-.849.057-1.035.23a1.229,1.229,0,0,0-.319.968.843.843,0,0,1-.9.771.968.968,0,0,1-.68-.266.691.691,0,0,1,0-1.009.968.968,0,0,1,.68-.266c.638,0,.853-.054,1.043-.242a1.222,1.222,0,0,0,.311-.957.711.711,0,0,1,.219-.5,1,1,0,0,1,1.36,0,.711.711,0,0,1,.219.5"/><path d="M36.719,41.117a.843.843,0,0,1-.9.771c-.611,0-.849.057-1.036.23a1.233,1.233,0,0,0-.318.968.843.843,0,0,1-.9.771.97.97,0,0,1-.68-.266.691.691,0,0,1,0-1.009.97.97,0,0,1,.68-.266c.638,0,.854-.054,1.044-.241a1.234,1.234,0,0,0,.31-.958.711.711,0,0,1,.219-.5,1,1,0,0,1,1.36,0,.711.711,0,0,1,.219.5"/><path d="M38.972,39.149a.844.844,0,0,1-.9.771c-.61,0-.849.056-1.035.23a1.231,1.231,0,0,0-.318.968.844.844,0,0,1-.9.771.966.966,0,0,1-.68-.266.691.691,0,0,1,0-1.009.966.966,0,0,1,.68-.266c.638,0,.854-.054,1.043-.242a1.222,1.222,0,0,0,.31-.957.7.7,0,0,1,.22-.5,1,1,0,0,1,1.36,0,.707.707,0,0,1,.219.5"/><path d="M69.088,39.232a.843.843,0,0,1-.9.77.966.966,0,0,1-.681-.266.693.693,0,0,1,0-1.009,1,1,0,0,1,1.361,0,.711.711,0,0,1,.219.505"/><path d="M71.325,43.171a.843.843,0,0,1-.9.77.966.966,0,0,1-.68-.266.689.689,0,0,1,0-1.008,1,1,0,0,1,1.361,0,.71.71,0,0,1,.218.5"/><path d="M71.8,45.14a.707.707,0,0,1,.219-.5,1,1,0,0,1,1.36,0,.707.707,0,0,1,.219.5.843.843,0,0,1-.9.77.97.97,0,0,1-.68-.266.707.707,0,0,1-.219-.5"/><path d="M73.594,47.109a.843.843,0,0,1-.9.77.97.97,0,0,1-.68-.265.692.692,0,0,1,0-1.01,1,1,0,0,1,1.36,0,.711.711,0,0,1,.219.505"/><path d="M73.594,49.064a.843.843,0,0,1-.9.77.966.966,0,0,1-.68-.266.691.691,0,0,1,0-1.009,1,1,0,0,1,1.36,0,.711.711,0,0,1,.219.505"/><path d="M66.851,49.078a.843.843,0,0,1-.9.77.969.969,0,0,1-.679-.265.692.692,0,0,1,0-1.01,1,1,0,0,1,1.36,0,.709.709,0,0,1,.219.5"/><path d="M59.609,39.135a.843.843,0,0,1-.9.771.963.963,0,0,1-.68-.267.687.687,0,0,1,0-1.008,1,1,0,0,1,1.36,0,.709.709,0,0,1,.219.5"/><path d="M61.873,49.076a.843.843,0,0,1-.9.771.971.971,0,0,1-.681-.267.692.692,0,0,1,0-1.008,1,1,0,0,1,1.361,0,.709.709,0,0,1,.219.5"/><path d="M59.632,47.162a.843.843,0,0,1-.9.771.975.975,0,0,1-.681-.266.691.691,0,0,1,0-1.009,1,1,0,0,1,1.36,0,.709.709,0,0,1,.219.5"/><path d="M59.609,45.178a.843.843,0,0,1-.9.77.966.966,0,0,1-.68-.266.687.687,0,0,1,0-1.008,1,1,0,0,1,1.36,0,.707.707,0,0,1,.219.5"/><path d="M29.942,49.076a.843.843,0,0,1-.9.771.971.971,0,0,1-.681-.267.692.692,0,0,1,0-1.008,1,1,0,0,1,1.361,0,.709.709,0,0,1,.219.5"/><path d="M27.7,47.162a.843.843,0,0,1-.9.771.972.972,0,0,1-.68-.266.691.691,0,0,1,0-1.009,1,1,0,0,1,1.36,0,.709.709,0,0,1,.219.5"/><path d="M27.678,45.178a.843.843,0,0,1-.9.77.968.968,0,0,1-.68-.266.689.689,0,0,1,0-1.008,1,1,0,0,1,1.36,0,.707.707,0,0,1,.219.5"/><path d="M46.023,49.065a.711.711,0,0,1,.219-.5,1,1,0,0,1,1.361,0,.71.71,0,0,1,.218.5.843.843,0,0,1-.9.77.968.968,0,0,1-.68-.266.711.711,0,0,1-.219-.5"/><path d="M45.552,47.1a.843.843,0,0,1-.9.771.975.975,0,0,1-.681-.266.692.692,0,0,1,0-1.01,1,1,0,0,1,1.361,0,.714.714,0,0,1,.218.5"/><path d="M43.754,45.126a.711.711,0,0,1,.219-.5,1,1,0,0,1,1.36,0,.711.711,0,0,1,.219.5.843.843,0,0,1-.9.77.97.97,0,0,1-.68-.266.711.711,0,0,1-.219-.5"/><path d="M43.754,43.171a.709.709,0,0,1,.219-.5,1,1,0,0,1,1.36,0,.709.709,0,0,1,.219.5.843.843,0,0,1-.9.771.971.971,0,0,1-.68-.267.707.707,0,0,1-.219-.5"/><path d="M50.5,43.157a.709.709,0,0,1,.219-.5,1,1,0,0,1,1.361,0,.708.708,0,0,1,.218.5.843.843,0,0,1-.9.771.974.974,0,0,1-.68-.266.711.711,0,0,1-.219-.505"/><path d="M41.223,43.171a.843.843,0,0,1-.9.77.97.97,0,0,1-.681-.266.692.692,0,0,1,0-1.008,1,1,0,0,1,1.361,0,.707.707,0,0,1,.219.5"/><path d="M36.739,47.109a.866.866,0,0,1-.921.792.989.989,0,0,1-.7-.273.712.712,0,0,1,0-1.039,1.026,1.026,0,0,1,1.392,0,.733.733,0,0,1,.225.52"/><path d="M36.717,49.078a.843.843,0,0,1-.9.77.974.974,0,0,1-.681-.265.694.694,0,0,1,0-1.01,1,1,0,0,1,1.361,0,.709.709,0,0,1,.219.5"/><path d="M27.678,39.135a.843.843,0,0,1-.9.771.964.964,0,0,1-.68-.267.689.689,0,0,1,0-1.008,1,1,0,0,1,1.36,0,.709.709,0,0,1,.219.5"/><path d="M27.676,41.142a.843.843,0,0,1-.9.77c-.611,0-.849.057-1.036.23a1.235,1.235,0,0,0-.318.969.843.843,0,0,1-.9.77.966.966,0,0,1-.68-.266.689.689,0,0,1,0-1.008.969.969,0,0,1,.68-.267c.638,0,.854-.054,1.043-.241a1.225,1.225,0,0,0,.311-.957.711.711,0,0,1,.219-.505,1,1,0,0,1,1.36,0,.711.711,0,0,1,.219.505"/><path d="M27.689,43.167a.843.843,0,0,1-.9.771c-.611,0-.85.057-1.036.23a1.233,1.233,0,0,0-.318.968.844.844,0,0,1-.9.771.972.972,0,0,1-.68-.266.691.691,0,0,1,0-1.009.968.968,0,0,1,.68-.266c.638,0,.854-.054,1.043-.242a1.225,1.225,0,0,0,.311-.957.707.707,0,0,1,.219-.505,1,1,0,0,1,1.36,0,.711.711,0,0,1,.219.505"/><path d="M36.716,45.137a.843.843,0,0,1-.9.771c-.611,0-.849.057-1.036.23a1.233,1.233,0,0,0-.318.968.843.843,0,0,1-.9.771.968.968,0,0,1-.68-.266.691.691,0,0,1,0-1.009.968.968,0,0,1,.68-.266c.638,0,.854-.054,1.043-.242a1.222,1.222,0,0,0,.311-.957.713.713,0,0,1,.219-.505,1,1,0,0,1,1.36,0,.713.713,0,0,1,.219.505"/><path d="M52.3,45.126a.843.843,0,0,1-.9.77c-.611,0-.849.058-1.035.231a1.229,1.229,0,0,0-.319.968.843.843,0,0,1-.9.77.972.972,0,0,1-.68-.265.691.691,0,0,1,0-1.009.968.968,0,0,1,.68-.266c.638,0,.854-.054,1.043-.242a1.223,1.223,0,0,0,.311-.957.707.707,0,0,1,.219-.5,1,1,0,0,1,1.36,0,.707.707,0,0,1,.219.5"/><path d="M52.305,47.1a.843.843,0,0,1-.9.77c-.611,0-.849.058-1.035.231a1.229,1.229,0,0,0-.319.968.843.843,0,0,1-.9.771.97.97,0,0,1-.68-.266.691.691,0,0,1,0-1.009.97.97,0,0,1,.68-.266c.639,0,.854-.054,1.044-.242a1.229,1.229,0,0,0,.31-.957.707.707,0,0,1,.219-.5,1,1,0,0,1,1.361,0,.71.71,0,0,1,.218.5"/><path d="M59.6,41.146a.843.843,0,0,1-.9.771c-.611,0-.849.056-1.036.23a1.233,1.233,0,0,0-.318.968.843.843,0,0,1-.9.771.967.967,0,0,1-.681-.267.692.692,0,0,1,0-1.008.97.97,0,0,1,.681-.266c.638,0,.854-.054,1.043-.242a1.225,1.225,0,0,0,.311-.957.707.707,0,0,1,.219-.5,1,1,0,0,1,1.36,0,.707.707,0,0,1,.219.5"/><path d="M59.613,43.17a.843.843,0,0,1-.9.771c-.611,0-.849.056-1.035.23a1.229,1.229,0,0,0-.319.968.843.843,0,0,1-.9.771.966.966,0,0,1-.68-.267.689.689,0,0,1,0-1.008.97.97,0,0,1,.68-.266c.639,0,.854-.054,1.043-.242a1.225,1.225,0,0,0,.311-.957.709.709,0,0,1,.219-.5,1,1,0,0,1,1.36,0,.709.709,0,0,1,.219.5"/><path d="M69.082,41.2a.843.843,0,0,1-.9.771c-.611,0-.85.057-1.036.23a1.233,1.233,0,0,0-.318.968.843.843,0,0,1-.9.771.968.968,0,0,1-.68-.266.691.691,0,0,1,0-1.009.968.968,0,0,1,.68-.266c.638,0,.854-.054,1.043-.242a1.225,1.225,0,0,0,.311-.957.707.707,0,0,1,.219-.5,1,1,0,0,1,1.36,0,.707.707,0,0,1,.219.5"/><path d="M69.077,43.168a.843.843,0,0,1-.9.771c-.611,0-.849.056-1.035.23a1.229,1.229,0,0,0-.319.968.843.843,0,0,1-.9.771.97.97,0,0,1-.68-.266.691.691,0,0,1,0-1.009.97.97,0,0,1,.68-.266c.639,0,.854-.054,1.043-.242a1.222,1.222,0,0,0,.311-.957.707.707,0,0,1,.219-.5,1,1,0,0,1,1.36,0,.709.709,0,0,1,.219.5"/><path d="M69.082,45.142a.843.843,0,0,1-.9.77c-.611,0-.849.058-1.035.231a1.227,1.227,0,0,0-.319.968.843.843,0,0,1-.9.771.968.968,0,0,1-.68-.266.691.691,0,0,1,0-1.009.968.968,0,0,1,.68-.266c.638,0,.853-.054,1.043-.242a1.223,1.223,0,0,0,.311-.957.709.709,0,0,1,.219-.5,1,1,0,0,1,1.36,0,.709.709,0,0,1,.219.5"/><path d="M36.719,43.126a.843.843,0,0,1-.9.771c-.611,0-.849.057-1.036.23a1.233,1.233,0,0,0-.318.968.843.843,0,0,1-.9.771.974.974,0,0,1-.68-.266.691.691,0,0,1,0-1.009.97.97,0,0,1,.68-.266c.638,0,.854-.054,1.044-.241a1.234,1.234,0,0,0,.31-.958.709.709,0,0,1,.219-.5,1,1,0,0,1,1.36,0,.709.709,0,0,1,.219.5"/><path d="M38.972,41.159a.844.844,0,0,1-.9.771c-.61,0-.849.056-1.035.23a1.233,1.233,0,0,0-.318.968.844.844,0,0,1-.9.771.966.966,0,0,1-.68-.266.691.691,0,0,1,0-1.009.966.966,0,0,1,.68-.266c.638,0,.854-.054,1.043-.242a1.222,1.222,0,0,0,.31-.957.7.7,0,0,1,.22-.5,1,1,0,0,1,1.36,0,.707.707,0,0,1,.219.5"/><path d="M70.047,37.026a.5.5,0,1,1,.5.486.485.485,0,0,1-.5-.486m.5.4a.4.4,0,1,0-.4-.4.393.393,0,0,0,.4.4m-.1-.124h-.085v-.559h.214c.133,0,.2.049.2.159a.146.146,0,0,1-.146.154l.16.246h-.095l-.149-.242h-.1Zm.1-.314c.072,0,.137-.005.137-.091,0-.069-.063-.082-.123-.082H70.44v.173Z"/></g></g></svg>