<svg xmlns="http://www.w3.org/2000/svg" xmlns:xlink="http://www.w3.org/1999/xlink" viewBox="0 0 97.219 86.203"><defs><clipPath id="a"><rect x="16.46" y="32.514" width="66.299" height="17.175" fill="none"/></clipPath></defs><g><rect width="97.219" height="86.203" fill="none"/><g clip-path="url(#a)"><path d="M49.114,39.26h.544v1.519c.374.037.814,0,1.214.016v.538h-1.2c-.036,1.83-.005,3.728-.016,5.584h-.575v-7.61a.042.042,0,0,1,.031-.047"/><path d="M64.265,39.26a3.914,3.914,0,0,1,.56.016V40.8h1.2v.538h-1.2v5.584h-.576v-7.61c0-.022,0-.044.016-.047"/><rect x="24.102" y="39.276" width="0.576" height="0.696"/><rect x="34.881" y="39.276" width="0.576" height="0.696"/><path d="M51.339,39.276h.56v7.642h-.576V39.323c0-.022,0-.044.016-.047"/><rect x="66.598" y="39.276" width="0.576" height="0.696"/><path d="M73.069,42.124a2.79,2.79,0,0,0-2.271-.9,2.289,2.289,0,0,0-1.867,1.329,3.033,3.033,0,0,0,.031,2.611,2.387,2.387,0,0,0,1.914,1.281,2.632,2.632,0,0,0,2.193-.933,1.488,1.488,0,0,1,.358.348,3.037,3.037,0,0,1-5.413-2.009,3.353,3.353,0,0,1,.855-2.263,2.848,2.848,0,0,1,2.162-.933,3.224,3.224,0,0,1,2.194.854,1.58,1.58,0,0,1,.2.221c0,.1-.325.3-.358.4"/><path d="M29.173,42.5a2.623,2.623,0,0,0-.218,1.266A2.237,2.237,0,0,0,30.993,45.9a2.33,2.33,0,0,0,2.566-2.135,2.189,2.189,0,0,0-.7-1.852,2.322,2.322,0,0,0-1.882-.648,2.134,2.134,0,0,0-1.8,1.234m2.3,6.186h-.4a4.22,4.22,0,0,1-2.458-.934c.085-.176.219-.3.311-.474a3.614,3.614,0,0,0,3.251.712c1.072-.37,1.472-1.358,1.4-2.9a2.787,2.787,0,0,1-2.427,1.376,2.757,2.757,0,0,1-1.991-.839,2.922,2.922,0,0,1,1.96-4.952,2.785,2.785,0,0,1,2.458,1.329V40.794h.56c-.058,1.752.085,3.653-.016,5.253a2.625,2.625,0,0,1-2.644,2.642"/><path d="M41.321,46.917h-.576c-.151-2.457.7-5.687-1.851-5.7a2.023,2.023,0,0,0-2.053,1.851,34.676,34.676,0,0,0-.078,3.845h-.575V40.794h.575v1.171a2.49,2.49,0,0,1,2.1-1.282,2.312,2.312,0,0,1,1.649.507,2.272,2.272,0,0,1,.747,1.424c.211,1.223-.029,2.855.062,4.3"/><path d="M63.534,46.917h-.576c-.055-1.25.081-2.683-.015-3.845a1.766,1.766,0,0,0-1.976-1.851,2.062,2.062,0,0,0-1.928,1.9c-.2,1.118.023,2.494-.063,3.8H58.4V40.794h.575v1.171a2.5,2.5,0,0,1,2.116-1.282,2.137,2.137,0,0,1,2.38,1.947c.2,1.233-.022,2.853.062,4.287"/><path d="M28.691,40.731v.617a2.453,2.453,0,0,0-2.411,1.677c-.383,1-.187,2.505-.233,3.892h-.576V40.794h.576V42.44a2.822,2.822,0,0,1,2.644-1.709"/><path d="M43.966,45.129a1.35,1.35,0,0,0,.591,1.092,2.355,2.355,0,0,0,2.986-.585,3.337,3.337,0,0,0,.312-1.962c-1.76.028-3.921-.325-3.889,1.455M48.4,46.917h-.56V46a2.761,2.761,0,0,1-2.224,1.06,2.01,2.01,0,0,1-2.24-1.93,1.986,1.986,0,0,1,.4-1.25c.748-.88,2.409-.749,4.044-.743a1.6,1.6,0,0,0-1.664-1.851,4.439,4.439,0,0,0-2.131.458c-.05-.17-.145-.3-.187-.474a4.9,4.9,0,0,1,1.929-.538c1.446-.078,2.409.531,2.6,1.788A15.84,15.84,0,0,1,48.4,44.7v2.215"/><path d="M53.221,45.129a1.4,1.4,0,0,0,.14.586c.6,1.174,2.736.988,3.437-.079a3.4,3.4,0,0,0,.312-1.962c-1.756.028-3.926-.325-3.889,1.455m4.433,1.788h-.56V46a2.733,2.733,0,0,1-2.209,1.06,2.35,2.35,0,0,1-1.8-.712,2.063,2.063,0,0,1-.062-2.452c.743-.907,2.46-.761,4.075-.759.058-1.388-.865-1.936-2.209-1.851a5.067,5.067,0,0,0-1.6.458c-.05-.17-.145-.3-.187-.474a4.9,4.9,0,0,1,1.929-.538,2.249,2.249,0,0,1,2.458,1.25,6.981,6.981,0,0,1,.171,2.389Z"/><path d="M17.46,40.81v-.016h.653c.842,1.765,1.6,3.611,2.411,5.411.8-1.8,1.568-3.616,2.365-5.411H23.5c.032.057-.027.115-.046.158-.881,1.987-1.788,3.988-2.66,5.965h-.545c-.929-2.034-1.849-4.078-2.784-6.107"/><path d="M24.118,40.8h.56v6.123H24.1V40.842c0-.022,0-.044.016-.047"/><path d="M34.9,40.8h.56v6.123h-.576V40.842c0-.022,0-.044.016-.047"/><path d="M66.614,40.8h.56v6.123H66.6V40.842c0-.022,0-.044.016-.047"/><path d="M71.211,38.773c.955-1.049,3.541-3.893,3.98-4.413a2.9,2.9,0,0,1,1.676-.726l.059-.117a3.069,3.069,0,0,0-1.833.757c-.452.534-3.185,3.539-4.061,4.5.056,0,.116,0,.179,0"/><path d="M74.093,39.741c1.878,1.273,2.673,1.666,4.376,1.265l3.29-7.492H76.935a2.949,2.949,0,0,0-1.719.75c-.457.539-3.2,3.554-4.069,4.509a5.156,5.156,0,0,1,2.946.968"/><path d="M78.1,35.706a.219.219,0,0,1,.24-.2c.246.053-.188.467-.24.2m-.289,1.457c0-.178.063-.367.076-.512a1.846,1.846,0,0,1,.118-.483c.046-.094.241-.142.22-.022.019-.007.014.068.005.083s-.013.024-.01.035-.021.082-.013.088h0s-.006,0-.006,0c.015.015-.014.016,0,.031-.024.018-.013.081-.012.084s-.021.043,0,.054c-.023.206-.055.274-.072.54-.022.094-.258.255-.308.1m2.237-.484c-.05.288-.684.295-.973.475a13.948,13.948,0,0,0-1.41.707c-.071.026-.116.09-.174.108l0,.007a3.6,3.6,0,0,0-.068.624c-.029.136-.021.31-.046.376a1.777,1.777,0,0,0,.031.642c0,.011-.022.026-.012.04-.039,0-.03.006,0,.013-.057.02,0,.062,0,.07,0-.017.01.005.017.01-.048,0,.015.007,0,.034-.006-.017-.018.022-.027.054.012,0,.009.02.016.008-.01.022.01.032.021.027.01.135-.313.341-.381.033.007-.579.112-1.156.141-1.74a11.816,11.816,0,0,0-1.038.717v0c-.333.252-.611.549-.926.82-.835.017.547-.865.741-1.038.021,0,.048-.041.06-.034,0-.01.021-.008.018-.018.161-.106.318-.243.475-.326.064-.054.159-.1.228-.151.014-.009.039-.017.047-.03.1-.053.2-.142.306-.2.107-.04.166-.168.106-.242a.46.46,0,0,1-.413.073.236.236,0,0,1-.055-.037v0a.3.3,0,0,1-.067-.218,2.421,2.421,0,0,1,.117-.688.674.674,0,0,1,.114-.185c.069-.1.281-.264.37-.141a.244.244,0,0,1-.062.166c-.015.012-.046.023-.05.055h0c0,.01-.006.008-.013.013a.029.029,0,0,0-.015.03l-.008.011c-.285.324-.074,1.234.172.351h0a6.052,6.052,0,0,1,.137-.743c.106-.118.3-.04.252.1,0,.079-.035.208-.032.251a2.962,2.962,0,0,0-.058.359,2.744,2.744,0,0,0-.051.386c-.106.369.173.075.384-.005h0c.028-.022.065-.03.093-.052h0c.356-.184.743-.346,1.114-.551-.162-.178,0-.461-.009-.669.07-.313-.2-.167-.285-.037a.89.89,0,0,1-.06.177,3.777,3.777,0,0,0-.065.5c-.051.245-.42.273-.294-.116.076-.28-.042-.9.413-.827.053.039.14-.012.172-.054.388-.348.441-.015.433.189a1.008,1.008,0,0,0-.045.411c-.038.048,0,.126-.015.2.026.014.013.043.053.068v0c.052.017.105-.021.155-.035s.1-.043.152-.07a.311.311,0,0,1,.252-.021c.012-.021.079.083.072.116m-3.82.117,0,0c.168.02.321-.2.4.026,0,.016-.013.048-.006.059-.025.074-.1.1-.165.15-.008.01-.025.016-.037.029a.56.56,0,0,0-.148.3l0,0,0,0a.429.429,0,0,1-.013.1l0,.011c-.014.063-.015.121-.023.186.011.154-.107.349-.284.324a.136.136,0,0,1-.028-.021,1.415,1.415,0,0,1,.04-.6c.046-.2-.012-.535.259-.573,0,0,.007,0,0,0m-.468.346c-.057.237-.121.613-.168.892-.023.049,0,.166-.032.137-.369.346-.259-.266-.213-.459.005-.009,0-.022.006-.029.011-.144.038-.282.057-.424.028-.062.057-.159.129-.191.106-.1.206-.044.221.074m.178-.708a.242.242,0,0,1-.091.134l0,0c-.031.019-.076.043-.1.059-.006,0-.014,0-.014.009h-.007l0,0c-.015,0-.023.013-.037,0a.068.068,0,0,1-.064-.048c-.054-.113.163-.326.285-.262.018.009.014.056.029.072,0,.012,0,.021,0,.032m-.826.912a4.211,4.211,0,0,1,.22-.728,13.777,13.777,0,0,1,.62-1.489.847.847,0,0,1,.119-.2c-.009-.007.009-.01.006-.014a1.141,1.141,0,0,1,.251-.252c.062-.1.148-.255.035-.379-.707-.5-1.55,3.153-1.7,3.72-.011.046-.008,0-.027.009a2.583,2.583,0,0,0-.025-.337,2.093,2.093,0,0,0-.032-.471,1.574,1.574,0,0,1-.037-.291.236.236,0,0,0-.011-.133c-.047-1.287-.459-.352-.668.255,0,.006-.013.008-.006.019-.019.043-.045.1-.069.15h0c-.245.372.119.524.227.142a1.839,1.839,0,0,0,.091-.225,1.569,1.569,0,0,1,.1-.17c.084.037.03.146.07.219.019.33.047.664.065.986.018.231.025.386.051.6,0,.023.006.048,0,.064,0,.051.009.125.017.175.01.1,0,.351.2.29.133-.076.113-.288.165-.425.014-.094.036-.181.053-.274h0c.022-.1.039-.215.064-.314a.969.969,0,0,1,.039-.146c.035,0,0-.151.039-.2h0c.064-.066.028-.129.035-.2.047-.124.057-.267.1-.378" fill="#fff"/></g></g></svg>